<?xml version="1.0" standalone="no"?><!DOCTYPE svg PUBLIC "-//W3C//DTD SVG 1.1//EN" "http://www.w3.org/Graphics/SVG/1.1/DTD/svg11.dtd" ><svg xmlns="http://www.w3.org/2000/svg"><metadata></metadata><defs><font id="1.000;UKWN;SJbangshu-Regular" horiz-adv-x="1000"><font-face font-family="榜书字体" font-weight="400" font-stretch="normal" units-per-em="1000" panose-1="0 0 5 0 0 0 0 0 0 0" ascent="950" descent="-278" x-height="0" bbox="-75 -241 1013 850" underline-thickness="50" underline-position="-75" unicode-range="U+0020-ff5e" /><missing-glyph horiz-adv-x="500" d="M410 850 l0 -1000 l-317 0 l0 1000 l317 0 ZM333 783 l-165 0 l0 -33 l65 0 l0 -37 l-66 0 l0 -33 l166 0 l0 33 l-66 0 l0 37 l66 0 l0 33 ZM267 654 l-100 0 l0 -104 l166 0 l0 34 l-66 0 l0 70 ZM233 620 l0 -36 l-33 0 l0 36 l33 0 ZM333 523 l-166 0 l0 -33 l66 0 l0 -37 l-66 0 l0 -33 l100 0 l0 70 l66 0 l0 33 ZM333 463 l-33 0 l0 -66 l-133 0 l0 -34 l166 0 l0 100 ZM333 341 l-100 0 l0 -56 l34 0 l0 23 l33 0 l0 -47 l-100 0 l0 80 l-33 0 l0 -113 l166 0 l0 113 ZM333 168 l-166 0 l0 -113 l166 0 l0 113 ZM300 135 l0 -47 l-100 0 l0 47 l100 0 ZM333 32 l-166 0 l0 -33 l70 0 l-70 -47 l0 -33 l166 0 l0 33 l-102 0 l70 47 l32 0 l0 33 Z" /><glyph glyph-name="A" unicode="A" d="M635 26 q3 -20 -7.5 -31.5 q-10.5 -11.5 -25.5 -11.5 q-10 0 -18 6 l-19 15 q-18 14 -27 19 q-24 12 -22 32 q1 9 -76.5 215.5 q-77.5 206.5 -118.5 311.5 l-60 -156 l-53 -141 q78 2 139 12 q12 2 19 2 q24 0 33 -13 q8 -14 12.5 -24.5 q4.5 -10.5 10.5 -31.5 q1 -4 1 -10 q0 -16 -22 -16 q-10 0 -16 1 q-21 3 -45 3 q-21 0 -81 -5 l-31 -3 q-16 -1 -32.5 -5 q-16.5 -4 -21.5 -3 q-48 -129 -47 -136 q2 -20 -22 -32 q-9 -5 -27 -19 l-19 -15 q-7 -6 -18 -6 q-15 0 -25.5 11.5 q-10.5 11.5 -7.5 31.5 q4 27 12 50 q8 23 21 55 l11 26 l189 501 q7 38 42 41 l4 0 q2 1 8 1 l3 0 q32 2 50 1 q11 0 21 -4 q27 -7 33 -40 l189 -501 l11 -26 q13 -32 21 -55 q8 -23 12 -50 Z" /><glyph glyph-name="B" unicode="B" d="M474 369 q53 -26 79.5 -68 q26.5 -42 26.5 -93 q0 -115 -66.5 -165.5 q-66.5 -50.5 -188.5 -50.5 l-90 -1 l-25 -1 q-6 0 -10 2 q-4 2 -8 8 q-19 29 -32 59 q-1 -13 -7 -41 q-4 -16 -13.5 -23.5 q-9.5 -7.5 -21.5 -7.5 q-9 0 -17 4 q-8 4 -12 11 l-17 29 q-11 20 -14 23 q-12 13 -12 26 q0 6 4 14 q5 10 5 350 l0 158 q0 31 -3 51 q-3 20 -11 42 q-2 5 2 10 q4 5 14 5 q9 0 20 -4 q19 -7 36 -16 l28 0 l194 0 q105 0 151.5 -55.5 q46.5 -55.5 46.5 -133.5 q0 -86 -59 -132 ZM446 501 q0 52 -27 75.5 q-27 23.5 -84 23.5 l-172 -1 l0 -192 l9 0 l103 0 q67 0 103.5 8.5 q36.5 8.5 52 29 q15.5 20.5 15.5 56.5 ZM325 82 q69 0 118.5 28.5 q49.5 28.5 49.5 97.5 q0 55 -56.5 82 q-56.5 27 -156.5 27 l-5 0 l-103 -1 l-9 0 l0 -153 l0 -36 q0 -26 -1 -40 q4 1 9 0 q25 -5 64 -5 l90 0 Z" /><glyph glyph-name="C" unicode="C" d="M611 200 q3 -7 3 -17 q0 -12 -4 -19 q-33 -65 -90.5 -115.5 q-57.5 -50.5 -170.5 -50.5 q-82 0 -155 36 q-73 36 -120 114.5 q-47 78.5 -47 199.5 q0 121 47 199.5 q47 78.5 120 114.5 q73 36 155 36 q78 0 130.5 -32.5 q52.5 -32.5 65 -49.5 q12.5 -17 55.5 -84 q4 -5 4 -19 q0 -9 -3 -17 l-13 -28 q-4 -8 -11.5 -13 q-7.5 -5 -16.5 -5 q-19 0 -28 23 q-26 67 -69 98.5 q-43 31.5 -114 31.5 q-47 0 -98 -20 q-51 -20 -90 -76.5 q-39 -56.5 -39 -158.5 q0 -102 39 -158.5 q39 -56.5 90 -76.5 q51 -20 98 -20 q73 0 120 32.5 q47 32.5 73 97.5 q9 23 28 23 q9 0 16.5 -5 q7.5 -5 11.5 -13 l13 -28 Z" /><glyph glyph-name="D" unicode="D" d="M307 697 q79 -4 147.5 -41.5 q68.5 -37.5 111.5 -114.5 q43 -77 43 -193 q0 -116 -43 -193 q-43 -77 -111.5 -114.5 q-68.5 -37.5 -147.5 -41.5 l-58 -1 l-26 -1 q-6 0 -10.5 2.5 q-4.5 2.5 -8.5 8.5 q-22 35 -34 62 q-4 8 -4 17 q0 6 4 9.5 q4 3.5 12 2.5 q40 -5 67 -5 l58 0 q79 6 143 63 q64 57 64 191 q0 134 -64 191 q-64 57 -143 63 q-4 1 -144 1 l0 -440 l0 -40 q0 -63 -10 -105 q-4 -16 -13.5 -23.5 q-9.5 -7.5 -21.5 -7.5 q-9 0 -17 4 q-8 4 -12 11 l-17 29 q-11 20 -14 23 q-12 13 -12 26 q0 6 4 14 q5 10 5 350 l0 158 q0 31 -3 51 q-3 20 -11 42 q-2 5 2 10 q4 5 14 5 q9 0 20 -4 q4 -2 9.5 -3.5 q5.5 -1.5 10.5 -4.5 q205 0 210 -1 Z" /><glyph glyph-name="E" unicode="E" d="M570 12 q1 -4 1 -10 q0 -24 -23 -24 q-9 0 -22 5 q-31 12 -70 16 q-50 6 -123 6 q-92 0 -154 -10 q-12 -2 -20.5 -4 q-8.5 -2 -14.5 -3 q-10 -12 -26 -12 q-19 0 -29 15 l-17 29 q-11 20 -14 23 q-12 13 -12 26 q0 6 4 14 q5 10 5 358 l0 161 q0 31 -3 51 q-3 20 -11 42 q-2 5 2 10 q4 5 14 5 q9 0 20 -4 q17 -6 43 -19 q32 -3 66 -3 q44 0 100.5 4 q56.5 4 108.5 9 q26 3 74 7 q20 2 37 -1.5 q17 -3.5 23 -13.5 q11 -17 16 -28 q5 -11 10 -32 q1 -4 1 -11 q0 -25 -25 -25 q-11 0 -20 4 q-34 11 -70 13 q-48 2 -69 2 q-92 0 -193 -15 l-16 -3 l0 -186 q38 -1 87.5 1 q49.5 2 66.5 3 q73 5 129 5 q46 0 56 -18 q9 -16 13.5 -27 q4.5 -11 7.5 -32 q1 -3 1 -9 q0 -22 -22 -22 q-10 0 -21 4 q-31 11 -67 15 q-48 6 -107 6 q-71 0 -129 -10 l-15 -3 l0 -169 l0 -21 q0 -7 0.5 -19 q0.5 -12 -0.5 -30 q20 -1 61 -1 q78 0 210 8 l55 3 q20 1 36.5 -3.5 q16.5 -4.5 22.5 -14.5 q10 -17 14 -28 q4 -11 8 -34 Z" /><glyph glyph-name="F" unicode="F" d="M555 629 q1 -4 1 -11 q0 -25 -25 -25 q-11 0 -20 4 q-34 11 -70 13 q-48 2 -69 2 q-92 0 -193 -15 l-16 -3 l0 -186 q38 -1 87.5 1 q49.5 2 66.5 3 q73 5 129 5 q46 0 56 -18 q9 -16 13.5 -27 q4.5 -11 7.5 -32 q1 -3 1 -9 q0 -22 -22 -22 q-10 0 -21 4 q-31 11 -67 15 q-48 6 -107 6 q-71 0 -129 -10 l-15 -3 l0 -169 l0 -40 q0 -63 -10 -105 q-4 -16 -13.5 -23.5 q-9.5 -7.5 -21.5 -7.5 q-9 0 -17 4 q-8 4 -12 11 l-17 29 q-11 20 -14 23 q-12 13 -12 26 q0 6 4 14 q5 10 5 358 l0 161 q0 31 -3 51 q-3 20 -11 42 q-2 5 2 10 q4 5 14 5 q9 0 20 -4 q17 -6 43 -19 q32 -3 66 -3 q44 0 100.5 4 q56.5 4 108.5 9 q26 3 74 7 q20 2 37 -1.5 q17 -3.5 23 -13.5 q11 -17 16 -28 q5 -11 10 -32 Z" /><glyph glyph-name="G" unicode="G" d="M309 354 q42 -3 78 -3 q55 0 150 7 l103 6 q0 -123 -40 -205 q-40 -82 -106 -121.5 q-66 -39.5 -145 -39.5 q-82 0 -155 36 q-73 36 -120 114.5 q-47 78.5 -47 199.5 q0 121 47 199.5 q47 78.5 120 114.5 q73 36 155 36 q78 0 130.5 -32.5 q52.5 -32.5 65 -49.5 q12.5 -17 55.5 -84 q4 -5 4 -19 q0 -9 -3 -17 l-13 -28 q-4 -8 -11.5 -13 q-7.5 -5 -16.5 -5 q-19 0 -28 23 q-26 67 -69 98.5 q-43 31.5 -114 31.5 q-47 0 -98 -20 q-51 -20 -90 -76.5 q-39 -56.5 -39 -158.5 q0 -102 39 -158.5 q39 -56.5 90 -76.5 q51 -20 98 -20 q63 0 118 37.5 q55 37.5 72 138.5 q-38 2 -46 2 q-30 0 -80 -9 q-16 -3 -28.5 -6 q-12.5 -3 -17.5 -3 q-6 0 -11.5 3 q-5.5 3 -13.5 12 q-20 22 -44 54 q-5 7 -5 17 q0 16 16 15 Z" /><glyph glyph-name="H" unicode="H" d="M534 152 l0 -40 q0 -63 -10 -105 q-4 -16 -13.5 -23.5 q-9.5 -7.5 -21.5 -7.5 q-9 0 -17 4 q-8 4 -12 11 l-17 29 q-11 20 -14 23 q-12 13 -12 26 q0 6 4 14 q3 6 5 217 q-11 0 -22 4 q-43 15 -67 15 q-34 0 -51.5 -2 q-17.5 -2 -63.5 -9 q-14 -2 -26 -5 q-12 -3 -17 -3 q-10 0 -22 13 l0 -161 l0 -40 q0 -63 -10 -105 q-4 -16 -13.5 -23.5 q-9.5 -7.5 -21.5 -7.5 q-9 0 -17 4 q-8 4 -12 11 l-17 29 q-11 20 -14 23 q-12 13 -12 26 q0 6 4 14 q5 10 5 358 l0 161 q0 31 -3 51 q-3 20 -11 42 q-2 5 2 10 q4 5 14 5 q9 0 20 -4 q17 -6 62 -28 q26 -13 26 -40 q0 -4 -2 -16 l0 -227 q27 -3 49 -3 q31 0 95 8 q41 6 68 8 q18 2 34 -3 q16 -5 22 -15 l1 -2 l0 214 q0 31 -3 51 q-3 20 -11 42 q-2 5 2 10 q4 5 14 5 q9 0 20 -4 q17 -6 62 -28 q26 -13 26 -40 q0 -4 -2 -16 l0 -470 Z" /><glyph glyph-name="I" unicode="I" d="M100 20 q-11 20 -14 23 q-12 13 -12 26 q0 6 4 14 q5 10 5 358 l0 161 q0 31 -3 51 q-3 20 -11 42 q-2 5 2 10 q4 5 14 5 q9 0 20 -4 q17 -6 62 -28 q26 -13 26 -40 q0 -4 -2 -16 l0 -470 l0 -40 q0 -63 -10 -105 q-4 -16 -13.5 -23.5 q-9.5 -7.5 -21.5 -7.5 q-9 0 -17 4 q-8 4 -12 11 l-17 29 Z" /><glyph glyph-name="J" unicode="J" d="M560 632 q1 -4 1 -11 q0 -25 -25 -25 q-11 0 -20 4 q-34 11 -70 13 q-38 2 -54 2 q1 -3 1 -11 q0 -9 -2 -15 l0 -430 q0 -78 -4 -109 q-4 -31 -21 -50 q-17 -19 -37.5 -32.5 q-20.5 -13.5 -38.5 -13.5 q-31 0 -46 40 q-13 35 -29.5 50.5 q-16.5 15.5 -33 24 q-16.5 8.5 -23.5 12.5 q-11 7 -11 11 q0 6 16 6 q6 0 39.5 -1 q33.5 -1 56 14.5 q22.5 15.5 22.5 47.5 l2 346 q0 70 -5 104 l-61 -9 q-13 -2 -26.5 -5.5 q-13.5 -3.5 -18.5 -3.5 q-6 0 -10.5 3 q-4.5 3 -12.5 11 q-10 10 -22 28 q-18 24 -28 34 q-5 5 -5 16 q0 17 15 14 q44 -9 106 -9 q34 0 51 1 q6 1 14 0 q42 3 128 11 q22 3 66 7 q20 2 37 -1.5 q17 -3.5 23 -13.5 q11 -17 16 -28 q5 -11 10 -32 Z" /><glyph glyph-name="K" unicode="K" d="M576 17 q7 -6 7 -10 q0 -4 -7 -4 q-6 0 -9 1 q-17 4 -32 4 q-24 0 -60 -16 q-9 -4 -22 -4 q-18 0 -35.5 9 q-17.5 9 -26.5 24 q-46 75 -89 167 q-43 92 -70 170 q-42 -32 -67 -49 l0 -157 l0 -40 q0 -63 -10 -105 q-4 -16 -13.5 -23.5 q-9.5 -7.5 -21.5 -7.5 q-9 0 -17 4 q-8 4 -12 11 l-17 29 q-11 20 -14 23 q-12 13 -12 26 q0 6 4 14 q5 10 5 358 l0 161 q0 31 -3 51 q-3 20 -11 42 q-2 5 2 10 q4 5 14 5 q9 0 20 -4 q17 -6 62 -28 q26 -13 26 -40 q0 -4 -2 -16 l0 -255 q48 52 114.5 127.5 q66.5 75.5 89.5 104.5 q17 21 24 40.5 q7 19.5 10 42.5 q1 7 2 19 q1 12 5.5 18.5 q4.5 6.5 15.5 6.5 q3 0 13 -2 q32 -8 46.5 -32.5 q14.5 -24.5 23.5 -51.5 q4 -12 -3.5 -20.5 q-7.5 -8.5 -23.5 -17.5 q-24 -36 -76.5 -89 q-52.5 -53 -112.5 -104 q76 -143 145 -238.5 q69 -95.5 138 -153.5 Z" /><glyph glyph-name="L" unicode="L" d="M33 716 q-3 5 1 10 q4 5 14 5 q18 0 33.5 -7.5 q15.5 -7.5 35.5 -21.5 q8 -6 24 -16 q11 -7 18.5 -15.5 q7.5 -8.5 7.5 -24.5 q0 -4 -2 -16 l0 -519 q0 -14 3 -18.5 q3 -4.5 16 -4.5 q84 0 235 18 q5 1 12.5 2 q7.5 1 18.5 1 q25 0 33 -11 q11 -16 17.5 -27.5 q6.5 -11.5 16.5 -36.5 q4 -8 4 -16 q0 -19 -28 -19 q-11 0 -17 1 q-46 7 -125 7 q-108 0 -188 -10 q-21 -2 -38.5 -9.5 q-17.5 -7.5 -22.5 -7.5 q-8 0 -16 10 l-14 16 q-22 26 -35 46 q-8 13 -8 24 q0 12 13 12 q5 0 8.5 14 q3.5 14 3.5 29 l3 415 q0 56 -4.5 97.5 q-4.5 41.5 -19.5 72.5 Z" /><glyph glyph-name="M" unicode="M" d="M712 156 l0 -40 q0 -63 -10 -105 q-4 -16 -13.5 -23.5 q-9.5 -7.5 -21.5 -7.5 q-9 0 -17 4 q-8 4 -12 11 l-17 29 q-11 20 -14 23 q-12 13 -12 26 q0 6 4 14 q5 9 5 396 q-53 -132 -105 -267 q-52 -135 -51 -140 q2 -17 -20 -29 q-5 -3 -22 -16 l-20 -15 q-7 -5 -16 -5 q-10 0 -17 5 l-20 15 q-17 13 -22 16 q-12 7 -15.5 13.5 q-3.5 6.5 -4.5 15.5 q-2 12 -131 312 q-2 6 -5 12.5 q-3 6.5 -6 13.5 l0 -258 l0 -40 q0 -63 -10 -105 q-4 -16 -13.5 -23.5 q-9.5 -7.5 -21.5 -7.5 q-9 0 -17 4 q-8 4 -12 11 l-17 29 q-11 20 -14 23 q-12 13 -12 26 q0 6 4 14 q5 10 5 358 l0 161 q0 31 -3 51 q-3 20 -11 42 q-2 5 2 10 q4 5 14 5 q9 0 20 -4 q17 -6 62 -28 q14 -7 21 -19 q5 -10 6 -18 l207 -476 l11 -24 l10 24 l210 530 q-2 5 2 10 q4 5 14 5 q9 0 20 -4 q17 -6 62 -28 q26 -13 26 -40 q0 -4 -2 -16 l0 -470 Z" /><glyph glyph-name="N" unicode="N" d="M624 156 l0 -40 q0 -63 -10 -105 q-4 -16 -13.5 -23.5 q-9.5 -7.5 -21.5 -7.5 q-9 0 -17 4 q-8 4 -12 11 l-17 29 q-11 20 -14 23 q-4 4 -8 12 q-4 5 -5 10.5 q-1 5.5 -1 6.5 q-2 12 -213 296 q-57 75 -86 116 l0 -332 l0 -40 q0 -63 -10 -105 q-4 -16 -13.5 -23.5 q-9.5 -7.5 -21.5 -7.5 q-9 0 -17 4 q-8 4 -12 11 l-17 29 q-11 20 -14 23 q-12 13 -12 26 q0 6 4 14 q5 10 5 358 l0 161 q0 31 -3 51 q-3 20 -11 42 q-2 5 2 10 q4 5 14 5 q9 0 20 -4 q17 -6 62 -28 q14 -7 21 -19 q5 -10 6 -18 l307 -401 l0 157 l0 205 q0 31 -3 51 q-3 20 -11 42 q-2 5 2 10 q4 5 14 5 q9 0 20 -4 q17 -6 62 -28 q26 -13 26 -40 q0 -4 -2 -16 l0 -470 Z" /><glyph glyph-name="O" unicode="O" d="M21 348 q0 122 44.5 200.5 q44.5 78.5 115.5 114 q71 35.5 152 35.5 q81 0 152 -35.5 q71 -35.5 115.5 -114 q44.5 -78.5 44.5 -200.5 q0 -122 -44.5 -200.5 q-44.5 -78.5 -115.5 -114 q-71 -35.5 -152 -35.5 q-81 0 -152 35.5 q-71 35.5 -115.5 114 q-44.5 78.5 -44.5 200.5 ZM116 348 q0 -102 36.5 -158.5 q36.5 -56.5 85.5 -76.5 q49 -20 95 -20 q46 0 95 20 q49 20 85.5 76.5 q36.5 56.5 36.5 158.5 q0 102 -36.5 158.5 q-36.5 56.5 -85.5 76.5 q-49 20 -95 20 q-46 0 -95 -20 q-49 -20 -85.5 -76.5 q-36.5 -56.5 -36.5 -158.5 Z" /><glyph glyph-name="P" unicode="P" d="M398 696 q72 0 116 -32 q44 -32 63 -79.5 q19 -47.5 19 -97.5 q0 -93 -56 -148.5 q-56 -55.5 -202 -55.5 l-83 -1 l-25 -1 q-6 0 -10 2 q-4 2 -8 8 q-18 28 -26 46 l0 -174 l0 -40 q0 -63 -10 -105 q-4 -16 -13.5 -23.5 q-9.5 -7.5 -21.5 -7.5 q-9 0 -17 4 q-8 4 -12 11 l-17 29 q-11 20 -14 23 q-12 13 -12 26 q0 6 4 14 q5 10 5 354 l0 160 q0 31 -3 51 q-3 20 -11 42 q-2 5 2 10 q4 5 14 5 q9 0 20 -4 q19 -7 36 -16 l28 0 l234 0 ZM338 373 q68 0 104 9.5 q36 9.5 51.5 34 q15.5 24.5 15.5 70.5 q0 55 -28.5 87 q-28.5 32 -82.5 32 l-212 -1 l0 -227 q1 1 2.5 0.5 q1.5 -0.5 2.5 -0.5 q25 -5 64 -5 l83 0 Z" /><glyph glyph-name="Q" unicode="Q" d="M548 69 q44 -38 44 -69 q0 -13 -6.5 -27 q-6.5 -14 -20.5 -36 q-20 -32 -38 -32 q-22 0 -37 45 q-8 24 -34 70 q-59 -22 -123 -22 q-81 0 -152 35.5 q-71 35.5 -115.5 114 q-44.5 78.5 -44.5 200.5 q0 122 44.5 200.5 q44.5 78.5 115.5 114 q71 35.5 152 35.5 q81 0 152 -35.5 q71 -35.5 115.5 -114 q44.5 -78.5 44.5 -200.5 q0 -94 -27 -162 q-27 -68 -75 -112 q0 0 5 -5 ZM333 93 q37 0 69 10 q-11 17 -30 44 q-7 10 -7 18 q0 7 4.5 10.5 q4.5 3.5 12.5 3.5 q9 0 20 -6 q38 -21 63 -38 q85 65 85 213 q0 102 -36.5 158.5 q-36.5 56.5 -85.5 76.5 q-49 20 -95 20 q-46 0 -95 -20 q-49 -20 -85.5 -76.5 q-36.5 -56.5 -36.5 -158.5 q0 -102 36.5 -158.5 q36.5 -56.5 85.5 -76.5 q49 -20 95 -20 Z" /><glyph glyph-name="R" unicode="R" d="M596 19 q6 -6 6 -10 q0 -4 -6 -4 q-2 0 -10 2 q-19 6 -33 6 q-10 0 -23 -3.5 q-13 -3.5 -27 -8.5 q-7 -3 -16 -3 q-17 0 -33.5 10 q-16.5 10 -24.5 24 q-60 110 -107 245 l-70 -1 l-25 -1 q-6 0 -10 2 q-4 2 -8 8 q-18 28 -26 46 l0 -168 l0 -40 q0 -63 -10 -105 q-4 -16 -13.5 -23.5 q-9.5 -7.5 -21.5 -7.5 q-9 0 -17 4 q-8 4 -12 11 l-17 29 q-11 20 -14 23 q-12 13 -12 26 q0 6 4 14 q5 10 5 350 l0 158 q0 31 -3 51 q-3 20 -11 42 q-2 5 2 10 q4 5 14 5 q9 0 20 -4 q19 -7 36 -16 l28 0 l234 0 q107 0 152.5 -58.5 q45.5 -58.5 45.5 -150.5 q0 -80 -41 -132 q-41 -52 -148 -67 q85 -156 192 -263 ZM188 372 q25 -5 64 -5 l73 0 q73 0 111 9.5 q38 9.5 54 34 q16 24.5 16 70.5 q0 66 -26.5 92.5 q-26.5 26.5 -84.5 26.5 l-212 -1 l0 -227 q1 1 2.5 0.5 q1.5 -0.5 2.5 -0.5 Z" /><glyph glyph-name="S" unicode="S" d="M43 211 q2 5 8 15.5 q6 10.5 15 29.5 q4 9 10.5 14 q6.5 5 13.5 5 q15 0 24 -24 q28 -77 66.5 -112.5 q38.5 -35.5 74.5 -42.5 q36 -7 92 -7 q61 0 99 26.5 q38 26.5 38 77.5 q0 42 -13.5 63 q-13.5 21 -39 31.5 q-25.5 10.5 -82.5 23.5 l-24 6 q-77 19 -130.5 41 q-53.5 22 -89 62.5 q-35.5 40.5 -35.5 103.5 q0 37 18.5 80 q18.5 43 62.5 74 q44 31 116 31 q116 0 181.5 -38.5 q65.5 -38.5 98.5 -77.5 q6 -6 6 -17 q0 -11 -5 -21 q-2 -5 -8 -15.5 q-6 -10.5 -15 -29.5 q-4 -8 -11.5 -13.5 q-7.5 -5.5 -16.5 -5.5 q-18 0 -31 24 q-49 99 -199 99 q-105 0 -105 -79 q0 -45 20.5 -69 q20.5 -24 58.5 -37 q38 -13 122 -31 q100 -19 156.5 -64.5 q56.5 -45.5 56.5 -127.5 q0 -49 -23 -97.5 q-23 -48.5 -74.5 -81.5 q-51.5 -33 -131.5 -33 q-97 0 -152 19.5 q-55 19.5 -85.5 55.5 q-30.5 36 -65.5 104 q-6 10 -6 19 q0 7 5 19 Z" /><glyph glyph-name="T" unicode="T" d="M538 632 q1 -4 1 -11 q0 -25 -25 -25 q-11 0 -20 4 q-34 11 -70 13 q-30 2 -90 2 q4 -10 4 -19 q0 -4 -2 -16 l0 -410 l0 -40 q0 -63 -10 -105 q-4 -16 -13.5 -23.5 q-9.5 -7.5 -21.5 -7.5 q-9 0 -17 4 q-8 4 -12 11 l-17 29 q-11 20 -14 23 q-12 13 -12 26 q0 6 4 14 q5 10 5 316 l0 143 q0 29 -3 50 q-65 -5 -93 -10 q-13 -2 -26.5 -5.5 q-13.5 -3.5 -18.5 -3.5 q-6 0 -10.5 3 q-4.5 3 -12.5 11 q-10 10 -22 28 q-18 24 -28 34 q-5 5 -5 16 q0 17 15 14 q49 -10 124 -10 q81 0 244 15 l60 5 q20 2 37 -1.5 q17 -3.5 23 -13.5 q11 -17 16 -28 q5 -11 10 -32 Z" /><glyph glyph-name="U" unicode="U" d="M590 676 q23 -13 23 -36 q0 -3 -2 -15 l0 -335 q-3 -151 -66.5 -220.5 q-63.5 -69.5 -201.5 -69.5 q-138 0 -201.5 69.5 q-63.5 69.5 -66.5 220.5 l0 135 l0 182 q0 29 -2.5 47 q-2.5 18 -9.5 37 q-2 5 1.5 9.5 q3.5 4.5 12.5 4.5 q7 0 18 -4 q34 -12 57 -25 q23 -13 23 -36 q0 -3 -2 -15 l0 -335 q4 -77 20.5 -118 q16.5 -41 51.5 -57.5 q35 -16.5 98 -16.5 q63 0 98 16.5 q35 16.5 51.5 57.5 q16.5 41 20.5 118 l0 135 l0 182 q0 29 -2.5 47 q-2.5 18 -9.5 37 q-2 5 1.5 9.5 q3.5 4.5 12.5 4.5 q7 0 18 -4 q34 -12 57 -25 Z" /><glyph glyph-name="V" unicode="V" d="M589 708 q22 0 29 -8 q7 -8 1 -15 q-15 -17 -24.5 -34 q-9.5 -17 -19.5 -47 l-186 -560 q-8 -24 -19 -32 q-11 -8 -25 -10 q-23 -3 -36 -2 l-10 0 q-7 0 -27 2 q-14 2 -25 10 q-11 8 -19 32 l-186 560 q-10 30 -19.5 47 q-9.5 17 -24.5 34 q-6 7 1 15 q7 8 29 8 q21 0 42 -3 q5 0 25 -2 q38 -3 42 -44 q35 -98 117 -355 q16 -50 30 -92.5 q14 -42.5 25 -75.5 l45 139 q86 271 126 384 q4 41 42 44 q20 2 25 2 q21 3 42 3 Z" /><glyph glyph-name="W" unicode="W" d="M874 729 q16 0 21 -7 q5 -7 1 -13 q-12 -17 -19.5 -36 q-7.5 -19 -15.5 -51 l-135 -578 q-9 -39 -44 -42 q-26 -2 -35 -1 l-10 0 q-16 0 -26 1 q-34 3 -44 42 l-121 468 l-121 -468 q-10 -39 -44 -42 q-26 -2 -35 -1 l-10 0 q-16 0 -26 1 l-5 1 q-8 1 -16 5 q-18 12 -23 36 l-129 573 q-7 31 -14.5 50 q-7.5 19 -20.5 37 q-4 6 1 13 q5 7 21 7 l10 -1 q21 -2 40 -6.5 q19 -4.5 27 -6.5 q36 -8 36 -49 q23 -91 57 -243.5 q34 -152.5 54 -252.5 l87 345 l38 151 q0 41 36 49 q17 4 29 5.5 q12 1.5 28 1.5 q11 0 16 -1 l3 0 q12 -1 23 -15.5 q11 -14.5 11 -39.5 l75 -299 l51 -201 q32 143 67 291 l49 214 q0 41 36 49 q8 2 27 6.5 q19 4.5 40 6.5 l10 1 Z" /><glyph glyph-name="X" unicode="X" d="M574 690 q27 -8 27 -21 q0 -6 -4 -8 q-17 -11 -30 -25.5 q-13 -14.5 -34 -43.5 l-154 -221 l137 -218 q5 -8 20.5 -31.5 q15.5 -23.5 28 -47.5 q12.5 -24 20.5 -49 q3 -7 3 -15 q0 -16 -11 -26 q-11 -10 -25 -10 q-7 0 -13 3 l-29 16 q-19 10 -25 12 q-26 7 -28 30 q0 6 -145 239 q-154 -224 -155 -232 q-2 -22 -29 -28 q-4 -1 -28 -12 q-15 -8 -27 -14 q-4 -2 -12 -2 q-14 0 -25 9.5 q-11 9.5 -11 25.5 q0 9 4 17 q12 31 27.5 56 q15.5 25 29.5 44 q14 19 18 25 l146 211 q-47 76 -115 182 l-28 45 q-18 29 -31 44.5 q-13 15.5 -30 27.5 q-4 4 -4 8 q0 13 29 20 q0 0 39 6 q12 0 28 3 q14 2 28 -5 q14 -7 22 -29 l129 -206 l138 200 q13 33 43 33 l9 -1 l26 -4 q23 -4 41 -8 Z" /><glyph glyph-name="Y" unicode="Y" d="M587 699 q28 -6 28 -20 q0 -4 -4 -8 q-17 -12 -29 -27.5 q-12 -15.5 -30 -45.5 l-185 -303 l0 -143 l0 -40 q0 -63 -10 -105 q-4 -16 -13.5 -23.5 q-9.5 -7.5 -21.5 -7.5 q-9 0 -17 4 q-8 4 -12 11 l-17 29 q-11 20 -14 23 q-12 13 -12 26 q0 6 4 14 q5 8 5 157 l0 57 q-74 119 -129.5 206.5 q-55.5 87.5 -58.5 92.5 q-18 29 -31 44.5 q-13 15.5 -30 27.5 q-4 4 -4 8 q0 13 29 20 q0 0 39 6 q11 0 28 3 q14 2 28 -5 q14 -7 22 -29 l161 -257 l156 257 q13 38 50 35 q8 -1 28 -2 q20 -1 40 -5 Z" /><glyph glyph-name="Z" unicode="Z" d="M22 51 q-7 7 -7 12 q0 6 8.5 10 q8.5 4 23.5 5 q30 40 240 335 q44 62 81 113.5 q37 51.5 61 84.5 q4 5 4 9 q0 5 -11 5 q-120 0 -286 -19 q-15 -2 -25.5 -4.5 q-10.5 -2.5 -17.5 -2.5 q-5 0 -9.5 3.5 q-4.5 3.5 -11.5 11.5 q-10 12 -18 24 q-18 24 -30 36 q-5 5 -5 15 q0 16 15 13 q46 -7 138 -7 q129 0 254 11 q24 2 35.5 8.5 q11.5 6.5 14.5 6.5 q4 0 24 -13 q16 -11 38 -35.5 q22 -24.5 22 -43.5 q0 -10 -3.5 -14.5 q-3.5 -4.5 -13.5 -11.5 q-10 -6 -19 -15 q-37 -40 -276 -377 l-87 -122 q-11 -15 -3 -17 q64 -1 135.5 4.5 q71.5 5.5 181.5 15.5 q20 2 37 -1.5 q17 -3.5 23 -13.5 q11 -17 16 -28 q5 -11 10 -32 q1 -4 1 -11 q0 -25 -25 -25 q-11 0 -20 4 q-34 11 -70 13 q-46 2 -70 2 q-65 0 -130.5 -5 q-65.5 -5 -106.5 -11 q-13 -2 -26.5 -5.5 q-13.5 -3.5 -18.5 -3.5 q-6 0 -10.5 3 q-4.5 3 -12.5 11 q-10 10 -22 28 q-18 24 -28 34 Z" /><glyph glyph-name="a" unicode="a" d="M505 126 q0 -38 -1 -61.5 q-1 -23.5 -7 -51.5 q-3 -13 -10.5 -19 q-7.5 -6 -16.5 -6 q-7 0 -13.5 3.5 q-6.5 3.5 -9.5 8.5 q-5 7 -7.5 12.5 q-2.5 5.5 -5.5 9.5 q-7 13 -12 19 l-2 3 q-27 -22 -69.5 -33 q-42.5 -11 -110.5 -11 q-198 0 -198 142 q0 77 47.5 116 q47.5 39 136.5 54 l55 8 q56 9 82.5 15.5 q26.5 6.5 41 21 q14.5 14.5 14.5 41.5 q0 31 -30.5 56 q-30.5 25 -79.5 29 q-10 1 -29 1 q-67 0 -101.5 -28 q-34.5 -28 -61.5 -84 q-10 -21 -27 -21 q-7 0 -14 4.5 q-7 4.5 -10 11.5 q-9 19 -13 27 q-4 8 -6 12 q-5 12 -5 18 q0 8 5 15 q25 42 47 65.5 q22 23.5 73.5 42 q51.5 18.5 141.5 18.5 q53 0 94.5 -23.5 q41.5 -23.5 67 -58 q25.5 -34.5 32.5 -66.5 q2 -10 2 -19 l0 -272 ZM240 82 q43 0 72 5.5 q29 5.5 58 30 q29 24.5 50 76.5 l0 83 q-35 -13 -115 -27 q-18 -2 -46 -8 q-64 -12 -87 -18.5 q-23 -6.5 -36.5 -24.5 q-13.5 -18 -13.5 -57 q0 -31 32 -45.5 q32 -14.5 86 -14.5 Z" /><glyph glyph-name="b" unicode="b" d="M302 567 q106 0 171 -65 q65 -65 65 -208 q0 -152 -63.5 -227 q-63.5 -75 -172.5 -75 q-34 0 -69.5 15 q-35.5 15 -65.5 43 q-2 -16 -6 -32 q-4 -16 -13.5 -23.5 q-9.5 -7.5 -21.5 -7.5 q-9 0 -17 4 q-8 4 -12 11 l-17 29 q-11 20 -14 23 q-12 13 -12 26 q0 6 4 14 q5 10 5 384 l0 173 q0 31 -3 51 q-3 20 -11 42 q-2 5 2 10 q4 5 14 5 q9 0 20 -4 q17 -6 62 -28 q26 -13 26 -40 q0 -4 -2 -16 l0 -159 q31 27 65.5 41 q34.5 14 65.5 14 ZM302 74 q64 0 109 43.5 q45 43.5 45 176.5 q0 191 -154 191 q-41 0 -78 -28.5 q-37 -28.5 -53 -87.5 l0 -164 q16 -69 52.5 -100 q36.5 -31 78.5 -31 Z" /><glyph glyph-name="c" unicode="c" d="M534 166 q3 -6 3 -16 q0 -9 -3 -15 q-2 -5 -21.5 -45.5 q-19.5 -40.5 -73.5 -69 q-54 -28.5 -131 -28.5 q-246 0 -246 302 q0 142 69 207.5 q69 65.5 177 65.5 q97 0 142.5 -40.5 q45.5 -40.5 59 -69.5 q13.5 -29 15.5 -33 q4 -8 4 -17 q0 -8 -3 -14 l-11 -24 q-3 -7 -10 -11.5 q-7 -4.5 -15 -4.5 q-16 0 -24 20 q-22 57 -59 84.5 q-37 27.5 -99 27.5 q-65 0 -114.5 -39 q-49.5 -39 -49.5 -152 q0 -220 164 -220 q63 0 104 28 q41 28 63 84 q8 20 24 20 q7 0 14 -4.5 q7 -4.5 10 -11.5 l11 -24 Z" /><glyph glyph-name="d" unicode="d" d="M522 163 l0 -40 q0 -63 -10 -105 q-4 -16 -13.5 -23.5 q-9.5 -7.5 -21.5 -7.5 q-9 0 -17 4 q-8 4 -12 11 l-15 26 q-9 17 -14 23 q-30 -29 -65.5 -44 q-35.5 -15 -69.5 -15 q-109 0 -172.5 75 q-63.5 75 -63.5 227 q0 143 65 208 q65 65 171 65 q31 0 65.5 -14 q34.5 -14 64.5 -40 l0 151 q0 31 -3 51 q-3 20 -11 42 q-2 5 2 10 q4 5 14 5 q9 0 20 -4 q17 -6 62 -28 q26 -13 26 -40 q0 -4 -2 -16 l0 -521 ZM284 74 q40 0 76 29 q36 29 53 93 q1 50 1 176 q-16 57 -53 85 q-37 28 -77 28 q-154 0 -154 -191 q0 -132 45 -175.5 q45 -43.5 109 -44.5 Z" /><glyph glyph-name="e" unicode="e" d="M200 247 q-13 -1 -24.5 -3.5 q-11.5 -2.5 -17.5 -2.5 q-6 0 -11 3 q-5 3 -12 11 l-10 12 q10 -193 163 -193 q63 0 104 28 q41 28 63 84 q8 20 24 20 q7 0 14 -4.5 q7 -4.5 10 -11.5 l11 -24 q3 -6 3 -16 q0 -9 -3 -15 q-2 -5 -21.5 -45.5 q-19.5 -40.5 -73.5 -69 q-54 -28.5 -131 -28.5 q-246 0 -246 302 q0 142 69 207.5 q69 65.5 177 65.5 q81 0 137.5 -39 q56.5 -39 85 -106.5 q28.5 -67.5 28.5 -150.5 q0 -19 -6 -26.5 q-6 -7.5 -20 -7.5 q-4 0 -18 2 q-52 8 -70 9 q-73 4 -123 4 q-53 0 -102 -5 ZM288 485 q-58 0 -105.5 -31 q-47.5 -31 -56.5 -122 q52 -5 94 -5 q78 0 228 15 q-17 70 -61.5 106.5 q-44.5 36.5 -98.5 36.5 Z" /><glyph glyph-name="eacute" unicode="é" d="M637 754 l-110 -152 l-97 0 l152 152 l55 0 ZM640 167 q-22 -39 -57 -59 q-35 -20 -76 -20 q-42 0 -79 20 q-37 20 -60 58 q-23 38 -23 89 l404 0 q1 11 1 25 q0 89 -35 152.5 q-35 63.5 -91.5 95.5 q-56.5 32 -120.5 32 q-65 0 -123 -33 q-58 -33 -94 -97.5 q-36 -64.5 -36 -154.5 q0 -86 37 -148.5 q37 -62.5 97 -94.5 q60 -32 127 -32 q77 0 140.5 43 q63.5 43 90.5 124 l-102 0 ZM350 330 q3 48 25.5 83 q22.5 35 57 53.5 q34.5 18.5 71.5 18.5 q57 0 99.5 -40 q42.5 -40 48.5 -115 l-302 0 Z" /><glyph glyph-name="f" unicode="f" d="M288 550 q10 -17 14 -25.5 q4 -8.5 9 -26.5 q1 -4 1 -10 q0 -10 -6 -15.5 q-6 -5.5 -16 -5.5 q-8 0 -17 3 q-35 11 -61 11 q-11 0 -16 1 l0 -34 l0 -294 l0 -30 q0 -60 -9 -102 q-3 -14 -11.5 -20.5 q-8.5 -6.5 -19.5 -6.5 q-8 0 -15.5 3.5 q-7.5 3.5 -11.5 9.5 l-14 25 q-8 14 -14 22 q-10 10 -10 22 q0 4 1.5 8 q1.5 4 1.5 6 q1 3 2.5 130.5 q1.5 127.5 1.5 232.5 l0 25 l-5 -1 q-12 -2 -26 -5.5 q-14 -3.5 -19 -3.5 q-6 0 -10.5 3 q-4.5 3 -12.5 11 q-6 7 -16.5 18.5 q-10.5 11.5 -19.5 24.5 q-6 10 -6 17 q0 6 4 10 q4 4 12 3 q59 -6 99 -6 q0 91 10 135 q10 44 43.5 65 q33.5 21 107.5 21 q9 0 19 -4 q10 -4 17 -13 q5 -6 10 -15.5 q5 -9.5 8 -14.5 q6 -9 6 -21 q0 -13 -8 -22 q-8 -9 -24 -9 q-6 0 -10 1 q-9 2 -25 2 q-38 0 -49 -27 q-11 -27 -9 -91 q10 1 42 5 q5 1 15 1 q12 0 22.5 -3.5 q10.5 -3.5 14.5 -9.5 Z" /><glyph glyph-name="g" unicode="g" d="M515 332 l0 -116 q0 -149 -14 -234 q-14 -85 -65.5 -134.5 q-51.5 -49.5 -158.5 -49.5 q-78 0 -126 27.5 q-48 27.5 -61.5 47 q-13.5 19.5 -41.5 69.5 q-4 8 -4 15 q0 9 6 21 l16 27 q4 7 11 11 q7 4 14 4 q20 0 30 -25 q23 -56 60.5 -81.5 q37.5 -25.5 95.5 -25.5 q71 0 103.5 49.5 q32.5 49.5 41.5 145.5 q-32 -34 -70.5 -50.5 q-38.5 -16.5 -77.5 -16.5 q-108 0 -172 73.5 q-64 73.5 -64 218.5 q0 136 65 199.5 q65 63.5 171 63.5 q37 0 78.5 -18.5 q41.5 -18.5 73.5 -52.5 q0 29 -2 44.5 q-2 15.5 -10 30.5 q-2 4 1 7.5 q3 3.5 11 3.5 q6 0 17 -3 q10 -3 24 -11 q16 -8 28 -12 q8 -3 14.5 -11 q6.5 -8 6.5 -23 q0 -8 -1 -12 l0 -182 ZM274 98 q56 0 98 47.5 q42 47.5 42 162.5 q0 96 -42.5 138.5 q-42.5 42.5 -97.5 42.5 q-154 0 -154 -181 q0 -210 154 -210 Z" /><glyph glyph-name="h" unicode="h" d="M507 124 q0 -60 -9 -102 q-3 -14 -11.5 -20.5 q-8.5 -6.5 -19.5 -6.5 q-8 0 -15.5 3.5 q-7.5 3.5 -11.5 9.5 l-14 25 q-8 14 -14 22 q-10 10 -10 22 q0 4 1.5 8 q1.5 4 1.5 6 q2 4 3 69 q1 65 1 145 q-3 77 -20.5 117.5 q-17.5 40.5 -43.5 53.5 q-26 13 -61 13 q-48 0 -86.5 -28.5 q-38.5 -28.5 -51.5 -90.5 l0 -216 l0 -30 q0 -60 -9 -102 q-3 -14 -11.5 -20.5 q-8.5 -6.5 -19.5 -6.5 q-8 0 -15.5 3.5 q-7.5 3.5 -11.5 9.5 l-14 25 q-8 14 -14 22 q-10 10 -10 23 q0 7 3 13 q4 7 4 375 l0 209 q0 31 -2.5 49 q-2.5 18 -9.5 35 q-2 5 1.5 9.5 q3.5 4.5 12.5 4.5 q9 0 18 -4 q33 -12 57 -25 q23 -13 23 -36 q0 -3 -2 -15 l0 -178 q61 56 138 56 q63 0 109.5 -15 q46.5 -15 81 -73.5 q34.5 -58.5 32.5 -177.5 l0 -151 l0 -30 Z" /><glyph glyph-name="i" unicode="i" d="M102 614 q-23 16 -38.5 36 q-15.5 20 -15.5 36 q0 15 14 23.5 q14 8.5 45 8.5 q32 0 48.5 -17.5 q16.5 -17.5 16.5 -45.5 q0 -11 -3 -23 q-7 -35 -27 -35 q-16 0 -40 17 ZM86 33 q-8 14 -14 22 q-10 10 -10 23 q0 7 3 13 q4 7 4 232 l0 132 q0 31 -2.5 49 q-2.5 18 -9.5 35 q-2 5 1.5 9.5 q3.5 4.5 12.5 4.5 q9 0 18 -4 q33 -12 57 -25 q23 -13 23 -36 q0 -3 -2 -15 l0 -319 l0 -30 q0 -60 -9 -102 q-3 -14 -11.5 -20.5 q-8.5 -6.5 -19.5 -6.5 q-8 0 -15.5 3.5 q-7.5 3.5 -11.5 9.5 l-14 25 Z" /><glyph glyph-name="j" unicode="j" d="M82 606 q-23 16 -38.5 36 q-15.5 20 -15.5 36 q0 15 14 23.5 q14 8.5 45 8.5 q32 0 48.5 -17.5 q16.5 -17.5 16.5 -45.5 q0 -11 -3 -23 q-7 -35 -27 -35 q-16 0 -40 17 ZM14 -155 q-13 32 -28 46.5 q-15 14.5 -30 22 q-15 7.5 -20 10.5 q-11 6 -11 10 q0 5 15 5 q5 0 35.5 -1 q30.5 -1 51 13 q20.5 14 20.5 43 l2 420 q0 58 -3 92.5 q-3 34.5 -19 61.5 q-3 4 0.5 8.5 q3.5 4.5 13.5 4.5 q17 0 32.5 -7.5 q15.5 -7.5 30.5 -17.5 q15 -10 22 -15 q10 -7 16.5 -14.5 q6.5 -7.5 6.5 -21.5 q0 -3 -2 -15 l0 -496 q0 -70 -4 -98 q-4 -28 -19 -46 q-15 -18 -33 -29.5 q-18 -11.5 -35 -11.5 q-28 0 -42 36 Z" /><glyph glyph-name="k" unicode="k" d="M470 16 q5 -5 5 -8 q0 -4 -5 -4 q-1 0 -9 2 q-16 6 -28 6 q-10 0 -21.5 -3.5 q-11.5 -3.5 -25.5 -9.5 q-7 -3 -17 -3 q-15 0 -29.5 8 q-14.5 8 -21.5 20 q-35 62 -68.5 138.5 q-33.5 76.5 -54.5 142.5 q-38 -30 -59 -43 l0 -108 l0 -30 q0 -60 -9 -102 q-3 -14 -11.5 -20.5 q-8.5 -6.5 -19.5 -6.5 q-8 0 -15.5 3.5 q-7.5 3.5 -11.5 9.5 l-14 25 q-8 14 -14 22 q-10 10 -10 23 q0 7 3 13 q4 7 4 370 l0 207 q0 31 -2.5 49 q-2.5 18 -9.5 35 q-2 5 1.5 9.5 q3.5 4.5 12.5 4.5 q9 0 18 -4 q33 -12 57 -25 q23 -13 23 -36 q0 -3 -2 -15 l0 -373 q45 47 100.5 110 q55.5 63 74.5 88 q14 19 20 35.5 q6 16.5 9 36.5 q1 6 1.5 16 q0.5 10 4.5 15.5 q4 5.5 14 5.5 q34 0 50.5 -26 q16.5 -26 21.5 -47 q3 -10 -3.5 -17.5 q-6.5 -7.5 -20.5 -15.5 q-21 -31 -65.5 -76 q-44.5 -45 -96.5 -90 q107 -215 224 -332 Z" /><glyph glyph-name="l" unicode="l" d="M86 33 q-8 14 -14 22 q-10 10 -10 23 q0 7 3 13 q4 7 4 370 l0 207 q0 31 -2.5 49 q-2.5 18 -9.5 35 q-2 5 1.5 9.5 q3.5 4.5 12.5 4.5 q9 0 18 -4 q33 -12 57 -25 q23 -13 23 -36 q0 -3 -2 -15 l0 -532 l0 -30 q0 -60 -9 -102 q-3 -14 -11.5 -20.5 q-8.5 -6.5 -19.5 -6.5 q-8 0 -15.5 3.5 q-7.5 3.5 -11.5 9.5 l-14 25 Z" /><glyph glyph-name="m" unicode="m" d="M802 124 q0 -60 -9 -102 q-3 -14 -11.5 -20.5 q-8.5 -6.5 -19.5 -6.5 q-8 0 -15.5 3.5 q-7.5 3.5 -11.5 9.5 l-14 25 q-8 14 -14 22 q-10 10 -10 22 q0 4 1.5 8 q1.5 4 1.5 6 q2 4 3 69 q1 65 1 145 q0 75 -9 114.5 q-9 39.5 -27.5 54.5 q-18.5 15 -50.5 15 q-52 0 -88 -34 q-36 -34 -44 -109 q1 -13 1 -40 l0 -152 l0 -30 q0 -60 -9 -102 q-3 -14 -11.5 -20.5 q-8.5 -6.5 -19.5 -6.5 q-8 0 -15.5 3.5 q-7.5 3.5 -11.5 9.5 l-14 25 q-8 14 -14 22 q-10 10 -10 22 q0 4 1.5 8 q1.5 4 1.5 6 q2 4 3 69 q1 65 1 145 q0 75 -9 114.5 q-9 39.5 -27.5 54.5 q-18.5 15 -50.5 15 q-58 0 -96 -42.5 q-38 -42.5 -38 -138.5 l0 -154 l0 -30 q0 -60 -9 -102 q-3 -14 -11.5 -20.5 q-8.5 -6.5 -19.5 -6.5 q-8 0 -15.5 3.5 q-7.5 3.5 -11.5 9.5 l-14 25 q-8 14 -14 22 q-10 10 -10 23 q0 7 3 13 q4 7 4 250 l0 142 q0 31 -2.5 49 q-2.5 18 -9.5 35 q-2 5 1.5 9.5 q3.5 4.5 12.5 4.5 q9 0 18 -4 q33 -12 57 -25 q22 -12 23 -34 q56 53 132 53 q48 0 88 -19 q40 -19 65 -70 q29 42 71 65.5 q42 23.5 92 23.5 q79 0 132 -54 q53 -54 53 -211 l0 -152 l0 -30 Z" /><glyph glyph-name="n" unicode="n" d="M497 124 q0 -60 -9 -102 q-3 -14 -11.5 -20.5 q-8.5 -6.5 -19.5 -6.5 q-8 0 -15.5 3.5 q-7.5 3.5 -11.5 9.5 l-14 25 q-8 14 -14 22 q-10 10 -10 22 q0 4 1.5 8 q1.5 4 1.5 6 q2 4 3 64.5 q1 60.5 1 139.5 q-3 77 -20.5 117.5 q-17.5 40.5 -43.5 53.5 q-26 13 -61 13 q-48 0 -86.5 -28.5 q-38.5 -28.5 -51.5 -90.5 l0 -206 l0 -30 q0 -60 -9 -102 q-3 -14 -11.5 -20.5 q-8.5 -6.5 -19.5 -6.5 q-8 0 -15.5 3.5 q-7.5 3.5 -11.5 9.5 l-14 25 q-8 14 -14 22 q-10 10 -10 23 q0 7 3 13 q4 7 4 255 l0 144 q0 31 -2.5 49 q-2.5 18 -9.5 35 q-2 5 1.5 9.5 q3.5 4.5 12.5 4.5 q9 0 18 -4 q33 -12 57 -25 q23 -13 23 -36 q0 -3 -2 -15 l0 -3 q61 56 138 56 q63 0 109.5 -15 q46.5 -15 81 -73.5 q34.5 -58.5 32.5 -177.5 l0 -141 l0 -30 Z" /><glyph glyph-name="o" unicode="o" d="M279 567 q108 0 177 -65.5 q69 -65.5 69 -207.5 q0 -302 -246 -302 q-246 0 -246 302 q0 142 69 207.5 q69 65.5 177 65.5 ZM279 74 q164 0 164 220 q0 113 -49.5 152 q-49.5 39 -114.5 39 q-65 0 -114.5 -39 q-49.5 -39 -49.5 -152 q0 -220 164 -220 Z" /><glyph glyph-name="p" unicode="p" d="M302 557 q236 0 236 -263 q0 -151 -63 -221.5 q-63 -70.5 -173 -70.5 q-34 0 -69.5 13.5 q-35.5 13.5 -65.5 40.5 l0 -26 l0 -40 q0 -63 -10 -105 q-4 -16 -13.5 -23.5 q-9.5 -7.5 -21.5 -7.5 q-9 0 -17 4 q-8 4 -12 11 l-17 29 q-11 20 -14 23 q-12 13 -12 26 q0 6 4 14 q5 10 5 348 l0 157 q0 31 -3 51 q-3 20 -11 42 q-2 5 2 10 q4 5 14 5 q9 0 20 -4 q17 -6 62 -28 q25 -12 26 -38 q30 26 65.5 39.5 q35.5 13.5 67.5 13.5 ZM302 84 q41 0 73.5 12.5 q32.5 12.5 56.5 58.5 q24 46 24 139 q0 79 -24 119 q-24 40 -56.5 51 q-32.5 11 -73.5 11 q-45 0 -84 -29 q-39 -29 -51 -95 l0 -125 q12 -77 50.5 -109.5 q38.5 -32.5 84.5 -32.5 Z" /><glyph glyph-name="q" unicode="q" d="M538 30 l0 -40 q0 -63 -10 -105 q-4 -16 -13.5 -23.5 q-9.5 -7.5 -21.5 -7.5 q-9 0 -17 4 q-8 4 -12 11 l-17 29 q-11 20 -14 23 q-12 13 -12 26 q0 6 4 14 q2 5 4 109 q-31 -34 -70.5 -51 q-39.5 -17 -78.5 -17 q-110 0 -173 70.5 q-63 70.5 -63 221.5 q0 263 236 263 q37 0 77.5 -17.5 q40.5 -17.5 72.5 -50.5 q-3 37 -14 70 q-2 5 2 10 q4 5 14 5 q9 0 20 -4 q17 -6 62 -28 q26 -13 26 -40 q0 -4 -2 -16 l0 -456 ZM280 84 q56 0 98 47.5 q42 47.5 42 162.5 q0 96 -42.5 138.5 q-42.5 42.5 -97.5 42.5 q-41 0 -73.5 -11 q-32.5 -11 -56.5 -51 q-24 -40 -24 -119 q0 -93 24 -139 q24 -46 56.5 -58.5 q32.5 -12.5 73.5 -12.5 Z" /><glyph glyph-name="r" unicode="r" d="M375 502 q6 -9 6 -21 q0 -13 -8 -22 q-8 -9 -24 -9 q-6 0 -10 1 l-32 6 q-33 7 -52 7 q-31 0 -50.5 -20 q-19.5 -20 -30 -75 q-10.5 -55 -10.5 -156 l0 -71 l0 -40 q0 -63 -10 -105 q-4 -16 -13.5 -23.5 q-9.5 -7.5 -21.5 -7.5 q-9 0 -17 4 q-8 4 -12 11 l-17 29 q-11 20 -14 23 q-12 13 -12 26 q0 6 4 14 q5 10 5 271 l0 124 q0 31 -3 51 q-3 20 -11 42 q-2 5 2 10 q4 5 14 5 q9 0 20 -4 q17 -6 62 -28 q26 -13 26 -40 q0 -4 -2 -16 l0 -11 q33 35 70 54 q37 19 71 19 q11 0 16 -1 q25 -2 36 -17 q5 -6 10 -15.5 q5 -9.5 8 -14.5 Z" /><glyph glyph-name="s" unicode="s" d="M26 162 q2 4 7 12.5 q5 8.5 12 24.5 q3 7 8.5 11.5 q5.5 4.5 11.5 4.5 q12 0 19 -20 q23 -64 54.5 -93 q31.5 -29 61 -34.5 q29.5 -5.5 76.5 -5.5 q54 0 89.5 18 q35.5 18 35.5 58 q0 27 -12 42 q-12 15 -33 22.5 q-21 7.5 -65 18.5 l-33 8 l-22 6 q-63 16 -97.5 30 q-34.5 14 -57.5 43 q-23 29 -23 81 q0 76 53.5 113 q53.5 37 148.5 37 q89 0 131.5 -33 q42.5 -33 64.5 -78 q4 -8 4 -15 q0 -8 -4 -16 q-5 -11 -19 -37 q-4 -7 -11.5 -11.5 q-7.5 -4.5 -14.5 -4.5 q-15 0 -22 20 q-16 55 -47 75.5 q-31 20.5 -82 20.5 q-60 0 -93 -13.5 q-33 -13.5 -33 -57.5 q0 -30 14.5 -46 q14.5 -16 44 -25 q29.5 -9 96.5 -22 q72 -14 111.5 -31 q39.5 -17 57.5 -46.5 q18 -29.5 18 -80.5 q0 -37 -23 -73 q-23 -36 -68.5 -59 q-45.5 -23 -108.5 -23 q-79 0 -123.5 16.5 q-44.5 16.5 -68.5 45 q-24 28.5 -57 86.5 q-5 10 -5 16 q0 7 4 15 Z" /><glyph glyph-name="t" unicode="t" d="M250 85 q19 0 28 -7.5 q9 -7.5 9 -19.5 q0 -9 -5 -19 q-1 -3 -5.5 -12.5 q-4.5 -9.5 -10.5 -15.5 q-6 -8 -15.5 -11.5 q-9.5 -3.5 -17.5 -3.5 q-83 0 -113.5 20 q-30.5 20 -37.5 75.5 q-7 55.5 -7 214.5 l0 172 q-9 -3 -15 -3 q-6 0 -10.5 3 q-4.5 3 -12.5 11 q-6 7 -16.5 18.5 q-10.5 11.5 -19.5 24.5 q-6 10 -6 17 q0 6 4 10 q4 4 12 3 q40 -3 64 -3 l0 14 q0 31 -3 51 q-3 20 -11 42 q-2 5 2 10 q4 5 14 5 q9 0 20 -4 q17 -6 62 -28 q26 -13 26 -40 q0 -4 -2 -16 l0 -20 l5 1 q5 1 15 1 q12 0 22.5 -3.5 q10.5 -3.5 14.5 -9.5 q10 -16 14.5 -24.5 q4.5 -8.5 8.5 -27.5 q1 -4 1 -10 q0 -20 -23 -20 q-4 0 -16 2 q-18 4 -42 8 l0 -184 l0 -90 q0 -58 4 -84 q4 -26 18 -36.5 q14 -10.5 45 -10.5 Z" /><glyph glyph-name="u" unicode="u" d="M490 163 l1 -46 q0 -51 -10 -92 q-4 -15 -13 -22 q-9 -7 -21 -7 q-8 0 -15.5 3.5 q-7.5 3.5 -11.5 10.5 l-23 41 q-53 -51 -126 -51 q-59 0 -101.5 13.5 q-42.5 13.5 -73.5 67 q-31 53.5 -31 162.5 l0 242 q0 31 -3 50.5 q-3 19.5 -10 38.5 q-2 5 2 10 q4 5 13 5 q8 0 19 -4 q29 -11 59 -27 q25 -12 25 -38 q0 -3 -2 -15 l0 -239 q-1 -78 11.5 -118 q12.5 -40 34.5 -53 q22 -13 57 -13 q92 0 115 101 q1 56 1 188 l0 114 q0 31 -3 50.5 q-3 19.5 -10 38.5 q-2 5 2 10 q4 5 13 5 q8 0 19 -4 q29 -11 59 -27 q25 -12 25 -38 q0 -3 -2 -15 l0 -342 Z" /><glyph glyph-name="v" unicode="v" d="M512 577 q20 0 26.5 -7 q6.5 -7 0.5 -14 q-14 -16 -22.5 -31.5 q-8.5 -15.5 -17.5 -42.5 l-146 -442 q-12 -36 -40 -39 q-8 -1 -22 -1 q-14 -2 -21 -2 q-9 0 -23 3 l-8 2 q-6 2 -12 6 q-12 9 -20 31 l-149 448 q-9 27 -17.5 42.5 q-8.5 15.5 -22.5 31.5 q-6 7 0.5 14 q6.5 7 26.5 7 q12 0 30 -2 q13 -3 31 -3 q13 0 24 -8.5 q11 -8.5 14 -31.5 q28 -77 58 -172 q30 -95 40 -126 q34 -107 37 -117 l41 125 q53 170 93 284 q4 37 38 40 q18 2 23 2 q18 3 38 3 Z" /><glyph glyph-name="w" unicode="w" d="M728 557 q20 0 26 -7 q6 -7 0 -13 q-15 -17 -23 -31.5 q-8 -14.5 -15 -38.5 l-116 -429 q-9 -34 -38 -37 q-10 -1 -26 -1 q-12 -2 -17 -2 q-8 0 -20 3 l-4 1 q-7 1 -11 4 q-18 8 -23 32 l-79 378 l-113 -378 q-8 -26 -23 -33 q-4 -2 -6 -2 q-6 -2 -9 -2 q-10 -1 -26 -1 q-12 -2 -17 -2 q-8 0 -20 3 l-4 1 q-7 1 -11 4 q-18 8 -23 32 l-91 433 q-6 26 -14.5 41 q-8.5 15 -23.5 30 q-6 6 0 13 q6 7 26 7 q12 0 28 -2 q13 -3 30 -3 q12 0 22.5 -8.5 q10.5 -8.5 13.5 -29.5 q13 -63 39 -204 q26 -148 39 -196 l36 124 q52 182 83 282 q4 35 36 38 q24 2 58 2 q8 0 12 -1 q12 -4 15 -11 q7 -8 8 -23 q16 -75 38 -191 q29 -161 45 -219 q10 35 24 98 q16 65 37 145.5 q21 80.5 43 150.5 q4 35 36 38 q18 2 23 2 q17 3 35 3 Z" /><glyph glyph-name="x" unicode="x" d="M484 555 q24 -6 24 -18 q0 -5 -4 -8 q-18 -13 -31 -26 q-13 -13 -27 -37 q-1 -3 -57 -81 l-60 -85 l105 -157 q21 -31 36.5 -56.5 q15.5 -25.5 27.5 -57.5 q3 -7 3 -14 q0 -15 -10.5 -23.5 q-10.5 -8.5 -22.5 -8.5 q-8 0 -11 2 l-27 14 q-3 2 -10.5 5.5 q-7.5 3.5 -12.5 4.5 q-23 6 -25 27 q-1 8 -114 177 q-117 -164 -119 -174 q-2 -21 -26 -26 q-6 -1 -26 -11 l-24 -12 q-6 -2 -10 -2 q-12 0 -22.5 9 q-10.5 9 -10.5 23 q0 6 3 15 q13 31 28.5 56 q15.5 25 38.5 57 l109 153 q-28 42 -69 102 l-44 67 q-13 24 -25.5 37.5 q-12.5 13.5 -30.5 27.5 q-4 3 -4 8 q0 12 24 17 q27 7 62 10 q16 0 27.5 -5 q11.5 -5 18.5 -27 l102 -151 l106 149 q12 30 39 30 q20 0 33.5 -2.5 q13.5 -2.5 35.5 -8.5 Z" /><glyph glyph-name="y" unicode="y" d="M501 564 q20 -1 25.5 -8 q5.5 -7 -0.5 -14 q-13 -16 -22.5 -31 q-9.5 -15 -21.5 -42 q-16 -33 -124.5 -289 q-108.5 -256 -107.5 -265 q2 -20 -20 -31 q-5 -2 -18 -13 q-13 -11 -26 -20 q-7 -5 -16 -5 q-13 0 -23.5 8.5 q-10.5 8.5 -10.5 23.5 q0 5 1 8 q10 53 42 125 l37 85 q-20 42 -122 264 q-20 42 -33 71 q-13 29 -18 39 q-14 28 -24 43.5 q-10 15.5 -24 29.5 q-4 4 -2 9 q2 5 13.5 9 q11.5 4 33.5 4 l46 0 q11 0 22.5 -8 q11.5 -8 15.5 -28 l144 -312 l131 305 q3 22 14 30 q11 8 26 10 q22 3 39 3 q14 0 23 -1 Z" /><glyph glyph-name="z" unicode="z" d="M467 9 q1 -4 1 -11 q0 -25 -25 -25 q-11 0 -20 4 q-34 11 -70 13 q-60 3 -97 3 q-59 0 -116 -9 q-13 -2 -26.5 -5.5 q-13.5 -3.5 -18.5 -3.5 q-6 0 -10.5 3 q-4.5 3 -12.5 11 q-10 10 -22 28 q-18 24 -28 34 q-5 5 -5 16 q0 17 15 14 l16 -3 q38 46 135.5 175 q97.5 129 160.5 214 q4 5 4 9 q0 7 -11 5 q-50 -10 -106 -15 q-37 -3 -98 -10 q-15 -2 -25.5 -4.5 q-10.5 -2.5 -17.5 -2.5 q-5 0 -9.5 3.5 q-4.5 3.5 -11.5 11.5 q-11 12 -18 24 q-18 24 -30 36 q-5 5 -5 15 q0 16 15 13 q31 -5 81 -5 q53 0 183 12 l36 3 q24 2 35.5 8.5 q11.5 6.5 14.5 6.5 q4 0 24 -13 q16 -11 38 -35.5 q22 -24.5 22 -43.5 q0 -10 -3.5 -14.5 q-3.5 -4.5 -13.5 -11.5 q-10 -6 -19 -15 q-36 -38 -130.5 -159 q-94.5 -121 -147.5 -196 q-11 -17 -2 -20 q38 -1 87 2.5 q49 3.5 96 8.5 l49 4 q20 2 37 -1.5 q17 -3.5 23 -13.5 q11 -17 16 -28 q5 -11 10 -32 Z" /><glyph glyph-name="uni03A9" unicode="&#x3a9;" d="M223 0 l0 74 l136 0 q-174 149 -164 340 q30 274 301 289 q283 -8 309 -301 q6 -203 -168 -328 l136 0 l0 -74 l-230 0 l0 90 q190 129 184 308 q-22 223 -231 227 q-201 -12 -223 -211 q-13 -168 180 -324 l0 -90 l-230 0 Z" /><glyph glyph-name="gamma" unicode="&#x3b3;" d="M511 104 q39 57 67.5 110 q28.5 53 49.5 126.5 q21 73.5 19 159.5 l88 0 q0 -130 -55.5 -260 q-55.5 -130 -132.5 -217 l1 -183 l-82 0 l0 174 l-204 486 l91 0 l158 -396 Z" /><glyph glyph-name="delta" unicode="&#x3b4;" d="M664 576 q-54 32 -106.5 52 q-52.5 20 -90.5 20 q-56 0 -66 -46 q-7 -55 138 -133 q156 -82 153 -250 q0 -223 -192 -223 q-185 8 -192 231 q4 160 121 218 q-4 0 -7 4 q-114 86 -96 168 q13 50 47 74.5 q34 24.5 85 24.5 q85 0 206 -66 l0 -74 ZM621 223 q0 164 -121 164 q-117 -12 -125 -160 q4 -153 121 -164 q125 0 125 160 Z" /><glyph glyph-name="zeta" unicode="&#x3b6;" d="M535 55 q72 -37 109.5 -73.5 q37.5 -36.5 37.5 -76.5 q0 -50 -62 -105 l-73 24 q26 19 41.5 37 q15.5 18 15.5 38 q0 45 -92 85 q-119 56 -174 130 q-55 74 -55 157 q0 66 31 132 q31 66 82.5 122 q51.5 56 112.5 94 l-225 0 l0 74 l376 0 l0 -78 q-61 -16 -129.5 -70.5 q-68.5 -54.5 -115 -129 q-46.5 -74.5 -46.5 -147.5 q0 -63 39.5 -117.5 q39.5 -54.5 126.5 -95.5 Z" /><glyph glyph-name="pi" unicode="&#x3c0;" d="M421 0 l-78 0 l0 426 l-104 0 l0 70 l522 0 l0 -70 l-98 0 l0 -297 q0 -21 21.5 -33 q21.5 -12 49.5 -10 l0 -78 q-149 0 -149 101 l0 317 l-164 0 l0 -426 Z" /><glyph glyph-name="phi" unicode="&#x3c6;" d="M328 234 q4 -140 133 -168 l0 325 q-125 -32 -133 -157 ZM746 230 q-12 -210 -211 -230 l0 -143 l-74 0 l0 143 q-203 20 -207 238 q8 192 207 231 l0 125 l74 0 l0 -125 q199 -35 211 -239 ZM668 230 q-12 133 -133 161 l0 -325 q129 24 133 164 Z" /><glyph glyph-name="uni4E00" unicode="&#x4e00;" d="M162 263 q-56 52 -81 77 q-4 4 -7 11.5 q-3 7.5 -3 13.5 q0 18 19 18 q112 0 344 24.5 q232 24.5 343 51.5 q20 5 37 5 q36 0 48 -18 q15 -21 23 -36.5 q8 -15.5 19 -48.5 q4 -11 4 -20 q0 -29 -36 -29 q-11 0 -23 3 q-62 12 -89 12 l-13 -1 q-61 -7 -119 -13 q-307 -31 -370 -47 q-25 -7 -39 -13 q-21 -7 -27 -7 q-12 0 -30 17 Z" /><glyph glyph-name="uni4E03" unicode="&#x4e03;" d="M873 131 q10 0 16 -8 q6 -8 6 -22 q0 -27 -20.5 -59 q-20.5 -32 -70.5 -42 q-71 -14 -180 -14 q-70 0 -103 7 q-68 16 -104 57 q-36 41 -36 114 q0 65 1 96 q-92 -38 -143 -64 q-7 -4 -22 -11.5 q-15 -7.5 -22.5 -10.5 q-7.5 -3 -13.5 -3 q-8 0 -15 4 q-7 4 -18 15 l-23 21 l-56 52 q-4 4 -7 11.5 q-3 7.5 -3 13.5 q0 16 17 16 q85 0 311 73 q6 110 16 213 q4 48 4 77 q0 59 -13 94 q-2 5 1.5 9.5 q3.5 4.5 12.5 4.5 q8 0 23 -6 q15 -6 31 -17.5 q16 -11.5 19 -13.5 q4 -3 9 -7 q5 -4 13 -9 q22 -15 22 -37 q0 -10 -4 -21 q-16 -123 -22 -250 l77 26 q122 43 189 61 q20 5 38 5 q33 0 44 -16 q14 -21 21.5 -35 q7.5 -14 19.5 -45 q4 -9 4 -20 q0 -13 -9.5 -20.5 q-9.5 -7.5 -25.5 -7.5 q-9 0 -21 3 q-22 5 -45 5 q-102 0 -297 -68 q-1 -38 -1 -116 q0 -73 54 -85 q15 -3 54 -3 q38 0 80.5 2.5 q42.5 2.5 58.5 6.5 q24 6 35 12.5 q11 6.5 14 18 q3 11.5 3 34.5 l0 30 q0 15 5.5 28 q5.5 13 12.5 13 q12 0 16 -44 q2 -28 15.5 -48 q13.5 -20 31.5 -20 Z" /><glyph glyph-name="uni4E07" unicode="&#x4e07;" d="M914 627 q4 -9 4 -19 q0 -26 -34 -26 q-5 0 -19 2 q-44 8 -92 8 q-69 0 -186 -22 q10 -22 12 -34 q2 -12 2 -17 q0 -13 -5 -21.5 q-5 -8.5 -14 -18 q-9 -9.5 -12 -14.5 l-12 -25 q70 8 61 7 q42 4 47 8.5 q5 4.5 8 4.5 q5 0 29 -4 q37 -5 59 -30 q22 -25 22 -55 q0 -13 -4 -24 q-2 -7 -3 -11.5 q-1 -4.5 -2 -8.5 q-4 -26 -6 -33 q-18 -78 -53 -193 q-35 -115 -36 -120 q-16 -23 -41.5 -42.5 q-25.5 -19.5 -50.5 -19.5 q-42 0 -63 60 q-13 37 -38 67 q-25 30 -48 48 q-15 11 -15 17 q0 4 9 4 q7 0 12 -1 q9 -1 29 -7 q34 -8 50 -8 q22 0 37 12 q15 12 23 42 q8 30 15.5 55.5 q7.5 25.5 10.5 37.5 l17 59 q3 9 3 16 q0 9 -10 8 q-8 0 -30.5 -1.5 q-22.5 -1.5 -47 -6 q-24.5 -4.5 -56.5 -12.5 l-7 -2 q-75 -111 -166.5 -196 q-91.5 -85 -190.5 -111 q-15 -4 -26 -4 q-14 0 -14 7 q0 8 17 22 q105 87 197 216.5 q92 129.5 139 245.5 l23 55 q-107 -25 -177 -45 q-19 -6 -38 -14 q-18 -7 -23 -7 q-11 0 -26 15 l-26 24 q-32 28 -49 45 q-9 9 -9 24 q0 15 16 15 q94 0 304.5 38.5 q210.5 38.5 366.5 76.5 q20 5 37 5 q31 0 41 -15 q13 -19 20 -33 q7 -14 19 -44 Z" /><glyph glyph-name="uni4E09" unicode="&#x4e09;" d="M247 569 l-21 19 q-4 4 -7 11.5 q-3 7.5 -3 14.5 q0 17 18 17 q99 0 208.5 13 q109.5 13 201.5 38 q20 6 40 6 q32 0 45 -17 q15 -19 22.5 -34 q7.5 -15 21.5 -50 q5 -13 5 -21 q0 -14 -10.5 -21 q-10.5 -7 -28.5 -7 q-6 0 -20 2 q-52 9 -85 9 q-12 0 -17 -1 q-60 -6 -73 -7 q-7 -1 -34.5 -4 q-27.5 -3 -53 -7.5 q-25.5 -4.5 -51.5 -11.5 q-20 -5 -41 -14 q-17 -7 -24 -7 q-11 0 -30 16 l-63 56 ZM307 326 l-21 19 q-4 4 -7 11.5 q-3 7.5 -3 14.5 q0 17 18 17 l35 0 q85 0 137.5 6 q52.5 6 132.5 28 q20 6 40 6 q32 0 45 -17 q15 -19 22.5 -34 q7.5 -15 21.5 -50 q5 -13 5 -21 q0 -14 -10.5 -21 q-10.5 -7 -28.5 -7 q-6 0 -20 2 q-54 9 -100 9 q-58 0 -109 -14 q-20 -5 -41 -14 q-17 -7 -24 -7 q-11 0 -30 16 l-63 56 ZM88 73 q-4 4 -7 11.5 q-3 7.5 -3 14.5 q0 8 4.5 13 q4.5 5 14.5 4 q145 0 374.5 15 q229.5 15 332.5 41 q20 5 37 5 q36 0 48 -18 q14 -20 21.5 -35.5 q7.5 -15.5 20.5 -49.5 q4 -11 4 -20 q0 -29 -36 -29 q-11 0 -23 3 q-71 13 -102 11 q-43 -4 -160 -11 q-290 -15 -349 -29 q-28 -8 -40 -13 q-19 -7 -25 -7 q-11 0 -31 17 l-81 77 Z" /><glyph glyph-name="uni4E0A" unicode="&#x4e0a;" d="M928 55 q3 -10 3 -18 q0 -13 -8.5 -20 q-8.5 -7 -22.5 -7 q-6 0 -24 4 q-42 12 -91 14 l-38 1 q-112 0 -288.5 -16.5 q-176.5 -16.5 -232.5 -28.5 q-17 -4 -38 -11 q-13 -6 -22 -6 q-11 0 -27 16 q-29 29 -29 29 q-24 23 -42 44 q-8 10 -8 23 q0 17 17 16 q12 -1 42 -1 q102 0 307 14 l4 489 q0 112 -24 170 q-3 5 1 10 q4 5 14 5 q18 0 33.5 -7.5 q15.5 -7.5 35.5 -21.5 q8 -6 24 -16 q11 -7 18.5 -15.5 q7.5 -8.5 7.5 -24.5 q0 -4 -2 -16 l0 -202 q77 13 132 26 q15 4 35 4 q31 0 41 -14 q15 -20 22.5 -34 q7.5 -14 18.5 -43 q4 -9 4 -20 q0 -26 -33 -26 q-13 0 -20 2 q-42 9 -92 9 q-38 -1 -108 -8 l0 -247 l-1 -11 q177 14 279 32 q18 2 27 2 q39 0 49 -17 q13 -21 19.5 -35 q6.5 -14 16.5 -44 Z" /><glyph glyph-name="uni4E0B" unicode="&#x4e0b;" d="M892 625 q3 -10 3 -18 q0 -13 -8.5 -20 q-8.5 -7 -22.5 -7 q-6 0 -24 4 q-42 12 -91 14 q-74 3 -195 -16 q2 -8 2 -15 q0 -3 -2 -15 l0 -116 q4 1 13 1 q35 0 55 -1.5 q20 -1.5 42 -7.5 q50 -14 69 -33.5 q19 -19.5 19 -51.5 q0 -18 -5 -46 q-8 -53 -35 -53 q-20 0 -50 31 q-65 68 -108 107 l0 -206 q0 -22 1 -36 l1 -54 q0 -88 -22 -134 q-13 -27 -22 -38.5 q-9 -11.5 -17 -11.5 q-6 0 -11.5 8 q-5.5 8 -13.5 26 q-12 27 -23 38.5 q-11 11.5 -13 13.5 q-13 14 -13 28 q0 7 5 12 q9 9 12.5 27.5 q3.5 18.5 3.5 36.5 l4 376 q2 50 -4 95 q-92 -18 -152 -33 l-32 -7 q-20 -5 -38 -11 q-15 -6 -23 -6 q-11 0 -26 16 q-29 29 -29 29 q-24 23 -42 44 q-8 10 -8 23 q0 17 17 16 q146 -6 671 85 q18 2 27 2 q39 0 49 -17 q13 -21 19.5 -35 q6.5 -14 16.5 -44 Z" /><glyph glyph-name="uni4E0D" unicode="&#x4e0d;" d="M550 185 q0 -24 1 -38 l1 -53 q0 -88 -22 -133 q-13 -27 -22 -38.5 q-9 -11.5 -17 -11.5 q-6 0 -11.5 8 q-5.5 8 -13.5 26 q-12 27 -23 38.5 q-11 11.5 -13 13.5 q-13 14 -13 28 q0 7 5 12 q9 9 12.5 27.5 q3.5 18.5 3.5 36.5 l3 222 q-139 -139 -304 -251 q-30 -20 -44 -20 q-8 0 -8 8 q0 7 6.5 19 q6.5 12 18.5 25 q247 278 323 379 q-7 34 -15 52 q-3 5 1 10 q4 5 14 5 q9 0 21 -4 l15 -6 q12 21 22 43 q-134 -25 -212 -48 q-19 -6 -38 -14 q-18 -7 -23 -7 q-11 0 -26 15 l-26 24 q-32 28 -49 45 q-9 9 -9 24 q0 15 16 15 q98 0 301.5 32 q203.5 32 335.5 64 q20 5 37 5 q31 0 41 -15 q13 -19 20 -33 q7 -14 19 -44 q4 -9 4 -19 q0 -26 -34 -26 q-5 0 -19 2 q-44 8 -92 8 q-51 0 -103 -7 q5 -10 13 -29 q3 -6 3 -11 q0 -19 -36 -41 q-20 -29 -64 -82 l0 -256 ZM802 332 q51 -13 74 -39.5 q23 -26.5 23 -66.5 q0 -26 -7 -51 q-8 -29 -20.5 -45 q-12.5 -16 -28.5 -16 q-26 0 -54 41 q-41 59 -96.5 104 q-55.5 45 -97.5 60 q-25 9 -25 23 q0 9 12 15.5 q12 6.5 32 6.5 q61 0 188 -32 Z" /><glyph glyph-name="uni4E0E" unicode="&#x4e0e;" d="M817 392 q0 -7 -7 -28 q-9 -28 -12 -48 q-55 -329 -85 -362 q-40 -46 -75 -46 q-31 0 -53 40 q-17 32 -52.5 64.5 q-35.5 32.5 -63.5 49.5 q-9 6 -9 11 q0 5 7.5 9 q7.5 4 17.5 4 q9 0 41 -8 q42 -11 58 -11 q38 0 45 38 q3 18 19 94 q19 83 24 117 l2 14 q0 4 -2.5 5 q-2.5 1 -9.5 0 q-85 -6 -143.5 -15 q-58.5 -9 -105.5 -29 q-6 -2 -11 -4.5 q-5 -2.5 -10 -4.5 q-11 -6 -20.5 -9.5 q-9.5 -3.5 -16.5 -3.5 q-7 0 -13.5 4.5 q-6.5 4.5 -15.5 16.5 q-16 21 -29 43.5 q-13 22.5 -16 26.5 q-8 14 -8 24 q0 4 2 8 l5 9 q5 10 20 88.5 q15 78.5 26 157.5 q3 27 3 45 q0 25 -7 63 q-1 6 3 11.5 q4 5.5 13 5.5 q12 0 27 -8 q13 -6 48 -28 l20 -13 q25 -15 25 -41 q0 -13 -5 -26 q-9 -36 -11 -46 q135 17 206 45 q21 8 39 8 q21 0 29 -11 q15 -20 22 -31 q7 -11 17 -34 q4 -8 4 -16 q0 -12 -11 -16 q-11 -4 -33 -6 q-23 -2 -90 -14 q-67 -12 -92 -18 q-26 -7 -40 -15 q-16 -7 -22 -7 q-9 0 -21 12 q-19 19 -26 29 l-30 -122 q-1 -7 0 -9 q1 -2 5 -1 q115 19 238 44 q34 7 47.5 16.5 q13.5 9.5 18.5 9.5 q6 0 32 -10 q27 -11 54.5 -29.5 q27.5 -18.5 27.5 -42.5 ZM587 143 q-24 2 -39 2 q-72 0 -164 -16 q-92 -16 -153 -37 q-18 -6 -34 -14 q-18 -7 -23 -7 q-10 0 -25 14 l-36 33 q-16 16 -36 33 q-4 3 -6.5 9.5 q-2.5 6.5 -2.5 12.5 q0 16 16 16 q94 4 217.5 23 q123.5 19 225.5 43 q15 4 34 4 q26 0 34 -12 q3 -5 13 -21 q10 -16 21 -46 q3 -9 3 -16 q0 -24 -45 -21 Z" /><glyph glyph-name="uni4E13" unicode="&#x4e13;" d="M894 408 q4 -9 4 -19 q0 -26 -34 -26 q-5 0 -19 2 q-44 8 -92 8 q-87 0 -257 -31 q-5 -15 -16 -61 q22 4 89 20 q44 11 55 22 q4 3 8.5 4 q4.5 1 19.5 1 q28 0 51 -19.5 q23 -19.5 37 -47.5 q14 -28 17 -50 q1 -12 -6.5 -21.5 q-7.5 -9.5 -23.5 -21.5 l-22 -20 q-26 -30 -116 -101 q22 -16 31 -33 q9 -17 9 -41 q0 -10 -4 -40 q-10 -59 -39 -59 q-22 0 -56 37 q-51 59 -89 97.5 q-38 38.5 -76 62.5 q-17 10 -17 25 q0 12 12.5 20.5 q12.5 8.5 30.5 6.5 q31 -3 54 -10.5 q23 -7.5 67 -26.5 q29 35 65 94 q7 12 7 14 q0 2 -2 2 l-9 -2 q-9 -2 -47 -12.5 q-38 -10.5 -59 -18.5 q-8 -3 -24 -9 q-16 -6 -24 -6 q-6 0 -12 3.5 q-6 3.5 -15 11.5 l-17 15 q-27 24 -47 46 q-8 8 -8 19 q0 12 16 15 q14 5 25 21.5 q11 16.5 16 39.5 q-78 -16 -132 -31 q-19 -6 -38 -14 q-17 -7 -23 -7 q-11 0 -26 15 l-26 24 q-32 28 -49 45 q-9 9 -9 24 q0 15 16 15 q96 0 307 34 q6 27 13 73 l-6 -2 q-15 -5 -36 -14 q-17 -7 -22 -7 q-6 0 -11 3 q-5 3 -14 11 l-17 16 q-54 51 -54 51 q-4 3 -6.5 9.5 q-2.5 6.5 -2.5 12.5 q0 15 15 15 q88 4 172 18 l5 31 q3 19 4 24 q6 34 6 52 q0 16 -5 29 q-6 16 -6 28 q0 33 38 33 q42 0 70.5 -28 q28.5 -28 40.5 -51 q8 -15 8 -29 q0 -13 -8 -27.5 q-8 -14.5 -10 -20.5 q-2 -6 -2 -10 l64 18 q13 4 31 4 q27 0 36 -13 q12 -17 18 -28.5 q6 -11.5 16 -37.5 q4 -9 4 -17 q0 -11 -8 -17 q-8 -6 -21 -6 q-5 0 -17 2 q-19 4 -46 4 q-47 0 -103 -14 l-6 -26 q-7 -24 -16 -66 q177 31 256 51 q20 5 37 5 q31 0 41 -15 q13 -19 20 -33 q7 -14 19 -44 Z" /><glyph glyph-name="uni4E14" unicode="&#x4e14;" d="M949 59 q4 -9 4 -19 q0 -26 -34 -26 q-5 0 -19 2 q-44 8 -92 8 q-113 0 -321 -17.5 q-208 -17.5 -260 -32.5 q-19 -6 -38 -14 q-17 -7 -23 -7 q-11 0 -26 15 l-26 24 q-32 28 -49 45 q-9 9 -9 24 q0 15 16 15 q68 0 231 10 l2 412 q0 112 -24 170 q-3 5 1 10 q4 5 14 5 q9 0 21 -4 q10 -3 16 -7 q59 3 132 21 q27 8 54 12 q80 13 88 21 q8 8 9 8 q2 0 7.5 -2.5 q5.5 -2.5 16.5 -6.5 q31 -11 46.5 -23 q15.5 -12 20.5 -26.5 q5 -14.5 7 -37.5 q1 -13 -5 -31 q-5 -20 -5 -28 l0 -455 q87 12 128 22 q20 5 37 5 q31 0 41 -15 q13 -19 20 -33 q7 -14 19 -44 ZM413 94 q126 11 180 17 l2 477 l1 11 q0 8 -3 11.5 q-3 3.5 -11 3.5 q-38 0 -67 -6 q-29 -6 -78 -20 l-24 -8 l0 -97 q55 11 76 18 q17 5 33 5 q21 0 31 -10 q8 -9 13 -18 q5 -9 9 -19 l12 -25 q5 -12 5 -18 q0 -20 -29 -20 q-9 0 -14 1 q-23 3 -41 3 q-23 0 -44 -3.5 q-21 -3.5 -51 -11.5 l0 -88 q55 11 76 18 q17 5 33 5 q21 0 31 -10 q8 -9 13 -18 q5 -9 9 -19 l12 -25 q5 -12 5 -18 q0 -20 -29 -20 q-9 0 -14 1 q-23 3 -41 3 q-23 0 -44 -3.5 q-21 -3.5 -51 -11.5 l0 -105 Z" /><glyph glyph-name="uni4E16" unicode="&#x4e16;" d="M942 430 q4 -9 4 -19 q0 -26 -34 -26 q-5 0 -19 2 q-44 8 -92 8 q-31 0 -96 -7 q-6 -25 -22 -75 q32 0 42 -13 q12 -16 18.5 -29 q6.5 -13 18.5 -44 q4 -9 4 -18 q0 -25 -33 -25 q-6 0 -18 2 q-45 7 -87 7 q-38 0 -115 -10 q-4 -12 -7 -18 q-13 -27 -22 -38.5 q-9 -11.5 -17 -11.5 q-6 0 -11.5 8 q-5.5 8 -13.5 26 q-12 27 -23 38.5 q-11 11.5 -13 13.5 q-13 14 -13 28 q0 7 5 12 q9 9 12.5 27.5 q3.5 18.5 3.5 36.5 l1 30 l-71 -15 l5 -95 q0 -12 2 -52 q4 -48 4 -81 q0 -9 3 -13.5 q3 -4.5 13 -4.5 q173 12 348 54 q20 5 37 5 q31 0 41 -15 q13 -19 20 -33 q7 -14 19 -44 q4 -9 4 -19 q0 -26 -34 -26 q-5 0 -19 2 q-44 8 -92 8 q-75 0 -168 -11.5 q-93 -11.5 -147 -27.5 q-24 -7 -40 -15 q-17 -7 -23 -7 q-12 0 -24 16 l-30 37 q-9 12 -25 32 l-3 5 q-10 13 -10 23 q0 6 4 12 q8 10 11 29 q3 19 2 36 l-7 158 l-31 -8 q-19 -6 -38 -14 q-17 -7 -23 -7 q-11 0 -26 15 l-26 24 q-32 28 -49 45 q-9 9 -9 24 q0 15 16 15 q55 0 181 18 l-1 29 q-4 111 -33 168 q-3 5 1 10.5 q4 5.5 16 5.5 q17 0 32 -6.5 q15 -6.5 35 -18.5 l26 -15 q28 -13 28 -43 q0 -8 -1 -12 l5 -101 l78 13 l2 83 q1 52 -3.5 95 q-4.5 43 -20.5 75 q-3 5 1 10 q4 5 14 5 q18 0 33.5 -7.5 q15.5 -7.5 35.5 -21.5 q8 -6 24 -16 q11 -7 18.5 -15.5 q7.5 -8.5 7.5 -24.5 q0 -4 -2 -16 l0 -147 l86 17 q2 44 2 68 l1 34 l1 46 q0 36 -9 54 q-9 16 -9 30 q0 31 43 31 q36 0 64 -22.5 q28 -22.5 40 -40.5 q10 -16 10 -32 q0 -10 -5.5 -23 q-5.5 -13 -6.5 -19 q-7 -51 -15 -103 l97 22 q20 5 37 5 q31 0 41 -15 q13 -19 20 -33 q7 -14 19 -44 ZM594 300 q3 21 10 72 q-25 -4 -77 -14 q2 -43 1 -70 l66 12 Z" /><glyph glyph-name="uni4E19" unicode="&#x4e19;" d="M861 433 q0 -9 -8 -33 l-11 -42 l-15 -216 l-4 -62 q-2 -45 -5.5 -64 q-3.5 -19 -15.5 -33 q-17 -19 -37.5 -32.5 q-20.5 -13.5 -38.5 -13.5 q-31 0 -46 40 q-13 35 -29.5 50.5 q-16.5 15.5 -33 24 q-16.5 8.5 -23.5 12.5 q-11 7 -11 11 q0 6 16 6 q6 0 38 -1 q32 -1 54.5 14.5 q22.5 15.5 25.5 47.5 l20 216 l1 11 q0 8 -3 11.5 q-3 3.5 -11 3.5 q-44 0 -207 -33 q-6 -14 -11.5 -24.5 q-5.5 -10.5 -9.5 -17.5 q8 2 14 2 q29 0 48 -1.5 q19 -1.5 40 -7.5 q46 -12 63 -29.5 q17 -17.5 17 -45.5 q0 -17 -5 -44 q-8 -48 -31 -48 q-18 0 -46 29 q-45 46 -106 103 q-8 8 -11 14 q-39 -63 -86.5 -107.5 q-47.5 -44.5 -91.5 -58.5 q-13 -4 -24 -4 q0 -66 -15 -102 q-21 -52 -36 -52 q-6 0 -12 8 q-6 8 -15 24 q-14 27 -25.5 37.5 q-11.5 10.5 -13.5 12.5 q-14 14 -14 28 q0 8 4 12 q8 8 10 25 q2 17 2 39 l-3 118 q-2 110 -35 168 q-3 5 1.5 10 q4.5 5 16.5 5 q11 0 18 -2 q33 -8 73 -26 q6 -2 10 -6 q70 7 185 27 q7 27 8 45 q4 34 4 56 q0 26 -7 41 l-75 -22 q-19 -6 -38 -14 q-17 -7 -23 -7 q-11 0 -26 15 l-26 24 q-32 28 -49 45 q-9 9 -9 24 q0 15 16 15 q86 0 184.5 18.5 q98.5 18.5 244.5 54.5 l39 9 q20 5 37 5 q31 0 41 -15 q13 -19 20 -33 q7 -14 19 -44 q4 -9 4 -19 q0 -26 -34 -26 q-5 0 -19 2 q-46 8 -83 8 q-46 0 -111 -13 q8 -8 23 -28 q11 -16 11 -31 q0 -10 -6.5 -23.5 q-6.5 -13.5 -7.5 -19.5 q-2 -17 -8 -43 l113 23 q26 6 49 22 q13 10 23 10 q11 0 26 -7 q6 -4 30.5 -15.5 q24.5 -11.5 43.5 -27.5 q19 -16 19 -33 ZM275 151 q26 29 55.5 74.5 q29.5 45.5 54.5 96.5 q-6 -2 -11.5 -3 q-5.5 -1 -9.5 -3 q-11 -3 -20.5 -7 q-9.5 -4 -12.5 -5 q-13 -6 -21 -6 q-11 0 -25 13 l-22 20 l5 -97 q0 -10 1 -19.5 q1 -9.5 2 -17.5 l4 -46 Z" /><glyph glyph-name="uni4E1A" unicode="&#x4e1a;" d="M939 51 q4 -11 4 -20 q0 -29 -37 -29 q-12 0 -27 3 q-55 13 -106 15 q-108 4 -269 -18 q-161 -22 -265 -43 q-18 -3 -47 -14 q-4 -1 -11.5 -3.5 q-7.5 -2.5 -12.5 -2.5 q-12 0 -30 19 l-34 34 q-37 37 -48 50 q-9 11 -9 27 q0 9 5 14.5 q5 5.5 15 4.5 l35 -1 q95 0 235 11 l7 386 q1 61 -4 107 q-5 46 -24 79 q-4 6 0.5 12 q4.5 6 16.5 6 q10 0 22 -4 q19 -6 53 -28 q18 -12 27 -17 q29 -16 29 -45 q0 -4 -2 -16 l-3 -469 l55 6 l31 442 q0 10 1.5 30.5 q1.5 20.5 1.5 36.5 q0 78 -22 122 q-3 5 2 10.5 q5 5.5 16 5.5 q10 0 23 -5 q24 -10 48 -27.5 q24 -17.5 29 -21.5 q12 -8 19 -17 q7 -9 7 -25 q0 -9 -3 -20 l-15 -257 q16 19 36 47 q39 49 43 84 q2 5 4.5 18 q2.5 13 7 19.5 q4.5 6.5 15.5 6.5 q6 0 15 -3 q25 -6 44.5 -26.5 q19.5 -20.5 31.5 -42.5 q12 -22 14 -32 q3 -13 -4.5 -30 q-7.5 -17 -23.5 -27 q-11 -7 -104 -67 l-85 -56 l-9 -150 q104 14 172 29 q22 4 36 4 q18 0 32.5 -5 q14.5 -5 20.5 -15 q14 -23 21.5 -39.5 q7.5 -16.5 19.5 -52.5 ZM221 236 q-30 14 -46 42.5 q-16 28.5 -16 60.5 q0 22 7 40 q9 21 20 31.5 q11 10.5 23 10.5 q15 0 25 -15 q1 -2 5 -8 q4 -6 11 -10 q5 -4 14 -4 q11 0 24 7 q10 5 13 5 q10 0 -11 -31 q-3 -4 -3 -11 q0 -9 5 -23 q5 -14 6 -18 q12 -32 12 -44 q0 -6 -1 -8 q-12 -37 -45 -37 q-17 0 -43 12 Z" /><glyph glyph-name="uni4E1C" unicode="&#x4e1c;" d="M735 273 q-43 7 -87 7 q-31 0 -71 -5 l0 -179 q0 -78 -4 -109 q-4 -31 -21 -50 q-17 -19 -37.5 -32.5 q-20.5 -13.5 -38.5 -13.5 q-31 0 -46 40 q-13 35 -29.5 50.5 q-16.5 15.5 -33 24 q-16.5 8.5 -23.5 12.5 q-11 7 -11 11 q0 6 16 6 q6 0 39.5 -1 q33.5 -1 56 14.5 q22.5 15.5 22.5 47.5 l2 158 q-48 -12 -110 -30 q-24 -7 -40 -15 q-17 -7 -23 -7 q-12 0 -24 16 l-30 37 q-9 12 -25 32 q-3 5 -6 11.5 q-3 6.5 -3 12.5 q0 15 16 15 q7 2 19 17.5 q12 15.5 24 34.5 q17 26 39 64 l15 24 q-7 -2 -34 -12 q-12 -6 -19 -6 q-10 0 -24 14 l-26 22 q-27 22 -42 40 q-8 10 -8 22 q0 14 15 14 q70 0 197 20 q17 36 37 85 q3 7 11 26 q8 19 12.5 34.5 q4.5 15.5 4.5 27.5 q0 6 -1 9 q-1 4 -1 14 q0 38 30 38 q5 0 15 -2 q38 -10 59 -42.5 q21 -32.5 26 -55.5 q2 -12 2 -17 q0 -12 -4.5 -20 q-4.5 -8 -13 -17 q-8.5 -9 -10.5 -14 q-17 -35 -20 -39 q71 14 182 38 q22 4 34 4 q28 0 37 -13 q11 -16 18.5 -31.5 q7.5 -15.5 16.5 -38.5 q4 -9 4 -18 q0 -11 -8 -17 q-8 -6 -22 -6 q-6 0 -18 2 q-35 7 -83 7 q-94 0 -219 -29 q-6 -10 -10 -15 q10 0 22 -4 q21 -6 48 -26 l25 -15 q11 -7 18 -15.5 q7 -8.5 7 -23.5 q0 -11 -2 -17 l0 -15 q62 14 93 22 q20 5 36 5 q31 0 39 -14 q13 -20 19.5 -33 q6.5 -13 17.5 -41 q4 -9 4 -19 q0 -23 -33 -23 q-4 0 -18 2 ZM371 365 q-15 -19 -15 -24 q0 -5 8 -6 q35 4 105 16 q-2 74 -22 120 q-40 -62 -76 -106 ZM793 162 q34 -24 48 -42.5 q14 -18.5 14 -38.5 q0 -19 -15 -59 q-17 -42 -38 -42 q-22 0 -46 40 l-90 148 q-8 14 -8 22 q0 8 6 13 q6 5 16 5 q3 0 13 -2 q56 -13 100 -44 ZM294 181 q8 11 19 11 q17 0 14 -27 l-2 -25 q-3 -45 -8.5 -77 q-5.5 -32 -19.5 -53 q-19 -29 -40 -29 q-12 0 -35 14 q-14 10 -24 27 q-10 17 -10 34 q0 29 25 47 q37 28 50 40 q13 12 31 38 Z" /><glyph glyph-name="uni4E1D" unicode="&#x4e1d;" d="M208 126 q-25 14 -42 31.5 q-17 17.5 -29 41.5 q-10 19 -10 26 q0 4 4.5 6.5 q4.5 2.5 9 3.5 q4.5 1 6.5 2 q35 10 53 33 q54 67 87 112 q-52 -13 -65 -20 q-7 -3 -13 -3 q-10 0 -22 7 q-11 8 -25.5 31.5 q-14.5 23.5 -23.5 49.5 q-1 4 -3 9 q-2 5 -2 8 q0 10 25 10 q21 0 41 25 q20 27 71 117 q3 5 12 21 q9 16 14.5 29.5 q5.5 13.5 5.5 24.5 q0 15 6.5 27 q6.5 12 20.5 12 q6 0 18 -5 q30 -14 43 -43.5 q13 -29.5 13 -46.5 q0 -18 -5 -26.5 q-5 -8.5 -14 -15 q-9 -6.5 -12 -11.5 q-47 -69 -85 -107 q-3 -3 -1.5 -4.5 q1.5 -1.5 5.5 -1.5 l58 0 l1 2 q35 50 35 75 q0 15 6.5 27.5 q6.5 12.5 19.5 12.5 q5 0 17 -5 q24 -12 37.5 -36 q13.5 -24 17.5 -46 q19 0 40 25 q15 20 44 72 l18 31 q15 27 24 46.5 q9 19.5 9 36.5 q0 17 7.5 30 q7.5 13 21.5 13 q10 0 20 -5 q23 -11 37.5 -31.5 q14.5 -20.5 21 -40 q6.5 -19.5 6.5 -28.5 q0 -20 -5 -29 q-5 -9 -15 -16.5 q-10 -7.5 -14 -12.5 q-10 -15 -32 -36.5 q-22 -21.5 -27 -26.5 l-28 -27 q-3 -3 -1.5 -4.5 q1.5 -1.5 5.5 -1.5 l59 0 q26 36 27 57 q1 15 7 26.5 q6 11.5 19 11.5 q8 0 19 -6 q19 -11 30.5 -30 q11.5 -19 16.5 -37.5 q5 -18.5 4 -26.5 q-1 -16 -6.5 -24 q-5.5 -8 -15 -14.5 q-9.5 -6.5 -12.5 -10.5 q-71 -92 -156 -162 q-3 -3 -3 -4 q0 -2 2.5 -3 q2.5 -1 5.5 0 l148 24 q18 2 25 2 q19 0 30.5 -5.5 q11.5 -5.5 11.5 -14.5 q0 -9 -14 -19.5 q-14 -10.5 -41 -19.5 q-69 -23 -133 -49 q-64 -26 -81 -38 q-11 -7 -25 -7 q-10 0 -15 3 q-25 14 -42 31.5 q-17 17.5 -29 41.5 q-2 3 -4 9 q-147 -67 -195 -99 q-11 -7 -25 -7 q-11 0 -15 3 ZM453 439 q-43 -60 -78.5 -103.5 q-35.5 -43.5 -77.5 -78.5 q-3 -3 -3 -4 q0 -2 2.5 -3 q2.5 -1 5.5 0 q26 4 73 17 l59 16 q23 6 37 6 q18 0 26 -8 l9 10 l16 18 q13 15 40 45.5 q27 30.5 42 51.5 q-51 -15 -58 -19 q-7 -3 -13 -3 q-10 0 -22 7 q-9 6 -21 23.5 q-12 17.5 -21 39.5 q-14 -11 -16 -15 ZM918 55 q5 -13 5 -21 q0 -29 -38 -29 q-7 0 -21 2 q-46 9 -101 9 q-105 0 -277 -17.5 q-172 -17.5 -235 -33.5 q-20 -5 -42 -14 q-17 -7 -24 -7 q-12 0 -30 17 l-33 31 q-30 28 -48 46 q-4 4 -7 11.5 q-3 7.5 -3 14.5 q0 17 18 17 l38 -1 q135 0 348.5 22 q213.5 22 320.5 48 q22 5 41 5 q34 0 45 -16 q15 -21 23 -36.5 q8 -15.5 20 -47.5 Z" /><glyph glyph-name="uni4E22" unicode="&#x4e22;" d="M918 313 q4 -9 4 -19 q0 -26 -34 -26 q-5 0 -19 2 q-44 8 -92 8 q-75 0 -222 -26 q1 -9 1 -20 q-1 -14 -14 -32 q-13 -18 -28 -29 l-45 -33 l-49 -37 q-5 -4 -7.5 -8.5 q-2.5 -4.5 -0.5 -7.5 l162 20 l-12 17 q-12 17 -12 29 q0 10 7.5 16 q7.5 6 20.5 6 q10 0 16 -2 q54 -14 105 -45 q42 -26 59 -44.5 q17 -18.5 17 -40.5 q0 -11 -4.5 -27.5 q-4.5 -16.5 -11.5 -34.5 q-19 -50 -42 -50 q-24 0 -54 45 q-26 40 -43 63 q-26 -10 -50 -18.5 q-24 -8.5 -45 -15.5 q-59 -20 -113 -40.5 q-54 -20.5 -68 -29.5 q-12 -8 -28 -8 q-15 0 -23 6 q-8 6 -26 19 q-18 13 -29.5 28 q-11.5 15 -20.5 38 q-11 27 -11 35 q0 8 6.5 10.5 q6.5 2.5 22.5 3.5 q21 1 63.5 48.5 q42.5 47.5 84.5 105.5 q-82 -17 -155 -37 q-19 -6 -38 -14 q-17 -7 -23 -7 q-11 0 -26 15 l-26 24 q-32 28 -49 45 q-9 9 -9 24 q0 15 16 15 q99 0 364 45 l6 15 l1 59 l-33 -9 q-19 -6 -38 -14 q-17 -7 -23 -7 q-11 0 -26 15 l-26 24 q-32 28 -49 45 q-9 9 -9 24 q0 15 16 15 q56 0 99 5 q43 5 91 16 q0 50 -7 91 q-74 -12 -142 -12 q-24 0 -36 3 q-12 3 -12 8 q0 8 22 17 q8 4 28 12 q139 60 197 92 l21 11 q17 9 33.5 18.5 q16.5 9.5 22.5 18.5 q4 5 7 12 q3 7 5.5 11 q2.5 4 7.5 4 q10 0 42 -22 q30 -21 44.5 -34.5 q14.5 -13.5 14.5 -28.5 q0 -17 -26 -36 q-47 -32 -133 -54 q21 -15 21 -37 q0 -4 -2 -16 l0 -31 q6 2 55 14 q20 5 37 5 q31 0 41 -15 q13 -19 20 -33 q7 -14 19 -44 q4 -9 4 -19 q0 -13 -9 -19.5 q-9 -6.5 -25 -6.5 q-5 0 -19 2 q-26 5 -61 5 q-34 0 -62 -5 l0 -79 q179 34 247 51 q20 5 37 5 q31 0 41 -15 q13 -19 20 -33 q7 -14 19 -44 Z" /><glyph glyph-name="uni4E24" unicode="&#x4e24;" d="M786 505 q44 -21 74 -42 q30 -21 30 -46 q0 -13 -9 -23 q-3 -4 -4.5 -10 q-1.5 -6 -1.5 -8 q0 -122 -18 -223 l-11 -64 q-9 -56 -14.5 -78 q-5.5 -22 -17.5 -41 q-15 -23 -39.5 -41.5 q-24.5 -18.5 -48.5 -18.5 q-39 0 -59 57 q-13 36 -36.5 64.5 q-23.5 28.5 -45.5 45.5 q-14 11 -14 16 q0 4 8 4 q7 0 11 -1 l23 -6 q38 -9 53 -9 q46 0 56 55 l6 38 q-8 -23 -23 -23 q-16 0 -40 25 q-32 33 -77 76 q-52 -92 -136 -154 q-21 -15 -29 -15 q-5 0 -5 5 q0 6 8 22 q19 36 35 72 q-11 3 -26 20 q0 0 -49 49 q-45 -81 -115 -133 l-4 -3 l1 -25 q0 -48 -13 -84 q-21 -53 -34 -53 q-6 0 -12 7 q-6 7 -16 24 q-15 28 -27 37.5 q-12 9.5 -14 11.5 q-16 15 -16 29 q0 4 4 10 q13 15 10 65 l-8 130 q-3 55 -11 96.5 q-8 41.5 -29 70.5 q-4 5 0.5 10.5 q4.5 5.5 17.5 5.5 q17 0 31.5 -5.5 q14.5 -5.5 29 -13.5 q14.5 -8 21.5 -12 q73 6 133 15 l5 46 q3 21 3 46 q0 23 -3 32 q-4 -2 -12 -4 q-19 -6 -38 -14 q-17 -7 -23 -7 q-11 0 -26 15 l-26 24 q-32 28 -49 45 q-9 9 -9 24 q0 15 16 15 q96 0 241.5 25 q145.5 25 287.5 59 q20 5 37 5 q31 0 41 -15 q13 -19 20 -33 q7 -14 19 -44 q4 -9 4 -19 q0 -26 -34 -26 q-5 0 -19 2 q-44 8 -92 8 q-19 0 -53 -2 q19 -15 37 -42 q10 -17 10 -30 q0 -9 -6 -22 q-6 -13 -6 -19 l-2 -18 l48 11 q33 8 42 15 q9 7 11 7 q3 0 10.5 -4.5 q7.5 -4.5 16.5 -8.5 ZM455 560 q9 -15 9 -26 q0 -9 -6 -21 q-6 -12 -6 -17 l-6 -47 l59 9 l28 4 l3 24 q3 45 3 48 q0 29 -7 47 q-4 8 -6 23 q-40 -7 -90 -20 q14 -14 19 -24 ZM737 376 q0 8 -3 11.5 q-3 3.5 -12 3.5 q-22 0 -83 -8 q-11 -40 -27 -80 q28 0 55 -7 q30 -8 45.5 -19 q15.5 -11 20.5 -26 q0 20 1 30 q0 49 3 89 l0 6 ZM497 271 q15 46 23 95 q-69 -11 -95 -16 q-4 -15 -11 -34 q7 -1 23 -5 q27 -7 41 -16.5 q14 -9.5 19 -23.5 ZM263 160 q41 84 58 168 q-15 -3 -33 -10 q-12 -4 -22 -9 q-18 -7 -19 -7 l7 -71 l9 -71 Z" /><glyph glyph-name="uni4E25" unicode="&#x4e25;" d="M868 395 q4 -9 4 -19 q0 -26 -34 -26 q-5 0 -19 2 q-44 8 -92 8 q-155 0 -338 -50 q4 -6 6 -11 q1 -2 1 -8 q0 -10 -5 -23 q-5 -13 -13 -23 q-27 -114 -92 -198 q-65 -84 -175 -137 q-30 -15 -47 -15 q-13 0 -13 10 q0 15 23 38 q56 56 105.5 132 q49.5 76 60.5 123 q14 48 14 81 q0 18 -4 33 q0 10 -1 15 q-21 18 -43 40 q-9 9 -9 24 q0 15 16 15 q75 0 200 15 l1 84 q2 51 -4 96 l-6 -2 q-11 -3 -20.5 -7 q-9.5 -4 -12.5 -5 q-13 -6 -21 -6 q-11 0 -25 13 l-25 22 q-42 39 -43 40 q-3 3 -5.5 9.5 q-2.5 6.5 -2.5 12.5 q0 14 14 14 q73 0 158.5 18.5 q85.5 18.5 209.5 52.5 l64 17 q18 5 34 5 q29 0 37 -14 q12 -18 18 -30 q6 -12 17 -40 q4 -9 4 -17 q0 -12 -8 -18 q-8 -6 -23 -6 q-5 0 -17 2 q-45 9 -70 9 q-10 0 -14 -1 l-34 -6 l5 -3 q10 -7 17 -15.5 q7 -8.5 7 -23.5 q0 -7 -3 -18 l-2 -65 q3 5 11 13 q12 14 20.5 33 q8.5 19 9.5 35 q1 6 2.5 16 q1.5 10 5 15.5 q3.5 5.5 13.5 5.5 q1 0 11 -2 q19 -5 35 -20.5 q16 -15.5 26 -32 q10 -16.5 12 -22.5 q1 -3 1 -9 q0 -22 -20 -38 q-31 -25 -93 -63 l54 12 q20 5 37 5 q31 0 41 -15 q13 -19 20 -33 q7 -14 19 -44 ZM513 633 q11 -11 11 -29 q0 -3 -2 -15 l0 -152 l28 4 l4 84 q2 34 2 52 q0 32 -5 67 q-16 -4 -38 -11 ZM385 557 q9 3 9 -1 q0 -4 -10.5 -16 q-10.5 -12 -14.5 -18 q-4 -5 -1.5 -11.5 q2.5 -6.5 7 -12.5 q4.5 -6 5.5 -8 q16 -20 14 -32 q-3 -16 -13.5 -26 q-10.5 -10 -27.5 -10 q-17 0 -34 8 q-36 16 -46.5 38 q-10.5 22 -10.5 62 q0 18 9 32.5 q9 14.5 20 14.5 q7 0 12 -8 q16 -24 31 -24 q18 0 31.5 5 q13.5 5 19.5 7 Z" /><glyph glyph-name="uni4E2A" unicode="&#x4e2a;" d="M980 331 q11 -4 11 -9 q0 -5 -15 -7 q-29 -4 -45 -12.5 q-16 -8.5 -41 -32.5 q-19 -17 -47 -17 q-27 0 -47 15 q-78 60 -161.5 145.5 q-83.5 85.5 -142.5 159.5 q-11 -17 -39 -53 q7 -4 12.5 -8 q5.5 -4 10.5 -7 l29 -18 q11 -7 18.5 -15.5 q7.5 -8.5 7.5 -24.5 q0 -4 -2 -16 l0 -271 q0 -22 1 -36 l1 -54 q0 -88 -22 -134 q-13 -27 -22 -38.5 q-9 -11.5 -17 -11.5 q-6 0 -11.5 8 q-5.5 8 -13.5 26 q-12 27 -23 38.5 q-11 11.5 -13 13.5 q-13 14 -13 28 q0 7 5 12 q9 9 12.5 27.5 q3.5 18.5 3.5 36.5 l4 271 q2 77 -9 125 q-74 -84 -160 -156 q-86 -72 -166 -108 q-19 -8 -26 -8 q-9 0 -9 8 q0 10 15 27 q113 122 181.5 208.5 q68.5 86.5 122.5 182.5 q3 5 15.5 26 q12.5 21 19.5 38.5 q7 17.5 7 30.5 q0 20 7.5 36 q7.5 16 25.5 16 q8 0 21 -5 q27 -11 43.5 -34 q16.5 -23 23.5 -46 q7 -23 6 -33 q0 -8 -5 -18 q137 -124 245 -198.5 q108 -74.5 201 -107.5 Z" /><glyph glyph-name="uni4E2D" unicode="&#x4e2d;" d="M844 561 q1 -6 1 -13 q0 -6 -2 -11 q-2 -5 -7 -12 q-16 -25 -24 -41 q-3 -5 -13 -23.5 q-10 -18.5 -17.5 -36.5 q-7.5 -18 -14.5 -39 q13 -21 20 -34.5 q7 -13.5 17 -40.5 q4 -9 4 -19 q0 -26 -34 -26 q-5 0 -19 2 q-44 8 -92 8 q-48 0 -111 -6 l0 -131 q0 -22 1 -36 l1 -54 q0 -88 -22 -134 q-13 -27 -22 -38.5 q-9 -11.5 -17 -11.5 q-6 0 -11.5 8 q-5.5 8 -13.5 26 q-12 27 -23 38.5 q-11 11.5 -13 13.5 q-13 14 -13 28 q0 7 5 12 q9 9 12.5 27.5 q3.5 18.5 3.5 36.5 l1 202 q-64 -9 -90 -13 l0 -3 q3 -22 -6.5 -39 q-9.5 -17 -25.5 -17 q-14 0 -29 15 q-21 22 -37 30 q-16 8 -20 10 q-15 9 -20.5 19.5 q-5.5 10.5 -2.5 18.5 q3 8 3 16 q0 16 -5 34.5 q-5 18.5 -6 21.5 l-15 55 q-12 44 -29 73 q-17 29 -49 61 q-7 7 0 14.5 q7 7.5 33 10.5 q27 2 70 -9 q92 11 232 31 l0 48 q0 56 -4.5 97.5 q-4.5 41.5 -19.5 72.5 q-3 5 1 10 q4 5 14 5 q18 0 33.5 -7.5 q15.5 -7.5 35.5 -21.5 q8 -6 24 -16 q11 -7 18.5 -15.5 q7.5 -8.5 7.5 -24.5 q0 -4 -2 -16 l0 -116 l89 12 q18 2 28.5 8 q10.5 6 22.5 15 q6 5 11.5 8.5 q5.5 3.5 11.5 3.5 q10 0 24 -10 l18 -9 q36 -17 60.5 -33 q24.5 -16 26.5 -35 ZM552 370 q26 4 58 11 l38 7 q16 44 28 96 l2 12 q0 14 -15 14 q-43 0 -111 -9 l0 -131 ZM333 337 q69 9 109 16 l1 133 q-57 -8 -150 -26 q3 -9 16.5 -44.5 q13.5 -35.5 23.5 -78.5 Z" /><glyph glyph-name="uni4E32" unicode="&#x4e32;" d="M836 330 q2 -17 -7 -29 q-9 -12 -18.5 -20 q-9.5 -8 -12.5 -11 q-4 -4 -15 -14 q-11 -10 -21.5 -23 q-10.5 -13 -19.5 -32 q10 -21 20 -46 q4 -9 4 -19 q0 -26 -34 -26 q-5 0 -19 2 q-44 8 -92 8 q-31 0 -64 -3 l0 -68 l0 -40 q0 -63 -10 -105 q-4 -16 -13.5 -23.5 q-9.5 -7.5 -21.5 -7.5 q-9 0 -17 4 q-8 4 -12 11 l-17 29 q-11 20 -14 23 q-12 13 -12 26 q0 6 4 14 q2 3 4 124 l-63 -9 q1 -21 -8.5 -37 q-9.5 -16 -24.5 -16 q-13 0 -28 15 q-21 22 -37 30 q-16 8 -20 10 q-15 9 -20.5 19.5 q-5.5 10.5 -2.5 18.5 q4 10 4 16 q0 6 -2.5 14.5 q-2.5 8.5 -3.5 13.5 l-6 22 q-13 47 -25 71 q-12 24 -42 54 q-7 7 0 14.5 q7 7.5 33 10.5 q27 2 65 -8 q30 4 117 17 l65 10 l0 47 q-45 -8 -56 -10 q-1 -19 -10 -32.5 q-9 -13.5 -23 -13.5 q-13 0 -28 15 q-21 22 -37 30 q-16 8 -20 10 q-15 9 -20.5 19.5 q-5.5 10.5 -2.5 18.5 q3 8 3 15 q0 9 -4.5 26 q-4.5 17 -6.5 25 q-7 29 -19 49.5 q-12 20.5 -41 49.5 q-5 5 -3 11 q2 6 14 10.5 q12 4.5 35 4.5 q25 0 68 -13 q48 6 151 25 l0 64 q0 31 -3 51 q-3 20 -11 42 q-2 5 2 10 q4 5 14 5 q9 0 20 -4 q17 -6 62 -28 q26 -13 26 -40 q0 -4 -2 -16 l0 -66 l39 6 l31 5 q23 3 48 13 q12 6 21 6 q12 0 29 -8 q7 -3 24 -18 q17 -15 30.5 -33 q13.5 -18 13.5 -31 q0 -9 -7 -15 q-31 -23 -69 -85 q1 -3 14 -33 q4 -9 4 -19 q0 -15 -13.5 -20.5 q-13.5 -5.5 -39.5 -3.5 q-37 3 -64 3 q-34 0 -61 -4 l0 -52 q25 4 90 13 q20 3 33 7.5 q13 4.5 15 5.5 q16 6 22 6 q11 0 28 -8 q24 -10 56 -33 q32 -23 35 -47 ZM629 591 q-48 -4 -72 -8 l0 -43 q40 7 63 13 q8 2 12 2 l10 22 q3 8 3 10 q0 5 -6 5 l-10 -1 ZM449 566 q-21 -4 -85 -17 q11 -34 12 -41 l73 12 l0 46 ZM557 224 q65 12 85 17 q17 33 20 41 q3 8 3 10 q0 5 -6 5 l-10 -1 q-48 -4 -92 -10 l0 -62 ZM449 205 l0 65 l-74 -13 l-25 -5 q10 -32 17 -61 l82 14 Z" /><glyph glyph-name="uni4E34" unicode="&#x4e34;" d="M355 188 q0 -22 1 -36 l1 -54 q0 -88 -22 -134 q-13 -27 -22 -38.5 q-9 -11.5 -17 -11.5 q-6 0 -11.5 8 q-5.5 8 -13.5 26 q-12 27 -23 38.5 q-11 11.5 -13 13.5 q-13 14 -13 28 q0 7 5 12 q9 9 12.5 27.5 q3.5 18.5 3.5 36.5 l4 473 q0 56 -4.5 97.5 q-4.5 41.5 -19.5 72.5 q-3 5 1 10 q4 5 14 5 q18 0 33.5 -7.5 q15.5 -7.5 35.5 -21.5 q8 -6 24 -16 q11 -7 18.5 -15.5 q7.5 -8.5 7.5 -24.5 q0 -4 -2 -16 l0 -313 l6 10 q40 63 71 124.5 q31 61.5 67 149.5 q27 66 24 96 l-1 11 q0 18 7 30.5 q7 12.5 24 12.5 q7 0 16 -3 q27 -8 44.5 -27.5 q17.5 -19.5 23.5 -33 q6 -13.5 14 -36.5 q4 -11 4 -21 q0 -11 -4.5 -18.5 q-4.5 -7.5 -13 -17 q-8.5 -9.5 -10.5 -14.5 l-11 -22 q54 9 138 30 q20 5 37 5 q26 0 34 -11 q14 -18 21.5 -31.5 q7.5 -13.5 17.5 -37.5 q4 -9 4 -18 q0 -23 -34 -23 q-9 0 -14 1 q-13 2 -45 2 q-34 0 -67.5 -4 q-33.5 -4 -55.5 -12 q-22 -8 -31 -13 q-18 -8 -25 -8 q-10 0 -23 14 l-11 12 q-69 -100 -177 -157 q-23 -12 -30 -9 l0 -141 ZM186 537 q26 -13 26 -40 q0 -4 -2 -16 l0 -173 l0 -40 q0 -63 -10 -105 q-4 -16 -13.5 -23.5 q-9.5 -7.5 -21.5 -7.5 q-9 0 -17 4 q-8 4 -12 11 l-17 29 q-11 20 -14 23 q-12 13 -12 26 q0 6 4 14 q5 10 5 150 l0 72 q0 31 -3 51 q-3 20 -11 42 q-2 5 2 10 q4 5 14 5 q9 0 20 -4 q17 -6 62 -28 ZM826 347 q9 -4 31.5 -23 q22.5 -19 40.5 -40.5 q18 -21.5 18 -36.5 q0 -10 -8 -15 q-21 -14 -40 -50 q-19 -36 -28 -74 q11 -16 23 -50 q4 -9 4 -19 q0 -21 -27 -21 q-9 0 -23 3 q-40 10 -69 10 l-15 -1 q-15 -2 -47 -4 q-10 -1 -41 -4 q-31 -3 -55 -6.5 q-24 -3.5 -44 -9.5 q-4 -48 -18 -48 q-5 0 -13.5 6.5 q-8.5 6.5 -18.5 15.5 q-20 19 -33.5 25.5 q-13.5 6.5 -16.5 7.5 q-13 7 -19 16.5 q-6 9.5 -2 17.5 q2 6 2 10 q0 10 -4.5 26 q-4.5 16 -5.5 25 q-21 123 -57 171 q-7 6 -1 13.5 q6 7.5 29 9.5 q8 1 24 1 l51 -1 q6 0 10 -1 q86 8 174 25 q-39 40 -96 93 q-13 12 -13 24 q0 9 8.5 14.5 q8.5 5.5 24.5 5.5 q32 0 50 -1.5 q18 -1.5 38 -6.5 q45 -11 62 -29.5 q17 -18.5 17 -47.5 q0 -16 -3 -34 q23 5 34 11.5 q11 6.5 15 6.5 q5 0 21.5 -6.5 q16.5 -6.5 20.5 -8.5 ZM766 233 q1 4 1 9 q0 4 -1.5 5 q-1.5 1 -3 1 q-1.5 0 -2.5 0 q-9 0 -69 -7 l1 -8 q0 -4 -2 -14 l0 -93 l46 8 q25 68 30 99 ZM579 223 q-15 -3 -42 -10 q-18 -6 -22 -8 l17 -96 q2 -4 2 -6 l26 3 l22 3 l0 26 q2 44 -3 88 Z" /><glyph glyph-name="uni4E3A" unicode="&#x4e3a;" d="M847 443 q0 -9 -8 -33 l-11 -42 q-26 -139 -44 -257 q-10 -63 -25.5 -99 q-15.5 -36 -36.5 -60 q-40 -44 -72 -44 q-29 0 -50 38 q-16 30 -50.5 61.5 q-34.5 31.5 -67.5 53.5 q-13 9 -13 17 q0 5 5 8.5 q5 3.5 14 2.5 q11 -1 21 -3 q10 -2 17 -3 q38 -9 63 -9 q47 0 53 36 q11 58 28 119 q2 9 11.5 48.5 q9.5 39.5 17.5 90.5 q1 5 1 12 q0 15 -14 14 q-41 -6 -166 -32 l-19 -35 q31 -6 61 -17 q36 -15 51 -31 q15 -16 15 -38 q0 -16 -11 -53 q-12 -42 -34 -42 q-19 0 -42 33 q-43 61 -70 93 q-146 -253 -320 -326 q-24 -9 -36 -9 q-13 0 -13 8 q0 10 18 28 q147 146 246 356 l-53 -13 q-12 -3 -36 -11 q-15 -6 -23 -6 q-12 0 -28 16 l-26 24 q-32 28 -49 45 q-9 9 -9 24 q0 15 16 15 q84 0 262 32 q25 65 57 164 l7 23 q9 28 14 46.5 q5 18.5 5 34.5 q0 7 -2 17 q-3 12 -3 25 q0 40 38 40 q54 0 79.5 -36.5 q25.5 -36.5 36.5 -72.5 q4 -12 4 -24 q0 -13 -4.5 -22.5 q-4.5 -9.5 -13.5 -20.5 q-10 -15 -11 -18 l-13 -33 l-37 -92 l75 17 q32 7 46 16.5 q14 9.5 19 9.5 q7 0 33 -10 q97 -39 97 -76 ZM375 504 q-19 -23 -41 -23 q-29 0 -55 39 q-20 28 -20 66 q0 45 31 97 q8 13 18.5 20.5 q10.5 7.5 19.5 7.5 q9 0 13.5 -6.5 q4.5 -6.5 2.5 -18.5 q-1 -4 -1 -10 q0 -8 8 -8 q12 0 51 18 q6 3 8 3 q8 0 1.5 -15 q-6.5 -15 -17.5 -28 q-6 -7 -6 -28 q0 -15 1 -23 l1 -30 q0 -42 -15 -61 Z" /><glyph glyph-name="uni4E3B" unicode="&#x4e3b;" d="M440 613 q0 30 -6 53.5 q-6 23.5 -24 42.5 q-13 14 -13 21 q0 9 23 15 q21 6 45 6 q19 0 38 -4 q38 -9 54.5 -29.5 q16.5 -20.5 16.5 -52.5 q0 -16 -5 -41 q-4 -23 -17 -37.5 q-13 -14.5 -27 -14.5 q-23 0 -31 36 q-1 7 -8.5 12.5 q-7.5 5.5 -14.5 5.5 q-13 0 -16 -15 q-1 -4 -3 -6.5 q-2 -2.5 -5 -2.5 q-7 0 -7 11 ZM910 21 q4 -11 4 -20 q0 -29 -36 -29 q-11 0 -23 3 q-62 12 -89 12 l-13 -1 q-40 -5 -171 -12 q-128 -7 -203 -13 q-75 -6 -108 -15 q-25 -7 -39 -13 q-21 -7 -27 -7 q-12 0 -30 17 q-56 52 -81 77 q-4 4 -7 11.5 q-3 7.5 -3 13.5 q0 18 19 18 q129 0 339 14 l1 114 l-6 -2 q-20 -5 -41 -14 q-17 -7 -24 -7 q-11 0 -30 16 l-63 56 l-21 19 q-4 4 -7 11.5 q-3 7.5 -3 14.5 q0 17 18 17 q95 0 179 18 l0 12 q0 55 -2 83 q-40 -9 -57 -14 q-20 -5 -41 -14 q-17 -7 -24 -7 q-11 0 -30 16 l-63 56 l-21 19 q-4 4 -7 11.5 q-3 7.5 -3 14.5 q0 17 18 17 q92 0 209 17.5 q117 17.5 214 44.5 q20 6 40 6 q32 0 45 -17 q15 -19 22.5 -34 q7.5 -15 21.5 -50 q5 -13 5 -21 q0 -14 -10.5 -21 q-10.5 -7 -28.5 -7 q-6 0 -20 2 q-52 9 -85 9 q-12 0 -17 -1 l-56 -7 q0 -12 -2 -19 l0 -68 l32 9 q20 6 40 6 q32 0 45 -17 q15 -19 22.5 -34 q7.5 -15 21.5 -50 q5 -13 5 -21 q0 -14 -10.5 -21 q-10.5 -7 -28.5 -7 q-6 0 -20 2 q-21 4 -49 4 q-20 0 -58 -4 l0 -129 q155 15 230 33 q20 5 37 5 q36 0 48 -18 q15 -21 23 -36.5 q8 -15.5 19 -48.5 Z" /><glyph glyph-name="uni4E3E" unicode="&#x4e3e;" d="M960 241 q11 -4 11 -9 q0 -6 -16 -7 q-29 -2 -44.5 -10 q-15.5 -8 -42.5 -31 q-18 -15 -45 -15 q-29 0 -49 17 q-81 69 -149 145 l14 -32 q3 -9 3 -15 q0 -22 -31 -22 q-8 0 -12 1 q-24 3 -43 3 q-10 0 -30 -2 l0 -63 q77 13 113 23 q22 4 32 4 q27 0 36 -13 q10 -15 17 -28.5 q7 -13.5 17 -37.5 q3 -9 3 -16 q0 -12 -8 -18 q-8 -6 -21 -6 q-4 0 -16 2 q-21 5 -62 5 q-48 0 -110 -8 q1 -16 1 -54 q0 -88 -22 -133 q-13 -27 -22 -38.5 q-9 -11.5 -17 -11.5 q-6 0 -11.5 8 q-5.5 8 -13.5 26 q-12 27 -23 38.5 q-11 11.5 -13 13.5 q-13 14 -13 28 q0 7 5 12 q9 9 12.5 27.5 q3.5 18.5 3.5 36.5 l1 28 q-33 -7 -57 -15 q-15 -5 -36 -14 q-17 -7 -22 -7 q-6 0 -11 3 q-5 3 -14 11 l-21 21 q-31 31 -50 46 q-4 3 -7 9.5 q-3 6.5 -3 12.5 q0 15 16 15 q103 3 207 16 l1 51 q-12 -4 -29 -11 q-16 -7 -21 -7 q-9 0 -23 13 l-25 24 l-29 28 q-90 -83 -173 -117 q-47 -19 -66 -19 q-13 0 -13 8 q0 13 38 48 q56 52 103 103.5 q47 51.5 77 90.5 l5 7 q-10 -3 -19 -7 q-9 -4 -13 -5 q-18 -8 -25 -8 q-13 0 -30 16 q-20 18 -30 26 q-40 36 -53 50 q-4 4 -7 11.5 q-3 7.5 -3 14.5 q0 17 18 17 q67 0 173 13 q-11 8 -23 23 q-20 25 -20 58 q0 36 30 87 q16 25 37 25 q8 0 12.5 -5.5 q4.5 -5.5 2.5 -15.5 q-1 -4 -1 -9 q0 -7 7 -7 q10 0 49 16 q12 5 12 -3 q0 -6 -6 -16 q-6 -10 -13 -17 q-7 -6 -7 -29 q0 -13 1 -20 l1 -25 q0 -36 -14 -53 q97 15 140 23 l52 87 l20 32 q23 41 23 76 q0 8 -1 15 q-1 7 -1 14 q0 12 6.5 18.5 q6.5 6.5 25.5 6.5 q24 0 45.5 -12 q21.5 -12 36.5 -27 q15 -15 19 -23 q5 -8 5 -20 q0 -23 -16 -39 q-48 -51 -103 -106 l113 26 q22 5 41 5 q34 0 45 -16 q15 -21 23 -36.5 q8 -15.5 20 -48.5 q5 -13 5 -21 q0 -14 -10 -21 q-10 -7 -28 -7 q-5 0 -21 2 q-48 9 -101 9 q-21 0 -65 -2 q103 -97 181.5 -150.5 q78.5 -53.5 163.5 -86.5 ZM493 619 q-18 -18 -38 -18 q-26 0 -52 29 q-20 23 -20 51 q0 35 29 74 q16 20 36 20 q9 0 13 -4.5 q4 -4.5 2 -13.5 q-1 -3 -1 -8 q0 -6 6 -6 q7 0 25.5 6 q18.5 6 24.5 8 q12 4 12 -3 q0 -4 -6 -12.5 q-6 -8.5 -13 -14.5 q-7 -6 -7 -24 q0 -9 1 -19 q1 -10 1 -21 q0 -30 -13 -44 ZM542 371 q20 4 30 4 q12 0 17 -2 q-43 52 -71 93 q-47 -7 -108 -20 l0 -1 l1 -3 l19 -4 q17 -5 47 -25 q11 -8 25 -16 q21 -13 25 -30 q5 2 15 4 ZM343 335 q29 2 72 8 q-3 34 -12 62 l-10 -14 q-19 -24 -50 -56 Z" /><glyph glyph-name="uni4E45" unicode="&#x4e45;" d="M952 -12 q12 -6 12 -12 q0 -8 -20 -8 q-34 0 -54 -8.5 q-20 -8.5 -55 -33.5 q-21 -15 -49 -15 q-38 0 -65 24 q-81 76 -127.5 137.5 q-46.5 61.5 -102.5 153.5 q-73 -101 -166.5 -174.5 q-93.5 -73.5 -208.5 -91.5 q-21 -3 -34 -3 q-30 0 -30 12 q0 5 8.5 13 q8.5 8 23.5 16 q94 50 167.5 127.5 q73.5 77.5 121.5 155 q48 77.5 97 171.5 q6 12 6 15 q0 1 -2 1 q-4 0 -8 -2 q-23 -8 -51 -23 q-30 -17 -44 -17 q-8 0 -19 8 q-77 -74 -187 -106 q-21 -6 -30 -6 q-7 0 -7 4 q0 6 16 25 q62 71 98.5 124.5 q36.5 53.5 87.5 145.5 q18 33 28 57 q10 24 9 42 q-2 20 5 36.5 q7 16.5 26 16.5 q10 0 19 -4 q39 -14 56 -46.5 q17 -32.5 24 -61.5 q2 -7 2 -17 q0 -13 -5 -21 q-5 -8 -16 -19 q-9 -7 -13 -15 l-12 -22 l22 6 q41 9 55 21 q4 4 8 5 q4 1 20 1 q29 0 51.5 -16 q22.5 -16 36 -40 q13.5 -24 16.5 -45 q2 -13 -5.5 -24.5 q-7.5 -11.5 -24.5 -30.5 q-12 -12 -21 -24 l-20 -35 l-47 -81 q102 -111 199 -184 q97 -73 209 -132 Z" /><glyph glyph-name="uni4E48" unicode="&#x4e48;" d="M495 570 q-81 -109 -164 -184.5 q-83 -75.5 -192 -106.5 q-13 -4 -24 -4 q-12 0 -12 7 q0 10 18 25 q51 44 108 119.5 q57 75.5 136 189.5 q23 34 35 55 q12 21 13 40 q0 19 8 33.5 q8 14.5 25 14.5 q10 0 23 -6 q37 -18 52 -55.5 q15 -37.5 15 -61.5 q0 -22 -7 -32.5 q-7 -10.5 -18.5 -19.5 q-11.5 -9 -15.5 -14 ZM766 197 q40 -35 56.5 -59 q16.5 -24 16.5 -48 q0 -15 -6 -32 q-6 -17 -19 -44 q-23 -50 -49 -50 q-27 0 -56 56 l-32 56 l-59 -18 q-104 -32 -197 -62 q-93 -30 -111 -40 q-11 -6 -27 -6 q-18 0 -30 8 q-32 21 -55 54 q-23 33 -36 71 q-9 26 -9 35 q0 9 6 11.5 q6 2.5 25 5.5 q17 2 45.5 17.5 q28.5 15.5 47.5 33.5 q131 120 250 306 q4 7 18 28 q14 21 22 39.5 q8 18.5 8 32.5 q1 20 9.5 36 q8.5 16 25.5 16 q11 0 24 -7 q27 -14 43 -38.5 q16 -24.5 22.5 -48.5 q6.5 -24 6.5 -36 q1 -22 -6 -33 q-7 -11 -21 -22 q-10 -7 -15 -14 q-48 -65 -121 -146 q-73 -81 -148 -147 q-4 -4 -4 -6 q0 -5 11 -5 q142 13 220 22 q-22 34 -40 65 q-9 15 -9 27 q0 11 8.5 18 q8.5 7 21.5 7 q11 0 22 -4 q39 -12 71.5 -29.5 q32.5 -17.5 69.5 -49.5 Z" /><glyph glyph-name="uni4E49" unicode="&#x4e49;" d="M958 -2 q10 -6 10 -14 q0 -7 -6 -11 q-6 -4 -18 -4 q-7 0 -12 1 q-16 2 -22 2 q-29 0 -53 -11.5 q-24 -11.5 -47 -32.5 q-24 -20 -44 -20 q-28 0 -67 36 q-121 114 -235 237 q-148 -166 -359 -233 q-17 -5 -25 -5 q-19 0 -19 13 q0 11 18 25 q176 122 303 291 l-22 25 q-71 81 -110 118 q-17 16 -28 22 q-11 6 -21 6 q-8 0 -19 -3 q-9 -3 -18 -3 q-15 0 -26.5 6.5 q-11.5 6.5 -11.5 17.5 q0 18 31 42 q25 19 52 19 q32 0 66 -27 l60 -51 l105 -88 q67 107 93 200 q3 9 12 39 q9 30 9 52 q0 13 -2 19 q-4 14 -4 23 q0 16 8.5 26.5 q8.5 10.5 27.5 10.5 q7 0 11 -1 q30 -5 52.5 -24 q22.5 -19 35 -40 q12.5 -21 15.5 -33 q4 -12 4 -24 q0 -11 -3.5 -19 q-3.5 -8 -10.5 -18 q-9 -11 -11 -18 q-59 -158 -137 -273 q210 -164 418 -278 ZM378 518 q-29 15 -45 44 q-16 29 -16 60 q0 23 7 40 q9 21 20 31.5 q11 10.5 23 10.5 q15 0 25 -15 q2 -3 5.5 -9 q3.5 -6 9.5 -9 q5 -4 14 -4 q11 0 24 7 q9 5 13 5 q10 0 -11 -31 q-3 -4 -3 -11 q0 -9 4.5 -23 q4.5 -14 6.5 -19 q16 -37 11 -51 q-12 -38 -45 -38 q-20 0 -43 12 Z" /><glyph glyph-name="uni4E4B" unicode="&#x4e4b;" d="M367 594 q0 34 -7.5 61.5 q-7.5 27.5 -28.5 49.5 q-16 16 -16 24 q0 6 6.5 9.5 q6.5 3.5 21.5 7.5 q26 8 52 8 q24 0 45 -5 q42 -9 66.5 -33.5 q24.5 -24.5 24.5 -57.5 q0 -25 -15 -51 q-8 -14 -22 -20.5 q-14 -6.5 -31 -6.5 q-22 0 -33 8 q-4 3 -15.5 11 q-11.5 8 -18.5 8 q-9 0 -12 -15 q-1 -5 -4 -8 q-3 -3 -6 -3 q-3 0 -5 3.5 q-2 3.5 -2 9.5 ZM939 68 q13 1 21.5 -4.5 q8.5 -5.5 8.5 -12.5 q0 -10 -18 -18 q-34 -13 -51.5 -26.5 q-17.5 -13.5 -55.5 -51.5 l-17 -18 q-21 -21 -59 -21 q-24 0 -74 9 q-16 4 -39 7 q-111 18 -243 81 q-33 16 -66 39.5 q-33 23.5 -73 56.5 q-17 14 -31.5 24.5 q-14.5 10.5 -19.5 11.5 q-4 1 -9 1 q-5 0 -8 -2.5 q-3 -2.5 -9.5 -11.5 q-6.5 -9 -19.5 -21 q-12 -11 -29 -11 q-26 0 -71 36 q-25 21 -25 37 q0 15 25 30 q21 13 39.5 19.5 q18.5 6.5 44.5 6.5 q7 0 27 -2 q106 62 181.5 112.5 q75.5 50.5 181.5 126.5 q7 4 7 9 q0 6 -11 3 l-257 -94 q-5 -2 -24.5 -9 q-19.5 -7 -30.5 -7 q-8 0 -15 4 q-7 4 -17 13 l-40 39 l-33 31 q-4 4 -6.5 10.5 q-2.5 6.5 -2.5 12.5 q0 17 17 16 q68 -2 225.5 26 q157.5 28 224.5 54 q30 12 35 22 q2 4 7 5.5 q5 1.5 27 2.5 q24 1 45.5 -15 q21.5 -16 35.5 -40 q14 -24 17 -41 q1 -5 1 -13 q0 -42 -51 -54 q-121 -79 -370 -229 q-10 -6 -18.5 -11.5 q-8.5 -5.5 -16.5 -9.5 q85 -57 162 -74 l52 -14 q45 -14 84 -22.5 q39 -8.5 81 -8.5 q25 0 133 -3 q58 -2 84 -2 q28 0 44 1 Z" /><glyph glyph-name="uni4E4E" unicode="&#x4e4e;" d="M942 326 q3 -10 3 -18 q0 -13 -8.5 -20 q-8.5 -7 -22.5 -7 q-6 0 -24 4 q-42 12 -91 14 q-69 3 -198 -14 q1 -19 1 -59 q0 -66 -4 -123 q-6 -117 -48 -185 q-11 -17 -33 -29 q-22 -12 -45 -12 q-22 0 -39 12 q-17 12 -24 36 q-12 41 -28 64 q-16 23 -39 36 q-11 7 -11 11 q0 6 16 6 q12 0 32 -5 q28 -6 41 -6 q39 0 43 43 q9 102 8 193 q-159 -27 -240 -45 q-20 -5 -38 -11 q-15 -6 -23 -6 q-11 0 -26 16 q-29 29 -29 29 q-25 23 -42 44 q-8 10 -8 23 q0 17 17 16 q98 -4 386 33 q-1 29 -7 89 q-11 98 -38 151 q-74 -11 -140 -9 q-34 1 -34 11 q0 8 22 17 q8 4 28 12 q139 60 197 92 l21 11 q17 9 33.5 18.5 q16.5 9.5 22.5 18.5 q4 5 7 12 q3 7 5.5 11 q2.5 4 7.5 4 q10 0 42 -22 q30 -21 44.5 -34.5 q14.5 -13.5 14.5 -28.5 q0 -17 -26 -36 q-45 -32 -145 -57 l4 -2 q22 -7 35 -57 q12 -42 16 -68 l43 46 q15 16 26 36.5 q11 20.5 13 39.5 q2 6 3.5 17 q1.5 11 5.5 17 q4 6 14 6 q8 0 14 -2 q22 -7 40 -25.5 q18 -18.5 29 -38 q11 -19.5 13 -27.5 q2 -12 -5 -26 q-7 -14 -20 -25 q-20 -16 -67.5 -45 q-47.5 -29 -95.5 -52 q2 -12 4 -36 q101 14 235 36 q18 2 27 2 q39 0 49 -17 q13 -21 19.5 -35 q6.5 -14 16.5 -44 ZM392 498 q8 4 12 4 q3 0 3 -3 q0 -4 -5.5 -12 q-5.5 -8 -7.5 -11 q-3 -4 -3 -10 q0 -8 6 -24 q7 -17 7 -28 q0 -5 -1 -8 q-11 -33 -39 -33 q-13 0 -37 11 q-25 13 -40.5 40.5 q-15.5 27.5 -15.5 55.5 q0 21 9 37 q25 44 43 44 q9 0 16 -15 q5 -12 10 -28 q3 -15 10 -20 q9 -6 16 -6 q7 0 17 6 Z" /><glyph glyph-name="uni4E50" unicode="&#x4e50;" d="M337 617 q-16 1 -24.5 4 q-8.5 3 -8.5 7 q0 8 22 17 q102 42 194 91 l22 11 q5 2 19 9.5 q14 7.5 23.5 14 q9.5 6.5 13.5 12.5 q4 5 7 12 q3 7 5.5 11 q2.5 4 7.5 4 q12 0 43 -23 q28 -20 42.5 -34.5 q14.5 -14.5 14.5 -28.5 q0 -20 -27 -36 q-50 -35 -139 -53.5 q-89 -18.5 -182 -18.5 l-33 1 ZM701 348 q-46 0 -140 -14 l0 -235 q0 -78 -4 -109 q-4 -31 -21 -50 q-17 -19 -37.5 -32.5 q-20.5 -13.5 -38.5 -13.5 q-31 0 -46 40 q-13 35 -29.5 50.5 q-16.5 15.5 -33 24 q-16.5 8.5 -23.5 12.5 q-11 7 -11 11 q0 6 16 6 q6 0 39.5 -1 q33.5 -1 56 14.5 q22.5 15.5 22.5 47.5 l1 216 q-107 -22 -150 -35 q-24 -7 -40 -15 q-17 -7 -23 -7 q-12 0 -24 16 l-30 37 q-9 13 -25 32 q-9 11 -9 24 q0 10 7 13 l5 4 q11 7 27 36.5 q16 29.5 23 57.5 q11 42 17.5 73.5 q6.5 31.5 6.5 60.5 q0 14 -4 36 q-1 4 2 8 q3 4 9 4 q10 0 27 -10 q16 -9 40 -37 l19 -21 q16 -16 16 -34 q0 -13 -7 -27 l-15 -37 l-9 -26 q-11 -31 -22 -58 q-3 -8 -4 -13 q-1 -5 2 -7 q81 10 162 24 q0 55 -4.5 95.5 q-4.5 40.5 -19.5 71.5 q-3 5 1 10 q4 5 14 5 q18 0 32.5 -7.5 q14.5 -7.5 37.5 -22.5 l24 -15 q11 -7 18 -15.5 q7 -8.5 7 -23.5 q0 -11 -2 -17 l0 -61 q54 11 164 36 q20 5 37 5 q31 0 41 -15 q13 -19 20 -33 q7 -14 19 -44 q4 -9 4 -19 q0 -26 -34 -26 q-5 0 -19 2 q-44 8 -92 8 ZM787 231 q39 -21 55.5 -41 q16.5 -20 16.5 -43 q0 -23 -19 -70 q-19 -47 -43 -47 q-22 0 -50 45 q-46 77 -91 143 q-10 14 -10 26 q0 10 7 15.5 q7 5.5 20 5.5 q4 0 16 -2 q14 -4 21 -5 q28 -7 43.5 -12 q15.5 -5 33.5 -15 ZM291 238 q8 11 20 11 q6 0 10 -5 q4 -5 4 -16 q0 -7 -1 -11 q-9 -53 -24.5 -107 q-15.5 -54 -37.5 -79 q-23 -27 -44 -27 q-18 0 -41 20 q-13 11 -21.5 28 q-8.5 17 -8.5 34 q0 36 34 57 q39 24 62 44.5 q23 20.5 48 50.5 Z" /><glyph glyph-name="uni4E58" unicode="&#x4e58;" d="M977 31 q11 -4 11 -9 q0 -5 -15 -7 q-29 -4 -45 -12.5 q-16 -8.5 -41 -32.5 q-19 -17 -47 -17 q-27 0 -47 15 q-64 49 -132 115.5 q-68 66.5 -126 133.5 l0 -77 q0 -22 1 -36 l1 -54 q0 -88 -22 -134 q-13 -27 -22 -38.5 q-9 -11.5 -17 -11.5 q-6 0 -11.5 8 q-5.5 8 -13.5 26 q-12 27 -23 38.5 q-11 11.5 -13 13.5 q-13 14 -13 28 q0 7 5 12 q9 9 12.5 27.5 q3.5 18.5 3.5 36.5 l1 104 q-78 -58 -159.5 -102 q-81.5 -44 -152.5 -58 q-14 -2 -18 -2 q-13 0 -13 7 q0 9 18 22 q79 57 140.5 107.5 q61.5 50.5 120.5 112.5 q-11 -2 -21.5 2 q-10.5 4 -15.5 12 l-1 1 q-6 -4 -33.5 -24 q-27.5 -20 -33.5 -28 q-8 -9 -21 -9 q-7 0 -9 1 q-46 14 -69 51 q-11 17 -11 25 q0 10 15 7 q13 -1 123 41 q-3 8 -3 13 q0 4 2 10 q0 0 -12 -4 q-12 -4 -26 -10 q-14 -6 -19 -6 q-8 0 -20 11 l-22 20 q-22 20 -34 32 q-3 3 -5 8 q-2 5 -2 10 q0 11 12 11 q32 0 106 12 l29 4 l-3 30 q3 1 -29 -11 q-16 -8 -24 -8 q-10 0 -26 15 l-26 24 q-32 28 -49 45 q-9 9 -9 24 q0 15 16 15 q101 0 287 31 q0 14 -2 40 q-40 -2 -60 -2 q-34 0 -90 4 q-33 3 -33 12 q0 8 23 16 l26 9 q121 41 185 71 q21 9 24 10 q17 7 33.5 15.5 q16.5 8.5 23.5 16.5 q4 5 7.5 11.5 q3.5 6.5 6.5 10.5 q3 4 7 4 q11 0 41 -26 q28 -24 41 -38 q13 -14 13 -28 q0 -19 -29 -36 q-41 -24 -106 -36 q0 -5 -2 -17 l0 -17 q98 18 174 37 q20 5 37 5 q31 0 41 -15 q13 -19 20 -33 q7 -14 19 -44 q4 -9 4 -19 q0 -26 -34 -26 q-5 0 -19 2 q-44 8 -92 8 l-20 0 q19 -13 19 -36 q0 -4 -2 -16 l0 -3 q27 13 32 22 q3 5 5 10 q2 5 4.5 8 q2.5 3 6.5 3 q9 0 31 -17 q23 -18 32.5 -27 q9.5 -9 9.5 -20 q0 -12 -18 -26 q-32 -24 -98 -40 l0 -9 q0 -4 0 -10.5 q0 -6.5 4 -9.5 q4 -3 15 -3 q15 0 34 8 q4 2 6.5 14 q2.5 12 7.5 12 q3 0 10 -6 q3 -2 10 -1.5 q7 0.5 16 2.5 q17 5 31 5 q11 0 17 -10.5 q6 -10.5 5 -28.5 q0 -4 -1 -29.5 q-1 -25.5 -15.5 -39.5 q-14.5 -14 -42.5 -18 l-27 -4 q-35 -5 -56 -5 q-44 0 -70 8 q-26 8 -41 32.5 q-15 24.5 -17 73.5 l-3 75 q0 24 -2 43 q-2 19 -6 34 l-27 -4 l0 -191 q135 -123 242.5 -196.5 q107.5 -73.5 199.5 -105.5 ZM387 277 q6 7 18.5 20.5 q12.5 13.5 19.5 23.5 l2 182 l-50 -12 q22 -15 22 -39 q0 -3 -2 -15 l0 -15 l0 -32 q0 -67 -10 -113 Z" /><glyph glyph-name="uni4E5F" unicode="&#x4e5f;" d="M939 107 q10 0 16 -8 q6 -8 6 -22 q0 -27 -20.5 -59 q-20.5 -32 -70.5 -42 q-40 -8 -145 -12 q-105 -4 -213 -4 q-128 0 -148 5 q-68 16 -104 57 q-36 41 -36 114 l1 127 l-12 -7 q-8 -5 -21.5 -14 q-13.5 -9 -20.5 -12 q-7 -3 -14 -3 q-11 0 -28 10 q-13 7 -40 25 q-30 20 -48 29 q-6 2 -10.5 9 q-4.5 7 -4.5 13 q0 12 15 16 q77 24 183 61 q-2 80 -23 124 q-3 5 1 10 q4 5 14 5 q17 0 32.5 -7.5 q15.5 -7.5 40.5 -22.5 l24 -15 q11 -7 18.5 -15.5 q7.5 -8.5 7.5 -24.5 q0 -4 -2 -14 l24 9 l51 20 l2 118 q0 112 -24 170 q-3 5 1 10 q4 5 14 5 q18 0 33.5 -7.5 q15.5 -7.5 35.5 -21.5 q8 -6 24 -16 q11 -7 18.5 -15.5 q7.5 -8.5 7.5 -24.5 q0 -4 -2 -16 l0 -158 q69 30 98 46 q24 14 35 27 q3 5 7.5 6.5 q4.5 1.5 23.5 1.5 q23 0 38.5 -12 q15.5 -12 36.5 -40 q3 -4 19 -24 q16 -20 16 -34 q0 11 -7 -8 q-7 -19 -17 -49 q-23 -69 -40 -116 q-17 -47 -37 -83 q-10 -19 -37 -39 q-27 -20 -49 -20 q-33 0 -33 50 q0 55 -38 83 q-12 9 -12 13 q0 4 7 4 q6 0 10 -1 q13 -3 24 -3 q20 0 32.5 9.5 q12.5 9.5 20.5 30.5 q28 69 28 99 q0 5 -4 5 l-9 -2 q-22 -6 -113 -46 l0 -4 q0 -24 1 -38 l1 -53 q0 -88 -22 -133 q-25 -50 -40 -50 q-12 0 -24 34 q-10 26 -21.5 37.5 q-11.5 11.5 -14.5 14.5 q-13 14 -13 28 q0 7 5 12 q9 9 12.5 27.5 q3.5 18.5 3.5 36.5 l1 39 l-56 -25 l-19 -9 l0 -160 q2 -74 54 -85 q8 -2 70 -2 q86 0 207 4 q121 4 139 8 q33 7 42.5 25 q9.5 18 9.5 58 l0 32 q0 15 5.5 28 q5.5 13 12.5 13 q5 0 9.5 -11 q4.5 -11 6.5 -33 q2 -31 16 -59.5 q14 -28.5 31 -28.5 Z" /><glyph glyph-name="uni4E60" unicode="&#x4e60;" d="M215 628 q-5 5 -8 13 q-3 8 -3 16 q0 18 19 18 q76 0 137 10.5 q61 10.5 181 39.5 l21 5 q39 9 56 21.5 q17 12.5 23 12.5 q9 0 40 -14 q3 -1 34 -14 q31 -13 57.5 -34.5 q26.5 -21.5 26.5 -42.5 q0 -10 -10 -40 q-2 -8 -6.5 -23.5 q-4.5 -15.5 -7.5 -28.5 q-7 -50 -9.5 -129 q-2.5 -79 -3.5 -94 q-6 -166 -15.5 -257 q-9.5 -91 -35.5 -119 q-49 -51 -87 -51 q-36 0 -61 45 q-20 36 -62 73.5 q-42 37.5 -78 61.5 q-10 7 -10 14 q0 7 8 11 q8 4 20 2 l26 -6 q54 -14 81 -14 q53 0 57 40 q11 104 18 201.5 q7 97.5 15 261.5 l0 6 q0 5 -2 6.5 q-2 1.5 -8 -0.5 q-49 -10 -85 -20 q-36 -10 -89 -27 l-53 -16 l-40 -13 q-21 -9 -31 -9 q-8 0 -15 4.5 q-7 4.5 -20 16.5 q-15 15 -37 33 q-39 36 -43 40 ZM295 465 q-14 14 -14 22 q0 5 5.5 8 q5.5 3 19.5 7 q25 7 46 7 q15 0 42 -5 q39 -8 60.5 -30 q21.5 -22 21.5 -52 q0 -24 -13 -47 q-7 -13 -20.5 -19 q-13.5 -6 -28.5 -6 q-20 0 -30 8 q-3 2 -13 9.5 q-10 7.5 -17 7.5 q-8 0 -11 -13 q-1 -4 -3.5 -7 q-2.5 -3 -4.5 -3 q-7 0 -7 12 q0 67 -33 101 ZM255 77 q-67 26 -107 88 q-19 29 -19 41 q0 11 13 11 l12 -2 q17 -3 96.5 24 q79.5 27 173.5 66.5 q94 39.5 147 68.5 q7 4 15 4 q15 0 15 -14 q0 -15 -21 -33 q-56 -48 -273 -243 q-15 -14 -36 -14 q-4 0 -16 3 Z" /><glyph glyph-name="uni4E66" unicode="&#x4e66;" d="M778 420 q29 -4 47 -23 q18 -19 18 -38 q0 -9 -4 -13 q-7 -9 -12.5 -38 q-5.5 -29 -14.5 -85 q-12 -75 -21 -118 q-9 -43 -22 -63 q-12 -19 -33.5 -35.5 q-21.5 -16.5 -42.5 -16.5 q-33 0 -51 50 q-10 30 -38 60.5 q-28 30.5 -50 46.5 q-10 7 -10 14 q0 10 20 7 q8 -1 15 -3 q7 -2 13 -3 q38 -9 52 -9 q35 0 41 27 l7 26 q17 55 17 73 q0 9 -3.5 12 q-3.5 3 -12.5 2 q-72 -6 -175 -22 l0 -94 q0 -134 -15.5 -219.5 q-15.5 -85.5 -40.5 -91.5 q-23 6 -37.5 77 q-14.5 71 -14.5 129 l0 181 q-104 -18 -154 -33 q-14 -4 -25.5 -8.5 q-11.5 -4.5 -16.5 -4.5 q-8 0 -22 10 q-18 14 -65 55 l-27 24 q-8 8 -8 17 q0 11 12 12 q143 15 306 36 l0 109 l-53 -14 q-15 -4 -36 -13 q-18 -6 -22 -6 q-11 0 -25 13 l-21 19 q-26 23 -50 47 q-4 4 -6.5 10.5 q-2.5 6.5 -2.5 12.5 q0 14 15 14 q50 0 92 5.5 q42 5.5 109 18.5 l0 57 q0 56 -4.5 97.5 q-4.5 41.5 -19.5 72.5 q-3 5 1 10 q4 5 14 5 q9 0 21 -4 q37 -11 72 -31 q11 -7 18.5 -15.5 q7.5 -8.5 7.5 -24.5 q0 -4 -2 -16 l0 -131 l20 3 q27 5 50 21 q12 10 23 10 q12 0 25 -6 q6 -4 31.5 -15.5 q25.5 -11.5 45.5 -27.5 q20 -16 20 -33 q0 -9 -8 -33 l-11 -42 l-9 -30 l-12 -42 l16 3 q30 6 36 12 q6 6 10 6 l23 -3 ZM651 687 q-15 14 -15 24 q0 9 9 14.5 q9 5.5 25 5.5 q32 0 50 -1.5 q18 -1.5 38 -6.5 q46 -12 63 -29.5 q17 -17.5 17 -46.5 q0 -17 -5 -44 q-8 -48 -31 -48 q-18 0 -46 29 q-76 77 -105 103 ZM518 375 l66 9 q9 33 21 90 l2 12 q0 16 -15 14 q-14 -2 -22 -2 q-33 -4 -52 -7 l0 -116 Z" /><glyph glyph-name="uni4E70" unicode="&#x4e70;" d="M898 255 q4 -9 4 -19 q0 -26 -34 -26 q-5 0 -19 2 q-44 8 -92 8 q-101 0 -252 -17 q-102 -194 -316 -253 q-22 -6 -35 -6 q-14 0 -14 7 q0 10 30 34 q72 58 118.5 104 q46.5 46 78.5 96 q-71 -12 -93 -19 q-19 -6 -38 -14 q-17 -7 -23 -7 q-11 0 -26 15 l-26 24 q-32 28 -49 45 q-9 9 -9 24 q0 15 16 15 q101 0 301 20 q25 68 43 160 q7 35 7 61 q0 29 -9 48 q-2 8 -6.5 21 q-4.5 13 -4.5 21 q0 7 3 11 q-96 -20 -118 -26 q-9 -3 -15.5 -5.5 q-6.5 -2.5 -12.5 -4.5 q-11 -5 -22.5 -8.5 q-11.5 -3.5 -21.5 -3.5 q-22 0 -48 19 l-35 29 q-32 27 -41 34 q-7 5 -7 12 q0 7 7 11.5 q7 4.5 20 4.5 q74 0 235 23.5 q161 23.5 301 52.5 q28 6 33 11 q5 5 6 5 q1 0 19 -7 q27 -10 48 -39 q21 -29 24 -51 q1 -6 1 -17 q0 -25 -8 -39.5 q-8 -14.5 -20 -14.5 q-30 0 -56.5 -15.5 q-26.5 -15.5 -47 -33 q-20.5 -17.5 -28.5 -23.5 q-19 -16 -32 -16 q-8 0 -8 10 q0 5 5 18 q1 4 3 8.5 q2 4.5 4 10.5 q25 63 34 83 q3 8 3 10 q0 3 -10 2 l-144 -27 q32 -9 54 -30 q22 -21 25 -23 q9 -7 9 -18 q0 -13 -16 -36 q-17 -125 -47 -213 q146 17 235 39 q20 5 37 5 q31 0 41 -15 q13 -19 20 -33 q7 -14 19 -44 ZM371 456 q-1 6 -6.5 9 q-5.5 3 -12.5 3 q-6 0 -10 -3.5 q-4 -3.5 -3 -11.5 l0 -1 q0 -7 -5 -7 q-6 0 -7 8 q-6 28 -13.5 44.5 q-7.5 16.5 -24.5 29.5 q-14 11 -14 17 q0 7 17 13 q32 13 57 13 q48 0 64.5 -22.5 q16.5 -22.5 16.5 -68.5 q0 -20 -10.5 -34.5 q-10.5 -14.5 -22.5 -14.5 q-17 0 -26 26 ZM242 394 q-15 11 -15 17 q0 6 18 14 q30 14 60 14 q49 0 67.5 -24 q18.5 -24 17.5 -71 q-1 -21 -11.5 -36 q-10.5 -15 -23.5 -15 q-17 0 -27 26 q-2 6 -7.5 9.5 q-5.5 3.5 -11.5 3.5 q-13 0 -14 -15 q-1 -9 -6 -9 q-6 0 -7 8 q-8 31 -15 48.5 q-7 17.5 -25 29.5 ZM781 120 q28 -16 42 -37 q14 -21 14 -50 q0 -27 -11 -57 q-19 -55 -47 -55 q-26 0 -53 44 q-45 71 -71.5 101.5 q-26.5 30.5 -74.5 67.5 q-21 17 -21 27 q0 6 8 10 q8 4 23 4 q29 0 92 -17.5 q63 -17.5 99 -37.5 Z" /><glyph glyph-name="uni4E71" unicode="&#x4e71;" d="M937 108 q21 0 21 -38 q0 -76 -90 -93 q-71 -14 -122 -14 q-32 0 -65 7 q-68 16 -99 52 q-31 36 -31 109 l1 446 q0 56 -4.5 97.5 q-4.5 41.5 -19.5 72.5 q-3 5 1 10 q4 5 14 5 q17 0 32.5 -7.5 q15.5 -7.5 40.5 -22.5 l24 -15 q11 -7 18 -15.5 q7 -8.5 7 -23.5 q0 -11 -2 -17 l0 -508 q0 -35 8 -52.5 q8 -17.5 36 -22.5 q33 -6 58 -6 q20 0 39 3 q25 3 38.5 22 q13.5 19 13.5 60 q0 17 4.5 26.5 q4.5 9.5 10.5 9.5 q6 0 11 -7.5 q5 -7.5 8 -23.5 q10 -54 47 -54 ZM511 464 q11 -16 18.5 -33.5 q7.5 -17.5 11.5 -25.5 q4 -8 4 -16 q0 -21 -42 -18 q-5 1 -18 1 q-36 0 -106 -14 l-4 -71 q8 3 15 7 q7 4 11 4 q7 0 38 -13 q25 -10 51 -28 q26 -18 26 -41 q0 -10 -8 -21 q-14 -20 -24.5 -51 q-10.5 -31 -15.5 -62 q7 -12 16 -37 q3 -9 3 -15 q0 -22 -32 -22 q-10 0 -15 1 q-58 8 -80 6 q-16 -2 -48 -4 l-26 -2 l-2 -12 q-5 -32 -10.5 -45.5 q-5.5 -13.5 -12.5 -13.5 q-9 0 -28 21 q-17 18 -31.5 24.5 q-14.5 6.5 -18.5 9.5 q-28 20 -21 34 q2 3 2 12 q0 10 -4 25.5 q-4 15.5 -5 23.5 q-6 51 -16 90 q-10 39 -30 66 q-7 5 -1.5 12 q5.5 7 27.5 9 q12 1 42 -7 q24 1 87 7 l4 65 l-99 -28 q-15 -4 -29 -10 q-14 -6 -18 -6 q-7 0 -21 12 l-20 18 q-26 22 -39 35 q-7 7 -7 17 q0 12 12 13 q80 13 228 47 l0 3 q3 47 2 89 q-57 -12 -112 -12 q-29 0 -29 8 q0 8 19 17 l28 14 q89 46 135 77 q15 10 21 13 q4 3 21.5 14.5 q17.5 11.5 24.5 20.5 q3 4 5.5 10 q2.5 6 5 9.5 q2.5 3.5 6.5 3.5 q9 0 36 -19 q26 -18 38.5 -29.5 q12.5 -11.5 12.5 -24.5 q0 -16 -22 -31 q-34 -23 -83 -41 q7 -10 7 -22 q0 -9 -3 -20 l-3 -53 l65 17 q18 4 29 4 q24 0 32 -12 ZM386 189 q0 6 -4 6 q-14 0 -34 -4.5 q-20 -4.5 -59 -15.5 q-11 -3 -32 -11 l10 -65 q69 10 105 19 l13 63 l1 8 Z" /><glyph glyph-name="uni4E86" unicode="&#x4e86;" d="M769 642 q1 -4 1 -13 q0 -26 -27 -46 l-175 -127 q29 -155 29 -240 q0 -48 -7 -89 q-11 -68 -20.5 -99 q-9.5 -31 -27.5 -60 q-13 -22 -41 -39.5 q-28 -17.5 -53 -17.5 q-36 0 -47 38 q-12 41 -28 64 q-16 23 -39 36 q-11 7 -11 11 q0 6 16 6 q6 0 41 -0.5 q35 -0.5 62 14.5 q27 15 32 47 l5 31 q4 25 6.5 47.5 q2.5 22.5 2.5 41.5 q0 35 -12 108 q-11 64 -20.5 101 q-9.5 37 -31.5 63 q-5 6 0 12 q5 6 21 6 q16 0 30.5 -4.5 q14.5 -4.5 27 -10.5 q12.5 -6 17.5 -8 q59 51 83 78 q9 11 9 14 q0 5 -11 3 q-117 -8 -259 -66 q-11 -4 -27 -12 q-23 -10 -31 -10 q-13 0 -29 16 l-26 24 q-32 28 -49 45 q-9 9 -9 24 q0 15 16 15 q78 0 182 19.5 q104 19.5 198 44.5 q45 12 60.5 22.5 q15.5 10.5 20.5 10.5 q2 0 31 -8 q47 -14 65 -36 q18 -22 25 -56 Z" /><glyph glyph-name="uni4E88" unicode="&#x4e88;" d="M877 430 q1 -6 1 -17 q0 -25 -8 -39.5 q-8 -14.5 -20 -14.5 q-35 0 -61 -14 q-26 -14 -62 -43 q-19 -16 -32 -16 q-8 0 -8 10 q0 5 5 18 q20 50 32 77 q3 6 3 9 q0 5 -10 3 q-7 -2 -14 -3 q-7 -1 -13 -2 l-120 -25 q9 -11 9 -27 q0 -5 -2 -17 l0 -239 q0 -78 -4 -109 q-4 -31 -21 -50 q-17 -19 -37.5 -32.5 q-20.5 -13.5 -38.5 -13.5 q-31 0 -46 40 q-13 35 -29.5 50.5 q-16.5 15.5 -33 24 q-16.5 8.5 -23.5 12.5 q-11 7 -11 11 q0 6 16 6 q6 0 39.5 -1 q33.5 -1 56 14.5 q22.5 15.5 22.5 47.5 l2 155 q2 59 -5 106 q-152 -33 -189 -45 q-12 -4 -20.5 -7.5 q-8.5 -3.5 -14.5 -5.5 q-18 -8 -25 -8 q-11 0 -27 15 l-26 24 q-32 28 -49 45 q-4 4 -6.5 10.5 q-2.5 6.5 -2.5 12.5 q0 16 16 16 q155 7 370 46 q-38 39 -95 92 q-13 12 -13 22 q0 9 8.5 14.5 q8.5 5.5 23.5 5.5 q30 0 47 -1.5 q17 -1.5 37 -6.5 l8 -2 q16 24 48 64 q12 15 -1 12 q-73 -20 -111 -33 q-38 -13 -66 -26 l-23 -11 q-4 -2 -15.5 -7 q-11.5 -5 -18.5 -5 q-12 0 -30 17 l-26 24 q-32 28 -49 45 q-4 4 -6.5 10.5 q-2.5 6.5 -2.5 12.5 q0 16 16 16 q95 4 129.5 9 q34.5 5 98.5 22 q98 25 134 34 q28 7 32.5 11.5 q4.5 4.5 5.5 4.5 q0 0 20 -7 q27 -10 48 -39 q21 -29 24 -51 q1 -6 1 -17 q0 -25 -8 -39.5 q-8 -14.5 -20 -14.5 q-44 0 -127 -61 q14 -15 14 -41 q0 -10 -4 -38 q125 28 178 41 q28 7 32.5 11.5 q4.5 4.5 5.5 4.5 q0 0 20 -7 q27 -10 48 -39 q21 -29 24 -51 Z" /><glyph glyph-name="uni4E89" unicode="&#x4e89;" d="M930 378 q4 -11 4 -20 q0 -12 -9 -18.5 q-9 -6.5 -25 -6.5 q-5 0 -19 2 q-45 7 -92 7 l-13 0 q-15 -50 -21 -72 q12 -20 26 -57 q4 -9 4 -18 q0 -13 -9.5 -20 q-9.5 -7 -25.5 -7 q-12 0 -19 2 q-24 5 -49.5 7.5 q-25.5 2.5 -41.5 0.5 l-101 -10 l0 -84 q0 -78 -4 -109 q-4 -31 -21 -50 q-17 -19 -37.5 -32.5 q-20.5 -13.5 -38.5 -13.5 q-31 0 -46 40 q-13 35 -29.5 50.5 q-16.5 15.5 -33 24 q-16.5 8.5 -23.5 12.5 q-11 7 -11 11 q0 6 16 6 q6 0 39.5 -1 q33.5 -1 56 14.5 q22.5 15.5 22.5 47.5 l1 71 q-55 -6 -86 -14 q-17 -4 -34.5 -11 q-17.5 -7 -22.5 -7 q-8 0 -22 13 l-64 63 q-9 9 -9 22 q0 13 15 13 q94 0 223 21 l1 43 q-163 -29 -209 -44 q-19 -6 -37 -14 q-17 -7 -23 -7 q-11 0 -27 15 l-24 23 l-51 46 q-3 3 -6 10 q-3 7 -3 13 q0 7 4.5 11.5 q4.5 4.5 12.5 4.5 q93 0 363 42 q-2 34 -6 65 q-41 -9 -90 -24 q-15 -5 -36 -14 q-17 -7 -23 -7 q-10 0 -24 15 q-35 37 -59 66 q-9 11 -9 24 q0 14 15 14 q89 0 241 28 q24 32 58 72 q8 10 13.5 16.5 q5.5 6.5 6.5 8.5 q0 4 -2 3 l-26 -14 q-24 -14 -38 -14 q-13 0 -26 10 q-49 -37 -96.5 -59 q-47.5 -22 -105.5 -35 q-14 -3 -24 -3 q-18 0 -18 9 q0 8 13 21 q34 32 119 128 q24 27 38.5 47.5 q14.5 20.5 15.5 37.5 q2 16 10 28.5 q8 12.5 23 12.5 q12 0 24 -8 q32 -18 45.5 -43.5 q13.5 -25.5 11.5 -51.5 q30 12 60 26 q8 4 14 10.5 q6 6.5 9 6.5 q7 0 29 -15 q27 -17 36.5 -39 q9.5 -22 7.5 -51 q0 -3 -0.5 -14 q-0.5 -11 -6 -16 q-5.5 -5 -17.5 -7 q-15 -2 -31.5 -13.5 q-16.5 -11.5 -37.5 -32.5 q13 2 41 8 q67 14 71.5 21 q4.5 7 5.5 7 q2 0 42 -8 q14 -2 43 -13 q29 -11 53 -28.5 q24 -17.5 24 -38.5 q0 -12 -7.5 -38 q-7.5 -26 -9.5 -32 l4 1 q24 4 37 4 q32 0 42 -14 q13 -19 20.5 -33 q7.5 -14 18.5 -44 ZM535 478 q7 -9 7 -22 q0 -8 -3 -17 l0 -23 l71 12 l41 7 q2 12 4 19 q2 12 2 15 q0 17 -18 16 q-67 -3 -104 -7 ZM617 291 q8 26 10 38 q-58 -8 -88 -13 l0 -42 q31 6 78 17 Z" /><glyph glyph-name="uni4E8B" unicode="&#x4e8b;" d="M898 241 q4 -9 4 -18 q0 -23 -31 -23 q-5 0 -17 2 q-42 7 -83 7 q-17 0 -27 -1 l-15 -39 q6 -10 12 -21.5 q6 -11.5 13 -30.5 q4 -12 4 -15 q0 -19 -28 -19 q-10 0 -15 1 q-37 6 -71 6 q-41 0 -86 -5 l0 -22 q0 -78 -4 -109 q-4 -31 -21 -50 q-17 -19 -37.5 -32.5 q-20.5 -13.5 -38.5 -13.5 q-31 0 -46 40 q-13 35 -29.5 50.5 q-16.5 15.5 -33 24 q-16.5 8.5 -23.5 12.5 q-11 7 -11 11 q0 6 16 6 q6 0 39.5 -1 q33.5 -1 56 14.5 q22.5 15.5 22.5 47.5 l0 2 q-31 -7 -70 -19 q-14 -4 -28.5 -10.5 q-14.5 -6.5 -19.5 -6.5 q-8 0 -20 11 l-25 24 q-35 32 -34 31 q-8 8 -8 17 q0 11 13 12 q99 9 192 21 l0 32 q-148 -22 -194 -35 q-24 -7 -35 -13 q-13 -6 -20 -6 q-10 0 -24 13 l-27 26 q-7 6 -18.5 17.5 q-11.5 11.5 -22.5 20.5 q-3 3 -6 9 q-3 6 -3 12 q0 13 15 13 q96 0 336 28 l0 40 q-70 -12 -98 -23 l-30 -12 q-16 -7 -20 -7 q-9 0 -25 15 q-16 15 -32 34 q-12 14 -22 24 q-8 8 -8 20 q0 6 3.5 10 q3.5 4 10.5 4 q37 2 84 6 l-11 7 q-13 9 -18 19 q-5 10 -1 17 q4 7 4 20 q0 16 -7 46 q-6 28 -9.5 38.5 q-3.5 10.5 -12 23.5 q-8.5 13 -30.5 40 l-1 2 l-21 -8 q-16 -6 -20 -6 q-9 0 -23 13 l-27 26 q-7 6 -18.5 17.5 q-11.5 11.5 -22.5 20.5 q-3 3 -6 9 q-3 6 -3 12 q0 13 15 13 q48 0 143 10.5 q95 10.5 205 26.5 q-3 62 -22 101 q-3 5 1 10 q4 5 14 5 q18 0 32.5 -7.5 q14.5 -7.5 37.5 -22.5 l24 -15 q11 -7 18.5 -15.5 q7.5 -8.5 7.5 -23.5 q0 -4 -2 -14 q148 25 221 44 q18 5 33 5 q27 0 37 -14 q11 -16 18.5 -31 q7.5 -15 16.5 -38 q4 -9 4 -18 q0 -23 -31 -23 q-5 0 -17 2 q-42 7 -83 7 q-72 0 -200 -20 l0 -34 l6 1 q41 9 58.5 18 q17.5 9 23.5 9 q9 0 22 -4 q14 -4 36.5 -15 q22.5 -11 39.5 -27.5 q17 -16.5 15 -35.5 q-6 -38 -39 -91 l6 -13 q3 -7 3 -12 q0 -21 -38 -17 q-4 1 -28.5 4 q-24.5 3 -37.5 1 l-67 -9 l0 -23 l30 5 q29 6 40.5 16 q11.5 10 16.5 10 q7 0 47 -17 q3 -2 27.5 -12.5 q24.5 -10.5 44 -27 q19.5 -16.5 19.5 -34.5 q0 -9 -4 -29 q6 2 14 4 q18 5 33 5 q27 0 37 -14 q11 -16 18.5 -31 q7.5 -15 16.5 -38 ZM284 602 q13 -3 23 -7 q6 -2 14 -4.5 q8 -2.5 19 -4.5 l11 -3 q2 6 11 6 q39 2 88 8 l0 37 q-88 -15 -166 -32 ZM584 534 q-18 -2 -26 -4 l0 -25 q9 2 23 4 q12 3 22 5 q10 2 19 4 q2 4 2 6 q1 5 2.5 8 q1.5 3 1.5 5 q0 1 -2 1 q-14 0 -23 -1.5 q-9 -1.5 -19 -2.5 ZM449 484 l1 22 q-3 -1 -10 -3.5 q-7 -2.5 -11 -2.5 q-9 0 -21 11 l-27 23 l17 -59 l51 9 ZM408 383 q28 4 41 5 l0 22 l-39 -8 q0 -7 -2 -19 ZM558 277 q29 3 74 11 l6 26 l2 9 q0 5 -8 5 q-17 0 -74 -9 l0 -42 ZM606 171 q4 18 7 27 l-55 -6 l0 -31 l48 10 Z" /><glyph glyph-name="uni4E8C" unicode="&#x4e8c;" d="M277 492 q-32 28 -49 45 q-9 9 -9 24 q0 15 16 15 q97 0 171.5 12.5 q74.5 12.5 212.5 45.5 q20 5 37 5 q31 0 41 -15 q13 -19 20 -33 q7 -14 19 -44 q4 -9 4 -19 q0 -15 -13 -19.5 q-13 -4.5 -40 -4.5 l-48 0 q-74 0 -128 -5.5 q-54 -5.5 -121 -24.5 q-19 -6 -38 -14 q-17 -7 -23 -7 q-11 0 -26 15 l-26 24 ZM111 87 q-32 28 -49 45 q-9 9 -9 24 q0 15 16 15 q106 0 362 32.5 q256 32.5 375 61.5 q20 5 37 5 q31 0 41 -15 q13 -19 20 -33 q7 -14 19 -44 q4 -9 4 -19 q0 -26 -34 -26 q-5 0 -19 2 q-44 8 -92 8 q-67 0 -184.5 -13.5 q-117.5 -13.5 -227 -31.5 q-109.5 -18 -146.5 -29 q-19 -6 -38 -14 q-17 -7 -23 -7 q-11 0 -26 15 l-26 24 Z" /><glyph glyph-name="uni4E8E" unicode="&#x4e8e;" d="M924 427 q4 -9 4 -19 q0 -26 -34 -26 q-5 0 -19 2 q-44 8 -92 8 q-77 0 -194 -16 l0 -275 q0 -78 -4 -109 q-4 -31 -21 -50 q-40 -46 -69 -46 q-27 0 -42 40 q-13 33 -32 49 q-19 16 -46 28 q-6 3 -10.5 5.5 q-4.5 2.5 -8.5 4.5 q-11 7 -11 11 q0 6 16 6 q6 0 39.5 -1 q33.5 -1 56 14.5 q22.5 15.5 22.5 47.5 l1 260 q-163 -27 -218 -43 q-19 -6 -38 -14 q-17 -7 -23 -7 q-11 0 -26 15 l-26 24 q-32 28 -49 45 q-9 9 -9 24 q0 15 16 15 q55 0 156.5 10.5 q101.5 10.5 217.5 26.5 l0 28 q0 86 -11 131 l-37 -10 l-32 -10 q-21 -8 -30 -8 q-12 0 -25 12 q-54 48 -75 69 q-9 9 -9 24 q0 15 16 15 q79 0 131 8.5 q52 8.5 144 31.5 l74 18 q20 5 37 5 q31 0 41 -15 q13 -19 20 -33 q7 -14 19 -44 q4 -9 4 -19 q0 -26 -34 -26 q-5 0 -19 2 q-47 9 -75 9 q-12 0 -17 -1 q-33 -5 -52 -10 l15 -9 q11 -7 18 -15.5 q7 -8.5 7 -23.5 q0 -11 -2 -17 l0 -96 q152 24 218 41 q20 5 37 5 q31 0 41 -15 q13 -19 20 -33 q7 -14 19 -44 Z" /><glyph glyph-name="uni4E91" unicode="&#x4e91;" d="M278 594 q-4 3 -6.5 9.5 q-2.5 6.5 -2.5 12.5 q0 15 16 15 q88 3 145.5 14.5 q57.5 11.5 162.5 40.5 l20 6 q13 4 31 4 q27 0 36 -13 q14 -21 20 -31.5 q6 -10.5 15 -34.5 q3 -9 3 -16 q0 -22 -31 -22 q-9 0 -14 1 q-22 2 -34 2 q-45 0 -89 -11.5 q-44 -11.5 -118 -36.5 q-19 -6 -34 -13 q-17 -7 -22 -7 q-6 0 -12 3.5 q-6 3.5 -14 10.5 l-36 33 q-17 17 -36 33 ZM917 397 q4 -9 4 -19 q0 -26 -34 -26 q-5 0 -19 2 q-44 8 -92 8 q-89 0 -243 -22 q5 -16 6.5 -30 q1.5 -14 0.5 -21 q-2 -12 -12.5 -25.5 q-10.5 -13.5 -30.5 -34.5 q-53 -55 -87 -83 q-14 -11 0 -10 q94 10 196 24 l-30 50 q-9 15 -9 27 q0 10 6.5 15.5 q6.5 5.5 17.5 5.5 q11 0 22 -4 q61 -21 125 -69 q36 -27 51.5 -48.5 q15.5 -21.5 15.5 -42.5 q0 -15 -5.5 -31 q-5.5 -16 -18.5 -42 q-21 -46 -45 -46 q-25 0 -51 50 q-16 31 -42 74 q-45 -18 -126 -45 q-60 -21 -114 -41.5 q-54 -20.5 -68 -29.5 q-12 -8 -28 -8 q-14 0 -24 6 q-34 23 -47.5 37 q-13.5 14 -27.5 48 q-11 27 -11 34 q0 7 6.5 9.5 q6.5 2.5 22.5 4.5 q10 1 16 6 q6 5 12.5 12 q6.5 7 8.5 10 q57 66 107 137 q23 31 29 40 q-120 -20 -156 -31 q-19 -6 -38 -14 q-17 -7 -23 -7 q-11 0 -26 15 l-26 24 q-32 28 -49 45 q-9 9 -9 24 q0 15 16 15 q70 0 206 18.5 q136 18.5 335 49.5 q35 5 79.5 12 q44.5 7 91.5 14 q18 3 39 3 q30 0 39 -13 q13 -19 20 -33 q7 -14 19 -44 Z" /><glyph glyph-name="uni4E92" unicode="&#x4e92;" d="M914 49 q5 -13 5 -21 q0 -14 -10 -21 q-10 -7 -28 -7 q-5 0 -21 2 q-48 9 -102 9 q-118 0 -277 -15.5 q-159 -15.5 -220 -32.5 q-11 -3 -41 -15 q-18 -8 -26 -8 q-10 0 -29 16 l-21 19 q-35 30 -62 57 q-4 4 -7 11.5 q-3 7.5 -3 14.5 q0 17 18 17 q118 0 367 28 q6 21 17 47 q5 16 10 30 q5 14 9 25 l-72 -16 q-18 -5 -31 -8 q-8 -2 -42 -12 q-13 -6 -22 -6 q-7 0 -13 4 q-6 4 -15 14 q-22 24 -41 51 q-10 11 -22 28 q-8 10 -8 24 q0 18 18 17 l1 0 q14 0 27 8 q13 8 21 22 q49 87 86 181 l13 29 q-22 -7 -39 -14 q-18 -8 -26 -8 q-10 0 -29 16 q-39 35 -77 73 q-4 4 -7 11.5 q-3 7.5 -3 14.5 q0 17 18 17 q86 0 162 11.5 q76 11.5 190 35.5 q21 4 85 17 q22 4 34 4 q29 0 40 -14 q11 -14 16.5 -25 q5.5 -11 12 -26.5 q6.5 -15.5 8.5 -21.5 q4 -9 4 -19 q0 -25 -50 -22 q-16 2 -49 2 q-69 0 -151 -17 q4 -12 4 -14 q1 -4 1 -10 q0 -12 -4.5 -21.5 q-4.5 -9.5 -12.5 -21 q-8 -11.5 -10 -16.5 q-2 -4 -2 -5 l4 1 q32 7 46 16.5 q14 9.5 19 9.5 q7 0 33 -10 q11 -4 34.5 -19 q23.5 -15 43 -34.5 q19.5 -19.5 19.5 -36.5 q0 -7 -14 -33 l-16 -33 q-19 -40 -59 -139 l-37 -93 q111 14 204 28 q28 4 43 4 q33 0 43 -15 q14 -20 21.5 -35 q7.5 -15 21.5 -50 ZM415 305 q58 6 115 16 l15 48 l2 9 q0 6 -7 5 q-39 -5 -106 -20 q-8 -14 -26 -42 q-4 -8 -4 -11 q0 -6 11 -5 Z" /><glyph glyph-name="uni4E94" unicode="&#x4e94;" d="M958 55 q4 -11 4 -20 q0 -29 -36 -29 q-11 0 -23 3 q-62 12 -89 12 l-13 -1 q-41 -5 -205 -12 q-153 -7 -241 -13 q-88 -6 -120 -15 q-25 -7 -39 -13 q-21 -7 -27 -7 q-12 0 -30 17 q-56 52 -81 77 q-4 4 -7 11.5 q-3 7.5 -3 13.5 q0 18 19 18 q81 0 222 6 q1 12 10 17 q20 11 35 56 l36 105 q-18 -4 -37 -13 q-16 -7 -22 -7 q-11 0 -26 15 l-26 24 q-32 28 -49 45 q-9 9 -9 24 q0 15 16 15 q82 0 195 23 l25 73 q15 45 21 68 q-15 -3 -44 -12 q-20 -5 -41 -14 q-17 -7 -24 -7 q-11 0 -30 16 l-63 56 l-21 19 q-4 4 -7 11.5 q-3 7.5 -3 14.5 q0 17 18 17 q156 0 387 65 q19 6 40 6 q32 0 45 -17 q15 -19 22.5 -34 q7.5 -15 21.5 -50 q5 -13 5 -21 q0 -14 -10.5 -21 q-10.5 -7 -28.5 -7 q-6 0 -20 2 q-52 9 -85 9 q-12 0 -17 -1 q-8 -1 -16.5 -2 q-8.5 -1 -17.5 -3 q5 -8 5 -19 q0 -14 -8 -29 l-30 -92 l15 3 q26 6 49 22 q13 10 23 10 q11 0 26 -7 q7 -4 32 -15.5 q25 -11.5 44.5 -26.5 q19.5 -15 20.5 -32 q1 -24 -0.5 -33.5 q-1.5 -9.5 -9.5 -24.5 q-5 -8 -9 -19 q-10 -30 -10 -30 q-41 -113 -59 -155 q126 14 173 26 q20 5 37 5 q36 0 48 -18 q15 -21 23 -36.5 q8 -15.5 19 -48.5 ZM466 221 q-1 -2 -11 -38 q-4 -12 -10.5 -34.5 q-6.5 -22.5 -12.5 -38.5 q68 4 101 7 q14 44 33.5 100 q19.5 56 26.5 77 q4 9 10 27 q4 12 4 13 q0 4 -3.5 4.5 q-3.5 0.5 -8.5 -0.5 q-45 -8 -98 -22 l-31 -95 Z" /><glyph glyph-name="uni4E9A" unicode="&#x4e9a;" d="M920 51 q3 -10 3 -18 q0 -25 -31 -25 q-11 0 -23 3 q-45 11 -92 13 l-37 1 q-108 0 -275 -16 q-167 -16 -226 -29 q-22 -5 -40 -12 q-15 -5 -21 -5 q-11 0 -26 16 q-14 15 -27 27 q-29 29 -44 46 q-8 10 -8 23 q0 17 17 16 l48 -1 q86 0 220 8 l4 339 q2 52 -4 97 q-9 -4 -21.5 -9 q-12.5 -5 -18.5 -5 q-11 0 -26 14 l-28 26 q-44 41 -43 40 q-4 3 -6.5 9.5 q-2.5 6.5 -2.5 13.5 q0 15 15 15 q90 4 198 25.5 q108 21.5 242 54.5 q15 4 34 4 q30 0 40 -14 q13 -18 19.5 -30.5 q6.5 -12.5 18.5 -42.5 q4 -9 4 -19 q0 -24 -32 -24 q-5 0 -19 2 q-19 5 -52 5 q-14 0 -42 -2 q4 -10 4 -18 q0 -7 -3 -18 l-9 -220 q34 40 50 60 q36 44 41 75 q2 6 4.5 16.5 q2.5 10.5 6.5 16.5 q4 6 14 6 q9 0 14 -2 q23 -7 40 -26 q17 -19 27 -39 q10 -20 12 -29 q2 -12 -5 -27 q-7 -15 -22 -24 q-11 -5 -37.5 -22 q-26.5 -17 -43.5 -27 q-90 -56 -105 -65 l-6 -136 q119 13 188 26 q15 3 31 3 q36 0 46 -17 q12 -20 18.5 -34 q6.5 -14 16.5 -45 ZM462 565 q10 -14 10 -29 q0 -3 -2 -15 l0 -416 l38 3 l20 373 q2 34 2 54 q0 15 -2 45 l-66 -15 ZM239 237 q-25 13 -39 38 q-14 25 -14 52 q0 18 6 34 q7 18 17 27 q10 9 20 9 q12 0 22 -13 q9 -12 13 -15 q5 -4 13 -4 q10 0 20 6 q8 4 12 4 q3 0 3 -3 q0 -4 -5.5 -12 q-5.5 -8 -7.5 -11 q-3 -4 -3 -10 q0 -10 10 -36 q5 -12 8 -24.5 q3 -12.5 1 -19.5 q-11 -33 -39 -33 q-13 0 -37 11 Z" /><glyph glyph-name="uni4E9B" unicode="&#x4e9b;" d="M918 369 q21 0 21 -38 q0 -76 -90 -93 q-71 -13 -138 -13 q-28 0 -64 2 l-17 1 q0 0 2 -2 q9 -13 16 -26 q7 -13 15 -34 q4 -12 4 -15 q0 -22 -42 -19 q-28 2 -40 2 q-38 0 -71.5 -5.5 q-33.5 -5.5 -93.5 -18.5 q-17 -3 -32 -9.5 q-15 -6.5 -19 -6.5 q-8 0 -20 11 l-24 22 q-17 17 -38 35 q-8 8 -8 18 q0 13 14 14 l80 10 q130 16 198 30 q11 3 22 3 q-32 13 -47.5 41 q-15.5 28 -17.5 77 q-3 -4 -14 -13 q-25 -18 -164 -97 q-15 -9 -73.5 -41.5 q-58.5 -32.5 -72.5 -43.5 q-11 -8 -26 -8 q-8 0 -14 2 q-48 17 -79 75 q-12 23 -12 32 q0 8 10 8 q6 0 10 -1 q11 -3 76 12 l-6 91 q-4 48 -11.5 86 q-7.5 38 -22.5 66 q-3 5 1 9.5 q4 4.5 16 4.5 q14 0 27 -5.5 q13 -5.5 30 -15.5 l26 -13 q13 -6 21 -16.5 q8 -10.5 5 -32.5 l11 -150 l29 8 l1 232 q0 56 -4.5 97.5 q-4.5 41.5 -19.5 72.5 q-3 5 1 10 q4 5 14 5 q18 0 33.5 -7.5 q15.5 -7.5 35.5 -21.5 q8 -6 24 -16 q11 -7 18.5 -15.5 q7.5 -8.5 7.5 -24.5 q0 -4 -2 -16 l0 -73 l26 9 q19 7 35 7 q16 0 23 -8 q14 -15 21 -24 q7 -9 17 -29 l2 -3 l0 95 q0 56 -4.5 97.5 q-4.5 41.5 -19.5 72.5 q-3 5 1 10 q4 5 14 5 q17 0 32.5 -7.5 q15.5 -7.5 40.5 -22.5 l24 -15 q11 -7 18 -15.5 q7 -8.5 7 -23.5 q0 -11 -2 -17 l0 -148 q8 5 30 19 q12 8 19 11 q20 12 31.5 21 q11.5 9 16.5 18 q2 6 4.5 13 q2.5 7 5 10.5 q2.5 3.5 8.5 3.5 q10 0 38 -18 q6 -4 23 -15 q17 -11 25.5 -21 q8.5 -10 8.5 -20 q0 -15 -21 -32 q-32 -25 -81.5 -45.5 q-49.5 -20.5 -107.5 -33.5 l0 -45 q0 -37 5 -51 q5 -14 29 -14 q56 0 112 6 q24 3 38 18.5 q14 15.5 14 54.5 q0 17 4.5 26.5 q4.5 9.5 10.5 9.5 q6 0 11 -7.5 q5 -7.5 8 -23.5 q10 -54 47 -54 ZM510 375 q10 3 17 1 l0 2 l0 107 q-7 -9 -34 -11 q-40 -1 -69 -10 q-15 -4 -20 -5 l0 -117 q68 19 106 33 ZM808 75 q13 -19 20 -33 q7 -14 19 -44 q4 -9 4 -19 q0 -26 -34 -26 q-5 0 -19 2 q-44 8 -92 8 q-115 0 -229 -8.5 q-114 -8.5 -167 -23.5 q-19 -6 -38 -14 q-17 -7 -23 -7 q-11 0 -26 15 l-26 24 q-32 28 -49 45 q-9 9 -9 24 q0 15 16 15 q75 0 192 11 q117 11 282 30 l101 11 q6 1 16 2 q10 1 24 1 q29 0 38 -13 Z" /><glyph glyph-name="uni4EA4" unicode="&#x4ea4;" d="M416 648 q0 29 -6.5 53.5 q-6.5 24.5 -24.5 42.5 q-14 14 -14 21 q0 4 5.5 7 q5.5 3 18.5 7 q23 7 43 7 q14 0 41 -5 q37 -8 57.5 -29.5 q20.5 -21.5 20.5 -49.5 q0 -20 -12 -43 q-7 -13 -20 -18.5 q-13 -5.5 -27 -5.5 q-18 0 -28 7 q-5 3 -14.5 10 q-9.5 7 -15.5 7 q-7 0 -10 -13 q-1 -9 -8 -9 q-6 0 -6 11 ZM902 -14 q11 -5 11 -14 q0 -7 -8.5 -11 q-8.5 -4 -23.5 -3 q-33 3 -56.5 -9.5 q-23.5 -12.5 -50.5 -37.5 q-22 -20 -40 -20 q-24 0 -62 27 q-80 58 -203 201 q-143 -152 -313 -180 l-20 -2 q-16 0 -16 7 q0 7 17 18 q96 62 156 117 q60 55 106 124 q-35 43 -55 70 q-13 17 -22 23.5 q-9 6.5 -19 6.5 q-43 -23 -90 -38 q-27 -8 -42 -8 q-16 0 -16 9 q0 11 26 36 q67 63 102 105 q26 31 32 64 l-8 -3 q-15 -5 -36 -14 q-16 -8 -24 -8 q-11 0 -27 15 l-37 35 l-38 34 q-4 4 -7 11 q-3 7 -3 13 q0 16 17 16 q164 6 517 91 q15 4 36 4 q31 0 41 -14 q16 -24 23 -37 q7 -13 17 -39 q4 -11 4 -20 q0 -26 -34 -26 q-5 0 -19 2 q-19 4 -50 4 q-58 0 -139.5 -13 q-81.5 -13 -159.5 -32 q14 -14 24.5 -32 q10.5 -18 12.5 -27 q3 -9 -3.5 -22.5 q-6.5 -13.5 -17.5 -24.5 q-25 -25 -39 -36 q8 -6 12 -10 q42 -40 67 -61 l6 10 q18 34 26.5 53.5 q8.5 19.5 6.5 37.5 q-3 17 4 31.5 q7 14.5 25 14.5 q6 0 17 -3 q25 -8 41 -27.5 q16 -19.5 23 -39.5 q7 -20 8 -30 l1 -11 q0 -14 -5 -22.5 q-5 -8.5 -13.5 -17.5 q-8.5 -9 -11.5 -14 q-17 -29 -36 -56 q184 -141 366 -217 ZM540 511 q34 0 54.5 -2.5 q20.5 -2.5 44.5 -8.5 q48 -14 66 -32 q18 -18 18 -48 q0 -17 -5 -45 q-8 -51 -34 -51 q-21 0 -48 30 q-73 80 -117 119 q-15 14 -15 22 q0 7 9.5 11.5 q9.5 4.5 26.5 4.5 Z" /><glyph glyph-name="uni4EA7" unicode="&#x4ea7;" d="M842 383 q4 -9 4 -19 q0 -26 -34 -26 q-5 0 -19 2 q-44 8 -92 8 q-91 0 -178 -12.5 q-87 -12.5 -154 -30.5 l7 -14 q1 -2 1 -8 q0 -10 -5 -23 q-5 -13 -13 -23 q-27 -114 -92 -198 q-65 -84 -175 -137 q-30 -15 -47 -15 q-13 0 -13 10 q0 15 23 38 q56 57 105.5 133 q49.5 76 60.5 122 q14 48 14 81 q0 18 -4 33 q0 8 -2 20 l-41 39 q-9 9 -9 24 q0 15 16 15 q79 0 198 13 q-30 15 -38.5 36.5 q-8.5 21.5 -8.5 58.5 l0 8 q-18 -7 -23 -7 q-10 0 -24 13 l-25 22 q-42 39 -43 40 q-3 3 -5.5 9.5 q-2.5 6.5 -2.5 12.5 q0 14 14 14 q102 0 259 31 l-5 13 q-9 28 -30.5 50.5 q-21.5 22.5 -53.5 45.5 q-16 12 -16 20 q0 11 25 14 q23 3 52 3 q21 0 33 -1 q38 -2 55 -22.5 q17 -20.5 17 -53.5 q0 -18 -5 -41 q-1 -3 -5 -14 q72 17 113 28 q18 5 34 5 q29 0 37 -14 q12 -18 18 -30 q6 -12 17 -40 q4 -9 4 -17 q0 -12 -8 -18 q-8 -6 -23 -6 q-5 0 -17 2 q-56 10 -77 9 q16 -17 21 -25 q5 -8 5 -19 q0 -19 -14 -38 q-13 -17 -49 -55 q31 5 101 21 q20 5 37 5 q31 0 41 -15 q13 -19 20 -33 q7 -14 19 -44 ZM453 502 q-3 -6 0 -13 q3 -7 11 -18 q5 -7 9.5 -14.5 q4.5 -7.5 4.5 -14.5 q0 -5 -2 -10.5 q-2 -5.5 -3 -7.5 q11 2 29 4 l35 67 q9 17 13.5 37 q4.5 20 3.5 37 q-81 -15 -155 -34 q8 -10 19 -10 q18 0 31.5 5 q13.5 5 19.5 7 q9 3 9 -1 q0 -4 -10.5 -16 q-10.5 -12 -14.5 -18 Z" /><glyph glyph-name="uni4EAB" unicode="&#x4eab;" d="M910 155 q4 -9 4 -19 q0 -26 -34 -26 q-5 0 -19 2 q-44 8 -92 8 q-66 0 -174 -10 l1 -23 l1 -32 q0 -46 -7 -72.5 q-7 -26.5 -23 -53.5 q-13 -22 -41 -39.5 q-28 -17.5 -53 -17.5 q-36 0 -47 38 q-12 41 -28 64 q-16 23 -39 36 q-11 7 -11 11 q0 6 16 6 q7 0 33 -4 q35 -5 42 -5 q41 0 41 39 q0 3 0.5 14.5 q0.5 11.5 -0.5 26.5 q-153 -18 -207 -34 q-19 -6 -38 -14 q-17 -7 -23 -7 q-11 0 -26 15 l-26 24 q-32 28 -49 45 q-9 9 -9 24 q0 15 16 15 q54 0 148 7 q94 7 198 18 q-17 50 -47 80 q-4 4 -3 9 l-4 -2 q-11 -4 -27 -12 q-23 -10 -31 -10 q-13 0 -29 16 l-21 19 q-18 16 -31 29 q-9 9 -9 24 q0 15 16 15 q53 0 133 16 q-14 11 -25.5 15 q-11.5 4 -14.5 5 q-14 7 -20 15.5 q-6 8.5 -3 16.5 q1 3 1 9 q0 11 -5.5 28.5 q-5.5 17.5 -7.5 23.5 q-5 18 -13.5 33.5 q-8.5 15.5 -31.5 42.5 q-2 2 -2 2 q-17 -7 -23 -7 q-11 0 -25 13 q-48 42 -68 62 q-3 3 -5.5 9.5 q-2.5 6.5 -2.5 12.5 q0 14 14 14 q95 0 269 27 q-2 42 -27 69 q-12 14 -12 19 q0 4 5 7 q5 3 16 6 q18 6 40 6 q19 0 36 -4 q34 -7 52.5 -25.5 q18.5 -18.5 18.5 -44.5 q0 -8 -1 -12 q89 16 146 29 q22 4 33 4 q28 0 37 -13 q13 -19 19.5 -31 q6.5 -12 16.5 -38 q4 -9 4 -18 q0 -23 -32 -23 q-5 0 -17 2 q-42 7 -83 7 q-73 0 -165 -15 q-92 -15 -173 -34 l27 -4 q3 -1 7 -1 q4 0 10 -2 q38 5 99 19 l34 7 q32 6 43 12.5 q11 6.5 14 6.5 q5 0 33 -12 q20 -8 50 -26 q30 -18 30 -31 q0 -4 -6 -9 q-16 -10 -28 -29 q-12 -19 -18 -42 q8 -11 17 -33 q3 -7 3 -12 q0 -11 -10 -16 q23 -9 29 -18 q6 -9 8 -22 q2 -13 4 -22 q2 -8 2 -16 q0 -26 -28 -43 l-113 -69 q2 -4 4.5 -9 q2.5 -5 5.5 -12 q151 22 214 37 q20 5 37 5 q31 0 41 -15 q13 -19 20 -33 q7 -14 19 -44 ZM577 527 q-13 0 -54.5 -8 q-41.5 -8 -69.5 -16 l-9 -3 l0 0 l9 -21 l55 9 q48 7 70 12 q0 -3 4 15 q2 8 0.5 10 q-1.5 2 -5.5 2 ZM467 403 q-1 -6 -1 -16 q13 2 39 8 l24 5 q38 8 56 17 q-12 0 -17 -1 q-27 -4 -44 -5 q-24 -3 -57 -8 ZM563 324 q-44 -6 -114 -31 q17 -1 53 -11 l27 -7 l1 0 q5 5 16.5 16.5 q11.5 11.5 18.5 16.5 q10 7 10 12 q0 2 -3.5 3.5 q-3.5 1.5 -8.5 0.5 Z" /><glyph glyph-name="uni4EAE" unicode="&#x4eae;" d="M881 38 q21 0 21 -38 q0 -36 -21 -62 q-21 -26 -69 -31 q-66 -6 -119 -6 q-46 0 -94 5 q-65 7 -92.5 39 q-27.5 32 -27.5 100 q0 31 15 98 q4 14 4 16 q0 3 -4 3 q-2 0 -20 -5 q-24 -8 -24 -8 q-14 -5 -26 -7 q-4 -6 -5 -9 q-25 -61 -54 -105.5 q-29 -44.5 -77 -79 q-48 -34.5 -120 -49.5 q-12 -2 -15 -2 q-16 0 -16 10 q0 9 14 21 q62 49 98 94 q36 45 63 121 q2 6 10 28.5 q8 22.5 8 40.5 q0 8 -1 12 q-2 8 -2 14 q0 5 2 13 l-71 -17 l-23 -9 q-16 -45 -41.5 -71 q-25.5 -26 -43.5 -26 q-5 0 -8.5 3.5 q-3.5 3.5 -2.5 9.5 q1 24 -9 60 q-7 23 -7 35 q0 14 8 22 q13 14 22.5 36.5 q9.5 22.5 17.5 71.5 q3 13 5.5 18.5 q2.5 5.5 7.5 5.5 q6 0 18 -9 q29 -21 41 -44 q49 9 94 15 l55 9 q-17 18 -28 25 q-11 7 -13 8 q-12 8 -16.5 16.5 q-4.5 8.5 -0.5 15.5 q4 5 4 16 q0 10 -2.5 23 q-2.5 13 -3.5 17 q-4 20 -9 31 q-5 11 -24 41 q-3 2 -3 5 q0 5 7 8 q-10 -3 -21.5 -8 q-11.5 -5 -17.5 -5 q-10 0 -24 13 q0 0 -27 24 q-25 20 -41 38 q-8 10 -8 22 q0 14 14 14 q89 0 243 22 q-4 52 -31 79 q-14 14 -14 21 q0 9 24 15 q21 6 45 6 q19 0 39 -4 q36 -8 57 -29.5 q21 -21.5 21 -49.5 q0 -9 -1 -14 q47 8 124 25 q22 4 33 4 q28 0 37 -13 q13 -18 19.5 -31 q6.5 -13 16.5 -39 q4 -9 4 -17 q0 -12 -8 -18 q-8 -6 -23 -6 q-6 0 -18 2 q-35 7 -83 7 q-86 0 -179 -16.5 q-93 -16.5 -165 -36.5 q-6 -2 -8 -2 q4 1 15 1 q14 0 37 -7 l2 0 q108 11 163 22 q32 6 43 12.5 q11 6.5 14 6.5 q5 0 33 -12 q14 -5 34 -23 q20 -18 20 -33 q0 -6 -5 -13 q-8 -9 -22.5 -29.5 q-14.5 -20.5 -26.5 -41.5 q2 -4 8 -21 q2 -4 2 -11 q0 -17 -22 -17 q-4 0 -16 2 q-10 2 -30 2 q-23 0 -32 -1 q-22 -2 -49.5 -7.5 q-27.5 -5.5 -35.5 -7.5 l0 -3 q-6 -24 -5 -21 q203 29 311 48 q29 5 33.5 10 q4.5 5 5.5 5 q1 0 19 -6 q27 -10 48 -39 q21 -29 24 -51 q1 -6 1 -17 q0 -25 -8 -39.5 q-8 -14.5 -20 -14.5 q-38 0 -66 -11 q-28 -11 -56 -33 q-19 -16 -32 -16 q-8 0 -8 10 q0 5 5 18 q18 45 31 74 q3 8 3 9 q0 2 -2.5 2.5 q-2.5 0.5 -7.5 0.5 q-32 0 -132.5 -17.5 q-100.5 -17.5 -208.5 -39.5 q13 -5 28 -18 q48 3 90 14 q12 3 34 13 q18 9 29 9 q13 0 33 -7 q23 -8 36 -24 q13 -16 13 -48 q0 -12 -3 -18 q-3 -6 -9 -11 q-12 -12 -17 -23 q-12 -26 -16.5 -43.5 q-4.5 -17.5 -4.5 -35.5 q0 -30 6.5 -40.5 q6.5 -10.5 27.5 -14.5 q21 -4 55 -4 q44 0 68 4 q25 4 38.5 19 q13.5 15 13.5 54 q0 17 4.5 26.5 q4.5 9.5 10.5 9.5 q6 0 11 -7.5 q5 -7.5 8 -23.5 q10 -54 47 -54 ZM548 512 q-19 0 -84 -14 q-18 -4 -30 -9 l2 -15 l1 -5 q73 14 112 26 l2 6 q3 11 -3 11 Z" /><glyph glyph-name="uni4EB2" unicode="&#x4eb2;" d="M895 404 q4 -9 4 -19 q0 -26 -34 -26 q-5 0 -19 2 q-44 8 -92 8 q-66 0 -192 -16 q1 -4 1 -12 q0 -10 -2 -17 l0 -32 q74 15 111 25 q13 4 32 4 q29 0 38 -13 q12 -16 18.5 -28.5 q6.5 -12.5 17.5 -41.5 q4 -9 4 -17 q0 -12 -8 -18 q-8 -6 -23 -6 q-6 0 -18 2 q-39 8 -83 8 q-52 0 -89 -4 l0 -106 q0 -78 -4 -109 q-4 -31 -21 -50 q-39 -43 -70 -43 q-30 0 -52 37 q-18 30 -34.5 47 q-16.5 17 -36.5 29 q-2 -26 -12 -40 q-16 -19 -34 -19 q-25 0 -48 33 q-18 25 -18 57 q0 38 27 83 q10 17 24 22 q-7 3 -17 13 l-33 31 q-18 15 -35 32 q-3 3 -5.5 9 q-2.5 6 -2.5 12 q0 14 15 14 q111 0 249 20 q0 34 -4 61 q-151 -25 -204 -41 q-19 -6 -38 -14 q-17 -7 -23 -7 q-11 0 -26 15 l-26 24 q-32 28 -49 45 q-9 9 -9 24 q0 15 16 15 q86 0 291 26 l-9 9 q-28 29 -28 69 l1 11 q-15 -5 -20 -5 q-11 0 -24 13 q0 0 -30 27 q-36 33 -38 35 q-3 3 -5.5 9 q-2.5 6 -2.5 12 q0 14 15 14 q108 0 260 30 q-4 8 -5 15 q-1 7 -8.5 12.5 q-7.5 5.5 -14.5 5.5 q-13 0 -16 -15 q-1 -4 -3 -6.5 q-2 -2.5 -5 -2.5 q-7 0 -7 11 q0 30 -6 53.5 q-6 23.5 -24 42.5 q-13 14 -13 21 q0 9 23 15 q21 6 45 6 q19 0 38 -4 q38 -9 54.5 -29.5 q16.5 -20.5 16.5 -52.5 q0 -16 -5 -41 q-1 -8 -5 -17 q31 7 93 23 q13 4 32 4 q29 0 38 -13 q12 -16 18.5 -28.5 q6.5 -12.5 17.5 -41.5 q4 -9 4 -17 q0 -23 -32 -23 q-5 0 -17 2 q-51 8 -74 7 q11 -11 17 -20 q3 -6 3 -14 q0 -20 -13 -37 q-13 -19 -37 -44 q104 18 163 32 q20 5 37 5 q31 0 41 -15 q13 -19 20 -33 q7 -14 19 -44 ZM456 506 q-3 -4 -3 -10 q0 -5 4 -21 q5 -15 5 -26 q0 -10 -4 -15 l37 6 l33 55 q8 14 12.5 31.5 q4.5 17.5 3.5 33.5 q-18 -4 -27 -5 l-109 -23 q9 -11 22 -11 q7 0 15 4 q8 3 11 3 q7 0 7 -7 q0 -7 -7 -15 ZM452 189 q-60 -11 -108 -26 q-15 -4 -27.5 -10 q-12.5 -6 -18.5 -8 q10 -5 7 -20 q-1 -4 -1 -9 q0 -7 7 -7 q9 0 44 16 q10 6 10 -2 q0 -5 -5.5 -14.5 q-5.5 -9.5 -11.5 -17.5 q-5 -6 -5 -24 l1 -29 l25 -4 q28 -6 42 -6 q39 0 40 38 l1 123 ZM730 137 q37 -21 52 -39 q15 -18 15 -39 q0 -20 -17 -61 q-18 -43 -39 -43 q-20 0 -46 41 l-16 26 q-8 13 -29 46 q-21 33 -39 57 q-9 12 -9 22 q0 9 7 14 q7 5 20 5 q8 0 13 -1 q32 -6 50 -11.5 q18 -5.5 38 -16.5 Z" /><glyph glyph-name="uni4EBA" unicode="&#x4eba;" d="M944 47 q12 -6 20 -13 q8 -7 8 -12 q0 -9 -21 -9 q-5 0 -21 2 q-24 3 -42 -5 q-18 -8 -54 -29 q-23 -14 -50 -14 q-35 0 -58 24 q-107 111 -165.5 199 q-58.5 88 -110.5 200 q-48 -138 -134.5 -237 q-86.5 -99 -218.5 -140 q-22 -7 -37 -7 q-11 0 -11 6 q0 11 29 36 q118 102 186.5 232.5 q68.5 130.5 102.5 287.5 q7 36 7 64 q0 29 -9 50 q-1 6 -6.5 20.5 q-5.5 14.5 -5.5 22.5 q0 18 29 26 q12 3 22 3 q30 0 54.5 -15.5 q24.5 -15.5 37 -28 q12.5 -12.5 15.5 -14.5 q9 -6 9 -18 q0 -14 -17 -39 q-8 -74 -24 -145 q37 -73 110 -157 q95 -111 176 -175 q81 -64 179 -115 Z" /><glyph glyph-name="uni4EC0" unicode="&#x4ec0;" d="M916 405 q4 -9 4 -19 q0 -26 -34 -26 q-5 0 -19 2 q-47 9 -75 9 q-12 0 -17 -1 q-37 -6 -95 -17 l0 -208 q0 -22 1 -36 l1 -54 q0 -88 -22 -134 q-13 -27 -22 -38.5 q-9 -11.5 -17 -11.5 q-6 0 -11.5 8 q-5.5 8 -13.5 26 q-12 27 -23 38.5 q-11 11.5 -13 13.5 q-13 14 -13 28 q0 7 5 12 q9 9 12.5 27.5 q3.5 18.5 3.5 36.5 l2 270 q-1 0 -61 -16 q-19 -6 -38 -14 q-17 -7 -23 -7 q-11 0 -26 15 l-26 24 q-32 28 -49 45 q-9 9 -9 24 q0 15 16 15 q95 0 217 23 l1 168 q0 56 -4.5 97.5 q-4.5 41.5 -19.5 72.5 q-3 5 1 10 q4 5 14 5 q18 0 33.5 -7.5 q15.5 -7.5 35.5 -21.5 q8 -6 24 -16 q11 -7 18.5 -15.5 q7.5 -8.5 7.5 -24.5 q0 -4 -2 -16 l0 -228 l22 5 q22 5 97 23 q20 5 37 5 q31 0 41 -15 q13 -19 20 -33 q7 -14 19 -44 ZM315 185 q0 -24 1 -38 l1 -53 q0 -88 -22 -133 q-13 -27 -22 -38.5 q-9 -11.5 -17 -11.5 q-6 0 -11.5 8 q-5.5 8 -13.5 26 q-12 27 -23 38.5 q-11 11.5 -13 13.5 q-13 14 -13 28 q0 7 5 12 q9 9 12.5 27.5 q3.5 18.5 3.5 36.5 l4 219 q0 21 -2 63 q-71 -83 -141 -133 q-17 -13 -30 -13 q-13 0 -13 13 q0 8 8 21 q106 159 212 345 q19 33 28.5 55 q9.5 22 7.5 40 q-2 19 5 34 q7 15 25 15 q10 0 19 -4 q26 -10 43 -31 q17 -21 25 -42 q8 -21 8 -30 q-1 -30 -33 -67 q-42 -50 -94 -117 l16 -9 q11 -7 18.5 -15.5 q7.5 -8.5 7.5 -24.5 q0 -4 -2 -16 l0 -219 Z" /><glyph glyph-name="uni4EC5" unicode="&#x4ec5;" d="M971 36 q9 -4 9 -12 q0 -5 -5 -8.5 q-5 -3.5 -15 -3.5 q-4 0 -16 2 q-15 3 -30 3 q-46 0 -89 -33 q-21 -16 -38 -16 q-28 0 -65 40 q-71 78 -141 164 q-96 -101 -217 -139 q-29 -8 -42 -8 l-9 1 q-5 -37 -18 -65 q-13 -27 -22 -38.5 q-9 -11.5 -17 -11.5 q-6 0 -11.5 8 q-5.5 8 -13.5 26 q-12 27 -23 38.5 q-11 11.5 -13 13.5 q-13 14 -13 28 q0 7 5 12 q9 9 12.5 27.5 q3.5 18.5 3.5 36.5 l4 219 q0 36 -2 55 q-67 -72 -141 -125 q-17 -13 -30 -13 q-13 0 -13 13 q0 8 8 21 q106 159 212 345 q19 33 28.5 55 q9.5 22 7.5 40 q-2 19 5 34 q7 15 25 15 q10 0 19 -4 q26 -10 43 -31 q17 -21 25 -42 q8 -21 8 -30 q-1 -14 -7.5 -26.5 q-6.5 -12.5 -14 -24 q-7.5 -11.5 -11.5 -16.5 q-40 -64 -86 -122 l8 -4 q11 -7 18.5 -15.5 q7.5 -8.5 7.5 -24.5 q0 -4 -2 -16 l0 -219 q0 -23 1 -37 l1 -52 q0 -26 -1 -39 q-2 -2 16 13 q92 69 182 187 q-33 43 -55 76 l-17 24 q-18 25 -29 30.5 q-11 5.5 -29 3.5 q-17 -2 -33.5 5.5 q-16.5 7.5 -16.5 20.5 q0 19 36 38 q17 10 39 10 q41 0 72 -38 q19 -25 88 -88 q49 77 70 144 q5 15 5 17 q0 2 -2 2 l-8 -3 q-58 -25 -85 -35 q-17 -6 -29 -10 q-12 -4 -19 -4 q-12 0 -27 14 q-45 40 -63 60 q-8 10 -8 21 q0 13 16 14 q40 1 82.5 10.5 q42.5 9.5 100.5 26.5 l33 9 q40 11 49.5 23 q9.5 12 12.5 12 q6 0 19 -8 q46 -27 63 -39 q17 -12 25 -29 q8 -17 8 -49 q0 -10 -22 -28 q-23 -21 -29 -34 l-9 -19 q-4 -8 -31 -61 q-27 -53 -65 -108 l35 -30 q95 -79 155 -124 q60 -45 125 -75 Z" /><glyph glyph-name="uni4ECA" unicode="&#x4eca;" d="M970 326 q11 -4 11 -9 q0 -5 -15 -7 q-29 -4 -45 -12.5 q-16 -8.5 -41 -32.5 q-19 -17 -47 -17 q-27 0 -47 15 q-76 58 -160 150.5 q-84 92.5 -156 182.5 q-73 -102 -186 -207.5 q-113 -105.5 -217 -152.5 q-19 -8 -26 -8 q-9 0 -9 8 q0 11 15 27 q113 122 181.5 208.5 q68.5 86.5 122.5 182.5 q3 5 15.5 26 q12.5 21 19.5 38.5 q7 17.5 7 30.5 q0 20 7.5 36 q7.5 16 25.5 16 q8 0 21 -5 q27 -11 43.5 -34 q16.5 -23 23.5 -46 q7 -23 6 -33 q0 -11 -12 -30 q144 -133 257.5 -214 q113.5 -81 204.5 -113 ZM586 311 q30 1 50.5 -16 q20.5 -17 31.5 -43 q11 -26 13 -49 q1 -15 -7 -27 q-8 -12 -27 -32 l-14 -15 l-11 -23 q-39 -84 -63 -130 q-24 -46 -46 -70 q-9 -10 -20 -16 q-11 -6 -21 -6 q-11 0 -18 8.5 q-7 8.5 -7 24.5 q0 29 -5 44 q-5 15 -6 18 q-3 10 -3 17 q0 17 12 23 q6 3 19 20.5 q13 17.5 21 31.5 l53 97 q6 12 6 13 q0 5 -11 2 q-140 -38 -159 -44 q-18 -6 -31.5 -10 q-13.5 -4 -20.5 -4 q-12 0 -27 14 q-25 22 -67 64 q-9 11 -9 21 q0 7 4.5 11 q4.5 4 12.5 3 q44 -2 86 6.5 q42 8.5 120 29.5 l46 12 q-17 5 -24 35 q-1 7 -8.5 12.5 q-7.5 5.5 -14.5 5.5 q-13 0 -16 -15 q-1 -4 -3 -6.5 q-2 -2.5 -5 -2.5 q-7 0 -7 11 q0 30 -6 53.5 q-6 23.5 -24 42.5 q-13 14 -13 21 q0 9 23 15 q21 6 45 6 q19 0 38 -4 q38 -9 54.5 -29.5 q16.5 -20.5 16.5 -52.5 q0 -16 -5 -41 q-6 -29 -24 -44 q27 8 39 14 q5 2 11 3 q6 1 21 1 Z" /><glyph glyph-name="uni4ECB" unicode="&#x4ecb;" d="M981 361 q12 -4 12 -9 q0 -6 -16 -8 q-30 -4 -47 -13 q-17 -9 -43 -34 q-19 -18 -49 -18 q-28 0 -50 16 q-81 61 -166.5 149 q-85.5 88 -150.5 168 q-58 -82 -145 -167 q35 -1 59.5 -23.5 q24.5 -22.5 35.5 -42.5 q8 -13 8 -26 q0 -10 -7 -23 q-7 -13 -8 -18 q-18 -89 -33 -135 q-15 -46 -57 -94 q-42 -48 -123 -86 q-18 -8 -27 -8 q-11 0 -11 9 q0 7 10 19 q59 68 86 130 q27 62 37 153 l3 21 q4 28 4 41 q0 18 -6 30 q-4 9 -6 20 q-118 -106 -216 -151 q-19 -8 -26 -8 q-9 0 -9 8 q0 11 15 27 q113 122 181.5 208.5 q68.5 86.5 122.5 182.5 q3 5 15.5 26 q12.5 21 19.5 38.5 q7 17.5 7 30.5 q0 20 7.5 36 q7.5 16 25.5 16 q8 0 21 -5 q27 -11 43.5 -34 q16.5 -23 23.5 -46 q7 -23 6 -33 q0 -11 -12 -30 q262 -237 465 -317 ZM608 152 q0 -22 1 -36 l1 -54 q0 -88 -22 -134 q-13 -27 -22 -38.5 q-9 -11.5 -17 -11.5 q-6 0 -11.5 8 q-5.5 8 -13.5 26 q-12 27 -23 38.5 q-11 11.5 -13 13.5 q-13 14 -13 28 q0 7 5 12 q9 9 12.5 27.5 q3.5 18.5 3.5 36.5 l4 219 q1 52 -3.5 95 q-4.5 43 -20.5 75 q-3 5 1 10 q4 5 14 5 q18 0 33.5 -7.5 q15.5 -7.5 35.5 -21.5 q8 -6 24 -16 q11 -7 18.5 -15.5 q7.5 -8.5 7.5 -24.5 q0 -4 -2 -16 l0 -219 Z" /><glyph glyph-name="uni4ECD" unicode="&#x4ecd;" d="M900 373 q1 -5 -2.5 -16 q-3.5 -11 -4.5 -15 q-9 -32 -10 -38 l-8 -48 q-13 -88 -30.5 -157.5 q-17.5 -69.5 -53.5 -135.5 q-11 -19 -30 -31 q-19 -12 -39 -12 q-35 0 -53 37 q-15 31 -45 66.5 q-30 35.5 -51 46.5 q-7 4 -7 9 q0 6 6.5 9 q6.5 3 15.5 1 q2 0 37 -10 q29 -9 41 -9 q27 0 42 36 q18 44 39 146 q7 33 12 52 q4 16 4 18 q0 7 -9 6 q-6 -1 -19 -2 q-13 -1 -25 -5 q-13 -4 -24 -9 q-11 -5 -16 -5 q-8 0 -22 13 q-12 11 -22 22.5 q-10 11.5 -21 25.5 q-7 9 -7 21 q0 11 11 11 q10 0 19.5 12.5 q9.5 12.5 19.5 35.5 l38 83 q4 8 4 13 q0 2 -2 2 l-25 -7 q-2 -1 -53 -16 q4 -7 7 -16 q4 -12 4 -22 q0 -12 -7 -25 q-7 -13 -9 -19 q-29 -118 -94 -235.5 q-65 -117.5 -173 -178.5 q-19 -10 -26 -9 q-4 -30 -17 -57 q-13 -27 -22 -38.5 q-9 -11.5 -17 -11.5 q-6 0 -11.5 8 q-5.5 8 -13.5 26 q-12 27 -23 38.5 q-11 11.5 -13 13.5 q-13 14 -13 28 q0 7 5 12 q9 9 12.5 27.5 q3.5 18.5 3.5 36.5 l4 219 q0 36 -2 55 q-67 -72 -141 -125 q-17 -13 -30 -13 q-13 0 -13 13 q0 8 8 21 q106 159 212 345 q19 33 28.5 55 q9.5 22 7.5 40 q-2 19 5 34 q7 15 25 15 q10 0 19 -4 q26 -10 43 -31 q17 -21 25 -42 q8 -21 8 -30 q-1 -14 -7.5 -26.5 q-6.5 -12.5 -14 -24 q-7.5 -11.5 -11.5 -16.5 q-40 -64 -86 -122 l8 -4 q11 -7 18.5 -15.5 q7.5 -8.5 7.5 -24.5 q0 -4 -2 -16 l0 -219 q0 -23 1 -36 l1 -53 q0 -34 -2 -51 q1 0 1 0.5 q0 0.5 0 0.5 q60 94 100 191 q40 97 69 205 q2 9 5 19.5 q3 10.5 6 21.5 q-11 -4 -21 -4 q-13 0 -29 12 q-4 3 -19.5 14 q-15.5 11 -27.5 22 q-12 11 -23 23 q-9 11 -9 22 q0 12 13 12 q48 3 115 16.5 q67 13.5 157 34.5 l37 9 q8 2 16 7.5 q8 5.5 11 7.5 q11 8 18.5 12 q7.5 4 16.5 4 q3 0 11 -2 q28 -8 58.5 -35 q30.5 -27 34.5 -50 q2 -12 -2 -19 q-4 -7 -14 -15 q-12 -10 -19 -18 q-29 -36 -67 -93 q-8 -12 -8 -15 q0 -5 11 -4 q29 7 41 15 q12 8 17 8 q4 0 30 -9 q15 -6 34 -23.5 q19 -17.5 22 -41.5 Z" /><glyph glyph-name="uni4ECE" unicode="&#x4ece;" d="M967 42 q11 -5 17.5 -11.5 q6.5 -6.5 6.5 -10.5 q0 -8 -18 -8 q-4 0 -18 2 l-10 1 q-17 0 -31.5 -7 q-14.5 -7 -41.5 -23 q-21 -13 -43 -13 q-29 0 -50 21 q-78 81 -113 137 q-35 56 -66 130 q-33 -96 -91.5 -163.5 q-58.5 -67.5 -153.5 -102.5 q-24 -9 -36 -9 q-10 0 -10 7 q0 10 27 37 q45 42 83 112 q-12 -12 -25 -12 q-24 0 -41 41 q-25 68 -59 110 q-30 -81 -82 -136 q-52 -55 -137 -86 q-24 -9 -36 -9 q-10 0 -10 7 q0 10 27 37 q55 53 86.5 118 q31.5 65 44 123.5 q12.5 58.5 21.5 127.5 q2 8 4 27 q7 36 7 64 q0 29 -9 50 q-1 6 -6.5 20.5 q-5.5 14.5 -5.5 22.5 q0 18 29 26 q12 3 22 3 q30 0 54.5 -15.5 q24.5 -15.5 37 -28 q12.5 -12.5 15.5 -14.5 q9 -6 9 -18 q0 -14 -17 -39 q-14 -134 -34 -213 q47 -18 91 -44 q46 -28 46 -74 q0 -12 -3 -26 q31 77 47 153 q16 76 29 163 l3 23 q7 36 7 64 q0 29 -9 50 q-1 6 -6.5 20.5 q-5.5 14.5 -5.5 22.5 q0 18 29 26 q12 3 22 3 q30 0 54.5 -15.5 q24.5 -15.5 37 -28 q12.5 -12.5 15.5 -14.5 q9 -6 9 -18 q0 -14 -17 -39 q-15 -155 -33 -239 q68 -102 164 -197 q96 -95 173 -135 Z" /><glyph glyph-name="uni4ED3" unicode="&#x4ed3;" d="M959 360 q11 -5 11 -9 q0 -5 -15 -7 q-29 -4 -45 -12.5 q-16 -8.5 -41 -32.5 q-19 -17 -47 -17 q-27 0 -47 15 q-70 54 -152.5 142 q-82.5 88 -154.5 177 q-74 -105 -173 -206 q17 -8 40 -22 q68 8 155 27 q30 6 36 12 q6 6 10 6 l23 -3 q29 -5 46.5 -23.5 q17.5 -18.5 17.5 -37.5 q0 -8 -3 -13 q-4 -6 -5 -12.5 q-1 -6.5 -0.5 -15 q0.5 -8.5 0.5 -16.5 q0 -43 -12 -91.5 q-12 -48.5 -28 -72.5 q-12 -19 -31.5 -34.5 q-19.5 -15.5 -38.5 -15.5 q-34 0 -57 48 q-11 22 -22 33.5 q-11 11.5 -30 25.5 q-12 9 -12 13 q0 4 7 4 q6 0 10 -1 q6 -1 21.5 -4 q15.5 -3 26.5 -3 q35 0 43 31 q8 35 10 50.5 q2 15.5 3 19.5 l0 4 q0 11 -14 11 q-5 0 -8 -1 q-50 -11 -46 -10 q-27 -5 -56 -12 l0 -174 q0 -73 54 -85 q15 -3 50 -3 q37 0 75 3.5 q38 3.5 52 9.5 q4 2 20 8.5 q16 6.5 24 22.5 q8 16 8 42 q0 17 4.5 26.5 q4.5 9.5 10.5 9.5 q6 0 11 -7.5 q5 -7.5 8 -23.5 q10 -54 47 -54 q21 0 21 -38 q0 -76 -90 -93 q-83 -16 -191 -16 q-56 0 -76 5 q-68 16 -104.5 57 q-36.5 41 -35.5 114 l1 123 q0 92 -13 139 q-97 -92 -176 -135 q-13 -7 -23 -7 q-9 0 -14.5 5 q-5.5 5 -5.5 13 q0 11 11 24 q94 98 177 204 q83 106 131 198 q4 7 15 27.5 q11 20.5 16.5 37.5 q5.5 17 4.5 29 q-2 19 4.5 34 q6.5 15 24.5 15 q10 0 19 -4 q26 -10 43 -31 q17 -21 25 -42 q8 -21 8 -30 q0 -8 -7 -26 q134 -122 243 -201 q109 -79 206 -124 Z" /><glyph glyph-name="uni4ED4" unicode="&#x4ed4;" d="M961 359 q4 -9 4 -18 q0 -23 -30 -23 q-4 0 -18 2 q-20 4 -59 4 q-64 0 -141 -9 q7 -46 8.5 -86 q1.5 -40 1.5 -95 q0 -43 -6.5 -70.5 q-6.5 -27.5 -13.5 -41 q-7 -13.5 -28 -47.5 q-13 -22 -41 -39.5 q-28 -17.5 -53 -17.5 q-36 0 -47 38 q-12 41 -28 64 q-16 23 -39 36 q-11 7 -11 11 q0 6 16 6 l31 0 q43 0 72.5 12 q29.5 12 31.5 49 q3 38 3 80 q0 50 -5 86 q-108 -19 -144 -32 q-10 -3 -34 -14 q-16 -7 -21 -7 q-10 0 -24 14 l-24 23 q-27 27 -44 40 l-3 3 l0 -142 q0 -24 1 -38 l1 -53 q0 -88 -22 -133 q-13 -27 -22 -38.5 q-9 -11.5 -17 -11.5 q-6 0 -11.5 8 q-5.5 8 -13.5 26 q-12 27 -23 38.5 q-11 11.5 -13 13.5 q-13 14 -13 28 q0 7 5 12 q9 9 12.5 27.5 q3.5 18.5 3.5 36.5 l4 219 q0 21 -2 63 q-71 -83 -141 -133 q-17 -13 -30 -13 q-13 0 -13 13 q0 8 8 21 q106 159 212 345 q19 33 28.5 55 q9.5 22 7.5 40 q-2 19 5 34 q7 15 25 15 q10 0 19 -4 q26 -10 43 -31 q17 -21 25 -42 q8 -21 8 -30 q0 -7 -4 -21 q41 1 74.5 7.5 q33.5 6.5 87.5 21.5 q64 18 82 22 q41 10 57 17.5 q16 7.5 20 7.5 q4 0 35 -10 q39 -12 61 -41 q22 -29 22 -63 q0 -11 -5.5 -17.5 q-5.5 -6.5 -23.5 -19.5 l-129 -94 q14 -45 17 -55 q84 14 158 30 q22 4 34 4 q29 0 37 -13 q10 -16 18.5 -31 q8.5 -15 17.5 -39 ZM324 360 q84 4 266 31 q-26 86 -67 122 q-4 3 -3 8.5 q1 5.5 9 9.5 q8 4 24 4 q20 0 43.5 -6 q23.5 -6 29.5 -7 q16 14 27 25.5 q11 11.5 25 28.5 q9 11 9 15 q0 5 -11 2 q-17 -4 -46.5 -15 q-29.5 -11 -79.5 -30 l-23 -9 q-16 -6 -27 -12 q-19 -8 -26 -8 q-9 0 -26 15 q-28 25 -29 26 q-9 9 -18.5 18 q-9.5 9 -20.5 19 l-1 1 q-3 -3 -5.5 -6.5 q-2.5 -3.5 -4.5 -5.5 q-42 -50 -94 -117 l16 -9 q11 -7 18.5 -15.5 q7.5 -8.5 7.5 -24.5 q0 -4 -2 -16 l0 -46 q4 2 9 2 Z" /><glyph glyph-name="uni4ED6" unicode="&#x4ed6;" d="M927 158 q21 0 21 -38 q0 -76 -90 -93 q-40 -8 -113.5 -12 q-73.5 -4 -145.5 -4 q-85 0 -105 5 q-66 15 -98 55.5 q-32 40.5 -32 115.5 l0 63 q-3 1 -14 8 l-54 40 l0 -113 q0 -24 1 -38 l1 -53 q0 -88 -22 -133 q-13 -27 -22 -38.5 q-9 -11.5 -17 -11.5 q-6 0 -11.5 8 q-5.5 8 -13.5 26 q-12 27 -23 38.5 q-11 11.5 -13 13.5 q-13 14 -13 28 q0 7 5 12 q9 9 12.5 27.5 q3.5 18.5 3.5 36.5 l4 219 q0 35 -1 53 q-60 -61 -129 -112 q-17 -13 -30 -13 q-13 0 -13 13 q0 8 8 21 q106 159 212 345 q19 33 28.5 55 q9.5 22 7.5 40 q-2 19 5 34 q7 15 25 15 q10 0 19 -4 q26 -10 43 -31 q17 -21 25 -42 q8 -21 8 -30 q0 -14 -6.5 -26.5 q-6.5 -12.5 -14.5 -23.5 q-8 -11 -12 -17 q-41 -65 -96 -134 l5 -3 q11 -7 18.5 -15.5 q7.5 -8.5 7.5 -24.5 q0 -4 -2 -16 l0 -42 l69 19 q-2 89 -24 135 q-3 5 1 10 q4 5 14 5 q17 0 32.5 -7.5 q15.5 -7.5 40.5 -22.5 l24 -15 q11 -7 18 -15.5 q7 -8.5 7 -23.5 q0 -11 -2 -17 l0 -11 l49 18 l0 181 q0 31 -3 51 q-3 20 -11 42 q-2 5 2 10 q4 5 14 5 q9 0 20 -4 q17 -6 62 -28 q26 -13 26 -40 q0 -4 -2 -16 l0 -152 q9 4 27 14 q26 14 29 28 q1 5 6.5 6 q5.5 1 30.5 1 q35 0 57 -22.5 q22 -22.5 34 -52.5 q2 -5 0 -10 q-2 -5 -5 -10 q-8 -14 -9 -24 q-2 -21 -18.5 -96.5 q-16.5 -75.5 -29.5 -96.5 q-11 -18 -25 -29 q-14 -11 -28 -11 q-22 0 -36 34 q-10 25 -33 41 q-2 -40 -10 -79 q-4 -16 -13.5 -23.5 q-9.5 -7.5 -21.5 -7.5 q-9 0 -17 4 q-8 4 -12 11 l-17 29 q-11 20 -14 23 q-12 13 -12 26 q0 6 4 14 q2 5 4 78 l-48 -28 l0 -96 q1 -38 8.5 -58.5 q7.5 -20.5 35.5 -26.5 q15 -3 72 -3 q62 0 125.5 3.5 q63.5 3.5 76.5 9.5 q4 2 20 8.5 q16 6.5 24 22.5 q8 16 8 42 q0 17 4.5 26.5 q4.5 9.5 10.5 9.5 q6 0 11 -7.5 q5 -7.5 8 -23.5 q10 -54 47 -54 ZM675 408 q-15 -4 -42 -18 l0 -66 l0 -16 q5 -1 13 -1 q30 0 34 28 q5 27 6.5 41 q1.5 14 1.5 29 q0 5 -4 5 l-9 -2 Z" /><glyph glyph-name="uni4ED8" unicode="&#x4ed8;" d="M945 448 q4 -9 4 -19 q0 -26 -34 -26 q-5 0 -19 2 q-44 8 -92 8 q-20 0 -54 -2 l0 -309 q0 -78 -4 -109 q-4 -31 -21 -50 q-17 -19 -37.5 -32.5 q-20.5 -13.5 -38.5 -13.5 q-31 0 -46 40 q-13 35 -29.5 50.5 q-16.5 15.5 -33 24 q-16.5 8.5 -23.5 12.5 q-11 7 -11 11 q0 6 16 6 q6 0 39.5 -1 q33.5 -1 56 14.5 q22.5 15.5 22.5 47.5 l1 289 q-45 -12 -76 -22 l-47 -14 q-19 -6 -38 -14 q-17 -7 -23 -7 q-11 0 -26 15 l-26 24 q-32 28 -49 45 q-9 9 -9 24 q0 15 16 15 q107 0 279 35 l0 126 q0 56 -4.5 97.5 q-4.5 41.5 -19.5 72.5 q-3 5 1 10 q4 5 14 5 q18 0 32.5 -7.5 q14.5 -7.5 37.5 -22.5 l24 -15 q11 -7 18 -15.5 q7 -8.5 7 -23.5 q0 -11 -2 -17 l0 -186 q26 7 78 19 q20 5 37 5 q31 0 41 -15 q13 -19 20 -33 q7 -14 19 -44 ZM326 196 q0 -24 1 -38 l1 -53 q0 -88 -22 -133 q-13 -27 -22 -38.5 q-9 -11.5 -17 -11.5 q-6 0 -11.5 8 q-5.5 8 -13.5 26 q-12 27 -23 38.5 q-11 11.5 -13 13.5 q-13 14 -13 28 q0 7 5 12 q9 9 12.5 27.5 q3.5 18.5 3.5 36.5 l4 219 q0 39 -2 59 q-66 -68 -133 -116 q-16 -12 -30 -12 q-14 0 -14 12 q0 9 9 21 q67 86 145 210 q0 6 5 8 q25 40 62 104 q19 33 28.5 55 q9.5 22 7.5 40 q-2 19 5 34 q7 15 25 15 q10 0 19 -4 q26 -10 43 -31 q17 -21 25 -42 q8 -21 8 -30 q0 -28 -33 -67 l-94 -111 l8 -5 q11 -7 18.5 -15.5 q7.5 -8.5 7.5 -24.5 q0 -4 -2 -16 l0 -219 ZM565 180 q-16 -39 -35 -39 q-18 0 -41 36 q-34 55 -77 117 q-8 11 -8 21 q0 8 6 13 q6 5 16 5 q3 0 13 -2 q29 -6 45.5 -11 q16.5 -5 34.5 -14 q33 -17 47 -33 q14 -16 14 -36 q0 -11 -4.5 -26 q-4.5 -15 -10.5 -31 Z" /><glyph glyph-name="uni4EE3" unicode="&#x4ee3;" d="M933 32 q12 0 12 -17 l-2 -20 q-5 -43 -22.5 -67 q-17.5 -24 -45.5 -24 q-46 0 -108 66 q-78 83 -129.5 171.5 q-51.5 88.5 -86.5 197.5 l-56 -25 q-16 -6 -33 -17 q-4 -2 -11.5 -5.5 q-7.5 -3.5 -12.5 -3.5 q-9 0 -27 11 l-26 16 q-10 6 -28 17.5 q-18 11.5 -32 21.5 q0 0 -0.5 0 q-0.5 0 -0.5 1 l0 -171 q0 -24 1 -38 l1 -53 q0 -88 -22 -133 q-13 -27 -22 -38.5 q-9 -11.5 -17 -11.5 q-6 0 -11.5 8 q-5.5 8 -13.5 26 q-12 27 -23 38.5 q-11 11.5 -13 13.5 q-13 14 -13 28 q0 7 5 12 q9 9 12.5 27.5 q3.5 18.5 3.5 36.5 l4 219 q0 35 -1 53 q-75 -86 -142 -134 q-17 -13 -30 -13 q-13 0 -13 13 q0 8 8 21 q106 159 212 345 q19 33 28.5 55 q9.5 22 7.5 40 q-2 19 5 34 q7 15 25 15 q10 0 19 -4 q26 -10 43 -31 q17 -21 25 -42 q8 -21 8 -30 q0 -28 -33 -67 q-30 -35 -88 -109 l10 -6 q11 -7 18.5 -15.5 q7.5 -8.5 7.5 -24.5 q0 -4 -2 -16 l0 -9 l1 0 q115 25 197 49 q-14 58 -31 147 q-2 9 -8.5 47 q-6.5 38 -17.5 68 q-11 30 -26 48 q-5 6 -0.5 12 q4.5 6 21.5 6 q43 0 91 -28 q15 -9 24 -19 q9 -10 8 -33 l17 -94 q11 -63 24 -119 q57 23 96 40 q27 12 50 12 q19 0 28 -9 q16 -16 25.5 -28.5 q9.5 -12.5 26.5 -40.5 q8 -14 8 -24 q0 -13 -13.5 -20 q-13.5 -7 -35.5 -7 q-71 0 -158 -26 q27 -87 65 -158 q38 -71 93 -130 q4 -4 14.5 -15.5 q10.5 -11.5 17 -16 q6.5 -4.5 10.5 -4.5 q8 0 14 14 q6 13 14 42 q8 29 12 52 q2 13 7 20.5 q5 7.5 10 7.5 q12 0 12 -40 q0 -23 -1 -34 l-1 -35 q0 -46 15 -46 ZM643 641 q-17 12 -17 22 q0 11 25 23 q12 6 24 8.5 q12 2.5 33 2.5 q45 0 66.5 -20.5 q21.5 -20.5 21.5 -54.5 q0 -14 -3 -29 q-4 -22 -17.5 -36.5 q-13.5 -14.5 -28.5 -14.5 q-20 0 -35 29 q-12 26 -25 37.5 q-13 11.5 -44 32.5 Z" /><glyph glyph-name="uni4EE4" unicode="&#x4ee4;" d="M962 330 q11 -4 11 -9 q0 -5 -15 -7 q-29 -4 -45 -12.5 q-16 -8.5 -41 -32.5 q-19 -17 -47 -17 q-27 0 -47 15 q-75 58 -158.5 148.5 q-83.5 90.5 -151.5 177.5 q-42 -59 -110 -132 q0 0 15 5 q21 6 45 6 q19 0 38 -4 q38 -9 54.5 -29.5 q16.5 -20.5 16.5 -52.5 q0 -16 -5 -41 q-3 -19 -14 -27.5 q-11 -8.5 -25 -8.5 q-12 0 -22.5 6 q-10.5 6 -13.5 14 q-3 7 -10.5 12.5 q-7.5 5.5 -14.5 5.5 q-11 0 -14 -15 q-1 -4 -3 -6.5 q-2 -2.5 -5 -2.5 q-7 0 -7 11 q0 30 -6 53.5 q-6 23.5 -24 42.5 q-14 15 -13 22 q-68 -71 -141.5 -128 q-73.5 -57 -141.5 -88 q-19 -8 -26 -8 q-9 0 -9 8 q0 11 15 27 q113 122 181.5 208.5 q68.5 86.5 122.5 182.5 q3 5 15.5 26 q12.5 21 19.5 38.5 q7 17.5 7 30.5 q0 20 7.5 36 q7.5 16 25.5 16 q8 0 21 -5 q27 -11 43.5 -34 q16.5 -23 23.5 -46 q7 -23 6 -33 q0 -11 -13 -33 q141 -129 253 -208.5 q112 -79.5 202 -111.5 ZM578 326 q30 1 50.5 -16 q20.5 -17 31.5 -43 q11 -26 13 -49 q1 -15 -7 -27 q-8 -12 -27 -32 l-14 -15 q-28 -30 -77 -89 q22 -18 22 -54 q0 -18 -5 -48 q-8 -54 -35 -54 q-21 0 -50 32 q-30 32 -72.5 69 q-42.5 37 -70.5 58 q-15 11 -15 24 q0 11 10.5 18 q10.5 7 26.5 7 q37 0 99 -16 l72 92 q7 9 7 13 q0 5 -12 2 q-6 -2 -73 -16 q-96 -20 -123 -28 q-18 -6 -31.5 -10 q-13.5 -4 -20.5 -4 q-12 0 -27 14 q-25 22 -67 64 q-9 11 -9 21 q0 7 4.5 11 q4.5 4 12.5 3 q54 -2 126.5 11.5 q72.5 13.5 174.5 39.5 q43 11 55 18 q4 2 10 3 q6 1 21 1 Z" /><glyph glyph-name="uni4EE5" unicode="&#x4ee5;" d="M821 218 q50 -20 72.5 -55 q22.5 -35 22.5 -77 q0 -29 -9 -55 q-6 -19 -26.5 -28 q-20.5 -9 -49.5 -9 q-36 0 -65.5 12 q-29.5 12 -29.5 29 q0 12 15 22 q7 4 7 14 q0 22 -35 60 q-35 38 -75 68 q-114 -154 -264 -214 q-28 -12 -47 -12 q-16 0 -16 10 q0 16 31 42 q108 91 190 215 q82 124 120 256 q10 33 10 59 q0 24 -12 55 q-1 6 -6.5 20.5 q-5.5 14.5 -5.5 22.5 q0 18 29 26 q12 3 22 3 q30 0 54.5 -15.5 q24.5 -15.5 37 -28 q12.5 -12.5 15.5 -14.5 q9 -6 9 -18 q0 -14 -17 -39 q-10 -75 -39 -155.5 q-29 -80.5 -74 -155.5 q77 -14 136 -38 ZM461 444 q-47 20 -68 65 q-21 45 -21 99 q0 22 9 35 q9 13 21 13 q13 0 22 -16 q14 -26 22.5 -34 q8.5 -8 27.5 -15 q11 -4 21 -4 q10 0 17 4 q7 4 15.5 10 q8.5 6 12.5 9 q10 7 14 7 q7 0 -1 -17.5 q-8 -17.5 -18 -31.5 q-3 -4 -3 -11 q0 -8 6.5 -18 q6.5 -10 8.5 -14 q10 -13 15 -23 q5 -10 3 -20 q-4 -22 -18 -36 q-14 -14 -38 -14 q-19 0 -48 12 ZM417 389 q12 14 26 14 q16 0 16 -16 q0 -10 -7 -23 q-31 -64 -82.5 -142.5 q-51.5 -78.5 -98.5 -134.5 q-47 -56 -68 -58 q-34 -3 -61 10.5 q-27 13.5 -58 41.5 q-14 13 -14 27 q0 12 10 19 l29 19 q24 18 30.5 30.5 q6.5 12.5 6.5 28.5 l3 226 q0 112 -24 170 q-3 5 1 10 q4 5 14 5 q18 0 33.5 -7.5 q15.5 -7.5 35.5 -21.5 q8 -6 24 -16 q11 -7 18.5 -15.5 q7.5 -8.5 7.5 -24.5 q0 -4 -2 -16 l0 -239 q0 -19 7 -19 q4 0 8 3 q92 71 145 129 Z" /><glyph glyph-name="uni4EEC" unicode="&#x4eec;" d="M315 185 q0 -24 1 -38 l1 -53 q0 -88 -22 -133 q-13 -27 -22 -38.5 q-9 -11.5 -17 -11.5 q-6 0 -11.5 8 q-5.5 8 -13.5 26 q-12 27 -23 38.5 q-11 11.5 -13 13.5 q-13 14 -13 28 q0 7 5 12 q9 9 12.5 27.5 q3.5 18.5 3.5 36.5 l4 219 q0 36 -2 55 q-67 -72 -141 -125 q-17 -13 -30 -13 q-13 0 -13 13 q0 8 8 21 q106 159 212 345 q19 33 28.5 55 q9.5 22 7.5 40 q-2 19 5 34 q7 15 25 15 q10 0 19 -4 q26 -10 43 -31 q17 -21 25 -42 q8 -21 8 -30 q-1 -14 -7.5 -26.5 q-6.5 -12.5 -14 -24 q-7.5 -11.5 -11.5 -16.5 q-40 -64 -86 -122 l8 -4 q11 -7 18.5 -15.5 q7.5 -8.5 7.5 -24.5 q0 -4 -2 -16 l0 -219 ZM916 579 q0 -9 -8 -33 l-11 -42 l0 -364 q-3 -81 -7.5 -110.5 q-4.5 -29.5 -21.5 -48.5 q-17 -19 -37.5 -32.5 q-20.5 -13.5 -38.5 -13.5 q-31 0 -46 40 q-13 35 -29.5 50.5 q-16.5 15.5 -33 24 q-16.5 8.5 -23.5 12.5 q-11 7 -11 11 q0 6 16 6 q6 0 39.5 -1 q33.5 -1 57.5 14.5 q24 15.5 26 47.5 l0 387 q0 7 -3 9 q-3 2 -10 1 q-7 -1 -27 -6 l-24 -7 q-13 -3 -35 -13 q-3 -1 -10 -3.5 q-7 -2.5 -11 -2.5 q-9 0 -23 13 l-25 23 q-9 7 -29 27 q-9 9 -9 22 q0 14 15 14 q46 1 70.5 5.5 q24.5 4.5 65.5 15.5 q34 10 43 20.5 q9 10.5 13 10.5 q6 0 30 -10 q4 -1 29.5 -10 q25.5 -9 46.5 -24.5 q21 -15.5 21 -32.5 ZM510 655 q34 -3 50 -21.5 q16 -18.5 16 -47.5 q0 -15 -5 -37 q-5 -20 -16.5 -32.5 q-11.5 -12.5 -23.5 -12.5 q-19 0 -29 31 q-15 44 -77 87 q-15 11 -15 18 q0 10 24 13 q19 3 46 3 q19 0 30 -1 ZM501 261 q-1 -15 -0.5 -27.5 q0.5 -12.5 0.5 -22.5 q1 -14 1 -45 q0 -87 -21 -129 q-13 -27 -22 -38.5 q-9 -11.5 -17 -11.5 q-6 0 -11.5 8 q-5.5 8 -13.5 26 q-12 27 -23 38.5 q-11 11.5 -13 13.5 q-13 14 -13 28 q0 7 5 12 q9 9 12.5 27.5 q3.5 18.5 3.5 36.5 l4 187 q0 112 -24 170 q-3 5 1 10 q4 5 14 5 q18 0 33.5 -7.5 q15.5 -7.5 35.5 -21.5 q8 -6 24 -16 q11 -7 18.5 -15.5 q7.5 -8.5 7.5 -24.5 q0 -4 -2 -16 l0 -187 Z" /><glyph glyph-name="uni4EF6" unicode="&#x4ef6;" d="M936 303 q4 -9 4 -19 q0 -26 -34 -26 q-5 0 -19 2 q-44 8 -92 8 q-53 0 -100 -6 l0 -88 q0 -134 -15.5 -219.5 q-15.5 -85.5 -40.5 -91.5 q-23 6 -37.5 77 q-14.5 71 -14.5 129 l0 174 q-37 -9 -107 -30 q-19 -6 -38 -14 q-17 -7 -23 -7 q-11 0 -26 15 l-26 24 q-32 28 -49 45 l-3 4 l0 -95 q0 -24 1 -38 l1 -53 q0 -88 -22 -133 q-13 -27 -22 -38.5 q-9 -11.5 -17 -11.5 q-6 0 -11.5 8 q-5.5 8 -13.5 26 q-12 27 -23 38.5 q-11 11.5 -13 13.5 q-13 14 -13 28 q0 7 5 12 q9 9 12.5 27.5 q3.5 18.5 3.5 36.5 l4 234 q0 21 -2 65 q-75 -88 -147 -140 q-17 -13 -30 -13 q-13 0 -13 13 q0 8 8 21 q106 159 212 345 q19 33 28.5 55 q9.5 22 7.5 40 q-2 19 5 34 q7 15 25 15 q10 0 19 -4 q26 -10 43 -30.5 q17 -20.5 25 -41 q8 -20.5 8 -30.5 q0 -13 -11 -34.5 q-11 -21.5 -22 -33.5 q-38 -44 -89 -111 l17 -10 q11 -7 18.5 -15.5 q7.5 -8.5 7.5 -24.5 q0 -4 -2 -16 l0 -43 l1 1 q22 29 34 49.5 q12 20.5 31 58.5 l13 25 q16 32 22.5 54 q6.5 22 7.5 46 q1 8 0.5 22.5 q-0.5 14.5 5.5 22.5 q6 8 22 8 q30 0 51 -18.5 q21 -18.5 28.5 -33 q7.5 -14.5 19.5 -39.5 q3 -4 3 -10 q0 -5 -3 -10 q24 4 36 7 l0 57 q0 56 -4.5 97.5 q-4.5 41.5 -19.5 72.5 q-3 5 1 10 q4 5 14 5 q9 0 21 -4 q17 -5 35.5 -14.5 q18.5 -9.5 36.5 -19.5 q11 -7 18.5 -15.5 q7.5 -8.5 7.5 -24.5 q0 -4 -2 -16 l0 -119 l43 11 q18 5 35 5 q30 0 40 -15 q12 -19 18.5 -32 q6.5 -13 17.5 -41 q4 -9 4 -18 q0 -14 -12 -18 q-12 -4 -38 -4 q-62 0 -108 -7 l0 -107 q35 7 101 23 q7 1 23 5 q20 5 37 5 q31 0 41 -15 q13 -19 20 -33 q7 -14 19 -44 ZM325 315 q103 0 262 27 l0 103 l-14 -4 q-19 -6 -38 -14 q-17 -7 -23 -7 q-11 0 -26 15 l-14 12 q-28 -36 -57.5 -60 q-29.5 -24 -70.5 -45 q-17 -9 -29 -12 l0 -17 q4 2 10 2 Z" /><glyph glyph-name="uni4EF7" unicode="&#x4ef7;" d="M975 411 q11 -6 11 -10 q0 -6 -17 -6 q-30 0 -48 -7.5 q-18 -7.5 -47 -28.5 q-17 -13 -41 -13 q-33 0 -57 22 q-19 18 -37 40 q5 -10 5 -22 q0 -3 -2 -15 l0 -219 q0 -22 1 -36 l1 -54 q0 -88 -22 -134 q-13 -27 -22 -38.5 q-9 -11.5 -17 -11.5 q-6 0 -11.5 8 q-5.5 8 -13.5 26 q-12 27 -23 38.5 q-11 11.5 -13 13.5 q-13 14 -13 28 q0 7 5 12 q9 9 12.5 27.5 q3.5 18.5 3.5 36.5 l4 219 q1 52 -3.5 95 q-4.5 43 -20.5 75 q-3 5 1 10 q4 5 14 5 q18 0 33.5 -7.5 q15.5 -7.5 35.5 -21.5 q8 -6 24 -16 q9 -6 11 -8 q-49 62 -116 176 q-57 -88 -122 -151 q26 -7 45 -24.5 q19 -17.5 29 -32.5 q10 -16 10 -28 q0 -9 -5.5 -21 q-5.5 -12 -6.5 -18 l-3 -22 q-11 -75 -25 -122.5 q-14 -47.5 -50 -95.5 q-36 -48 -105 -89 q-17 -10 -27 -10 q-10 0 -10 9 q0 8 8 19 q34 46 52.5 88.5 q18.5 42.5 27 87 q8.5 44.5 15.5 115.5 q4 30 4 49 q0 29 -9 43 l-3 6 q-44 -36 -105 -70 q-5 -3 -18 -8 l0 -135 q0 -24 1 -38 l1 -53 q0 -88 -22 -133 q-13 -27 -22 -38.5 q-9 -11.5 -17 -11.5 q-6 0 -11.5 8 q-5.5 8 -13.5 26 q-12 27 -23 38.5 q-11 11.5 -13 13.5 q-13 14 -13 28 q0 7 5 12 q9 9 12.5 27.5 q3.5 18.5 3.5 36.5 l4 219 q0 36 -2 55 q-67 -72 -141 -125 q-17 -13 -30 -13 q-13 0 -13 13 q0 8 8 21 q106 159 212 345 q19 33 28.5 55 q9.5 22 7.5 40 q-2 19 5 34 q7 15 25 15 q10 0 19 -4 q26 -10 43 -31 q17 -21 25 -42 q8 -21 8 -30 q-1 -14 -7.5 -26.5 q-6.5 -12.5 -14 -24 q-7.5 -11.5 -11.5 -16.5 q-40 -64 -86 -122 l8 -4 q11 -7 18.5 -15.5 q7.5 -8.5 7.5 -24.5 q0 -4 -2 -16 l0 -48 q52 61 97.5 130.5 q45.5 69.5 96.5 166.5 q17 32 25.5 52.5 q8.5 20.5 7.5 37.5 q-2 18 5 32.5 q7 14.5 24 14.5 q8 0 17 -3 q25 -9 41 -29 q16 -20 23.5 -40 q7.5 -20 7.5 -29 q0 -12 -12 -33 q85 -87 164 -143.5 q79 -56.5 163 -101.5 Z" /><glyph glyph-name="uni4EFB" unicode="&#x4efb;" d="M957 335 q4 -9 4 -19 q0 -26 -34 -26 q-5 0 -19 2 q-44 8 -92 8 q-68 0 -141 -10 l0 -166 l80 19 q20 5 37 5 q31 0 41 -15 q13 -19 20 -33 q7 -14 19 -44 q4 -9 4 -19 q0 -26 -34 -26 q-5 0 -19 2 q-44 8 -92 8 q-56 0 -92.5 -6.5 q-36.5 -6.5 -97.5 -24.5 q-19 -6 -38 -14 q-17 -7 -23 -7 q-11 0 -26 15 l-26 24 q-32 28 -49 45 q-9 9 -9 24 q0 15 16 15 q103 0 179 11 l1 167 q-26 -6 -91 -24 q-19 -6 -38 -14 q-17 -7 -23 -7 q-11 0 -26 15 q-25 22 -26 23 q-22 20 -32 30 l0 -108 q0 -24 1 -38 l1 -53 q0 -88 -22 -133 q-13 -27 -22 -38.5 q-9 -11.5 -17 -11.5 q-6 0 -11.5 8 q-5.5 8 -13.5 26 q-12 27 -23 38.5 q-11 11.5 -13 13.5 q-13 14 -13 28 q0 7 5 12 q9 9 12.5 27.5 q3.5 18.5 3.5 36.5 l4 219 q0 21 -2 63 q-71 -83 -141 -133 q-17 -13 -30 -13 q-13 0 -13 13 q0 8 8 21 q106 159 212 345 q19 33 28.5 55 q9.5 22 7.5 40 q-2 19 5 34 q7 15 25 15 q10 0 19 -4 q26 -10 43 -30.5 q17 -20.5 25 -41 q8 -20.5 8 -30.5 q0 -13 -11 -34.5 q-11 -21.5 -22 -33.5 q-42 -50 -94 -117 l16 -9 q11 -7 18.5 -15.5 q7.5 -8.5 7.5 -24.5 q0 -4 -2 -16 l0 -56 q101 2 237 22 l0 19 q0 77 -11 126 q-74 -9 -136 -8 q-34 1 -34 11 q0 8 22 17 q8 4 28 12 q139 60 197 92 l21 11 q17 9 33.5 18.5 q16.5 9.5 22.5 18.5 q4 5 7 12 q3 7 5.5 11 q2.5 4 7.5 4 q10 0 42 -22 q30 -21 44.5 -34.5 q14.5 -13.5 14.5 -28.5 q0 -17 -26 -36 q-56 -39 -157 -62 l3 -2 q11 -7 18.5 -15.5 q7.5 -8.5 7.5 -24.5 q0 -4 -2 -16 l0 -86 q91 17 165 35 q20 5 37 5 q31 0 41 -15 q13 -19 20 -33 q7 -14 19 -44 Z" /><glyph glyph-name="uni4EFD" unicode="&#x4efd;" d="M693 381 q11 -4 30.5 -17.5 q19.5 -13.5 35.5 -31 q16 -17.5 16 -35.5 q0 -9 -9 -43 l-8 -32 q-16 -131 -25 -176.5 q-9 -45.5 -30 -76.5 q-13 -20 -31.5 -32.5 q-18.5 -12.5 -37.5 -12.5 q-32 0 -53 39 q-17 31 -35.5 49.5 q-18.5 18.5 -42.5 32.5 q-12 7 -12 14 q0 9 18 9 q9 0 29 -2 q17 -3 34 -3 q21 0 34.5 7.5 q13.5 7.5 16.5 26.5 q11 56 14.5 84 q3.5 28 3.5 57 l0 7 q0 12 -2.5 16 q-2.5 4 -10.5 3 l-26 -2 l5 -16 q3 -17 -20 -53 q-39 -61 -68.5 -98 q-29.5 -37 -74 -68 q-44.5 -31 -106.5 -48 q-10 -3 -18 -3 q-14 0 -16 8 q-3 -13 -9 -23 q-13 -27 -22 -38.5 q-9 -11.5 -17 -11.5 q-6 0 -11.5 8 q-5.5 8 -13.5 26 q-12 27 -23 38.5 q-11 11.5 -13 13.5 q-13 14 -13 28 q0 7 5 12 q9 9 12.5 27.5 q3.5 18.5 3.5 36.5 l4 219 q0 36 -2 55 q-67 -72 -141 -125 q-17 -13 -30 -13 q-13 0 -13 13 q0 8 8 21 q106 159 212 345 q19 33 28.5 55 q9.5 22 7.5 40 q-2 19 5 34 q7 15 25 15 q10 0 19 -4 q26 -10 43 -31 q17 -21 25 -42 q8 -21 8 -30 q-1 -14 -7.5 -26.5 q-6.5 -12.5 -14 -24 q-7.5 -11.5 -11.5 -16.5 q-40 -64 -86 -122 l8 -4 q11 -7 18.5 -15.5 q7.5 -8.5 7.5 -24.5 q0 -4 -2 -16 l0 -77 q53 71 106 172 q14 27 19.5 48 q5.5 21 5.5 43 l-1 24 q0 11 5.5 17.5 q5.5 6.5 19.5 6.5 q37 0 60 -27.5 q23 -27.5 32 -50.5 q2 -6 2 -9 q0 -16 -27 -34 q-48 -98 -145 -186 q52 5 95.5 13 q43.5 8 107.5 21 q33 7 47 16.5 q14 9.5 19 9.5 q6 0 32 -10 ZM976 380 q7 -3 7 -10 q0 -4 -4.5 -7.5 q-4.5 -3.5 -12.5 -3.5 l-12 2 q-12 3 -24 3 q-19 0 -35 -7.5 q-16 -7.5 -39 -21.5 q-20 -13 -32 -13 q-24 0 -53 32 q-58 61 -104 125.5 q-46 64.5 -74 116.5 q-29 54 -46 73.5 q-17 19.5 -35 20.5 q-14 1 -25 7.5 q-11 6.5 -11 15.5 q0 16 33 29 q9 4 21 4 q16 0 31.5 -9.5 q15.5 -9.5 34.5 -28.5 q114 -114 215 -205 q101 -91 165 -123 ZM485 207 q3 7 7.5 16 q4.5 9 9.5 19 l-7 -2 q-13 -3 -28.5 -8 q-15.5 -5 -20.5 -5 q-10 0 -23 12 l-17 15 q-42 39 -45 42 l-3 4 l-31 -24 q-8 -6 -12 -8 l0 -83 q0 -24 1 -38 l1 -54 q0 -58 -9 -97 q1 1 7 8 q66 56 99.5 97 q33.5 41 70.5 106 Z" /><glyph glyph-name="uni4EFF" unicode="&#x4eff;" d="M936 479 q4 -9 4 -18 q0 -12 -9 -18.5 q-9 -6.5 -24 -6.5 q-6 0 -18 2 q-45 7 -87 7 q-58 0 -108 -9 q12 -12 14 -23 q2 -12 2 -17 q0 -13 -5 -21 q-5 -8 -12 -15.5 q-7 -7.5 -11 -12.5 q32 3 36.5 7 q4.5 4 7.5 4 l26 -3 q33 -5 53.5 -28 q20.5 -23 20.5 -50 q0 -7 -4 -21 q-2 -7 -4 -19 q-2 -12 -6 -29 q-39 -156 -81 -228 q-11 -18 -33.5 -31 q-22.5 -13 -46.5 -13 q-19 0 -35.5 10.5 q-16.5 10.5 -25.5 31.5 q-15 34 -37.5 62.5 q-22.5 28.5 -40.5 41.5 q-14 11 -14 16 q0 4 9 4 q7 0 11 -1 q9 -2 34 -10 q30 -12 45 -12 q31 0 47 40 l13 32 q18 45 26 72 q1 3 2 6.5 q1 3.5 1 7.5 q0 8 -10 7 q-34 -3 -62 -9 q-54 -70 -125.5 -123.5 q-71.5 -53.5 -155.5 -79.5 l-9 -3 q-5 -40 -19 -68 q-13 -27 -22 -38.5 q-9 -11.5 -17 -11.5 q-6 0 -11.5 8 q-5.5 8 -13.5 26 q-12 27 -23 38.5 q-11 11.5 -13 13.5 q-13 14 -13 28 q0 7 5 12 q9 9 12.5 27.5 q3.5 18.5 3.5 36.5 l4 219 q0 36 -2 55 q-67 -72 -141 -125 q-17 -13 -30 -13 q-13 0 -13 13 q0 8 8 21 q106 159 212 345 q19 33 28.5 55 q9.5 22 7.5 40 q-2 19 5 34 q7 15 25 15 q10 0 19 -4 q26 -10 43 -31 q17 -21 25 -42 q8 -21 8 -30 q0 -14 -6.5 -26.5 q-6.5 -12.5 -14.5 -23.5 q-8 -11 -12 -17 q-48 -75 -86 -121 q7 -5 8 -5 q11 -7 18.5 -15.5 q7.5 -8.5 7.5 -24.5 q0 -4 -2 -16 l0 -219 q0 -24 1 -39 q2 -45 1 -72 q70 71 129.5 149 q59.5 78 87.5 141 l17 38 l-60 -18 q-19 -4 -38 -13 q-3 -1 -10 -3.5 q-7 -2.5 -11 -2.5 q-10 0 -24 13 l-28 26 q-44 41 -43 40 q-4 3 -6.5 9.5 q-2.5 6.5 -2.5 13.5 q0 14 15 14 q72 0 158 15.5 q86 15.5 220 45.5 l93 20 q24 4 36 4 q31 0 39 -14 q14 -22 20.5 -34.5 q6.5 -12.5 16.5 -38.5 ZM562 568 q0 31 -7 56 q-7 25 -27 45 q-14 14 -14 22 q0 9 25 15 q25 7 46 7 q15 0 42 -5 q39 -7 61 -29 q22 -22 22 -52 q0 -24 -13 -47 q-13 -25 -49 -25 q-19 0 -30 7 q-3 2 -13 9.5 q-10 7.5 -18 7.5 q-8 0 -11 -14 q-1 -9 -7 -9 q-7 0 -7 12 Z" /><glyph glyph-name="uni4F11" unicode="&#x4f11;" d="M974 124 q9 -6 9 -10 q0 -7 -17 -5 q-8 1 -21 1 q-19 0 -32.5 -5 q-13.5 -5 -40.5 -20 q-13 -7 -31 -7 q-17 0 -33.5 7 q-16.5 7 -26.5 20 q-95 120 -151 218 l0 -169 q0 -22 1 -36 l1 -54 q0 -88 -22 -134 q-13 -27 -22 -38.5 q-9 -11.5 -17 -11.5 q-6 0 -11.5 8 q-5.5 8 -13.5 26 q-12 27 -23 38.5 q-11 11.5 -13 13.5 q-13 14 -13 28 q0 7 5 12 q9 9 12.5 27.5 q3.5 18.5 3.5 36.5 l2 211 q-109 -137 -210 -201 q-2 -1 -4 -2 q-2 -1 -4 -3 q-2 -74 -22 -114 q-13 -27 -22 -38.5 q-9 -11.5 -17 -11.5 q-6 0 -11.5 8 q-5.5 8 -13.5 26 q-12 27 -23 38.5 q-11 11.5 -13 13.5 q-13 14 -13 28 q0 7 5 12 q9 9 12.5 27.5 q3.5 18.5 3.5 36.5 l4 219 q0 20 -2 62 q-65 -72 -136 -123 q-17 -13 -30 -13 q-13 0 -13 13 q0 8 8 21 q105 158 196 317 q19 33 28.5 55 q9.5 22 7.5 40 q-2 19 5 34 q7 15 25 15 q10 0 19 -4 q26 -10 43 -31 q17 -21 25 -42 q8 -21 8 -30 q0 -28 -33 -67 q-38 -46 -60 -73 l-21 -26 l14 -8 q11 -7 18.5 -15.5 q7.5 -8.5 7.5 -24.5 q0 -4 -2 -16 l0 -219 q0 -14 2 -58 q104 154 156 250 l-20 -8 q-15 -6 -22 -6 q-10 0 -23 13 q-3 3 -24 21 q-34 29 -44 41 q-9 11 -9 22 q0 13 15 14 q76 6 190 31 l1 89 q0 56 -4.5 97.5 q-4.5 41.5 -19.5 72.5 q-3 5 1 10 q4 5 14 5 q18 0 33.5 -7.5 q15.5 -7.5 35.5 -21.5 q8 -6 24 -16 q11 -7 18.5 -15.5 q7.5 -8.5 7.5 -24.5 q0 -4 -2 -16 l0 -148 q58 13 96 20 q22 4 35 4 q28 0 36 -13 q12 -19 18.5 -31.5 q6.5 -12.5 16.5 -38.5 q4 -9 4 -17 q0 -12 -8 -18 q-8 -6 -23 -6 q-5 0 -17 2 q-20 4 -49 4 q-33 0 -71 -6 q170 -216 306 -306 Z" /><glyph glyph-name="uni4F17" unicode="&#x4f17;" d="M938 -11 q25 -12 25 -20 q0 -4 -9 -6 q-9 -2 -31 -2 q-19 0 -35.5 -8 q-16.5 -8 -41.5 -26 q-23 -15 -47 -15 q-26 0 -47 18 q-73 65 -108.5 113 q-35.5 48 -64.5 109 q-45 -86 -104.5 -139.5 q-59.5 -53.5 -137.5 -76.5 q-16 -5 -28 -5 q-8 0 -8 4 q0 4 7.5 12.5 q7.5 8.5 18.5 19.5 q41 39 74 82 q-8 -4 -13 -4 q-20 0 -31 33 q-19 54 -47 89 q-43 -71 -96 -119.5 q-53 -48.5 -125 -78.5 q-21 -8 -28 -8 q-9 0 -9 7 q0 11 25 38 q67 69 101 124.5 q34 55.5 68 129.5 q16 33 22 52 q6 19 4 39 q1 6 0 14 q-1 8 -1 13 q0 9 3 15 q-56 -35 -114 -55 q-18 -7 -30 -7 q-12 0 -12 8 q0 14 33 41 q83 68 132 129.5 q49 61.5 92 133.5 q22 35 31 55 q9 20 9 41 q1 8 1 23 q0 15 5.5 23 q5.5 8 20.5 8 q67 0 84.5 -56 q17.5 -56 17.5 -48 q0 -9 -7.5 -17 q-7.5 -8 -22.5 -18 q-2 -3 -3.5 -6.5 q-1.5 -3.5 -4.5 -7.5 q69 -58 172 -119.5 q103 -61.5 193 -104.5 q25 -12 25 -20 q0 -4 -9 -6 q-9 -2 -31 -2 q-19 0 -35.5 -8 q-16.5 -8 -41.5 -26 q-23 -15 -47 -15 q-26 0 -47 18 q-73 65 -119 114.5 q-46 49.5 -97 109.5 q-79 -112 -182 -180 q4 1 14 1 q30 -1 49.5 -20.5 q19.5 -19.5 28.5 -35 q9 -15.5 11 -18.5 q4 -5 4 -11 q0 -13 -24 -33 q-11 -25 -34 -71 q31 -12 62 -31 q36 -21 36 -57 q0 -18 -9 -42 l0 -1 q59 86 94 189 q10 26 14 42 q4 16 4 31 q0 6 -2 20 q0 5 -2 14 q-2 9 -2 16 q0 22 34 22 q29 0 49 -17 q20 -17 29.5 -30.5 q9.5 -13.5 11.5 -16.5 q5 -7 5 -12 q0 -13 -20 -33 q-10 -34 -23 -70 q57 -73 147 -140 q90 -67 174 -108 Z" /><glyph glyph-name="uni4F18" unicode="&#x4f18;" d="M926 128 q21 0 21 -38 q0 -76 -90 -93 q-73 -14 -143 -14 q-33 0 -63 3 q-67 7 -94.5 41 q-27.5 34 -27.5 110 q0 60 12 113 q18 80 15 126 l-8 -2 q-89 -269 -232 -362 q-14 -10 -23 -10 q-3 -9 -8 -20 q-13 -27 -22 -38.5 q-9 -11.5 -17 -11.5 q-6 0 -11.5 8 q-5.5 8 -13.5 26 q-12 27 -23 38.5 q-11 11.5 -13 13.5 q-13 14 -13 28 q0 7 5 12 q9 9 12.5 27.5 q3.5 18.5 3.5 36.5 l4 219 q0 30 -1 45 q-48 -45 -128 -103 q-17 -13 -30 -13 q-13 0 -13 13 q0 8 8 21 q111 167 194 312 q19 33 28.5 55 q9.5 22 7.5 40 q-2 19 5 34 q7 15 25 15 q10 0 19 -4 q26 -10 43 -30.5 q17 -20.5 25 -41 q8 -20.5 8 -30.5 q0 -12 -8.5 -28 q-8.5 -16 -24.5 -40 q-38 -60 -74 -105 q11 -6 18 -14 q7 -8 8 -22 q1 1 5 1 q70 3 148 14 q16 73 24 135 q7 47 7 64 q0 19 -6 32 q-7 14 -7 26 q0 30 37 30 q37 0 64 -24.5 q27 -24.5 37 -44.5 q7 -14 7 -26 q0 -11 -7 -24.5 q-7 -13.5 -8 -19.5 q-14 -71 -28 -127 q53 11 130 31 q13 4 33 4 q29 0 37 -13 q3 -5 10.5 -17 q7.5 -12 13.5 -24.5 q6 -12.5 12 -28.5 q4 -9 4 -18 q0 -23 -30 -23 q-4 0 -18 2 q-27 5 -54 5 q-39 0 -87 -8 l21 -18 q19 -14 19 -35 q0 -10 -6 -24 q-17 -80 -20.5 -102.5 q-3.5 -22.5 -3.5 -52.5 q0 -33 7 -48.5 q7 -15.5 29 -16.5 q11 -1 39 -1 q50 0 77 7 q24 7 38 23 q14 16 14 54 q0 17 4.5 26.5 q4.5 9.5 10.5 9.5 q6 0 11 -7.5 q5 -7.5 8 -23.5 q10 -54 47 -54 ZM652 642 q-12 11 -12 20 q0 8 8 13 q8 5 21 5 q28 0 43 -1 q15 -1 33 -6 q39 -11 54 -26 q15 -15 15 -40 q0 -9 -4 -37 q-6 -42 -27 -42 q-16 0 -40 25 q-48 49 -91 89 ZM305 59 q75 125 122 278 q-18 -8 -25 -8 q-10 0 -25 14 l-25 24 q-38 35 -46 42 l-1 1 l0 -204 q0 -24 1 -39 l1 -55 q0 -35 -2 -53 Z" /><glyph glyph-name="uni4F19" unicode="&#x4f19;" d="M962 42 q12 -6 20 -13 q8 -7 8 -12 q0 -9 -21 -9 q-5 0 -21 2 q-24 3 -42 -5 q-18 -8 -54 -29 q-27 -15 -52 -15 q-35 0 -56 25 q-66 79 -97.5 137.5 q-31.5 58.5 -58.5 131.5 q-80 -195 -244 -261 q-26 -12 -40 -10 q-3 -13 -9 -23 q-13 -27 -22 -38.5 q-9 -11.5 -17 -11.5 q-6 0 -11.5 8 q-5.5 8 -13.5 26 q-12 27 -23 38.5 q-11 11.5 -13 13.5 q-13 14 -13 28 q0 7 5 12 q9 9 12.5 27.5 q3.5 18.5 3.5 36.5 l4 219 q0 34 -1 51 q-63 -64 -142 -121 q-17 -13 -30 -13 q-13 0 -13 13 q0 8 8 21 q106 159 212 345 q19 33 28.5 55 q9.5 22 7.5 40 q-2 19 5 34 q7 15 25 15 q10 0 19 -4 q26 -10 43 -30.5 q17 -20.5 25 -41 q8 -20.5 8 -30.5 q0 -12 -8.5 -28 q-8.5 -16 -24.5 -40 q-44 -70 -84 -122 q2 -2 6 -4 q11 -7 18.5 -15.5 q7.5 -8.5 7.5 -24.5 q0 -4 -2 -16 l0 -219 q0 -24 1 -38 l1 -54 q0 -44 -5 -75 q10 10 10 10 q62 56 100.5 125 q38.5 69 61.5 153 q-17 -22 -39 -22 q-25 0 -54 30 q-31 32 -31 78 q0 33 16 70 q12 28 30 28 q8 0 14 -6.5 q6 -6.5 8 -17.5 q5 -29 23 -39 q18 -11 32 -11 q8 0 26 5 q6 34 17 110 l5 37 q3 29 3 49 q0 39 -13 64 q-3 8 -9.5 22 q-6.5 14 -6.5 22 q0 18 28 27 q12 4 27 4 q44 0 73 -24 q29 -24 32 -26 q11 -7 11 -20 q0 -14 -14 -37 q-3 -110 -20 -203 q21 16 50 41 q23 19 38.5 35.5 q15.5 16.5 18.5 31.5 q4 13 11 22.5 q7 9.5 18 9.5 q12 0 24 -11 q19 -16 27 -39 q8 -23 8 -45 q0 -12 -3 -21 q-5 -10 -20 -23 q-15 -13 -27 -21 q-32 -20 -64.5 -31 q-32.5 -11 -95.5 -22 l-2 -7 q61 -98 154.5 -188 q93.5 -90 182.5 -136 ZM491 395 q-8 -5 -8 -17 q0 -8 4 -24 q4 -16 4 -22 q9 34 15 73 l-15 -10 Z" /><glyph glyph-name="uni4F1A" unicode="&#x4f1a;" d="M972 354 q11 -4 11 -9 q0 -5 -15 -7 q-29 -4 -45 -12.5 q-16 -8.5 -41 -32.5 q-19 -17 -47 -17 q-27 0 -47 15 q-77 60 -171 155 q-94 95 -155 169 q-60 -89 -145 -172 q59 5 116 15 l62 9 q5 1 13.5 2 q8.5 1 20.5 1 q25 0 33 -12 q14 -21 20 -31.5 q6 -10.5 15 -34.5 q3 -9 3 -16 q0 -22 -31 -22 q-9 0 -14 1 q-28 4 -54 4 q-22 0 -39.5 -3 q-17.5 -3 -43.5 -9 q-8 -1 -24 -5 q-20 -4 -37 -11 q-17 -7 -22 -7 q-10 0 -23 12 l-55 51 q-98 -85 -191 -128 q-19 -8 -26 -8 q-9 0 -9 8 q0 11 15 27 q109 118 171 197 q62 79 117 177 q3 5 15.5 26 q12.5 21 19.5 38.5 q7 17.5 7 30.5 q0 20 7.5 36 q7.5 16 25.5 16 q8 0 21 -5 q27 -11 43.5 -34 q16.5 -23 23.5 -46 q7 -23 6 -33 l-1 -7 q295 -267 470 -328 ZM698 323 q13 -18 19.5 -31 q6.5 -13 17.5 -42 q4 -9 4 -19 q0 -24 -32 -24 q-5 0 -19 2 q-41 8 -87 8 q-43 0 -88 -5 l0 -3 q-1 -10 -10 -21.5 q-9 -11.5 -17.5 -20.5 q-8.5 -9 -11.5 -12 q-56 -58 -79 -76 q-13 -10 0 -9 q47 5 146 18 l-21 35 q-7 13 -7 23 q0 8 5.5 13.5 q5.5 5.5 15.5 5.5 q9 0 18 -4 q53 -19 108 -59 q31 -23 44.5 -41.5 q13.5 -18.5 13.5 -37.5 q0 -13 -5 -26.5 q-5 -13.5 -16 -36.5 q-18 -40 -39 -40 q-21 0 -44 44 q-5 10 -35 62 l-96 -35 q-14 -5 -77 -27.5 q-63 -22.5 -79 -32.5 q-11 -7 -24 -7 q-15 0 -23 6 q-29 18 -42 31.5 q-13 13.5 -26 45.5 q-10 21 -10 31 q0 6 5.5 8 q5.5 2 20.5 4 q10 1 16.5 6.5 q6.5 5.5 17.5 19.5 q16 20 25 30 q11 14 23.5 29.5 q12.5 15.5 25.5 32.5 l-24 -7 q-15 -5 -23.5 -8 q-8.5 -3 -13.5 -5 q-16 -7 -21 -7 q-11 0 -25 14 q-17 17 -35 32 q-24 22 -36 34 q-9 9 -9 23 q0 14 15 14 q92 0 206.5 20.5 q114.5 20.5 252.5 54.5 q15 4 34 4 q31 0 41 -14 Z" /><glyph glyph-name="uni4F20" unicode="&#x4f20;" d="M936 411 q3 -9 3 -16 q0 -13 -11.5 -18 q-11.5 -5 -33.5 -3 q-28 2 -46 2 q-103 0 -245 -29 l-13 -56 q58 12 81 18 q40 10 50 20 q2 3 7.5 4 q5.5 1 17.5 1 q26 0 46.5 -18 q20.5 -18 33 -42.5 q12.5 -24.5 15.5 -45.5 q2 -12 -6 -21.5 q-8 -9.5 -25 -22.5 q1 1 -16 -13 q-54 -48 -127 -95 q24 -12 36 -19 q29 -16 39.5 -29.5 q10.5 -13.5 10.5 -37.5 q0 -20 -4 -41 q-8 -54 -36 -54 q-20 0 -50 34 q-33 38 -76 78 q-43 40 -84 70 q-16 12 -16 26 q0 9 7.5 15.5 q7.5 6.5 19.5 6.5 q6 0 9 -1 q42 -9 84 -24 q6 7 46 63 l25 37 q7 11 7 12 q0 2 -3 2 l-8 -2 q-75 -21 -96 -28 q-10 -3 -24 -8.5 q-14 -5.5 -20 -5.5 q-6 0 -11.5 4 q-5.5 4 -12.5 10 l-17 16 q-24 21 -41 40 q-7 9 -7 16 q0 11 14 14 q12 4 22 19 q10 15 15 34 l-35 -10 q-11 -3 -20.5 -7 q-9.5 -4 -12.5 -5 q-13 -6 -21 -6 q-11 0 -25 13 q-36 32 -49 44 l0 -167 q0 -24 1 -38 l1 -53 q0 -88 -22 -133 q-13 -27 -22 -38.5 q-9 -11.5 -17 -11.5 q-6 0 -11.5 8 q-5.5 8 -13.5 26 q-12 27 -23 38.5 q-11 11.5 -13 13.5 q-13 14 -13 28 q0 7 5 12 q9 9 12.5 27.5 q3.5 18.5 3.5 36.5 l4 219 q0 39 -2 59 q-65 -68 -134 -117 q-17 -13 -30 -13 q-13 0 -13 13 q0 8 8 21 q106 159 212 345 q19 33 28.5 55 q9.5 22 7.5 40 q-2 19 5 34 q7 15 25 15 q10 0 19 -4 q26 -10 43 -31 q17 -21 25 -42 q8 -21 8 -30 q0 -14 -6.5 -26.5 q-6.5 -12.5 -14.5 -23.5 q-8 -11 -12 -17 q-43 -68 -95 -132 l10 -6 q11 -7 18.5 -15.5 q7.5 -8.5 7.5 -24.5 q0 -4 -2 -14 q68 1 183 20 q7 35 11 58 l-9 -3 q-16 -5 -30 -12 q-4 -1 -10 -3.5 q-6 -2.5 -10 -2.5 q-9 0 -21 12 q-8 8 -26 24 q-24 22 -36 34 q-8 8 -8 19 q0 13 13 13 q70 4 156 21 q9 53 11 69 q1 8 3.5 25 q2.5 17 2.5 30 q0 19 -6 32 q-6 14 -6 23 q0 12 8 20 q8 8 27 8 q33 0 57 -21 q24 -21 33 -38 q8 -13 8 -26 q0 -9 -6 -20.5 q-6 -11.5 -7 -17.5 l-10 -56 l62 17 q18 4 27 4 q24 0 31 -12 q8 -13 14.5 -24.5 q6.5 -11.5 14.5 -32.5 q4 -8 4 -16 q0 -20 -40 -17 l-17 1 q-40 0 -116 -17 q-10 -48 -16 -72 q65 12 160 31 q13 3 50 10 q20 4 32 4 q26 0 35 -13 q13 -20 19 -31 q6 -11 15 -35 Z" /><glyph glyph-name="uni4F2A" unicode="&#x4f2a;" d="M920 419 q0 -9 -8 -33 l-11 -42 q-8 -48 -14 -114 q-4 -59 -13 -118 q-10 -63 -25.5 -99 q-15.5 -36 -36.5 -60 q-40 -44 -72 -44 q-29 0 -50 38 q-18 34 -45.5 66 q-27.5 32 -52.5 49 q-13 9 -13 17 q0 5 5 8.5 q5 3.5 14 2.5 q14 -1 39 -7 q36 -8 51 -8 q38 0 44 36 q15 78 27 151 l13 82 q1 5 1 12 q0 15 -14 14 q-40 -6 -123 -25 q-3 -9 -11 -27 q22 -3 53 -15 q36 -15 51 -31 q15 -16 15 -38 q0 -16 -11 -53 q-12 -42 -34 -42 q-19 0 -42 33 l-12 17 q-34 48 -48 65 q-98 -199 -234 -270 q-21 -11 -33 -11 q-10 0 -10 8 q0 9 13 25 q105 130 171 305 q-11 -3 -18.5 -5.5 q-7.5 -2.5 -12.5 -3.5 q-13 -6 -21 -6 q-11 0 -27 16 l-26 24 q-32 28 -49 45 q-9 9 -9 24 q0 15 16 15 q85 0 188 19 q14 53 38 159 q2 7 8.5 36 q6.5 29 6.5 51 q0 14 -3 24 q-5 13 -5 28 q0 34 37 34 q69 0 108 -90 q7 -15 7 -28 q0 -9 -3.5 -16.5 q-3.5 -7.5 -10.5 -18 q-7 -10.5 -9 -16.5 l-19 -61 l-21 -73 l46 11 q32 7 46 16.5 q14 9.5 19 9.5 q7 0 33 -10 q97 -39 97 -76 ZM324 185 q0 -24 1 -38 l1 -53 q0 -88 -22 -133 q-13 -27 -22 -38.5 q-9 -11.5 -17 -11.5 q-6 0 -11.5 8 q-5.5 8 -13.5 26 q-12 27 -23 38.5 q-11 11.5 -13 13.5 q-13 14 -13 28 q0 7 5 12 q9 9 12.5 27.5 q3.5 18.5 3.5 36.5 l4 219 q0 35 -1 52 q-66 -67 -142 -122 q-17 -13 -30 -13 q-13 0 -13 13 q0 8 8 21 q106 159 212 345 q19 33 28.5 55 q9.5 22 7.5 40 q-2 19 5 34 q7 15 25 15 q10 0 19 -4 q26 -10 43 -30.5 q17 -20.5 25 -41 q8 -20.5 8 -30.5 q0 -12 -8.5 -28 q-8.5 -16 -24.5 -40 q-42 -65 -85 -122 l7 -4 q11 -7 18.5 -15.5 q7.5 -8.5 7.5 -24.5 q0 -4 -2 -16 l0 -219 ZM543 503 q-20 -29 -48 -29 q-26 0 -51 28 q-31 35 -31 79 q0 21 5 32 q12 31 31 31 q17 0 29 -20 q14 -21 33 -21 q8 0 16 4 q8 4 14 4 q7 0 7 -7 q0 -8 -8 -18 q-3 -4 -3 -10 q0 -5 2 -13 q2 -8 3 -12 q6 -18 6 -29 q0 -11 -5 -19 Z" /><glyph glyph-name="uni4F2F" unicode="&#x4f2f;" d="M422 652 q0 -13 -11 -34.5 q-11 -21.5 -22 -33.5 q-42 -50 -94 -117 l16 -9 q11 -7 18.5 -15.5 q7.5 -8.5 7.5 -24.5 q0 -4 -2 -16 l0 -219 q0 -24 1 -38 l1 -53 q0 -88 -22 -133 q-13 -27 -22 -38.5 q-9 -11.5 -17 -11.5 q-6 0 -11.5 8 q-5.5 8 -13.5 26 q-12 27 -23 38.5 q-11 11.5 -13 13.5 q-13 14 -13 28 q0 7 5 12 q9 9 12.5 27.5 q3.5 18.5 3.5 36.5 l4 219 q0 21 -2 63 q-71 -83 -141 -133 q-17 -13 -30 -13 q-13 0 -13 13 q0 8 8 21 q106 159 212 345 q19 33 28.5 55 q9.5 22 7.5 40 q-2 19 5 34 q7 15 25 15 q10 0 19 -4 q26 -10 43 -30.5 q17 -20.5 25 -41 q8 -20.5 8 -30.5 ZM862 204 q0 -24 1 -38 l1 -53 q0 -88 -22 -133 q-13 -27 -22 -38.5 q-9 -11.5 -17 -11.5 q-6 0 -11.5 8 q-5.5 8 -13.5 26 q-12 26 -22 37 q-10 11 -12 13 q-14 3 -43 5 l-28 1 q-43 0 -120 -10 l-26 -3 l-6 -13 q-13 -27 -22 -38.5 q-9 -11.5 -17 -11.5 q-6 0 -11.5 8 q-5.5 8 -13.5 26 q-12 27 -23 38.5 q-11 11.5 -13 13.5 q-13 14 -13 28 q0 7 5 12 q9 9 12.5 27.5 q3.5 18.5 3.5 36.5 l3 201 q0 112 -24 170 q-3 5 1 10 q4 5 14 5 q9 0 21 -4 q16 -5 48 -26 l23 3 q25 47 46 91 q20 43 20 80 l-1 17 q0 8 -1 15 q-1 7 -1 14 q0 24 29 24 q55 0 97 -75 q3 -6 3 -12 q0 -16 -24 -35 q-21 -46 -55 -98 q32 6 57 8 q63 7 73.5 14.5 q10.5 7.5 12.5 7.5 q5 0 26 -8 q31 -11 46.5 -23 q15.5 -12 20.5 -26.5 q5 -14.5 7 -37.5 q1 -13 -5 -31 q-5 -20 -5 -28 l1 -186 ZM543 102 q93 8 187 26 q12 2 20 2 l2 269 l1 11 q0 8 -3 11.5 q-3 3.5 -11 3.5 q-40 0 -68 -4.5 q-28 -4.5 -69 -16.5 q-15 -4 -30 -10.5 q-15 -6.5 -20 -6.5 q-7 0 -12 4 l1 -81 q65 11 88 20 q21 7 39 7 q24 0 32 -11 q12 -16 19 -29 q7 -13 19 -40 q5 -12 5 -19 q0 -23 -33 -23 q-9 0 -14 1 q-38 5 -65 5 q-13 0 -19 -1 q-25 -3 -71 -11 q3 -79 2 -107 Z" /><glyph glyph-name="uni4F30" unicode="&#x4f30;" d="M917 443 q4 -9 4 -19 q0 -24 -32 -24 q-4 0 -18 2 q-36 6 -81 6 q-59 0 -122 -9 l0 -83 q22 6 33 12.5 q11 6.5 14 6.5 q3 0 24 -8 l19 -8 q10 -4 33.5 -22.5 q23.5 -18.5 42 -39.5 q18.5 -21 18.5 -36 q0 -9 -8 -14 q-19 -13 -35.5 -46 q-16.5 -33 -26.5 -71 q13 -23 23 -55 q2 -5 2 -13 q0 -23 -30 -23 q-6 0 -18 2 q-60 11 -79 10 l-46 -3 q-53 -2 -77 -5 q-1 -22 -5 -31.5 q-4 -9.5 -12 -9.5 q-10 0 -31 16 q-22 16 -36 22 q-14 6 -17 7 q-15 7 -22 15.5 q-7 8.5 -3 16.5 q3 6 3 16 q0 16 -9 45 q-3 9 -11.5 42.5 q-8.5 33.5 -20.5 60.5 q-12 27 -28 44 q-5 3 -5 9 q0 6 10 11.5 q10 5.5 32 5.5 q12 0 34 -4 l25 -3 q35 -3 44 -37 l30 -119 l6 -16 l53 6 l80 9 q21 70 26 96 q1 4 1 9 q0 6 -5 6 q-16 0 -31.5 -3 q-15.5 -3 -42.5 -10 q-14 -4 -30 -10.5 q-16 -6.5 -21 -6.5 q-8 0 -21 13 q-16 16 -39 48 l-13 17 q-7 9 -7 20 q0 12 13 12 l53 2 l1 76 l-59 -15 q-15 -4 -36 -13 q-18 -6 -22 -6 q-10 0 -25 14 q-18 16 -27 23 q-34 29 -45 42 q-9 11 -9 23 q0 14 16 14 q95 0 208 17 l1 112 q0 56 -4.5 97.5 q-4.5 41.5 -19.5 72.5 q-3 5 1 10 q4 5 14 5 q18 0 33.5 -7.5 q15.5 -7.5 35.5 -21.5 q8 -6 24 -16 q11 -7 18.5 -15.5 q7.5 -8.5 7.5 -24.5 q0 -4 -2 -16 l0 -178 q52 10 138 31 q15 4 34 4 q30 0 40 -14 q12 -18 18.5 -31 q6.5 -13 18.5 -42 ZM331 173 q0 -24 1 -38 l1 -53 q0 -88 -22 -133 q-13 -27 -22 -38.5 q-9 -11.5 -17 -11.5 q-6 0 -11.5 8 q-5.5 8 -13.5 26 q-12 27 -23 38.5 q-11 11.5 -13 13.5 q-13 14 -13 28 q0 7 5 12 q9 9 12.5 27.5 q3.5 18.5 3.5 36.5 l4 262 q0 34 -1 52 q-80 -97 -158 -153 q-17 -13 -30 -13 q-13 0 -13 13 q0 8 8 21 q106 159 212 345 q19 33 28.5 55 q9.5 22 7.5 40 q-2 19 5 34 q7 15 25 15 q10 0 19 -4 q26 -10 43 -31 q17 -21 25 -42 q8 -21 8 -30 q-1 -30 -33 -67 q-28 -33 -53 -65 l-19 -24 l10 -6 q11 -7 18.5 -15.5 q7.5 -8.5 7.5 -24.5 q0 -4 -2 -16 l0 -262 Z" /><glyph glyph-name="uni4F34" unicode="&#x4f34;" d="M930 251 q4 -9 4 -19 q0 -24 -31 -24 q-5 0 -19 2 q-33 6 -86 6 q-60 0 -125 -6 l0 -66 q0 -22 1 -36 l1 -54 q0 -88 -22 -134 q-13 -27 -22 -38.5 q-9 -11.5 -17 -11.5 q-6 0 -11.5 8 q-5.5 8 -13.5 26 q-12 27 -23 38.5 q-11 11.5 -13 13.5 q-13 14 -13 28 q0 7 5 12 q9 9 12.5 27.5 q3.5 18.5 3.5 36.5 l1 136 q-55 -9 -90 -20 q-13 -4 -21.5 -7.5 q-8.5 -3.5 -14.5 -5.5 q-16 -7 -21 -7 q-11 0 -26 14 l-66 61 l0 -46 q0 -24 1 -38 l1 -53 q0 -88 -22 -133 q-13 -27 -22 -38.5 q-9 -11.5 -17 -11.5 q-6 0 -11.5 8 q-5.5 8 -13.5 26 q-12 27 -23 38.5 q-11 11.5 -13 13.5 q-13 14 -13 28 q0 7 5 12 q9 9 12.5 27.5 q3.5 18.5 3.5 36.5 l4 241 q0 21 -1 31 q-63 -66 -142 -123 q-17 -13 -30 -13 q-13 0 -13 13 q0 8 8 21 q106 159 212 345 q19 33 28.5 55 q9.5 22 7.5 40 q-2 19 5 34 q7 15 25 15 q10 0 19 -4 q26 -10 43 -30.5 q17 -20.5 25 -41 q8 -20.5 8 -30.5 q0 -12 -8.5 -28 q-8.5 -16 -24.5 -40 q-39 -61 -74 -107 q22 -13 22 -38 q0 -3 -2 -15 l0 -153 l1 0 q114 5 239 21 l0 67 l-46 -13 l-30 -10 q-19 -7 -25 -7 q-11 0 -21 13 q-7 9 -30 38 q-7 11 -15 20 q-8 10 -8 21 q0 13 15 13 q44 0 161 23 l1 155 q0 56 -4.5 97.5 q-4.5 41.5 -19.5 72.5 q-3 5 1 10 q4 5 14 5 q18 0 33.5 -7.5 q15.5 -7.5 35.5 -21.5 q8 -6 24 -16 q11 -7 18.5 -15.5 q7.5 -8.5 7.5 -24.5 q0 -4 -2 -16 l0 -152 q18 24 32 47 q29 47 30 71 q1 5 2 16 q1 11 5 16.5 q4 5.5 14 5.5 q23 0 42.5 -16 q19.5 -16 32 -35.5 q12.5 -19.5 15.5 -27.5 q1 -2 1 -8 q0 -10 -6 -21 q-6 -11 -15 -19 q-48 -42 -98 -78 l5 1 q17 5 30 5 q22 0 31 -12 q10 -14 17.5 -31.5 q7.5 -17.5 15.5 -39.5 q3 -7 3 -14 q0 -12 -10.5 -15.5 q-10.5 -3.5 -31.5 -3.5 q-64 0 -115 -6 l0 -73 q78 12 145 26 q22 4 33 4 q31 0 41 -14 q13 -18 20 -31.5 q7 -13.5 18 -41.5 ZM468 470 q-25 12 -40.5 38.5 q-15.5 26.5 -15.5 54.5 q0 21 9 36 q25 42 43 42 q10 0 16 -14 q7 -15 10 -28 q4 -16 10 -19 q9 -6 16 -6 q7 0 17 6 q8 4 12 4 q3 0 3 -2 q0 -4 -5.5 -12 q-5.5 -8 -7.5 -11 q-3 -4 -3 -9 q0 -9 7 -23 q7 -21 7 -27 q0 -3 -2 -9 q-10 -31 -39 -31 q-16 0 -37 10 Z" /><glyph glyph-name="uni4F38" unicode="&#x4f38;" d="M921 514 q1 -7 -1 -13 q-2 -6 -3 -8 q-4 -9 -10 -31 l-46 -170 q-21 -80 -50 -119 q-31 -42 -45 -42 q-7 0 -11.5 9 q-4.5 9 -9.5 29 l-3 12 q-40 9 -59 9 l-5 0 l0 -36 q0 -24 1 -38 l1 -53 q0 -88 -22 -133 q-13 -27 -22 -38.5 q-9 -11.5 -17 -11.5 q-6 0 -11.5 8 q-5.5 8 -13.5 26 q-12 27 -23 38.5 q-11 11.5 -13 13.5 q-13 14 -13 28 q0 7 5 12 q9 9 12.5 27.5 q3.5 18.5 3.5 36.5 l1 115 q-34 -3 -62 -9 q-10 -31 -21 -31 q-9 0 -29 26 q-17 21 -29 29.5 q-12 8.5 -15 10.5 q-12 10 -16 19 q-4 9 -1 15 q5 13 5 30 q0 16 -4 34 q-5 22 -16 80 q-12 64 -20 96.5 q-8 32.5 -22 51.5 q-3 4 -2 8 l-41 -52 l9 -6 q11 -7 18.5 -15.5 q7.5 -8.5 7.5 -24.5 q0 -4 -2 -16 l0 -236 q0 -24 1 -38 l1 -53 q0 -88 -22 -133 q-13 -27 -22 -38.5 q-9 -11.5 -17 -11.5 q-6 0 -11.5 8 q-5.5 8 -13.5 26 q-12 27 -23 38.5 q-11 11.5 -13 13.5 q-13 14 -13 28 q0 7 5 12 q9 9 12.5 27.5 q3.5 18.5 3.5 36.5 l4 236 q0 34 -1 51 q-83 -97 -154 -148 q-17 -13 -30 -13 q-13 0 -13 13 q0 8 8 21 q106 159 212 345 q19 33 28.5 55 q9.5 22 7.5 40 q-2 19 5 34 q7 15 25 15 q10 0 19 -4 q26 -10 43 -31 q17 -21 25 -42 q8 -21 8 -30 q-1 -30 -33 -67 l-30 -36 q7 5 22 5 q23 0 56 -13 q70 6 152 17 l1 72 q0 112 -24 170 q-3 5 1 10 q4 5 14 5 q18 0 33.5 -7.5 q15.5 -7.5 35.5 -21.5 q8 -6 24 -16 q11 -7 18.5 -15.5 q7.5 -8.5 7.5 -24.5 q0 -4 -2 -16 l0 -142 l87 12 q34 5 40.5 9.5 q6.5 4.5 10.5 4.5 q7 0 31 -4 q31 -4 46 -13 q15 -9 20.5 -24 q5.5 -15 7.5 -44 ZM767 495 q-10 0 -50 -5 l-39 -5 l0 -43 l7 2 q20 6 32 6 q23 0 33 -13 q10 -13 17 -24 l13 56 q2 10 2 12 q0 14 -15 14 ZM569 468 q-37 -5 -47 -8 q-12 -3 -20.5 -6 q-8.5 -3 -15.5 -5 q2 -7 11 -44 l39 6 l32 6 l1 51 ZM716 292 q12 2 20 2 q6 15 10 34 l1 6 l-3 0 q-44 6 -66 6 l0 -53 l38 5 ZM515 273 q40 3 52 4 l1 52 q-33 -5 -57 -13 q2 -13 4 -43 Z" /><glyph glyph-name="uni4F3C" unicode="&#x4f3c;" d="M315 185 q0 -24 1 -38 l1 -53 q0 -88 -22 -133 q-13 -27 -22 -38.5 q-9 -11.5 -17 -11.5 q-6 0 -11.5 8 q-5.5 8 -13.5 26 q-12 27 -23 38.5 q-11 11.5 -13 13.5 q-13 14 -13 28 q0 7 5 12 q9 9 12.5 27.5 q3.5 18.5 3.5 36.5 l4 219 q0 34 -1 51 q-63 -64 -142 -121 q-17 -13 -30 -13 q-13 0 -13 13 q0 8 8 21 q106 159 212 345 q19 33 28.5 55 q9.5 22 7.5 40 q-2 19 5 34 q7 15 25 15 q10 0 19 -4 q26 -10 43 -30.5 q17 -20.5 25 -41 q8 -20.5 8 -30.5 q0 -12 -8.5 -28 q-8.5 -16 -24.5 -40 q-44 -70 -84 -122 q2 -2 6 -4 q11 -7 18.5 -15.5 q7.5 -8.5 7.5 -24.5 q0 -4 -2 -16 l0 -219 ZM893 176 q30 -21 42.5 -39 q12.5 -18 12.5 -37 q0 -16 -7 -32 q-7 -16 -23 -44 q-22 -38 -42 -38 q-24 0 -44 51 q-23 57 -101 159 q-91 -149 -226 -208 q-29 -14 -47 -14 q-15 0 -15 11 q0 18 30 43 q67 61 112 131.5 q45 70.5 73 142 q28 71.5 55 163.5 q10 33 10 59 q0 24 -12 55 q-1 6 -6.5 20.5 q-5.5 14.5 -5.5 22.5 q0 18 29 26 q12 3 22 3 q30 0 54.5 -15.5 q24.5 -15.5 37 -28 q12.5 -12.5 15.5 -14.5 q9 -6 9 -18 q0 -14 -17 -39 q-20 -153 -86 -282 q82 -44 130 -78 ZM617 470 q-15 -20 -35 -20 q-25 0 -47 33 q-18 26 -18 57 q0 38 27 83 q15 24 34 24 q8 0 11.5 -5.5 q3.5 -5.5 1.5 -15.5 q-1 -3 -1 -9 q0 -7 6 -7 q9 0 44 16 q11 6 11 -2 q0 -6 -5.5 -15.5 q-5.5 -9.5 -11.5 -16.5 q-5 -6 -5 -26 l1 -42 q0 -39 -13 -54 ZM637 334 q-26 -52 -65.5 -110 q-39.5 -58 -75.5 -98.5 q-36 -40.5 -53 -42.5 q-27 -3 -50 8.5 q-23 11.5 -48 33.5 q-12 11 -12 22 q0 9 9 16 l25 17 q10 7 13 12.5 q3 5.5 3 16.5 l4 160 q0 112 -24 170 q-3 5 1 10 q4 5 14 5 q18 0 33.5 -7.5 q15.5 -7.5 35.5 -21.5 q8 -6 24 -16 q11 -7 18.5 -15.5 q7.5 -8.5 7.5 -24.5 q0 -4 -2 -16 l0 -162 q0 -19 7 -19 q4 0 9 4 l0 -1 q61 45 97 80 q11 11 22 11 q13 0 13 -13 q0 -7 -6 -19 Z" /><glyph glyph-name="uni4F46" unicode="&#x4f46;" d="M943 87 q3 -10 3 -18 q0 -13 -9 -20 q-9 -7 -24 -7 q-9 0 -21 3 q-40 9 -91 11 q-52 2 -74 2 q-153 0 -255 -26 q-21 -5 -39 -13 q-18 -6 -22 -6 q-11 0 -27 16 l-67 66 q0 -89 -22 -134 q-13 -27 -22 -38.5 q-9 -11.5 -17 -11.5 q-6 0 -11.5 8 q-5.5 8 -13.5 26 q-12 27 -23 38.5 q-11 11.5 -13 13.5 q-13 14 -13 28 q0 7 5 12 q9 9 12.5 27.5 q3.5 18.5 3.5 36.5 l4 219 q0 21 -2 63 q-71 -83 -141 -133 q-17 -13 -30 -13 q-13 0 -13 13 q0 8 8 21 q106 159 212 345 q19 33 28.5 55 q9.5 22 7.5 40 q-2 19 5 34 q7 15 25 15 q10 0 19 -4 q26 -10 43.5 -31 q17.5 -21 25.5 -42.5 q8 -21.5 7 -29.5 q-1 -11 -9.5 -28 q-8.5 -17 -17.5 -32 q8 5 25 5 q21 1 46 -6 q25 -7 35 -9 l9 -3 q37 5 169 31 q42 8 56.5 17.5 q14.5 9.5 18.5 9.5 q7 0 40 -17 q5 -2 33 -14.5 q28 -12.5 50 -29 q22 -16.5 22 -30.5 q0 -7 -5 -12 q-20 -21 -31 -67.5 q-11 -46.5 -24 -129.5 q-13 -89 -23 -110 q-14 -29 -23 -41.5 q-9 -12.5 -16 -12.5 q-5 0 -10 5.5 q-5 5.5 -11.5 15 q-6.5 9.5 -10.5 15.5 q-32 4 -63 4 q-38 0 -104 -8 q-6 -51 -22 -51 q-11 0 -31 23 q-19 20 -33.5 28 q-14.5 8 -18.5 11 q-13 9 -18 18 q-5 9 -2 17 q4 8 4 24 q0 6 -3 42 q-9 115 -21 170 q-12 55 -45 88 l-3 6 l-90 -113 l16 -9 q11 -7 18.5 -15.5 q7.5 -8.5 7.5 -24.5 q0 -4 -2 -16 l0 -219 l1 -46 l4 0 q48 -2 78 -2 q105 0 220 10.5 q115 10.5 210 29.5 q22 4 34 4 q34 0 44 -16 q14 -23 20.5 -36.5 q6.5 -13.5 16.5 -41.5 ZM703 533 q-96 -16 -177 -37 l6 -47 q18 1 33.5 5 q15.5 4 30.5 8 l21 6 q11 3 23 3 q28 0 35 -13 q2 -3 10.5 -16.5 q8.5 -13.5 18.5 -40.5 q10 75 10 116 q0 18 -11 16 ZM550 302 q101 15 134 23 q2 0 3 1 q3 5 7 17 l6 31 q-7 -5 -25 -5 l-56 1 q-28 0 -55 -9 l-21 -7 l5 -41 l2 -11 Z" /><glyph glyph-name="uni4F4D" unicode="&#x4f4d;" d="M956 90 q4 -9 4 -19 q0 -13 -9 -19.5 q-9 -6.5 -24 -6.5 q-9 0 -21 3 q-42 9 -92 11 q-15 1 -43 1 q-151 0 -298 -40 q-12 -3 -22.5 -7 q-10.5 -4 -14.5 -5 q-17 -7 -24 -7 q-11 0 -26 15 l-59 57 q-4 -69 -22 -106 q-13 -27 -22 -38.5 q-9 -11.5 -17 -11.5 q-6 0 -11.5 8 q-5.5 8 -13.5 26 q-12 27 -23 38.5 q-11 11.5 -13 13.5 q-13 14 -13 28 q0 7 5 12 q9 9 12.5 27.5 q3.5 18.5 3.5 36.5 l4 227 q0 40 -2 61 q-81 -96 -151 -145 q-17 -13 -30 -13 q-13 0 -13 13 q0 8 8 21 q106 159 212 345 q19 33 28.5 55 q9.5 22 7.5 40 q-2 19 5 34 q7 15 25 15 q10 0 19 -4 q26 -10 43 -31 q17 -21 25 -42 q8 -21 8 -30 q-1 -30 -33 -67 q-39 -46 -83 -103 l15 -9 q11 -7 18.5 -15.5 q7.5 -8.5 7.5 -24.5 q0 -4 -2 -16 l0 -227 q0 -17 2 -65 q13 -1 41 -1 q76 0 196 12 q28 48 67 129 l9 18 q18 34 18 72 q0 9 -2 21 q0 8 -1 15 q-1 7 -1 14 q0 11 6.5 17 q6.5 6 23.5 6 q36 0 65 -22.5 q29 -22.5 39 -38.5 q5 -8 5 -20 q0 -22 -15 -42 q-5 -6 -42.5 -57.5 q-37.5 -51.5 -85.5 -100.5 q104 14 192 32 q15 3 32 3 q34 0 45 -15 q12 -18 18.5 -32 q6.5 -14 18.5 -46 ZM558 590 q0 31 -6.5 56 q-6.5 25 -26.5 45 q-14 14 -14 21 q0 5 5.5 8 q5.5 3 19.5 7 q26 7 48 7 q20 0 39 -4 q40 -9 61.5 -30 q21.5 -21 21.5 -51 q0 -23 -13 -48 q-7 -13 -19.5 -19 q-12.5 -6 -26.5 -6 q-18 0 -32 8 q-3 2 -13.5 9 q-10.5 7 -17.5 7 q-8 0 -11 -13 q-1 -4 -3.5 -7 q-2.5 -3 -4.5 -3 q-7 0 -7 13 ZM390 458 q-3 3 -5.5 9.5 q-2.5 6.5 -2.5 12.5 q0 16 16 15 q13 -1 36 -1 q58 0 105.5 8 q47.5 8 127.5 28 l85 20 q20 4 32 4 q30 0 41 -15 q12 -17 15.5 -24 q3.5 -7 13.5 -32 q4 -9 4 -18 q0 -24 -32 -24 q-6 0 -20 2 q-22 4 -34 4 q-26 0 -56.5 -6.5 q-30.5 -6.5 -86.5 -22.5 q-36 -11 -86 -24 q-11 -3 -21.5 -7 q-10.5 -4 -14.5 -5 q-17 -7 -23 -7 q-10 0 -24 15 l-39 38 l-31 30 ZM557 308 q8 4 12 4 q3 0 3 -3 q0 -4 -5.5 -12 q-5.5 -8 -7.5 -11 q-3 -4 -3 -10 q0 -8 6 -24 q7 -17 7 -28 q0 -5 -1 -8 q-11 -33 -39 -33 q-13 0 -37 11 q-25 13 -40.5 40.5 q-15.5 27.5 -15.5 55.5 q0 21 9 37 q25 44 43 44 q9 0 16 -15 q5 -12 10 -28 q3 -15 10 -20 q9 -6 16 -6 q7 0 17 6 Z" /><glyph glyph-name="uni4F4E" unicode="&#x4f4e;" d="M310 193 q0 -24 1 -38 l1 -53 q0 -88 -22 -133 q-13 -27 -22 -38.5 q-9 -11.5 -17 -11.5 q-6 0 -11.5 8 q-5.5 8 -13.5 26 q-12 27 -23 38.5 q-11 11.5 -13 13.5 q-13 14 -13 28 q0 7 5 12 q9 9 12.5 27.5 q3.5 18.5 3.5 36.5 l4 230 q0 33 -1 50 q-67 -71 -150 -131 q-17 -13 -30 -13 q-13 0 -13 13 q0 8 8 21 q106 159 212 345 q19 33 28.5 55 q9.5 22 7.5 40 q-2 19 5 34 q7 15 25 15 q10 0 19 -4 q26 -10 43 -30.5 q17 -20.5 25 -41 q8 -20.5 8 -30.5 q0 -12 -8.5 -28 q-8.5 -16 -24.5 -40 q-38 -60 -77 -111 l7 -4 q11 -7 18.5 -15.5 q7.5 -8.5 7.5 -24.5 q0 -4 -2 -16 l0 -230 ZM947 98 q14 1 14 -21 q0 -9 -1 -15 q-7 -53 -23.5 -82 q-16.5 -29 -42.5 -29 q-39 0 -97 68 q-88 105 -125 164 q-37 59 -71 150 l-23 -9 q-21 -8 -33 -16 q-14 -8 -21 -8 q-9 0 -21 11 q0 0 -27 21 l0 -161 q0 -8 1 -13 q1 -5 4 -5 q4 0 11 6 l47 35 l34 26 q11 8 18 8 q8 0 8 -8 q0 -12 -16 -32 l-20 -26 q37 -2 56 -12 q23 -12 33.5 -26 q10.5 -14 10.5 -34 q0 -12 -5 -35 q-4 -18 -13.5 -28.5 q-9.5 -10.5 -21.5 -10.5 q-17 0 -32 22 l-14 21 q-15 23 -23.5 34.5 q-8.5 11.5 -22.5 22.5 q-6 -9 -11 -16 q-5 -7 -9 -13 q-39 -58 -67 -94 q-10 -13 -21 -13 q-25 0 -51 50 q-14 25 -14 42 q0 10 8 32 l2 289 q0 56 -4.5 97.5 q-4.5 41.5 -19.5 72.5 q-3 5 1 10 q4 5 14 5 q9 0 21 -4 q13 -4 30 -14 q111 61 179 111 l20 14 q15 10 28.5 20.5 q13.5 10.5 18.5 19.5 q3 5 4.5 12.5 q1.5 7.5 4 11 q2.5 3.5 7.5 3.5 q12 0 43 -16 q30 -15 46 -27.5 q16 -12.5 16 -28.5 q0 -15 -20 -34 q-43 -37 -130 -71 q28 -11 26 -45 q9 -33 18 -61 l95 36 q19 8 39 8 q21 0 29 -12 q13 -17 20.5 -28.5 q7.5 -11.5 19.5 -35.5 q4 -8 4 -16 q0 -11 -11.5 -16 q-11.5 -5 -31.5 -7 q-55 -4 -131 -29 q59 -155 133 -235 q12 -13 21 -21.5 q9 -8.5 14 -8.5 q6 0 11 20 q5 21 10.5 50 q5.5 29 6.5 48 q1 16 5 24.5 q4 8.5 8 8.5 q6 0 7 -14 l2 -35 q2 -52 7 -81 q5 -29 18 -27 ZM476 407 q43 8 91 23 l-12 42 q-12 45 -23 73 q-30 -9 -72 -16 q18 -12 18 -35 q0 -5 -2 -17 l0 -70 Z" /><glyph glyph-name="uni4F4F" unicode="&#x4f4f;" d="M933 67 q3 -10 3 -19 q0 -27 -35 -27 q-5 0 -21 2 q-64 11 -84 11 l-13 -1 q-42 -5 -83 -8 q-78 -7 -128.5 -13.5 q-50.5 -6.5 -86.5 -16.5 q-11 -3 -21.5 -7 q-10.5 -4 -14.5 -5 q-21 -7 -26 -7 q-7 0 -13 3.5 q-6 3.5 -16 12.5 q-54 50 -77 73 q-4 -67 -22 -104 q-13 -27 -22 -38.5 q-9 -11.5 -17 -11.5 q-6 0 -11.5 8 q-5.5 8 -13.5 26 q-12 27 -23 38.5 q-11 11.5 -13 13.5 q-13 14 -13 28 q0 7 5 12 q9 9 12.5 27.5 q3.5 18.5 3.5 36.5 l4 219 q0 21 -2 63 q-71 -83 -141 -133 q-17 -13 -30 -13 q-13 0 -13 13 q0 8 8 21 q106 159 212 345 q19 33 28.5 55 q9.5 22 7.5 40 q-2 19 5 34 q7 15 25 15 q10 0 19 -4 q26 -10 43 -30.5 q17 -20.5 25 -41 q8 -20.5 8 -30.5 q0 -13 -11 -34.5 q-11 -21.5 -22 -33.5 q-42 -50 -94 -117 l16 -9 q11 -7 18.5 -15.5 q7.5 -8.5 7.5 -24.5 q0 -4 -2 -16 l0 -219 q0 -21 1 -33 l1 -46 q2 1 8 1 q95 0 233 13 l2 104 l-1 0 q-21 -5 -36 -12 q-13 -5 -19 -5 q-10 0 -27 14 q-11 8 -50 43 l-23 21 q-4 3 -6.5 9.5 q-2.5 6.5 -2.5 12.5 q0 16 16 16 q80 -1 150 12 q0 53 -4 79 l-35 -9 q-18 -4 -37 -13 q-4 -1 -11 -3.5 q-7 -2.5 -12 -2.5 q-11 0 -27 15 q-26 22 -38 34 l-38 34 q-4 3 -6.5 9.5 q-2.5 6.5 -2.5 13.5 q0 16 16 16 q80 0 180 16.5 q100 16.5 194 42.5 q20 5 36 5 q30 0 41 -15 q14 -19 21 -32.5 q7 -13.5 19 -43.5 q4 -9 4 -19 q0 -12 -9.5 -19 q-9.5 -7 -24.5 -7 q-5 0 -19 2 q-49 9 -77 9 q-19 0 -38 -3.5 q-19 -3.5 -26 -4.5 q4 -10 4 -18 q0 -4 -2 -16 l0 -43 l29 8 q18 5 34 5 q29 0 39 -14 q14 -20 21 -33 q7 -13 17 -41 q4 -9 4 -18 q0 -24 -32 -24 q-5 0 -19 2 q-21 3 -44 3 q-25 0 -49 -3 l0 -113 q74 10 143 26 q16 4 36 4 q36 0 45 -16 q4 -6 12.5 -19 q8.5 -13 14.5 -27 q6 -14 13 -35 ZM556 601 q0 30 -6 53.5 q-6 23.5 -24 42.5 q-13 14 -13 21 q0 9 23 15 q21 6 45 6 q19 0 38 -4 q38 -9 54.5 -29.5 q16.5 -20.5 16.5 -52.5 q0 -16 -5 -41 q-4 -23 -17 -37.5 q-13 -14.5 -27 -14.5 q-23 0 -31 36 q-1 7 -8.5 12.5 q-7.5 5.5 -14.5 5.5 q-13 0 -16 -15 q-1 -4 -3 -6.5 q-2 -2.5 -5 -2.5 q-7 0 -7 11 Z" /><glyph glyph-name="uni4F53" unicode="&#x4f53;" d="M983 146 q9 -6 9 -10 q0 -7 -17 -5 q-8 1 -21 1 q-19 0 -32.5 -5 q-13.5 -5 -40.5 -20 q-13 -7 -31 -7 q-17 0 -33.5 7 q-16.5 7 -26.5 20 q-85 105 -152 245 l0 -148 l13 3 q24 4 35 4 q22 0 30 -12 q11 -17 16 -26.5 q5 -9.5 15 -37.5 q4 -9 4 -18 q0 -19 -24 -19 q-6 0 -20 2 q-42 10 -68 8 q1 -18 1 -60 q0 -94 -22 -138 q-13 -27 -22 -38.5 q-9 -11.5 -17 -11.5 q-6 0 -11.5 8 q-5.5 8 -13.5 26 q-12 27 -23 38.5 q-11 11.5 -13 13.5 q-13 14 -13 28 q0 7 5 12 q9 9 12.5 27.5 q3.5 18.5 3.5 36.5 l0 28 l-2 -1 q-11 -3 -21.5 -7 q-10.5 -4 -14.5 -5 q-13 -6 -20 -6 q-10 0 -23 13 q-19 16 -21 18 q-23 21 -37 36 q0 0 -6 9 q-27 -26 -62 -54 q2 -91 -22 -140 q-13 -27 -22 -38.5 q-9 -11.5 -17 -11.5 q-6 0 -11.5 8 q-5.5 8 -13.5 26 q-12 27 -23 38.5 q-11 11.5 -13 13.5 q-13 14 -13 28 q0 7 5 12 q9 9 12.5 27.5 q3.5 18.5 3.5 36.5 l4 219 q0 21 -2 65 q-72 -84 -143 -135 q-17 -13 -30 -13 q-13 0 -13 13 q0 8 8 21 q106 159 212 345 q19 33 28.5 55 q9.5 22 7.5 40 q-2 19 5 34 q7 15 25 15 q10 0 19 -4 q26 -10 43 -31 q17 -21 25 -42 q8 -21 8 -30 q-1 -30 -33 -67 q-21 -25 -69 -85 l-24 -31 l17 -10 q11 -7 18.5 -15.5 q7.5 -8.5 7.5 -24.5 q0 -4 -2 -16 l0 -216 q71 106 126 209 q-5 -2 -13.5 -5 q-8.5 -3 -12.5 -3 q-8 0 -24 13 q-3 3 -24 21 q-34 29 -44 41 q-9 11 -9 22 q0 13 15 14 q69 6 199 33 l0 61 q0 56 -4.5 97.5 q-4.5 41.5 -19.5 72.5 q-3 5 1 10 q4 5 14 5 q18 0 33.5 -7.5 q15.5 -7.5 35.5 -21.5 q8 -6 24 -16 q11 -7 18.5 -15.5 q7.5 -8.5 7.5 -24.5 q0 -4 -2 -16 l0 -121 q34 8 88 19 q22 4 35 4 q28 0 36 -13 q12 -19 18.5 -31.5 q6.5 -12.5 16.5 -38.5 q4 -9 4 -17 q0 -12 -8 -18 q-8 -6 -23 -6 q-5 0 -17 2 q-20 4 -48 4 q-25 0 -52 -3 q87 -123 152.5 -192.5 q65.5 -69.5 142.5 -120.5 ZM409 183 q67 7 118 18 l1 125 q-63 -86 -119 -143 Z" /><glyph glyph-name="uni4F55" unicode="&#x4f55;" d="M971 581 q4 -9 4 -19 q0 -26 -34 -26 q-5 0 -19 2 q-44 8 -92 8 q-19 0 -55 -2 l5 -3 q11 -7 18 -15.5 q7 -8.5 7 -23.5 q0 -11 -2 -17 l0 -375 q0 -78 -4 -109 q-4 -31 -21 -50 q-17 -19 -37.5 -32.5 q-20.5 -13.5 -38.5 -13.5 q-31 0 -46 40 q-13 35 -29.5 50.5 q-16.5 15.5 -33 24 q-16.5 8.5 -23.5 12.5 q-11 7 -11 11 q0 6 16 6 q6 0 39.5 -1 q33.5 -1 56 14.5 q22.5 15.5 22.5 47.5 l2 291 q0 87 -11 133 q-67 -11 -164 -40 q-7 -2 -13.5 -4 q-6.5 -2 -11.5 -3 q-19 -6 -38 -14 q-17 -7 -23 -7 q-11 0 -26 15 l-25 23 q-21 17 -47 43 q-40 -52 -61 -78 l16 -9 q11 -7 18.5 -15.5 q7.5 -8.5 7.5 -24.5 q0 -4 -2 -16 l0 -219 q0 -24 1 -38 l1 -53 q0 -88 -22 -133 q-13 -27 -22 -38.5 q-9 -11.5 -17 -11.5 q-6 0 -11.5 8 q-5.5 8 -13.5 26 q-12 27 -23 38.5 q-11 11.5 -13 13.5 q-13 14 -13 28 q0 7 5 12 q9 9 12.5 27.5 q3.5 18.5 3.5 36.5 l4 219 q0 21 -2 63 q-71 -83 -141 -133 q-17 -13 -30 -13 q-13 0 -13 13 q0 8 8 21 q106 159 212 345 q19 33 28.5 55 q9.5 22 7.5 40 q-2 19 5 34 q7 15 25 15 q10 0 19 -4 q26 -10 43 -30.5 q17 -20.5 25 -41 q8 -20.5 8 -30.5 q0 -12 -9.5 -31.5 q-9.5 -19.5 -20.5 -32.5 q97 3 226.5 25.5 q129.5 22.5 255.5 52.5 q20 5 37 5 q31 0 41 -15 q13 -19 20 -33 q7 -14 19 -44 ZM654 234 q2 -4 2 -12 q0 -17 -22 -17 q-4 0 -16 2 q-38 7 -64 7 l-70 1 l-3 -16 q-6 -25 -11.5 -36 q-5.5 -11 -12.5 -11 q-9 0 -25 23 q-13 18 -24 25 q-11 7 -14 9 q-9 8 -12.5 16.5 q-3.5 8.5 -1.5 13.5 q4 9 4 25 q0 19 -3 29 l-4 20 q-10 48 -16.5 69 q-6.5 21 -21.5 41 q-5 6 0.5 11.5 q5.5 5.5 22.5 5.5 q17 0 36 -7 q19 -7 23 -8 q63 8 123 19 q14 3 28 10 q2 1 7.5 3.5 q5.5 2.5 13.5 2.5 q6 0 10 -1 q30 -4 39 -18.5 q9 -14.5 13 -46.5 q1 -12 -10 -48 l-17 -54 q0 0 0.5 0 q0.5 0 0.5 -1 q8 -13 13 -25 q5 -12 12 -32 ZM482 285 q29 3 56 8 l18 59 q2 6 2 9 q0 12 -12 7 q-6 -2 -34 -9 q-9 -2 -19.5 -5 q-10.5 -3 -15.5 -3 q-4 0 -10 2 q11 -38 15 -68 Z" /><glyph glyph-name="uni4F59" unicode="&#x4f59;" d="M971 377 q11 -4 11 -9 q0 -5 -15 -7 q-29 -4 -45 -12.5 q-16 -8.5 -41 -32.5 q-19 -17 -47 -17 q-27 0 -47 15 q-79 61 -164 148.5 q-85 87.5 -145 162.5 l-3 -4 q-61 -90 -142 -170 q27 2 48 6.5 q21 4.5 57 14.5 l78 20 q20 4 32 4 q27 0 36 -13 q11 -16 17.5 -30 q6.5 -14 15.5 -36 q4 -9 4 -17 q0 -22 -30 -22 q-4 0 -16 2 q-54 10 -79 7 q11 -7 18 -15.5 q7 -8.5 7 -23.5 q0 -11 -2 -17 l0 -15 q69 13 124 27 q13 4 32 4 q29 0 38 -13 q12 -16 18.5 -28.5 q6.5 -12.5 17.5 -41.5 q4 -9 4 -17 q0 -12 -8 -18 q-8 -6 -23 -6 q-6 0 -18 2 q-39 8 -83 8 q-49 0 -102 -5 l0 -124 q0 -78 -4 -109 q-4 -31 -21 -50 q-39 -43 -70 -43 q-30 0 -52 37 q-21 34 -38.5 51 q-17.5 17 -41.5 30 q-6 -14 -10 -19 q-20 -30 -40 -30 q-14 0 -36 15 q-14 8 -23.5 25.5 q-9.5 17.5 -9.5 35.5 q0 28 24 46 q29 22 47 40.5 q18 18.5 33 40.5 q-12 -5 -17 -5 q-10 0 -24 14 l-33 31 q-18 15 -35 32 q-3 3 -5.5 9 q-2.5 6 -2.5 12 q0 14 15 14 q107 0 236 18 q-2 37 -7 65 l-9 -3 q-7 -2 -31 -11 q-13 -6 -21 -6 q-10 0 -23 12 l-46 41 q-99 -88 -198 -133 q-19 -8 -26 -8 q-9 0 -9 8 q0 11 15 27 q101 109 164 190.5 q63 81.5 123 178.5 q20 32 31 54.5 q11 22.5 11 40.5 q0 20 7.5 36 q7.5 16 25.5 16 q8 0 21 -5 q35 -15 53 -48.5 q18 -33.5 20 -59.5 q140 -129 252 -206 q112 -77 207 -111 ZM411 213 q-52 -11 -94 -23 q1 -4 1 -15 q-3 -78 -18 -130 q18 -2 26 -4 q30 -6 44 -6 q39 0 39 38 l2 140 ZM689 161 q37 -21 52 -39 q15 -18 15 -39 q0 -20 -17 -61 q-18 -43 -39 -43 q-20 0 -46 41 l-16 26 q-8 13 -29 46 q-21 33 -39 57 q-9 12 -9 22 q0 9 7 14 q7 5 20 5 q8 0 13 -1 q32 -6 50 -11.5 q18 -5.5 38 -16.5 Z" /><glyph glyph-name="uni4F5C" unicode="&#x4f5c;" d="M679 486 q0 -5 -1 -8 l0 -71 q27 8 83 28 q21 7 38 7 q25 0 34 -13 q14 -20 21 -31.5 q7 -11.5 18 -36.5 q4 -9 4 -18 q0 -12 -9.5 -18 q-9.5 -6 -25.5 -6 q-9 0 -14 1 q-43 6 -82 4 q-20 -2 -67 -15 l0 -80 l21 6 l71 24 q21 7 38 7 q25 0 34 -13 q14 -20 21 -31.5 q7 -11.5 18 -36.5 q4 -9 4 -18 q0 -12 -9.5 -18 q-9.5 -6 -25.5 -6 q-9 0 -14 1 q-43 6 -82 4 q-17 -1 -74 -16 l0 -34 q0 -134 -22 -178 q-13 -27 -22 -38.5 q-9 -11.5 -17 -11.5 q-6 0 -11.5 8 q-5.5 8 -13.5 26 q-12 27 -23 38.5 q-11 11.5 -13 13.5 q-13 14 -13 28 q0 7 5 12 q9 9 12.5 27.5 q3.5 18.5 3.5 36.5 l4 334 q0 37 -2 57 q-8 1 -21 13 l-23 18 q-83 -106 -149 -152 q-22 -14 -32 -14 q-5 0 -8 3 l0 -107 q0 -24 1 -38 l1 -53 q0 -88 -22 -133 q-13 -27 -22 -38.5 q-9 -11.5 -17 -11.5 q-6 0 -11.5 8 q-5.5 8 -13.5 26 q-12 27 -23 38.5 q-11 11.5 -13 13.5 q-13 14 -13 28 q0 7 5 12 q9 9 12.5 27.5 q3.5 18.5 3.5 36.5 l4 219 q0 24 -1 36 q-59 -63 -142 -123 q-17 -13 -30 -13 q-13 0 -13 13 q0 8 8 21 q106 159 212 345 q19 33 28.5 55 q9.5 22 7.5 40 q-2 19 5 34 q7 15 25 15 q10 0 19 -4 q26 -10 43 -30.5 q17 -20.5 25 -41 q8 -20.5 8 -30.5 q0 -12 -8.5 -28 q-8.5 -16 -24.5 -40 q-44 -68 -76 -110 q24 -14 24 -39 q0 -4 -2 -16 l0 -93 q4 10 8 15 q38 57 87.5 150.5 q49.5 93.5 64.5 132.5 l8 22 q7 17 13 35.5 q6 18.5 6 30.5 q0 7 -1 10 q-2 12 -2 18 q0 35 30 35 q3 0 15 -2 q27 -6 46 -25.5 q19 -19.5 29 -40 q10 -20.5 11 -29.5 q1 -13 -7.5 -35 q-8.5 -22 -16.5 -34 l-19 -28 l-12 -17 q39 5 78.5 16 q39.5 11 113.5 37 q21 8 42 8 q27 0 37 -14 q16 -23 23.5 -35 q7.5 -12 19.5 -40 q5 -10 5 -21 q0 -12 -10.5 -18.5 q-10.5 -6.5 -27.5 -6.5 q-10 0 -16 1 q-47 6 -91 4 q-19 -1 -90 -21 Z" /><glyph glyph-name="uni4F60" unicode="&#x4f60;" d="M748 382 q-19 -16 -32 -16 q-8 0 -8 10 q0 5 5 18 q20 50 32 77 q3 8 3 10 q0 3 -10 2 q-32 -7 -107 -30 q-11 -3 -38 -14 q-16 -7 -22 -7 q-11 0 -27 15 l-31 28 q-56 -65 -130 -120 q-20 -14 -31 -14 q-12 0 -12 12 q0 9 7 20 l26 41 q40 61 68 110 q28 49 55 109 q3 6 11 24.5 q8 18.5 13 34 q5 15.5 5 27.5 q0 7 -1 10 q-2 10 -2 17 q0 15 7.5 25 q7.5 10 23.5 10 q3 0 15 -2 q28 -7 47.5 -27 q19.5 -20 29 -41 q9.5 -21 8.5 -29 q-2 -15 -10.5 -37 q-8.5 -22 -16.5 -32 q-27 -32 -44 -54 q86 8 186 32 q28 7 32.5 11.5 q4.5 4.5 5.5 4.5 q0 0 20 -7 q27 -10 48 -39 q21 -29 24 -51 q1 -6 1 -17 q0 -25 -8 -39.5 q-8 -14.5 -20 -14.5 q-35 0 -61 -14 q-26 -14 -62 -43 ZM318 185 q0 -24 1 -38 l1 -53 q0 -88 -22 -133 q-13 -27 -22 -38.5 q-9 -11.5 -17 -11.5 q-6 0 -11.5 8 q-5.5 8 -13.5 26 q-12 27 -23 38.5 q-11 11.5 -13 13.5 q-13 14 -13 28 q0 7 5 12 q9 9 12.5 27.5 q3.5 18.5 3.5 36.5 l4 239 q0 31 -1 48 q-71 -84 -145 -138 q-17 -13 -30 -13 q-13 0 -13 13 q0 8 8 21 q106 159 212 345 q19 33 28.5 55 q9.5 22 7.5 40 q-2 19 5 34 q7 15 25 15 q10 0 19 -4 q26 -10 43 -31 q17 -21 25 -42 q8 -21 8 -30 q-1 -30 -33 -67 q0 0 -63 -78 l-19 -24 l7 -4 q11 -7 18.5 -15.5 q7.5 -8.5 7.5 -24.5 q0 -4 -2 -16 l0 -239 ZM646 382 q11 -7 18 -15.5 q7 -8.5 7 -23.5 q0 -11 -2 -17 l0 -207 q0 -78 -4 -109 q-4 -31 -21 -50 q-17 -19 -37.5 -32.5 q-20.5 -13.5 -38.5 -13.5 q-31 0 -46 40 q-13 35 -29.5 50.5 q-16.5 15.5 -33 24 q-16.5 8.5 -23.5 12.5 q-11 7 -11 11 q0 6 16 6 q6 0 39.5 -1 q33.5 -1 56 14.5 q22.5 15.5 22.5 47.5 l2 123 q1 52 -3.5 95 q-4.5 43 -20.5 75 q-3 5 1 10 q4 5 14 5 q18 0 32.5 -7.5 q14.5 -7.5 37.5 -22.5 l24 -15 ZM843 259 q40 -23 55.5 -41 q15.5 -18 15.5 -39 q0 -10 -4 -25 q-4 -15 -9 -31 q-14 -45 -37 -45 q-21 0 -47 37 q-24 34 -44 70 q-6 9 -20.5 33 q-14.5 24 -26.5 38 q-11 14 -11 24 q0 9 7 14 q7 5 20 5 q7 0 11 -1 q24 -5 42.5 -13.5 q18.5 -8.5 47.5 -25.5 ZM456 95 q-21 -29 -40 -29 q-13 0 -36 16 q-13 9 -22.5 25.5 q-9.5 16.5 -9.5 34.5 q0 29 25 47 q35 25 54 45.5 q19 20.5 39 49.5 q6 11 18 11 q7 0 10.5 -7 q3.5 -7 2.5 -21 q-2 -42 -12.5 -94.5 q-10.5 -52.5 -28.5 -77.5 Z" /><glyph glyph-name="uni4F6C" unicode="&#x4f6c;" d="M934 387 q4 -9 4 -19 q0 -24 -32 -24 q-5 0 -19 2 q-41 8 -87 8 q-53 0 -106 -9 q-40 -42 -63 -64 q11 -11 11 -28 q0 -11 -2 -17 l0 -27 q13 7 24 15 l19 12 q12 7 23 15.5 q11 8.5 15 15.5 q3 6 4 11 q1 5 3 8 q2 3 6 3 q8 0 34 -15 q25 -14 38 -24.5 q13 -10.5 13 -22.5 q0 -14 -18 -28 q-47 -38 -161 -68 l0 -32 q0 -21 3 -30 q3 -9 11.5 -12 q8.5 -3 30.5 -3 q25 0 51 1 q27 1 39.5 8 q12.5 7 12.5 31 q0 17 4 27 q4 10 10 10 q5 0 10.5 -8 q5.5 -8 9.5 -24 q5 -20 15 -24.5 q10 -4.5 32 -4.5 q21 0 21 -38 q0 -33 -20.5 -53.5 q-20.5 -20.5 -69.5 -25.5 q-73 -7 -141 -7 q-44 0 -72.5 9 q-28.5 9 -43.5 34.5 q-15 25.5 -15 74.5 l1 88 l0 39 q-111 -90 -194 -117 l-10 -3 q-2 -72 -22 -112 q-13 -27 -22 -38.5 q-9 -11.5 -17 -11.5 q-6 0 -11.5 8 q-5.5 8 -13.5 26 q-12 27 -23 38.5 q-11 11.5 -13 13.5 q-13 14 -13 28 q0 7 5 12 q9 9 12.5 27.5 q3.5 18.5 3.5 36.5 l4 230 q0 34 -1 51 q-60 -64 -150 -130 q-17 -13 -30 -13 q-13 0 -13 13 q0 8 8 21 q106 159 212 345 q19 33 28.5 55 q9.5 22 7.5 40 q-2 19 5 34 q7 15 25 15 q10 0 19 -4 q26 -10 43 -30.5 q17 -20.5 25 -41 q8 -20.5 8 -30.5 q0 -12 -8.5 -28 q-8.5 -16 -24.5 -40 q-46 -72 -77 -113 l7 -4 q11 -7 18.5 -15.5 q7.5 -8.5 7.5 -24.5 q0 -4 -2 -16 l0 -34 q82 3 208 26 l1 80 l-1 0 q-9 -3 -17.5 -7 q-8.5 -4 -11.5 -5 q-14 -6 -20 -6 q-10 0 -23 12 q-37 32 -62 57 q-8 8 -8 19 q0 13 14 13 q82 4 130 13 l0 7 q1 52 -3.5 95 q-4.5 43 -20.5 75 q-3 5 1 10 q4 5 14 5 q18 0 33.5 -7.5 q15.5 -7.5 35.5 -21.5 q8 -6 24 -16 q11 -7 18.5 -15.5 q7.5 -8.5 7.5 -24.5 q0 -4 -2 -16 l0 -69 l24 5 q14 3 28 3 q23 0 30 -11 q3 -4 5.5 -8.5 q2.5 -4.5 5.5 -9.5 q7 24 5 35 q-1 3 -1 11 q0 14 6.5 24 q6.5 10 20.5 10 q7 0 17 -3 q23 -8 38.5 -27 q15.5 -19 23 -37.5 q7.5 -18.5 8.5 -27.5 q2 -20 -3 -30.5 q-5 -10.5 -12.5 -18.5 q-7.5 -8 -11.5 -13 l-30 -42 l28 7 q18 5 35 5 q29 0 39 -14 q13 -18 19.5 -31 q6.5 -13 17.5 -43 ZM700 513 q-27 4 -59 2 l0 -84 q42 52 59 82 ZM325 112 q79 62 206 194 l-56 -17 l-23 -7 q-27 -9 -35 -13 q-17 -7 -23 -7 q-10 0 -25 14 l-24 22 q-21 18 -22 19 l0 -134 q0 -17 2 -71 Z" /><glyph glyph-name="uni4F70" unicode="&#x4f70;" d="M928 586 q4 -9 4 -19 q0 -26 -34 -26 q-5 0 -19 2 q-60 11 -92 8 q-19 -1 -117 -18 q1 -2 1.5 -3 q0.5 -1 1.5 -2 q3 -6 3 -12 q0 -16 -24 -35 l-15 -31 l34 4 q63 7 73.5 14.5 q10.5 7.5 12.5 7.5 q5 0 26 -8 q31 -11 46.5 -23 q15.5 -12 20.5 -26.5 q5 -14.5 7 -37.5 q1 -13 -5 -31 q-5 -20 -5 -28 l1 -119 q0 -24 1 -38 l1 -53 q0 -88 -22 -133 q-13 -27 -22 -38.5 q-9 -11.5 -17 -11.5 q-6 0 -11.5 8 q-5.5 8 -13.5 26 q-8 18 -15 27.5 q-7 9.5 -17 20.5 q-14 3 -44 5 l-28 1 q-44 0 -121 -10 l-27 -3 q-1 -2 -2 -5 q-1 -3 -3 -6 q-13 -27 -22 -38.5 q-9 -11.5 -17 -11.5 q-6 0 -11.5 8 q-5.5 8 -13.5 26 q-12 27 -23 38.5 q-11 11.5 -13 13.5 q-13 14 -13 28 q0 7 5 12 q9 9 12.5 27.5 q3.5 18.5 3.5 36.5 l3 134 q0 112 -24 170 q-3 5 1 10 q4 5 14 5 q9 0 21 -4 q16 -5 48 -26 l40 6 l12 25 q13 27 18 54 l-36 -9 q-19 -6 -38 -14 q-17 -7 -23 -7 q-11 0 -26 15 l-26 24 q-32 28 -49 45 l-1 1 q-3 -4 -49 -61 l-21 -27 q14 -10 22 -14 q11 -7 18.5 -15.5 q7.5 -8.5 7.5 -24.5 q0 -4 -2 -16 l0 -219 q0 -24 1 -38 l1 -53 q0 -88 -22 -133 q-13 -27 -22 -38.5 q-9 -11.5 -17 -11.5 q-6 0 -11.5 8 q-5.5 8 -13.5 26 q-12 27 -23 38.5 q-11 11.5 -13 13.5 q-13 14 -13 28 q0 7 5 12 q9 9 12.5 27.5 q3.5 18.5 3.5 36.5 l4 219 q0 37 -3 74 q-79 -93 -150 -144 q-17 -13 -30 -13 q-13 0 -13 13 q0 8 8 21 q106 159 212 345 q19 33 28.5 55 q9.5 22 7.5 40 q-2 19 5 34 q7 15 25 15 q10 0 19 -4 q26 -10 43 -30.5 q17 -20.5 25 -41 q8 -20.5 8 -30.5 q0 -18 -23 -54 q91 3 192 21.5 q101 18.5 240 51.5 q20 5 37 5 q31 0 41 -15 q13 -19 20 -33 q7 -14 19 -44 ZM725 357 q-40 0 -68 -4.5 q-28 -4.5 -69 -16.5 q-15 -4 -30 -10.5 q-15 -6.5 -20 -6.5 q-7 0 -12 4 l1 -62 q65 11 91 20 q17 6 36 6 q22 0 28 -9 q12 -15 18 -26 q6 -11 17 -37 q4 -9 4 -17 q0 -10 -8 -15.5 q-8 -5.5 -21 -5.5 q-9 0 -14 1 q-25 4 -54 4 q-16 0 -22 -1 q-28 -3 -74 -11 q2 -45 1 -71 q94 8 188 26 q12 2 19 2 l2 204 l1 11 q0 8 -3 11.5 q-3 3.5 -11 3.5 Z" /><glyph glyph-name="uni4F73" unicode="&#x4f73;" d="M918 35 q3 -10 3 -18 q0 -13 -8.5 -20 q-8.5 -7 -22.5 -7 q-6 0 -24 4 q-42 12 -91 14 q-13 1 -38 1 q-69 0 -122.5 -8.5 q-53.5 -8.5 -115.5 -24.5 q-27 -7 -34 -8 q-20 -5 -38 -11 q-15 -6 -23 -6 q-11 0 -26 16 q0 0 -28 28 q-16 15 -33 33 q-5 -48 -19 -75 q-13 -27 -22 -38.5 q-9 -11.5 -17 -11.5 q-6 0 -11.5 8 q-5.5 8 -13.5 26 q-12 27 -23 38.5 q-11 11.5 -13 13.5 q-13 14 -13 28 q0 7 5 12 q9 9 12.5 27.5 q3.5 18.5 3.5 36.5 l4 235 q0 31 -1 47 q-63 -66 -145 -125 q-17 -13 -30 -13 q-13 0 -13 13 q0 8 8 21 q106 159 212 345 q19 33 28.5 55 q9.5 22 7.5 40 q-2 19 5 34 q7 15 25 15 q10 0 19 -4 q26 -10 43 -30.5 q17 -20.5 25 -41 q8 -20.5 8 -30.5 q0 -12 -8.5 -28 q-8.5 -16 -24.5 -40 q-39 -62 -79 -116 l4 -2 q11 -7 18.5 -15.5 q7.5 -8.5 7.5 -24.5 q0 -4 -2 -16 l0 -235 q0 -22 1 -34 q2 -41 1 -64 q12 -1 38 -1 q69 0 197 13 l1 67 q-24 -5 -32 -7 q-12 -3 -32 -10 q-15 -5 -21 -5 q-9 0 -22 14 l-26 25 q-28 28 -36 38 q-6 8 -6 20 q0 14 14 13 q80 -3 161 12 q-2 35 -7 61 q-45 -9 -73 -16 q-12 -2 -35 -10 q-13 -5 -20 -5 q-10 0 -24 14 q-49 49 -64 66 q-3 3 -5.5 9 q-2.5 6 -2.5 12 q0 16 16 15 q77 -4 208 19 l1 70 l-22 -8 l-19 -8 q-4 -2 -14 -5.5 q-10 -3.5 -16 -3.5 q-7 0 -12.5 3.5 q-5.5 3.5 -13.5 12.5 q-14 15 -24 23 q-4 4 -13.5 13 q-9.5 9 -17.5 20 q-7 12 -7 20 q0 13 15 13 q73 3 146 16 l0 4 q0 112 -24 170 q-3 5 1 10 q4 5 14 5 q18 0 33.5 -7.5 q15.5 -7.5 35.5 -21.5 q8 -6 24 -16 q11 -7 18.5 -15.5 q7.5 -8.5 7.5 -24.5 q0 -4 -2 -16 l0 -64 l56 15 q12 3 24 3 q28 0 36 -15 q8 -13 14.5 -26 q6.5 -13 13.5 -34 q3 -7 3 -13 q0 -12 -10.5 -16 q-10.5 -4 -33.5 -4 q-54 0 -103 -7 l0 -72 q58 12 129 24 q14 2 22 2 q37 0 46 -16 q13 -21 19 -33 q6 -12 14 -38 q3 -9 3 -16 q0 -22 -33 -22 q-11 0 -17 1 q-28 2 -47 2 q-61 0 -140 -11 q11 -13 11 -29 q0 -4 -2 -16 l0 -12 q5 1 22 5 q8 1 26 5 q14 2 22 2 q33 0 41 -15 q11 -18 16.5 -29 q5.5 -11 13.5 -35 q3 -9 3 -15 q0 -20 -30 -20 q-10 0 -16 1 q-27 3 -50 3 q-22 0 -48 -3 l0 -73 q65 9 141 23 q18 2 27 2 q39 0 49 -17 q13 -21 19.5 -35 q6.5 -14 16.5 -44 Z" /><glyph glyph-name="uni4F7F" unicode="&#x4f7f;" d="M951 0 q11 -5 11 -11 q0 -5 -8 -8.5 q-8 -3.5 -24 -4.5 q-31 -1 -54.5 -14 q-23.5 -13 -44.5 -36 q-10 -11 -19 -16.5 q-9 -5.5 -20 -5.5 q-21 0 -56 24 q-62 43 -101 73.5 q-39 30.5 -96 78.5 q-66 -86 -176 -125 q-12 -5 -25 -5 q-16 0 -16 11 q0 14 22 31 q77 62 121 148 l-22 17 q-22 17 -32.5 22.5 q-10.5 5.5 -21.5 5.5 q-10 0 -16 -2 q-3 -1 -10 -1 q-14 0 -24.5 9.5 q-10.5 9.5 -10.5 22.5 q0 19 20 36 q19 18 45 18 q8 0 13 -1 l-13 7 q-13 7 -19 16 q-6 9 -2 17 q2 3 2 11 q0 9 -4 24 q-4 15 -5 23 q-7 39 -14.5 60 q-7.5 21 -28.5 50 q-7 5 -1 12 q6 7 28 9 q16 1 41 -6 q5 -1 15.5 -3 q10.5 -2 18.5 -3 l4 0 q38 2 107 12 q1 11 1 32 q-7 -2 -16 -3.5 q-9 -1.5 -18 -4.5 q-16 -4 -32.5 -11 q-16.5 -7 -21.5 -7 q-9 0 -21 12 l-25 24 l-40 36 q-2 2 -2 3 l-2 -3 q-40 -63 -80 -110 l3 -2 q11 -7 18.5 -15.5 q7.5 -8.5 7.5 -24.5 q0 -4 -2 -16 l0 -219 q0 -24 1 -38 l1 -53 q0 -88 -22 -133 q-13 -27 -22 -38.5 q-9 -11.5 -17 -11.5 q-6 0 -11.5 8 q-5.5 8 -13.5 26 q-12 27 -23 38.5 q-11 11.5 -13 13.5 q-13 14 -13 28 q0 7 5 12 q9 9 12.5 27.5 q3.5 18.5 3.5 36.5 l4 219 q0 35 -1 52 q-60 -57 -134 -111 q-17 -13 -30 -13 q-13 0 -13 13 q0 8 8 21 q71 106 116.5 177.5 q45.5 71.5 86.5 142.5 q19 33 28.5 55 q9.5 22 7.5 40 q-2 19 5 34 q7 15 25 15 q10 0 19 -4 q26 -10 43 -31 q17 -21 25 -42 q8 -21 8 -30 q0 -15 -10 -32 q81 5 155 19 q0 35 -2.5 58.5 q-2.5 23.5 -13.5 39.5 q-12 18 -12 34 q0 33 51 33 q37 0 66.5 -21.5 q29.5 -21.5 39.5 -37.5 q14 -20 14 -37 q0 -9 -5 -21.5 q-5 -12.5 -5 -19.5 l54 14 q18 4 29 4 q25 0 32 -12 q9 -13 16 -26 q7 -13 15 -34 q4 -12 4 -15 q0 -13 -12 -16 q-12 -3 -38 -3 q-36 0 -105 -12 l-2 -40 q2 1 19 4 q41 8 55 16 q14 8 17 8 q5 0 21.5 -6.5 q16.5 -6.5 20.5 -8.5 q18 -8 42 -30 q24 -22 24 -42 q0 -10 -9 -19 q-32 -30 -52 -65 q14 -24 24 -53 q3 -7 3 -14 q0 -10 -8 -15 q-8 -5 -22 -5 q-9 0 -13 1 q-23 3 -46 3 q-20 0 -27 -1 l-83 -9 q-13 -59 -38 -113 q78 -47 163 -87.5 q85 -40.5 198 -79.5 ZM712 430 q-22 0 -59 -6 l-6 -45 q37 5 58 9 q6 15 9 27 l2 10 q0 5 -4 5 ZM506 397 q-11 -3 -20.5 -7 q-9.5 -4 -13.5 -6 l3 -19 q2 -4 4 -12 l48 7 q2 15 4 43 l-25 -6 ZM499 222 q7 23 11 40 q2 1 -24 -7 q-3 -13 -6 -21 l19 -12 Z" /><glyph glyph-name="uni4F8B" unicode="&#x4f8b;" d="M874 732 q11 -7 18 -15.5 q7 -8.5 7 -23.5 q0 -11 -2 -17 l0 -572 q0 -78 -4 -109 q-4 -31 -21 -50 q-17 -19 -37.5 -32.5 q-20.5 -13.5 -38.5 -13.5 q-31 0 -46 40 q-13 35 -29.5 50.5 q-16.5 15.5 -33 24 q-16.5 8.5 -23.5 12.5 q-11 7 -11 11 q0 6 16 6 q6 0 39.5 -1 q33.5 -1 56 14.5 q22.5 15.5 22.5 47.5 l2 488 q0 56 -4.5 97.5 q-4.5 41.5 -19.5 72.5 q-3 5 1 10 q4 5 14 5 q18 0 32.5 -7.5 q14.5 -7.5 37.5 -22.5 l24 -15 ZM635 398 q3 -9 -1.5 -17 q-4.5 -8 -14.5 -20 q-12 -12 -17 -22 q-51 -98 -123 -186.5 q-72 -88.5 -162 -127.5 q-28 -12 -42 -8 q-5 -18 -12 -32 q-13 -27 -22 -38.5 q-9 -11.5 -17 -11.5 q-6 0 -11.5 8 q-5.5 8 -13.5 26 q-12 27 -23 38.5 q-11 11.5 -13 13.5 q-13 14 -13 28 q0 7 5 12 q9 9 12.5 27.5 q3.5 18.5 3.5 36.5 l4 219 q0 20 -2 64 q-32 -27 -113 -85 q-17 -13 -30 -13 q-13 0 -13 13 q0 8 8 21 q54 81 92 142.5 q38 61.5 83 139.5 q19 33 28.5 55 q9.5 22 7.5 40 q-2 19 5 34 q7 15 25 15 q10 0 19 -4 q26 -10 43 -30.5 q17 -20.5 25 -41 q8 -20.5 8 -30.5 q0 -16 -23 -52 q44 5 72.5 11 q28.5 6 80.5 20 l55 14 q30 7 40 7 q18 0 24 -9 q18 -23 38 -59 q6 -10 6 -18 q0 -21 -42 -21 q-57 0 -109 -10 q12 -18 16 -26 q4 -5 4 -12 q0 -15 -25 -35 l-16 -26 q40 9 48.5 18 q8.5 9 10.5 9 q4 0 14 -5 q36 -18 55 -34 q19 -16 25 -38 ZM302 556 q-22 -32 -51 -68 l8 -4 q11 -7 18.5 -15.5 q7.5 -8.5 7.5 -24.5 q0 -4 -2 -16 l0 -113 q42 57 90 141 q16 28 21 55 q-10 -5 -14 -5 q-8 0 -21 10 q-11 9 -33 23 l-24 17 ZM727 181 q-19 -40 -39 -40 q-14 0 -25 24 q-16 35 -31 52 q-13 14 -13 28 q0 7 5 12 q9 9 13 28 q4 19 3 36 l-1 30 q0 112 -24 170 q-3 5 1 10 q4 5 14 5 q17 0 32.5 -7.5 q15.5 -7.5 40.5 -22.5 l24 -15 q11 -7 18.5 -15.5 q7.5 -8.5 7.5 -24.5 q0 -4 -2 -16 l0 -30 l0 -57 q0 -116 -24 -167 ZM483 348 q3 9 3 11 q0 2 -2 1.5 q-2 -0.5 -6 -1.5 q-16 -6 -50 -11 q-33 -7 -40 -9 l-17 -15 q31 0 48 -1 q29 -1 47 -16 q5 11 17 41 ZM284 61 q65 64 120 142 q-19 43 -79 84 q0 0 -0.5 0 q-0.5 0 -0.5 1 l-30 -21 l-11 -7 l0 -51 q0 -23 1 -36 l1 -53 q0 -31 -3 -61 l2 2 Z" /><glyph glyph-name="uni4F9B" unicode="&#x4f9b;" d="M956 270 q3 -10 3 -18 q0 -13 -8.5 -20 q-8.5 -7 -22.5 -7 q-6 0 -24 4 q-42 12 -91 14 q-107 4 -240 -28 q13 -12 22.5 -25.5 q9.5 -13.5 11.5 -19.5 q1 -3 1 -9 q0 -23 -21 -44 q-52 -52 -100 -86.5 q-48 -34.5 -106 -52.5 q-33 -11 -53 -11 q-16 0 -16 9 q0 14 31 42 q45 41 109 115 q19 21 29 59 q-10 -2 -19 -4.5 q-9 -2.5 -18 -4.5 q-20 -5 -38 -11 q-15 -6 -23 -6 q-11 0 -26 16 q-11 13 -34 34 l-20 19 l0 -50 q0 -24 1 -38 l1 -53 q0 -88 -22 -133 q-13 -27 -22 -38.5 q-9 -11.5 -17 -11.5 q-6 0 -11.5 8 q-5.5 8 -13.5 26 q-12 27 -23 38.5 q-11 11.5 -13 13.5 q-13 14 -13 28 q0 7 5 12 q9 9 12.5 27.5 q3.5 18.5 3.5 36.5 l4 235 q0 23 -1 34 q-58 -61 -139 -120 q-17 -13 -30 -13 q-13 0 -13 13 q0 8 8 21 q75 113 150 239 q0 6 5 8 l57 98 q19 33 28.5 55 q9.5 22 7.5 40 q-2 19 5 34 q7 15 25 15 q10 0 19 -4 q26 -10 43 -30.5 q17 -20.5 25 -41 q8 -20.5 8 -30.5 q0 -12 -8.5 -28 q-8.5 -16 -24.5 -40 q-37 -59 -78 -112 q10 -7 16.5 -15.5 q6.5 -8.5 6.5 -23.5 q0 -3 -2 -15 l0 -126 q56 -2 164 10 l0 85 q-7 -3 -18 -7 q-11 -4 -17 -4 q-9 0 -24 16 l-30 31 l-37 39 q-8 10 -8 22 q0 16 16 15 l25 -1 q38 0 94 7 l0 7 q0 112 -24 170 q-3 5 1 10 q4 5 14 5 q18 0 33.5 -7.5 q15.5 -7.5 35.5 -21.5 q8 -6 24 -16 q11 -7 18.5 -15.5 q7.5 -8.5 7.5 -24.5 q0 -4 -2 -16 l0 -72 q48 10 72 16 l4 48 q3 33 3 69 q0 64 -13 103 q-3 5 0.5 9.5 q3.5 4.5 12.5 4.5 q8 0 23 -6 q19 -7 51 -33 l18 -14 q22 -15 22 -38 q0 -8 -3 -20 l-8 -97 l9 2 q12 3 26 3 q36 0 46 -17 q14 -24 20 -36 q6 -12 15 -39 q3 -10 3 -17 q0 -23 -34 -23 q-12 0 -19 1 q-30 4 -76 2 l-8 -98 l104 18 q18 2 27 2 q39 0 49 -17 q13 -21 19.5 -35 q6.5 -14 16.5 -44 ZM576 318 l53 9 l9 100 q-46 -9 -62 -13 l0 -96 ZM814 154 q40 -26 55.5 -45.5 q15.5 -19.5 15.5 -42.5 q0 -20 -13 -57 q-16 -47 -38 -47 q-21 0 -49 41 q-27 40 -98 121 l-31 36 q-10 13 -10 24 q0 10 7.5 15.5 q7.5 5.5 20.5 5.5 q8 0 12 -1 q73 -11 128 -50 Z" /><glyph glyph-name="uni4F9D" unicode="&#x4f9d;" d="M983 84 q9 -7 9 -13 q0 -5 -5.5 -8 q-5.5 -3 -15.5 -3 q-7 0 -11 1 q-6 1 -17 1 q-17 0 -28 -5.5 q-11 -5.5 -22.5 -15 q-11.5 -9.5 -18.5 -15.5 q-21 -16 -38 -16 q-25 0 -57 32 q-60 60 -94 100 l-8 -9 l-62 -65 q-44 -45 -68 -71.5 q-24 -26.5 -42 -52.5 q-10 -14 -21 -14 q-24 0 -55 53 q-14 27 -14 44 q0 10 3.5 21 q3.5 11 4.5 13 l3 76 q1 32 -2 74 q-22 -15 -62 -38 l-35 -22 q-8 -5 -20 -11 q1 -17 1 -54 q0 -87 -22 -132 q-13 -27 -22 -38.5 q-9 -11.5 -17 -11.5 q-6 0 -11.5 8 q-5.5 8 -13.5 26 q-12 27 -23 38.5 q-11 11.5 -13 13.5 q-13 14 -13 28 q0 7 5 12 q9 9 12.5 27.5 q3.5 18.5 3.5 36.5 l4 238 q0 28 -1 42 q-70 -78 -133 -124 q-17 -13 -30 -13 q-13 0 -13 13 q0 8 8 21 q66 99 145 231 q-1 1 -1 4 q0 9 10 10 l58 100 q19 33 28.5 55 q9.5 22 7.5 40 q-2 19 5 34 q7 15 25 15 q10 0 19 -4 q26 -10 43 -30.5 q17 -20.5 25 -41 q8 -20.5 8 -30.5 q0 -13 -11 -34.5 q-11 -21.5 -22 -33.5 q-30 -36 -44 -54 q1 1 5 1 q69 3 130 16 q61 13 157 40 q64 18 100 27 q20 5 37 5 q28 0 37 -13 q12 -17 19 -30.5 q7 -13.5 20 -41.5 q5 -12 5 -19 q0 -12 -9 -18.5 q-9 -6.5 -25 -6.5 q-4 0 -16 2 q-40 7 -67 7 q-9 0 -21 -2 q-37 -6 -62 -13 l10 -31 q3 -8 -8 -21.5 q-11 -13.5 -25 -21.5 q-4 -6 -9 -13 q-5 -7 -11 -16 q19 -19 63 -56 q29 29 42 44 q13 13 22 30 q9 17 11 33 q2 6 3.5 15 q1.5 9 5 13.5 q3.5 4.5 11.5 4.5 l12 -2 q18 -5 32.5 -21 q14.5 -16 23.5 -32.5 q9 -16.5 10 -23.5 q2 -9 -4 -21 q-6 -12 -18 -21 q-31 -24 -104 -61 q8 -8 15 -14 q7 -6 13 -12 q41 -39 74 -62 q33 -23 89 -57 q58 -34 90 -56 ZM518 616 q0 62 -30 96 q-15 15 -15 21 q0 5 5.5 8 q5.5 3 18.5 7 q19 6 42 6 q21 0 41 -4 q37 -8 58 -29.5 q21 -21.5 21 -49.5 q0 -20 -12 -43 q-13 -24 -46 -24 q-19 0 -28 7 q-4 2 -14 9 q-10 7 -16 7 q-7 0 -10 -13 q-1 -4 -3 -6.5 q-2 -2.5 -5 -2.5 q-7 0 -7 11 ZM306 194 q62 74 95 118 l-1 2 q-1 1 -1 4 q0 11 15 12 q31 41 59 87 q6 7 10 13.5 q4 6.5 8 12.5 l-11 -3 q-18 -6 -34 -14 q-17 -7 -23 -7 q-9 0 -25 13 l-22 18 q-34 28 -52 46 q-3 3 -6 10.5 q-3 7.5 -3 13.5 l-36 -46 l3 -2 q11 -7 18.5 -15.5 q7.5 -8.5 7.5 -24.5 q0 -4 -2 -16 l0 -222 ZM554 110 q24 12 31 15 q60 29 81 41 q-25 30 -51 67 q-36 49 -49 69 q-6 7 -10 13 q-4 6 -7 10 q-22 -27 -36 -41 l1 0 q12 -8 19.5 -17 q7.5 -9 7.5 -25 q0 -11 -2 -17 l0 -104 q0 -14 6 -14 q3 0 9 3 Z" /><glyph glyph-name="uni4FA7" unicode="&#x4fa7;" d="M887 732 q11 -7 18 -15.5 q7 -8.5 7 -23.5 q0 -11 -2 -17 l0 -572 q0 -78 -4 -109 q-4 -31 -21 -50 q-17 -19 -37.5 -32.5 q-20.5 -13.5 -38.5 -13.5 q-31 0 -46 40 q-13 35 -29.5 50.5 q-16.5 15.5 -33 24 q-16.5 8.5 -23.5 12.5 q-11 7 -11 11 q0 6 16 6 q6 0 39.5 -1 q33.5 -1 56 14.5 q22.5 15.5 22.5 47.5 l2 488 q0 56 -4.5 97.5 q-4.5 41.5 -19.5 72.5 q-3 5 1 10 q4 5 14 5 q18 0 32.5 -7.5 q14.5 -7.5 37.5 -22.5 l24 -15 ZM596 166 q29 -17 41 -32.5 q12 -15.5 12 -39.5 q0 -18 -4 -37 q-4 -19 -15 -29.5 q-11 -10.5 -25 -10.5 q-23 0 -37 23 q-5 9 -8.5 16 q-3.5 7 -6.5 12 q-16 31 -29.5 50 q-13.5 19 -37.5 36 q-23 -56 -69 -96.5 q-46 -40.5 -125 -63.5 q-5 -2 -14 -2 q-12 0 -13 7 q-7 -30 -15 -45 q-13 -27 -22 -38.5 q-9 -11.5 -17 -11.5 q-6 0 -11.5 8 q-5.5 8 -13.5 26 q-12 27 -23 38.5 q-11 11.5 -13 13.5 q-13 14 -13 28 q0 7 5 12 q9 9 12.5 27.5 q3.5 18.5 3.5 36.5 l4 235 q0 21 -2 63 q-37 -31 -109 -82 q-17 -13 -30 -13 q-13 0 -13 13 q0 8 8 21 q51 76 87.5 136 q36.5 60 84.5 144 q19 33 28.5 55 q9.5 22 7.5 40 q-2 19 5 34 q7 15 25 15 q10 0 19 -4 q26 -10 43 -30.5 q17 -20.5 25 -41 q8 -20.5 8 -30.5 q0 -12 -8.5 -28 q-8.5 -16 -24.5 -40 l-3 -5 l6 -2 q12 -4 41 -23 l24 -15 q22 -12 24 -34 q3 15 30 15 q30 0 52 -18 q22 -18 30 -32 q3 -6 3 -17 q0 -9 -1.5 -22 q-1.5 -13 -2.5 -19 l-2 -40 q-2 -52 -4 -75 l3 4 q15 15 15 61 l3 178 q0 16 -2 22 q-2 6 -10 3 l-29 -11 l-29 -11 q-12 -4 -26.5 -10 q-14.5 -6 -19.5 -6 q-9 0 -22 12 l-24 23 q-8 10 -24 24 q-8 8 -8 17 q0 12 13 13 q58 10 87.5 20 q29.5 10 33.5 11 q39 12 49 21 q10 9 15 9 q8 0 16 -2 q10 -2 33 -13.5 q23 -11.5 41 -27.5 q18 -16 18 -32 q0 -7 -3.5 -25.5 q-3.5 -18.5 -4.5 -44.5 l0 -90 q0 -23 1 -36 l1 -52 q0 -82 -21 -125 q-21 -41 -37 -41 q-12 0 -24 26 q-11 26 -21.5 36.5 q-10.5 10.5 -12.5 12.5 q-8 9 -12 21 q-3 -46 -13 -85 q50 -3 97 -30 ZM751 207 q-18 -36 -35 -36 q-13 0 -23 21 q-15 32 -28 47 q-12 14 -12 25 q0 7 5 12 q7 7 10.5 24.5 q3.5 17.5 3.5 33.5 l-1 49 q0 103 -22 154 q-2 5 1.5 9 q3.5 4 13.5 4 q16 0 30.5 -7 q14.5 -7 34.5 -20 q4 -2 9.5 -5.5 q5.5 -3.5 12.5 -7.5 q24 -13 24 -37 q0 -4 -2 -14 l0 -49 l0 -49 q0 -48 -4.5 -87 q-4.5 -39 -17.5 -67 ZM419 390 q0 8 1 17.5 q1 9.5 1 19.5 q0 26 -8 41 q-6 12 -7 20 l0 -2 l0 -70 q-1 -13 -0.5 -25 q0.5 -12 0.5 -21 q1 -13 1 -42 q0 -77 -19 -115 q-22 -45 -35 -45 q-10 0 -23 30 q-11 25 -21 35 q-10 10 -12 12 q-12 14 -12 24 q0 7 5 12 q8 8 10.5 22 q2.5 14 3.5 36 l4 70 q1 8 1 25 q0 63 -16 112 q-22 -33 -54 -73 q3 -1 4.5 -2 q1.5 -1 2.5 -2 q11 -7 18.5 -15.5 q7.5 -8.5 7.5 -24.5 q0 -4 -2 -16 l0 -235 q0 -24 1 -39 l1 -55 q0 -45 -5 -76 q4 7 11 13 q61 48 91 105 q30 57 38 110 q8 53 11 130 l1 24 Z" /><glyph glyph-name="uni4FB5" unicode="&#x4fb5;" d="M457 652 q-16 12 -31.5 27.5 q-15.5 15.5 -20.5 20.5 q-6 6 -6 15 q0 11 13 12 q61 3 179 29 q20 5 46 10 q38 7 51 14.5 q13 7.5 16 7.5 q5 0 18.5 -6 q13.5 -6 18.5 -8 q20 -9 51 -34.5 q31 -25.5 31 -43.5 q0 -8 -7 -12 q-19 -13 -31 -44.5 q-12 -31.5 -16 -66.5 q2 -3 10.5 -17.5 q8.5 -14.5 16.5 -35.5 q2 -8 2 -10 q0 -11 -10.5 -16 q-10.5 -5 -26.5 -3 q-37 3 -98 -7 q-61 -10 -144 -26 q-14 -3 -28.5 -8 q-14.5 -5 -18.5 -5 q-8 0 -16 10 q-14 17 -23 30 l-14 18 q-7 9 -7 18 q0 10 12 10 q27 0 99 13 q72 13 142 29 l14 62 l8 37 l1 8 q0 4 -2 5 q-2 1 -5 1 q-15 0 -162 -31 q-14 -3 -26.5 -7.5 q-12.5 -4.5 -16.5 -4.5 q-7 0 -19 9 ZM306 191 q0 -24 1 -38 l1 -53 q0 -88 -22 -133 q-13 -27 -22 -38.5 q-9 -11.5 -17 -11.5 q-6 0 -11.5 8 q-5.5 8 -13.5 26 q-12 27 -23 38.5 q-11 11.5 -13 13.5 q-13 14 -13 28 q0 7 5 12 q9 9 12.5 27.5 q3.5 18.5 3.5 36.5 l4 219 q0 21 -2 63 q-71 -83 -141 -133 q-17 -13 -30 -13 q-13 0 -13 13 q0 8 8 21 q106 159 212 345 q19 33 28.5 55 q9.5 22 7.5 40 q-2 19 5 34 q7 15 25 15 q10 0 19 -4 q26 -10 43 -31 q17 -21 25 -42 q8 -21 8 -30 q0 -28 -33 -67 q-42 -50 -94 -117 l16 -9 q11 -7 18.5 -15.5 q7.5 -8.5 7.5 -24.5 q0 -4 -2 -16 l0 -219 ZM525 562 q-13 -5 -24.5 -10 q-11.5 -5 -16.5 -5 q-8 0 -16 11 l-13 16 q-17 22 -21 28 q-6 8 -6 16 q0 9 11 9 q24 0 52 5.5 q28 5.5 71 16.5 l29 7 q6 2 20 2 q20 0 26 -9 q17 -22 25 -45 q8 -24 -29 -24 q-57 0 -108 -18 ZM964 -13 q9 -3 9 -11 q0 -6 -7.5 -9.5 q-7.5 -3.5 -22.5 -2.5 q-5 1 -14 1 q-46 0 -92 -42 q-21 -19 -37 -19 q-23 0 -58 29 q-69 59 -145 139 q-106 -102 -220 -126 q-19 -4 -33 -4 q-18 0 -18 8 q0 9 25 26 q124 84 187 158 l-22 21 q-24 20 -33.5 24.5 q-9.5 4.5 -29.5 4.5 q-16 0 -27 9.5 q-11 9.5 -11 22.5 q0 16 17 29 q15 12 38 12 q32 0 74 -29 l41 -29 q13 21 24 47 q5 12 5 13 q0 3 -9 0 q-9 -3 -14.5 -5.5 q-5.5 -2.5 -16.5 -6.5 q-5 -2 -17 -6 q-12 -4 -18 -4 q-6 0 -12.5 4.5 q-6.5 4.5 -8.5 5.5 q-28 21 -48 45 q-6 6 -6 15 q0 10 12 11 q39 2 65.5 7.5 q26.5 5.5 53.5 14.5 q32 10 39.5 17 q7.5 7 12.5 7 q8 0 14 -1 q39 -3 69 -38 l6 6 q13 11 27 27 q7 8 18 18 q5 4 5 7 q0 1 -2 1 q-6 0 -9 -1 q-79 -9 -191 -28.5 q-112 -19.5 -151 -30.5 l-1 0 q-10 -35 -27 -60.5 q-17 -25.5 -34 -38 q-17 -12.5 -29 -12.5 q-12 0 -11 12 q1 15 -1.5 29 q-2.5 14 -7.5 33 q-7 23 -7 34 q0 11 7 19 q18 20 28 42 q10 22 14 73 q0 10 1 15.5 q1 5.5 4 5.5 q1 0 17 -7 q25 -13 44 -39 q68 10 103 16 q211 30 247 35 q28 4 32.5 8.5 q4.5 4.5 5.5 4.5 q4 0 18 -5 q28 -10 60.5 -41 q32.5 -31 34.5 -49 q1 -6 1 -17 q0 -23 -7.5 -37 q-7.5 -14 -18.5 -14 q-92 0 -136 -16 q-13 -5 -27 -7 q10 -15 14 -35 q1 -8 -3.5 -13.5 q-4.5 -5.5 -16.5 -15.5 q-3 -2 -10.5 -8.5 q-7.5 -6.5 -11.5 -13.5 q-28 -45 -53 -76 q143 -96 302 -159 Z" /><glyph glyph-name="uni4FBF" unicode="&#x4fbf;" d="M950 13 q11 -3 11 -9 q0 -10 -28 -14 q-49 -9 -84 -56 q-9 -12 -18 -19 q-9 -7 -21 -7 q-19 0 -47 18 q-72 45 -123 82 q-51 37 -108 81 q-82 -107 -234 -133 q-4 -1 -12 -1 q-18 0 -22 9 q-19 -39 -33 -39 q-6 0 -11.5 8 q-5.5 8 -13.5 26 q-12 27 -23 38.5 q-11 11.5 -13 13.5 q-13 14 -13 28 q0 7 5 12 q9 9 12.5 27.5 q3.5 18.5 3.5 36.5 l4 219 q0 27 -1 42 q-55 -51 -119 -97 q-17 -13 -30 -13 q-13 0 -13 13 q0 8 8 21 q90 136 131 204 l0 0 q40 66 60 101 q19 33 28.5 55 q9.5 22 7.5 40 q-2 19 5 34 q7 15 25 15 q10 0 19 -4 q26 -10 43 -31 q17 -21 25 -42 q8 -21 8 -30 q0 -14 -6.5 -26.5 q-6.5 -12.5 -14.5 -23.5 q-8 -11 -12 -17 q-4 -7 -14 -21 q10 2 21 2 q13 -1 35 -7 q53 5 136 18 q0 22 -3 40 l-1 0 q-11 -3 -28 -11 q-12 -6 -19 -6 q-9 0 -21 12 l-18 16 q-39 36 -41 38 q-7 7 -7 19 q0 12 12 12 q67 3 118.5 13.5 q51.5 10.5 136.5 33.5 l43 11 q18 4 29 4 q25 0 32 -12 q9 -13 16 -26 q7 -13 15 -34 q3 -9 3 -15 q0 -10 -7 -15.5 q-7 -5.5 -19 -5.5 q-5 0 -15 2 q-17 4 -41 4 q-27 0 -67 -7 q10 -16 10 -32 q0 -7 -4 -21 l25 5 q43 8 57.5 16 q14.5 8 17.5 8 q6 0 22 -6 q16 -6 23 -9 q10 -4 30.5 -18.5 q20.5 -14.5 36.5 -31.5 q16 -17 16 -31 q0 -9 -9 -17 q-15 -11 -25.5 -38 q-10.5 -27 -25.5 -78 q-15 -51 -24 -76.5 q-9 -25.5 -22 -47.5 q-10 -17 -29 -17 q-21 0 -37 16 l-6 7 q-7 1 -17.5 2 q-10.5 1 -23.5 1 q-9 0 -13 -1 q-6 -1 -13.5 -2 q-7.5 -1 -17.5 -1 q-12 -51 -31 -94 q136 -74 368 -161 ZM283 -13 q115 43 178 158 q-2 1 -23 17 q-21 16 -31.5 22 q-10.5 6 -20.5 6 q-7 0 -18 -3 q-12 -2 -18 -2 q-16 0 -27 6.5 q-11 6.5 -11 17.5 q0 18 30 44 q23 20 50 20 q16 0 32 -6 q-16 16 -32 26 q-12 8 -17 17.5 q-5 9.5 0 16.5 q4 5 4 16 q0 8 -2.5 22 q-2.5 14 -3.5 22 q-2 35 -15.5 77 q-13.5 42 -32.5 73 q-2 2 -2 3 q-20 -29 -52 -69 q21 -15 21 -37 q0 -4 -2 -16 l0 -219 q0 -24 1 -37 l1 -53 q0 -84 -19 -127 q6 4 10 5 ZM724 508 q-16 0 -83 -8 l0 -16 l0 0 q17 5 29 5 q20 0 25 -11 q9 -17 20 -45 l15 62 l1 8 q0 5 -3 5 q-3 0 -4 0 ZM527 483 q-48 -7 -67 -13 l4 -20 l64 9 l-1 24 ZM630 359 q26 3 36 6 q21 3 23 3 q11 12 18 34 q-8 -2 -12 -2 l-11 1 l-20 1 q-8 0 -30 -2 l-4 -41 ZM521 346 l3 36 l-45 -12 q1 -3 6 -28 l36 4 ZM494 225 q5 14 10 32 q-10 -1 -17.5 -3 q-7.5 -2 -12.5 -3 q-1 -3 -2 -5.5 q-1 -2.5 -2 -4.5 l24 -16 Z" /><glyph glyph-name="uni4FC3" unicode="&#x4fc3;" d="M946 49 q10 -2 15.5 -6.5 q5.5 -4.5 5.5 -10.5 q0 -12 -24 -16 q-6 -1 -28.5 -4.5 q-22.5 -3.5 -34.5 -13 q-12 -9.5 -26 -30.5 q-19 -29 -51 -29 q-25 0 -66 19 q-45 20 -96 49 l-28 15 q-49 25 -83.5 56 q-34.5 31 -79.5 90 q-57 -78 -151 -152 l-13 -10 q-4 -24 -16 -50 q-13 -27 -22 -38.5 q-9 -11.5 -17 -11.5 q-6 0 -11.5 8 q-5.5 8 -13.5 26 q-12 27 -23 38.5 q-11 11.5 -13 13.5 q-13 14 -13 28 q0 7 5 12 q9 9 12.5 27.5 q3.5 18.5 3.5 36.5 l4 235 q0 23 -1 35 q-51 -45 -119 -94 q-17 -13 -30 -13 q-13 0 -13 13 q0 8 8 21 q78 117 133 204 l-2 4 q-1 1 -1 4 q0 10 14 11 q29 48 53 89 q19 33 28.5 55 q9.5 22 7.5 40 q-2 19 5 34 q7 15 25 15 q10 0 19 -4 q26 -10 43.5 -31.5 q17.5 -21.5 25.5 -43.5 l17 3 l13 1 q18 0 46 -7 q102 8 196 28 q40 8 54.5 16 q14.5 8 18.5 8 q5 0 21.5 -6.5 q16.5 -6.5 20.5 -8.5 q9 -4 27 -19.5 q18 -15.5 32 -34 q14 -18.5 14 -32.5 q0 -11 -10 -18 q-19 -13 -31.5 -42 q-12.5 -29 -18.5 -64 q6 -11 17 -36 q4 -8 4 -16 q0 -22 -38 -22 q-12 0 -38 2 l-37 1 q-14 0 -19 -1 l-9 -1 q5 -10 5 -21 q0 -5 -2 -17 l0 -45 q32 6 63 15 q17 5 32 5 q21 0 31 -11 q12 -15 18.5 -26 q6.5 -11 17.5 -37 q4 -12 4 -15 q0 -20 -39 -20 q-12 0 -36 2 q-24 2 -33 2 q-9 0 -13 -1 q-15 -3 -26.5 -4 q-11.5 -1 -18.5 -2 l0 -116 l21 -8 q68 -24 114.5 -36.5 q46.5 -12.5 149.5 -36.5 ZM489 234 q29 -27 63 -51 l1 116 q0 62 -4 92 q-4 -25 -15 -25 q-8 0 -31 20 q-19 17 -33 23.5 q-14 6.5 -18 8.5 q-13 7 -20 17 q-7 10 -3 17 q3 6 3 13 q0 13 -5 29 q-5 16 -6 19 l-7 25 q-14 59 -32 92 q-7 -20 -30 -55 q-35 -55 -78 -109 q18 -14 18 -36 q0 -5 -2 -15 l0 -235 q0 -23 1 -36 l1 -52 q37 60 74 138 q15 31 21 53 q6 22 5 43 q1 8 0.5 22 q-0.5 14 5 21.5 q5.5 7.5 20.5 7.5 q41 0 61 -22.5 q20 -22.5 26.5 -40.5 q6.5 -18 8.5 -22 q4 -7 1.5 -13 q-2.5 -6 -11.5 -19 q-10 -14 -13 -21 l-2 -5 ZM681 605 q-13 0 -57.5 -10.5 q-44.5 -10.5 -84.5 -22.5 q-4 -1 -7 -2 q-3 -1 -6 -2 l11 -52 l5 -14 q79 15 130 28 l7 35 q2 8 3 14 q1 6 3 11 q1 4 1 9 q0 6 -5 6 Z" /><glyph glyph-name="uni4FDD" unicode="&#x4fdd;" d="M940 96 q19 -14 19 -20 q0 -5 -12 -5 q-3 0 -19 2 q-4 1 -11 1 q-15 0 -27 -5 q-12 -5 -34 -17 q-14 -7 -30 -7 q-30 0 -51 21 q-27 25 -62.5 66 q-35.5 41 -65.5 83 l0 -45 q0 -22 1 -36 l1 -54 q0 -88 -22 -134 q-13 -27 -22 -38.5 q-9 -11.5 -17 -11.5 q-6 0 -11.5 8 q-5.5 8 -13.5 26 q-12 27 -23 38.5 q-11 11.5 -13 13.5 q-13 14 -13 28 q0 7 5 12 q9 9 12.5 27.5 q3.5 18.5 3.5 36.5 l2 119 q-36 -49 -82 -87.5 q-46 -38.5 -121 -71.5 q-31 -13 -43 -10 q-5 -48 -19 -75 q-13 -27 -22 -38.5 q-9 -11.5 -17 -11.5 q-6 0 -11.5 8 q-5.5 8 -13.5 26 q-12 27 -23 38.5 q-11 11.5 -13 13.5 q-13 14 -13 28 q0 7 5 12 q9 9 12.5 27.5 q3.5 18.5 3.5 36.5 l4 219 q0 21 -2 63 q-66 -71 -132 -119 q-17 -13 -30 -13 q-13 0 -13 13 q0 8 8 21 q116 175 201 323 q19 33 28.5 55 q9.5 22 7.5 40 q-2 19 5 34 q7 15 25 15 q10 0 19 -4 q36 -14 59 -54 q8 2 13 2 q13 1 29.5 -2 q16.5 -3 21.5 -4 q124 12 195 33 q35 10 51 18.5 q16 8.5 19 8.5 q4 0 16.5 -5.5 q12.5 -5.5 28.5 -12.5 q25 -10 61.5 -36 q36.5 -26 36.5 -48 q0 -7 -4 -12 q-32 -41 -52.5 -70.5 q-20.5 -29.5 -31.5 -57.5 q4 -6 13 -27 q4 -8 4 -16 q0 -11 -12 -16 q-12 -5 -32 -3 q-30 2 -46 2 q-18 0 -25 -1 q3 -7 3 -16 q0 -5 -2 -15 l0 -24 l45 7 l93 15 q17 3 36 3 q28 0 36 -12 q4 -6 12 -18.5 q8 -12.5 14 -26 q6 -13.5 13 -30.5 q4 -14 4 -18 q0 -12 -8.5 -19 q-8.5 -7 -22.5 -7 q-11 0 -22 4 q-52 17 -112 17 q-25 0 -49 -3 q122 -114 254 -208 ZM670 633 q-16 0 -59 -7.5 q-43 -7.5 -80 -19.5 q-9 -2 -27 -10 l11 -51 q9 -25 10 -29 l5 1 q97 20 124 30 q15 50 20 71 q1 4 1 9 q0 6 -5 6 ZM309 85 q74 70 141 163 q-19 -5 -33 -12 q-3 -1 -10 -3.5 q-7 -2.5 -11 -2.5 q-11 0 -26 15 q-6 6 -12 11 q-6 5 -10 9 q-29 25 -45 43 q-9 11 -9 24 q0 15 15 15 q81 3 218 25 q8 16 11 24 q0 10 -2 26 q-6 -3 -7 -4 q-6 -24 -16 -24 q-8 0 -30 20 q-20 18 -34 24 q-14 6 -17 8 q-15 8 -21 17 q-6 9 -2 17 q2 3 2 11 q0 11 -4.5 27 q-4.5 16 -6.5 23 q-5 22 -11 45 q-6 23 -15 41 q-6 -19 -30 -49 q-37 -43 -72 -87 l-18 -23 l14 -8 q11 -7 18.5 -15.5 q7.5 -8.5 7.5 -24.5 q0 -4 -2 -16 l0 -219 q0 -25 1 -40 q2 -49 1 -77 q4 6 15 17 Z" /></font>
</defs>
</svg>
