<?xml version="1.0" standalone="no"?><!DOCTYPE svg PUBLIC "-//W3C//DTD SVG 1.1//EN" "http://www.w3.org/Graphics/SVG/1.1/DTD/svg11.dtd" ><svg xmlns="http://www.w3.org/2000/svg"><metadata></metadata><defs><font id="HarmonyOS Sans SC Medium Version 1.0" horiz-adv-x="1000"><font-face font-family="HarmonyOS Sans SC Medium" font-weight="500" font-stretch="normal" units-per-em="1000" panose-1="0 0 6 0 0 0 0 0 0 0" ascent="928" descent="-244" x-height="0" bbox="-129 -244 986 867" underline-thickness="50" underline-position="-75" unicode-range="U+0020-ff5e" /><missing-glyph horiz-adv-x="1000"  /><glyph glyph-name="A" unicode="A" d="M382 732 l294 -732 l-117 0 l-75 196 l-297 0 l-72 -196 l-108 0 l283 732 l92 0 ZM448 290 l-116 302 l-110 -302 l226 0 Z" /><glyph glyph-name="B" unicode="B" d="M492 383 q132 -41 132 -175 q0 -99 -69 -153.5 q-69 -54.5 -199 -54.5 l-272 0 l0 732 l242 0 q117 0 187 -53.5 q70 -53.5 70 -146.5 q0 -103 -91 -149 ZM190 638 l0 -219 l121 0 q75 0 117 30 q42 30 42 81 q0 51 -42 79.5 q-42 28.5 -117 28.5 l-121 0 ZM341 94 q85 0 127.5 30.5 q42.5 30.5 42.5 86.5 q0 56 -42.5 87.5 q-42.5 31.5 -127.5 31.5 l-151 0 l0 -236 l151 0 Z" /><glyph glyph-name="C" unicode="C" d="M384 87 q59 0 101 29 q42 29 67 81 l88 -52 q-29 -71 -97 -113.5 q-68 -42.5 -157 -42.5 q-94 0 -171.5 47.5 q-77.5 47.5 -122.5 133.5 q-45 86 -45 197 q0 111 45 197 q45 86 122.5 133 q77.5 47 171.5 47 q89 0 157 -42.5 q68 -42.5 97 -113.5 l-88 -52 q-25 52 -67 81 q-42 29 -101 29 q-65 0 -116 -34.5 q-51 -34.5 -79 -98 q-28 -63.5 -28 -146.5 q0 -83 28 -146.5 q28 -63.5 79 -98.5 q51 -35 116 -35 Z" /><glyph glyph-name="D" unicode="D" d="M298 732 q107 0 193 -43 q86 -43 135 -126 q49 -83 49 -196 q0 -115 -49 -197.5 q-49 -82.5 -134.5 -126 q-85.5 -43.5 -193.5 -43.5 l-214 0 l0 732 l214 0 ZM284 94 q131 0 204.5 71.5 q73.5 71.5 73.5 201.5 q0 129 -73.5 200.5 q-73.5 71.5 -204.5 71.5 l-93 0 l0 -545 l93 0 Z" /><glyph glyph-name="E" unicode="E" d="M505 329 l-314 0 l0 -234 l362 0 l0 -95 l-469 0 l0 733 l458 0 l0 -95 l-351 0 l0 -215 l314 0 l0 -94 Z" /><glyph glyph-name="F" unicode="F" d="M84 732 l458 0 l0 -95 l-351 0 l0 -227 l314 0 l0 -95 l-314 0 l0 -315 l-107 0 l0 732 Z" /><glyph glyph-name="G" unicode="G" d="M406 296 l0 95 l256 0 l0 -290 q-33 -49 -102.5 -80.5 q-69.5 -31.5 -155.5 -31.5 q-103 0 -184 47.5 q-81 47.5 -127 134 q-46 86.5 -46 197.5 q0 111 46.5 196.5 q46.5 85.5 127 132.5 q80.5 47 178.5 47 q92 0 161.5 -39.5 q69.5 -39.5 98.5 -107.5 l-88 -51 q-23 45 -69 72.5 q-46 27.5 -107 27.5 q-68 0 -121.5 -34.5 q-53.5 -34.5 -83.5 -98 q-30 -63.5 -30 -145.5 q0 -84 31 -147.5 q31 -63.5 88 -98.5 q57 -35 132 -35 q96 0 144 51 l0 158 l-149 0 Z" /><glyph glyph-name="H" unicode="H" d="M191 428 l373 0 l0 304 l107 0 l0 -732 l-107 0 l0 332 l-373 0 l0 -332 l-107 0 l0 732 l107 0 l0 -304 Z" /><glyph glyph-name="I" unicode="I" d="M191 0 l-107 0 l0 732 l107 0 l0 -732 Z" /><glyph glyph-name="J" unicode="J" d="M192 -11 q-71 0 -123 34 q-52 34 -69 105 l86 48 q26 -89 106 -89 q54 0 78.5 39.5 q24.5 39.5 24.5 115.5 l0 490 l107 0 l0 -501 q0 -126 -59 -184 q-59 -58 -151 -58 Z" /><glyph glyph-name="K" unicode="K" d="M377 424 l318 -424 l-138 0 l-256 343 l-110 -116 l0 -227 l-107 0 l0 732 l107 0 l0 -373 l340 373 l138 0 l-292 -308 Z" /><glyph glyph-name="L" unicode="L" d="M84 732 l107 0 l0 -636 l352 0 l0 -96 l-459 0 l0 732 Z" /><glyph glyph-name="M" unicode="M" d="M700 732 l85 0 l0 -732 l-104 0 l0 530 l-216 -339 l-61 0 l-218 341 l0 -532 l-102 0 l0 732 l90 0 l263 -417 l263 417 Z" /><glyph glyph-name="N" unicode="N" d="M173 732 l390 -544 l0 544 l100 0 l0 -732 l-89 0 l-390 545 l0 -545 l-100 0 l0 732 l89 0 Z" /><glyph glyph-name="O" unicode="O" d="M47 367 q0 114 44 199.5 q44 85.5 121 131.5 q77 46 172 46 q95 0 172 -46 q77 -46 121 -131.5 q44 -85.5 44 -199.5 q0 -115 -44.5 -200.5 q-44.5 -85.5 -121 -131.5 q-76.5 -46 -171.5 -46 q-95 0 -172 45.5 q-77 45.5 -121 131.5 q-44 86 -44 201 ZM161 367 q0 -83 27.5 -146.5 q27.5 -63.5 77.5 -98.5 q50 -35 118 -35 q68 0 118.5 35 q50.5 35 78 98.5 q27.5 63.5 27.5 146.5 q0 83 -27.5 146 q-27.5 63 -78.5 98 q-51 35 -118 35 q-67 0 -117.5 -35 q-50.5 -35 -78 -98 q-27.5 -63 -27.5 -146 Z" /><glyph glyph-name="P" unicode="P" d="M318 732 q78 0 139 -29 q61 -29 94.5 -82 q33.5 -53 33.5 -121 q0 -68 -33.5 -120.5 q-33.5 -52.5 -94 -81.5 q-60.5 -29 -139.5 -29 l-127 0 l0 -269 l-107 0 l0 732 l234 0 ZM305 362 q79 0 122.5 37.5 q43.5 37.5 43.5 100.5 q0 63 -43.5 101 q-43.5 38 -122.5 38 l-114 0 l0 -277 l114 0 Z" /><glyph glyph-name="Q" unicode="Q" d="M784 -157 l-156 0 l-189 150 q-24 -4 -55 -4 q-95 0 -172 45.5 q-77 45.5 -121 131.5 q-44 86 -44 201 q0 114 44 199.5 q44 85.5 121 131.5 q77 46 172 46 q95 0 172 -46 q77 -46 121 -131.5 q44 -85.5 44 -199.5 q0 -116 -45 -203 q-45 -87 -124 -132 l232 -189 ZM161 367 q0 -83 27.5 -146.5 q27.5 -63.5 77.5 -98.5 q50 -35 118 -35 q68 0 118.5 35 q50.5 35 78 98.5 q27.5 63.5 27.5 146.5 q0 83 -27.5 146 q-27.5 63 -78.5 98 q-51 35 -118 35 q-67 0 -117.5 -35 q-50.5 -35 -78 -98 q-27.5 -63 -27.5 -146 Z" /><glyph glyph-name="R" unicode="R" d="M656 0 l-130 0 l-201 288 l-8 0 l-126 0 l0 -288 l-107 0 l0 732 l234 0 q78 0 138.5 -28 q60.5 -28 94 -78.5 q33.5 -50.5 33.5 -116.5 q0 -71 -39.5 -124 q-39.5 -53 -108.5 -77 l220 -308 ZM191 639 l0 -258 l114 0 q78 0 122 34 q44 34 44 94 q0 60 -44 95 q-44 35 -122 35 l-114 0 Z" /><glyph glyph-name="S" unicode="S" d="M555 206 q0 -67 -32.5 -116 q-32.5 -49 -90 -75 q-57.5 -26 -132.5 -26 q-105 0 -183 49.5 q-78 49.5 -103 132.5 l87 50 q26 -64 77 -99 q51 -35 125 -35 q66 0 102.5 28.5 q36.5 28.5 36.5 79.5 q0 41 -23.5 67.5 q-23.5 26.5 -58.5 41 q-35 14.5 -95 32.5 q-73 22 -116 41.5 q-43 19.5 -73.5 58 q-30.5 38.5 -30.5 101.5 q0 66 34 113 q34 47 91.5 70.5 q57.5 23.5 128.5 23.5 q98 0 161 -43 q63 -43 84 -112 l-87 -51 q-45 109 -162 109 q-62 0 -99.5 -27.5 q-37.5 -27.5 -37.5 -74.5 q0 -35 21.5 -57 q21.5 -22 54 -35.5 q32.5 -13.5 88.5 -29.5 q74 -22 120.5 -43 q46.5 -21 79.5 -63 q33 -42 33 -111 Z" /><glyph glyph-name="T" unicode="T" d="M11 732 l559 0 l0 -95 l-226 0 l0 -637 l-108 0 l0 637 l-225 0 l0 95 Z" /><glyph glyph-name="U" unicode="U" d="M556 732 l108 0 l0 -436 q0 -94 -35 -163.5 q-35 -69.5 -101 -106.5 q-66 -37 -158 -37 q-92 0 -158 37 q-66 37 -101 106.5 q-35 69.5 -35 163.5 l0 436 l108 0 l0 -415 q0 -113 48 -171.5 q48 -58.5 138 -58.5 q90 0 138 58.5 q48 58.5 48 171.5 l0 415 Z" /><glyph glyph-name="V" unicode="V" d="M127 732 l221 -585 l211 585 l111 0 l-280 -732 l-91 0 l-292 732 l120 0 Z" /><glyph glyph-name="W" unicode="W" d="M539 733 l171 -556 l157 555 l104 0 l-224 -732 l-84 0 l-171 538 l-165 -538 l-83 0 l-236 732 l113 0 l170 -555 l159 556 l89 0 Z" /><glyph glyph-name="X" unicode="X" d="M658 732 l-258 -360 l267 -372 l-132 0 l-201 285 l-200 -285 l-124 0 l266 371 l-258 361 l132 0 l192 -275 l192 275 l124 0 Z" /><glyph glyph-name="Y" unicode="Y" d="M329 410 l184 323 l117 0 l-253 -430 l0 -303 l-107 0 l0 305 l-263 428 l127 0 l195 -323 Z" /><glyph glyph-name="Z" unicode="Z" d="M546 732 l0 -55 l-375 -581 l389 0 l0 -96 l-538 0 l0 56 l376 581 l-345 0 l0 95 l493 0 Z" /><glyph glyph-name="a" unicode="a" d="M279 531 q93 0 150.5 -55 q57.5 -55 57.5 -158 l0 -318 l-89 0 q-2 45 -5 64 q-48 -75 -154 -75 q-52 0 -95.5 19 q-43.5 19 -69.5 55 q-26 36 -26 87 q0 77 63 122 q63 45 161 45 q55 0 113 -15 l0 2 q0 71 -28 104.5 q-28 33.5 -84 33.5 q-45 0 -75.5 -19.5 q-30.5 -19.5 -51.5 -56.5 l-76 44 q25 55 81 88 q56 33 128 33 ZM385 224 q-60 15 -105 15 q-60 0 -93 -23 q-33 -23 -33 -64 q0 -37 27 -58.5 q27 -21.5 71 -21.5 q55 0 94 31.5 q39 31.5 39 87.5 l0 33 Z" /><glyph glyph-name="b" unicode="b" d="M342 531 q60 0 112.5 -32.5 q52.5 -32.5 84.5 -94 q32 -61.5 32 -144.5 q0 -84 -32 -145.5 q-32 -61.5 -84.5 -93.5 q-52.5 -32 -112.5 -32 q-52 0 -98 24 q-46 24 -74 72 q-4 -39 -6 -85 l-91 0 l0 761 l103 0 l0 -318 q28 44 71.5 66 q43.5 22 94.5 22 ZM324 81 q63 0 101.5 47.5 q38.5 47.5 38.5 131.5 q0 83 -38 129.5 q-38 46.5 -102 46.5 q-61 0 -104.5 -43 q-43.5 -43 -43.5 -133 q0 -91 43.5 -135 q43.5 -44 104.5 -44 Z" /><glyph glyph-name="c" unicode="c" d="M296 82 q70 0 112 65 l79 -46 q-27 -56 -76.5 -84 q-49.5 -28 -113.5 -28 q-70 0 -128 33 q-58 33 -92 94.5 q-34 61.5 -34 143.5 q0 82 34 143.5 q34 61.5 92 94.5 q58 33 128 33 q64 0 113.5 -28 q49.5 -28 76.5 -84 l-79 -46 q-42 64 -112 64 q-65 0 -105 -47.5 q-40 -47.5 -40 -129.5 q0 -83 40 -130.5 q40 -47.5 105 -47.5 Z" /><glyph glyph-name="d" unicode="d" d="M439 761 l102 0 l0 -761 l-90 0 q-5 68 -7 85 q-28 -48 -73.5 -72 q-45.5 -24 -96.5 -24 q-61 0 -114 32 q-53 32 -85 93.5 q-32 61.5 -32 145.5 q0 83 32 144.5 q32 61.5 85 94 q53 32.5 114 32.5 q49 0 92.5 -22 q43.5 -22 72.5 -65 l0 317 ZM291 81 q61 0 104.5 44 q43.5 44 43.5 135 q0 90 -43.5 133 q-43.5 43 -104.5 43 q-64 0 -102.5 -46 q-38.5 -46 -38.5 -130 q0 -85 38.5 -132 q38.5 -47 102.5 -47 Z" /><glyph glyph-name="e" unicode="e" d="M294 531 q68 0 119 -31.5 q51 -31.5 79 -86 q28 -54.5 28 -122.5 q0 -23 -5 -55 l-364 0 q6 -78 48 -117.5 q42 -39.5 105 -39.5 q82 0 119 68 l77 -45 q-20 -54 -76 -83.5 q-56 -29.5 -125 -29.5 q-71 0 -129 31.5 q-58 31.5 -92.5 93.5 q-34.5 62 -34.5 148 q0 84 34.5 145 q34.5 61 92 92.5 q57.5 31.5 124.5 31.5 ZM290 441 q-51 0 -88.5 -32.5 q-37.5 -32.5 -47.5 -94.5 l258 0 q-4 60 -37 93.5 q-33 33.5 -85 33.5 Z" /><glyph glyph-name="eacute" unicode="é" d="M243 589 l84 158 l109 0 l-107 -158 l-86 0 ZM294 531 q68 0 119 -31.5 q51 -31.5 79 -86 q28 -54.5 28 -122.5 q0 -23 -5 -55 l-364 0 q6 -78 48 -117.5 q42 -39.5 105 -39.5 q82 0 119 68 l77 -45 q-20 -54 -76 -83.5 q-56 -29.5 -125 -29.5 q-71 0 -129 31.5 q-58 31.5 -92.5 93.5 q-34.5 62 -34.5 148 q0 84 34.5 145 q34.5 61 92 92.5 q57.5 31.5 124.5 31.5 ZM290 441 q-51 0 -88.5 -32.5 q-37.5 -32.5 -47.5 -94.5 l258 0 q-4 60 -37 93.5 q-33 33.5 -85 33.5 Z" /><glyph glyph-name="f" unicode="f" d="M290 679 q-40 0 -60.5 -27 q-20.5 -27 -20.5 -93 l0 -40 l135 0 l0 -87 l-135 0 l0 -432 l-103 0 l0 432 l-90 0 l0 87 l90 0 l0 43 q0 108 50 159.5 q50 51.5 128 51.5 q36 0 65 -10 q29 -10 46 -26 l-40 -78 q-29 20 -65 20 Z" /><glyph glyph-name="g" unicode="g" d="M541 519 l0 -479 q0 -153 -74.5 -218.5 q-74.5 -65.5 -178.5 -65.5 q-80 0 -141.5 34 q-61.5 34 -84.5 95 l81 47 q39 -82 145 -82 q73 0 112 44.5 q39 44.5 39 150.5 l3 35 q-28 -46 -71.5 -68.5 q-43.5 -22.5 -94.5 -22.5 q-61 0 -114.5 32.5 q-53.5 32.5 -86 94 q-32.5 61.5 -32.5 144.5 q0 84 32.5 145.5 q32.5 61.5 86 93.5 q53.5 32 114.5 32 q51 0 96 -24 q45 -24 72 -72 q6 58 7 84 l90 0 ZM291 81 q61 0 104.5 44 q43.5 44 43.5 135 q0 90 -43.5 133 q-43.5 43 -104.5 43 q-64 0 -102.5 -46 q-38.5 -46 -38.5 -130 q0 -85 38.5 -132 q38.5 -47 102.5 -47 Z" /><glyph glyph-name="h" unicode="h" d="M339 531 q83 0 133.5 -55.5 q50.5 -55.5 50.5 -158.5 l0 -317 l-103 0 l0 286 q0 72 -27 111 q-27 39 -82 39 q-56 0 -95.5 -39.5 q-39.5 -39.5 -39.5 -112.5 l0 -284 l-103 0 l0 761 l103 0 l0 -317 q26 43 68.5 65 q42.5 22 94.5 22 Z" /><glyph glyph-name="i" unicode="i" d="M124 603 q-26 0 -45 20 q-19 20 -19 47 q0 27 19 46.5 q19 19.5 45 19.5 q28 0 47 -19.5 q19 -19.5 19 -46.5 q0 -27 -19.5 -47 q-19.5 -20 -46.5 -20 ZM176 0 l-103 0 l0 519 l103 0 l0 -519 Z" /><glyph glyph-name="j" unicode="j" d="M123 603 q-26 0 -45 20 q-19 20 -19 47 q0 27 19 46.5 q19 19.5 45 19.5 q28 0 47 -19.5 q19 -19.5 19 -46.5 q0 -27 -19.5 -47 q-19.5 -20 -46.5 -20 ZM-6 -244 q-35 0 -68.5 12 q-33.5 12 -54.5 36 l59 73 q14 -15 28 -21.5 q14 -6.5 31 -6.5 q84 0 84 123 l0 547 l103 0 l0 -553 q0 -72 -26 -119 q-26 -47 -67 -69 q-41 -22 -89 -22 Z" /><glyph glyph-name="k" unicode="k" d="M332 306 l213 -306 l-126 0 l-157 228 l-86 -96 l0 -132 l-103 0 l0 761 l103 0 l0 -500 l224 258 l123 0 l-191 -213 Z" /><glyph glyph-name="l" unicode="l" d="M176 0 l-103 0 l0 761 l103 0 l0 -761 Z" /><glyph glyph-name="m" unicode="m" d="M628 531 q74 0 120.5 -54.5 q46.5 -54.5 46.5 -156.5 l0 -320 l-100 0 l0 286 q0 71 -24 110.5 q-24 39.5 -72 39.5 q-49 0 -81.5 -39.5 q-32.5 -39.5 -32.5 -112.5 l0 -284 l-101 0 l0 286 q0 72 -23.5 111 q-23.5 39 -71.5 39 q-49 0 -81.5 -40 q-32.5 -40 -32.5 -112 l0 -284 l-102 0 l0 519 l90 0 q1 -32 5 -78 q26 45 65 67.5 q39 22.5 86 22.5 q52 0 91.5 -27.5 q39.5 -27.5 58.5 -80.5 q25 54 66.5 81 q41.5 27 92.5 27 Z" /><glyph glyph-name="n" unicode="n" d="M339 531 q84 0 134 -55 q50 -55 50 -159 l0 -317 l-103 0 l0 286 q0 72 -27 111 q-27 39 -82 39 q-56 0 -95.5 -39.5 q-39.5 -39.5 -39.5 -112.5 l0 -284 l-103 0 l0 519 l91 0 q2 -49 6 -85 q26 48 69.5 72.5 q43.5 24.5 99.5 24.5 Z" /><glyph glyph-name="o" unicode="o" d="M43 260 q0 79 35 141 q35 62 93.5 96 q58.5 34 126.5 34 q67 0 125 -34 q58 -34 93 -96 q35 -62 35 -141 q0 -79 -35 -141 q-35 -62 -93 -96 q-58 -34 -125 -34 q-68 0 -126.5 34 q-58.5 34 -93.5 96 q-35 62 -35 141 ZM151 260 q0 -82 41.5 -130 q41.5 -48 104.5 -48 q64 0 105 48 q41 48 41 130 q0 82 -41.5 130 q-41.5 48 -104.5 48 q-63 0 -104.5 -48 q-41.5 -48 -41.5 -130 Z" /><glyph glyph-name="p" unicode="p" d="M342 531 q60 0 112.5 -32.5 q52.5 -32.5 84.5 -94 q32 -61.5 32 -144.5 q0 -84 -32 -145.5 q-32 -61.5 -84.5 -93.5 q-52.5 -32 -112.5 -32 q-50 0 -94 22 q-44 22 -72 66 l0 -309 l-103 0 l0 751 l91 0 q2 -50 6 -85 q28 48 73.5 72.5 q45.5 24.5 98.5 24.5 ZM324 83 q64 0 102 46.5 q38 46.5 38 130.5 q0 83 -38.5 130.5 q-38.5 47.5 -101.5 47.5 q-61 0 -104.5 -44 q-43.5 -44 -43.5 -134 q0 -91 43.5 -134 q43.5 -43 104.5 -43 Z" /><glyph glyph-name="q" unicode="q" d="M541 519 l0 -751 l-102 0 l0 308 q-29 -44 -73 -65.5 q-44 -21.5 -92 -21.5 q-61 0 -114 32 q-53 32 -85 93.5 q-32 61.5 -32 145.5 q0 83 32 144.5 q32 61.5 85 94 q53 32.5 114 32.5 q52 0 97.5 -24 q45.5 -24 72.5 -72 q6 59 7 84 l90 0 ZM291 83 q61 0 104.5 43 q43.5 43 43.5 134 q0 90 -43.5 134 q-43.5 44 -104.5 44 q-64 0 -102.5 -47 q-38.5 -47 -38.5 -131 q0 -84 38.5 -130.5 q38.5 -46.5 102.5 -46.5 Z" /><glyph glyph-name="r" unicode="r" d="M310 531 q26 0 48.5 -7 q22.5 -7 35.5 -19 l-39 -81 q-23 14 -51 14 q-57 0 -92.5 -47 q-35.5 -47 -35.5 -134 l0 -257 l-103 0 l0 519 l91 0 q2 -48 6 -84 q23 48 58.5 72 q35.5 24 81.5 24 Z" /><glyph glyph-name="s" unicode="s" d="M434 150 q0 -73 -55.5 -117 q-55.5 -44 -144.5 -44 q-79 0 -135 34 q-56 34 -75 94 l77 45 q17 -42 51 -63.5 q34 -21.5 82 -21.5 q43 0 68.5 17.5 q25.5 17.5 25.5 48.5 q0 24 -15.5 39.5 q-15.5 15.5 -39 24.5 q-23.5 9 -64.5 21 q-54 15 -86.5 29 q-32.5 14 -56 41.5 q-23.5 27.5 -23.5 73.5 q0 48 26.5 84.5 q26.5 36.5 71 55.5 q44.5 19 98.5 19 q71 0 121.5 -31 q50.5 -31 67.5 -84 l-77 -44 q-15 33 -44.5 51 q-29.5 18 -70.5 18 q-39 0 -63 -15.5 q-24 -15.5 -24 -44.5 q0 -22 14.5 -35.5 q14.5 -13.5 36.5 -22 q22 -8.5 62 -19.5 q54 -15 88.5 -30 q34.5 -15 59 -45 q24.5 -30 24.5 -79 Z" /><glyph glyph-name="t" unicode="t" d="M381 21 q-44 -32 -117 -32 q-74 0 -120.5 41 q-46.5 41 -46.5 146 l0 255 l-88 0 l0 88 l88 0 l0 150 l102 0 l0 -150 l153 0 l0 -88 l-153 0 l0 -241 q0 -108 80 -108 q36 0 67 19 l35 -80 Z" /><glyph glyph-name="u" unicode="u" d="M412 519 l103 0 l0 -519 l-91 0 q-2 50 -7 84 q-25 -48 -69 -71.5 q-44 -23.5 -98 -23.5 q-84 0 -134 55 q-50 55 -50 159 l0 316 l102 0 l0 -286 q0 -71 27 -110.5 q27 -39.5 82 -39.5 q56 0 95.5 40 q39.5 40 39.5 113 l0 283 Z" /><glyph glyph-name="v" unicode="v" d="M124 519 l151 -385 l142 385 l107 0 l-213 -519 l-83 0 l-220 519 l116 0 Z" /><glyph glyph-name="w" unicode="w" d="M442 519 l127 -368 l118 368 l98 0 l-185 -519 l-70 0 l-132 359 l-126 -359 l-71 0 l-193 519 l107 0 l127 -370 l117 370 l83 0 Z" /><glyph glyph-name="x" unicode="x" d="M259 339 l128 180 l115 0 l-189 -258 l189 -261 l-122 0 l-126 180 l-128 -180 l-117 0 l190 257 l-190 262 l124 0 l126 -180 Z" /><glyph glyph-name="y" unicode="y" d="M421 519 l107 0 l-240 -605 q-33 -85 -73.5 -121.5 q-40.5 -36.5 -108.5 -36.5 q-65 0 -105 34 l40 81 q28 -21 65 -21 q32 0 53.5 21.5 q21.5 21.5 47.5 83.5 l17 39 l-219 525 l117 0 l154 -398 l145 398 Z" /><glyph glyph-name="z" unicode="z" d="M434 518 l0 -56 l-265 -377 l277 0 l0 -85 l-415 0 l0 58 l266 376 l-249 0 l0 84 l386 0 Z" /><glyph glyph-name="uni03A9" unicode="&#x3a9;" d="M728 96 l0 -96 l-288 0 l0 109 q78 41 119.5 110.5 q41.5 69.5 41.5 167.5 q0 119 -58 189 q-58 70 -159 70 q-101 0 -158.5 -70 q-57.5 -70 -57.5 -189 q0 -194 161 -278 l0 -109 l-289 0 l0 96 l161 0 q-147 104 -147 296 q0 105 43 185 q43 80 118 123.5 q75 43.5 169 43.5 q94 0 169 -43.5 q75 -43.5 118 -123.5 q43 -80 43 -185 q0 -192 -146 -296 l160 0 Z" /><glyph glyph-name="gamma" unicode="&#x3b3;" d="M481 421 q0 -102 -42.5 -207.5 q-42.5 -105.5 -139.5 -227.5 l0 -218 l-103 0 l0 198 l-188 553 l116 0 l135 -443 q64 99 91 181.5 q27 82.5 27 162.5 q0 39 -10 99 l104 0 q10 -62 10 -98 Z" /><glyph glyph-name="delta" unicode="&#x3b4;" d="M435 503 q116 -101 116 -240 q0 -81 -35 -143.5 q-35 -62.5 -93 -96.5 q-58 -34 -125 -34 q-68 0 -126.5 34 q-58.5 34 -93.5 96 q-35 62 -35 141 q0 74 31 132 q31 58 84 91.5 q53 33.5 116 38.5 l-179 156 l0 74 l377 0 l0 -87 l-221 0 l184 -162 ZM298 82 q63 0 104 48 q41 48 41 130 q0 55 -19 95 q-19 40 -52 61.5 q-33 21.5 -74 21.5 q-64 0 -105.5 -48 q-41.5 -48 -41.5 -130 q0 -83 41.5 -130.5 q41.5 -47.5 105.5 -47.5 Z" /><glyph glyph-name="zeta" unicode="&#x3b6;" d="M325 78 q90 -26 131 -57.5 q41 -31.5 41 -87.5 q0 -46 -26 -78.5 q-26 -32.5 -76 -61.5 l-52 58 q27 17 37.5 32 q10.5 15 10.5 32 q0 28 -26.5 45 q-26.5 17 -85.5 32 q-66 16 -116 41.5 q-50 25.5 -83 75.5 q-33 50 -33 129 q0 113 71.5 226.5 q71.5 113.5 208.5 209.5 l-255 0 l0 87 l405 0 l0 -71 q-322 -214 -322 -437 q0 -58 22.5 -92 q22.5 -34 57 -50.5 q34.5 -16.5 90.5 -32.5 Z" /><glyph glyph-name="pi" unicode="&#x3c0;" d="M597 6 q-36 -17 -83 -17 q-66 0 -96.5 36 q-30.5 36 -30.5 111 l0 295 l-183 0 l0 -431 l-102 0 l0 431 l-94 0 l0 88 l577 0 l0 -88 l-96 0 l0 -280 q0 -38 13.5 -53 q13.5 -15 39.5 -15 q24 0 43 9 l12 -86 Z" /><glyph glyph-name="phi" unicode="&#x3c6;" d="M704 260 q0 -78 -37.5 -135.5 q-37.5 -57.5 -101 -91 q-63.5 -33.5 -140.5 -42.5 l0 -223 l-101 0 l0 223 q-78 9 -141.5 42 q-63.5 33 -101.5 91 q-38 58 -38 136 q0 78 38 135.5 q38 57.5 101.5 91 q63.5 33.5 141.5 41.5 l0 163 l101 0 l0 -163 q77 -8 140.5 -41.5 q63.5 -33.5 101 -91 q37.5 -57.5 37.5 -135.5 ZM150 260 q0 -76 48 -120.5 q48 -44.5 126 -54.5 l0 349 q-77 -10 -125.5 -54 q-48.5 -44 -48.5 -120 ZM425 86 q77 10 124 54 q47 44 47 120 q0 76 -47.5 119.5 q-47.5 43.5 -123.5 53.5 l0 -347 Z" /><glyph glyph-name="uni4E00" unicode="&#x4e00;" d="M48 462 l904 0 l0 -103 l-904 0 l0 103 Z" /><glyph glyph-name="uni4E03" unicode="&#x4e03;" d="M810 262 l96 -24 l-8 -157 q-4 -71 -39.5 -100 q-35.5 -29 -113.5 -34 q-52 -4 -120 -4 q-67 0 -120 4 q-57 4 -90 20 q-33 16 -48.5 50 q-15.5 34 -15.5 93 l0 300 l-293 -47 l-15 98 l308 49 l0 323 l100 0 l0 -306 l495 79 l13 -97 l-508 -82 l0 -297 q0 -34 5 -52 q5 -18 19.5 -26.5 q14.5 -8.5 44.5 -10.5 q68 -4 101 -4 q35 0 101 4 q34 2 49.5 9.5 q15.5 7.5 22 25.5 q6.5 18 9.5 56 l7 130 Z" /><glyph glyph-name="uni4E07" unicode="&#x4e07;" d="M428 688 q-3 -74 -10 -148 l-1 -12 l424 0 q-3 -106 -11 -222.5 q-8 -116.5 -17 -192.5 q-10 -73 -29.5 -108 q-19.5 -35 -58 -47.5 q-38.5 -12.5 -114.5 -12.5 q-36 0 -102 6 l-17 95 q61 -8 128 -8 q33 0 50.5 8 q17.5 8 27.5 29.5 q10 21.5 16 62.5 q8 62 15.5 149 q7.5 87 8.5 150 l-333 0 q-17 -113 -47.5 -197 q-30.5 -84 -87 -159.5 q-56.5 -75.5 -151.5 -154.5 l-74 70 q102 84 156.5 158 q54.5 74 80 162 q25.5 88 37.5 225 q8 87 10 147 l-270 0 l0 87 l883 0 l0 -87 l-514 0 Z" /><glyph glyph-name="uni4E09" unicode="&#x4e09;" d="M112 761 l775 0 l0 -98 l-775 0 l0 98 ZM158 443 l684 0 l0 -96 l-684 0 l0 96 ZM55 75 l890 0 l0 -97 l-890 0 l0 97 Z" /><glyph glyph-name="uni4E0A" unicode="&#x4e0a;" d="M516 463 l0 -407 l428 0 l0 -92 l-887 0 l0 92 l358 0 l0 782 l101 0 l0 -282 l363 0 l0 -93 l-363 0 Z" /><glyph glyph-name="uni4E0B" unicode="&#x4e0b;" d="M943 681 l-418 0 l0 -133 q276 -157 362 -213 l-54 -88 q-87 59 -308 190 l0 -509 l-101 0 l0 753 l-366 0 l0 93 l885 0 l0 -93 Z" /><glyph glyph-name="uni4E0D" unicode="&#x4e0d;" d="M608 682 q-38 -66 -59 -98 l0 -657 l-98 0 l0 523 q-139 -170 -345 -323 l-60 87 q148 102 261.5 221.5 q113.5 119.5 187.5 246.5 l-412 0 l0 97 l839 0 l0 -97 l-314 0 ZM625 506 q71 -55 170 -141.5 q99 -86.5 158 -144.5 l-71 -81 q-57 61 -150 146.5 q-93 85.5 -167 147.5 l60 73 Z" /><glyph glyph-name="uni4E0E" unicode="&#x4e0e;" d="M918 618 l-612 0 l-10 -137 l576 0 q-3 -193 -25 -374 q-9 -71 -24.5 -106 q-15.5 -35 -49.5 -50 q-34 -15 -102 -16 l-40 0 q-86 0 -145 6 l-18 92 q82 -8 151 -8 q55 0 78.5 6 q23.5 6 34.5 27 q11 21 18 70 q17 117 19 257 l-582 0 l35 443 l100 0 l-9 -118 l605 0 l0 -92 ZM46 265 l652 0 l0 -92 l-652 0 l0 92 Z" /><glyph glyph-name="uni4E13" unicode="&#x4e13;" d="M943 448 l-560 0 q-27 -67 -45 -105 l501 0 l0 -87 q-84 -91 -205 -195 q110 -39 180 -66 l-36 -87 q-125 49 -303 112.5 q-178 63.5 -302 102.5 l29 84 q120 -36 332 -111 q95 76 176 160 l-484 0 l0 75 q27 53 54 117 l-224 0 l0 87 l258 0 q26 72 38 109 l-244 0 l0 87 l271 0 q23 82 30 113 l95 -12 q-17 -72 -26 -101 l413 0 l0 -87 l-439 0 q-13 -43 -25 -77 q-3 -9 -5.5 -17 q-2.5 -8 -5.5 -15 l527 0 l0 -87 Z" /><glyph glyph-name="uni4E14" unicode="&#x4e14;" d="M815 801 l0 -751 l141 0 l0 -88 l-912 0 l0 88 l141 0 l0 751 l630 0 ZM718 555 l0 154 l-437 0 l0 -154 l437 0 ZM281 309 l437 0 l0 157 l-437 0 l0 -157 ZM718 220 l-437 0 l0 -170 l437 0 l0 170 Z" /><glyph glyph-name="uni4E16" unicode="&#x4e16;" d="M805 518 l0 -318 l-387 0 l0 318 l-151 0 l0 -467 l652 0 l0 -91 l-750 0 l0 558 l-122 0 l0 92 l122 0 l0 196 l98 0 l0 -196 l151 0 l0 221 l96 0 l0 -221 l197 0 l0 222 l94 0 l0 -222 l148 0 l0 -92 l-148 0 ZM711 292 l0 226 l-197 0 l0 -226 l197 0 Z" /><glyph glyph-name="uni4E19" unicode="&#x4e19;" d="M940 695 l-393 0 l-1 -120 l333 0 l0 -505 q0 -53 -12 -82.5 q-12 -29.5 -41 -42 q-29 -12.5 -82 -12.5 q-67 -2 -120 5 l-18 94 q63 -7 107 -7 q32 0 47.5 6 q15.5 6 21 22 q5.5 16 5.5 50 l0 381 l-245 0 q-3 -33 -11 -70 q60 -47 131 -106 q71 -59 112 -95 l-59 -79 q-105 98 -217 194 q-30 -58 -84.5 -112 q-54.5 -54 -139.5 -112 l-58 69 l0 -242 l-92 0 l0 644 l328 0 q1 33 1 120 l-395 0 l0 91 l882 0 l0 -91 ZM216 188 q79 50 126 94.5 q47 44.5 72 92.5 q25 48 33 109 l-231 0 l0 -296 Z" /><glyph glyph-name="uni4E1A" unicode="&#x4e1a;" d="M666 58 l281 0 l0 -91 l-893 0 l0 91 l282 0 l0 201 l-90 -44 q-35 93 -87 216 q-52 123 -88 195 l89 40 q33 -65 88.5 -191 q55.5 -126 87.5 -207 l0 562 l100 0 l0 -772 l131 0 l0 772 l99 0 l0 -564 q46 86 96 199 q50 113 80 197 l92 -40 q-31 -82 -86.5 -206.5 q-55.5 -124.5 -97.5 -203.5 l-84 45 l0 -199 Z" /><glyph glyph-name="uni4E1C" unicode="&#x4e1c;" d="M883 318 l-312 0 l0 -258 q0 -71 -28.5 -99.5 q-28.5 -28.5 -94.5 -28.5 q-57 0 -114 6 l-16 91 q61 -9 104 -9 q28 0 40 13.5 q12 13.5 12 45.5 l0 239 l-344 0 l0 89 q57 80 133 219 l-195 0 l0 90 l242 0 q43 85 65 137 l94 -31 q-13 -32 -50 -106 l504 0 l0 -90 l-551 0 q-77 -142 -128 -220 l230 0 l0 174 l97 0 l0 -174 l312 0 l0 -88 ZM343 210 q-46 -63 -114 -135.5 q-68 -72.5 -130 -124.5 l-65 79 q58 46 122.5 114 q64.5 68 109.5 130 l77 -63 ZM706 270 q49 -42 125.5 -114 q76.5 -72 124.5 -123 l-71 -75 q-49 55 -122 128.5 q-73 73.5 -122 115.5 l65 68 Z" /><glyph glyph-name="uni4E1D" unicode="&#x4e1d;" d="M93 424 l-22 86 q18 5 27 11 q9 6 16 14 q28 31 87 133 q59 102 91 175 l83 -41 q-30 -63 -83.5 -155 q-53.5 -92 -85.5 -135 l140 23 q53 83 91 151 l76 -42 q-54 -99 -131.5 -222 q-77.5 -123 -118.5 -167 q121 22 197 35 l-2 -88 q-175 -26 -281 -41 q-18 -3 -49 -7 l-21 89 q22 6 31.5 12 q9.5 6 22.5 19 q15 14 51 63 q36 49 79 113 q-49 -6 -147 -20 l-51 -6 ZM485 506 q19 8 27.5 13.5 q8.5 5.5 16.5 14.5 q26 31 85.5 133.5 q59.5 102.5 91.5 174.5 l80 -42 q-32 -66 -84 -156.5 q-52 -90.5 -83 -132.5 l140 22 q51 78 87 145 l75 -43 q-49 -89 -133.5 -214 q-84.5 -125 -126.5 -167 l253 39 l-2 -88 q-46 -6 -65 -8 q-150 -21 -277 -36 l-50 -7 l-15 87 q22 4 31.5 9 q9.5 5 24.5 17 q38 30 142 182 q-92 -13 -148 -20 l-46 -6 l-24 83 ZM49 -42 l0 89 l901 0 l0 -89 l-901 0 Z" /><glyph glyph-name="uni4E22" unicode="&#x4e22;" d="M477 250 q-112 -136 -187 -206 q250 16 418 33 l-87 108 l72 53 q47 -53 109 -130 q62 -77 103 -135 l-75 -60 q-10 15 -46 64 l-14 19 q-352 -27 -537 -44 l-96 -10 l-28 96 q29 5 42.5 10.5 q13.5 5.5 29.5 17.5 q31 22 80 73.5 q49 51.5 99 110.5 l-305 0 l0 89 l402 0 l0 127 l-327 0 l0 87 l327 0 l0 126 q-170 -14 -339 -21 l-14 89 q173 6 396 24 q223 18 365 37 l20 -89 q-118 -15 -338 -33 l0 -133 l325 0 l0 -87 l-325 0 l0 -127 l400 0 l0 -89 l-470 0 Z" /><glyph glyph-name="uni4E24" unicode="&#x4e24;" d="M937 713 l-282 0 l-1 -121 l225 0 l0 -518 q0 -72 -26 -100.5 q-26 -28.5 -89 -28.5 q-51 0 -123 7 l-16 86 q78 -8 116 -8 q26 0 36.5 15.5 q10.5 15.5 10.5 48.5 l0 97 l-52 -51 q-67 86 -124 154 q-44 -129 -148 -250 l-75 46 q87 100 127 194 q40 94 47 221 l-152 0 q-3 -53 -10 -93 q34 -37 109 -123 l-66 -61 l-69 82 q-39 -112 -134 -226 l-53 37 l0 -176 l-89 0 l0 647 l225 0 l2 121 l-269 0 l0 86 l880 0 l0 -86 ZM564 592 l1 121 l-150 0 l-2 -121 l151 0 ZM188 164 q66 82 94 155 q28 73 38 186 l-132 0 l0 -341 ZM788 505 l-137 0 q-3 -61 -13 -112 l46 -53 l104 -121 l0 286 Z" /><glyph glyph-name="uni4E25" unicode="&#x4e25;" d="M950 791 l0 -84 l-280 0 l0 -248 l266 0 l0 -83 l-705 0 l0 -94 q0 -114 -25 -194 q-25 -80 -94 -175 l-83 44 q45 60 69 109 q24 49 33.5 104 q9.5 55 9.5 135 l0 154 l223 0 l0 248 l-291 0 l0 84 l877 0 ZM460 459 l113 0 l0 248 l-113 0 l0 -248 ZM261 468 q-23 35 -67 90.5 q-44 55.5 -69 80.5 l69 56 q22 -23 65.5 -75.5 q43.5 -52.5 71.5 -90.5 l-70 -61 ZM699 526 q34 38 72.5 86.5 q38.5 48.5 59.5 82.5 l72 -50 q-24 -38 -65 -90.5 q-41 -52.5 -71 -82.5 l-68 54 Z" /><glyph glyph-name="uni4E2A" unicode="&#x4e2a;" d="M27 451 q140 83 251 185 q111 102 181 211 l81 0 q79 -116 185.5 -213.5 q106.5 -97.5 248.5 -184.5 l-61 -90 q-132 86 -238.5 181 q-106.5 95 -174.5 191 q-143 -194 -416 -372 l-57 92 ZM449 516 l100 0 l0 -590 l-100 0 l0 590 Z" /><glyph glyph-name="uni4E2D" unicode="&#x4e2d;" d="M547 670 l347 0 l0 -445 l-347 0 l0 -302 l-97 0 l0 302 l-345 0 l0 445 l345 0 l0 170 l97 0 l0 -170 ZM201 577 l0 -259 l249 0 l0 259 l-249 0 ZM547 318 l251 0 l0 259 l-251 0 l0 -259 Z" /><glyph glyph-name="uni4E32" unicode="&#x4e32;" d="M546 372 l352 0 l0 -288 l-352 0 l0 -160 l-91 0 l0 160 l-352 0 l0 288 l352 0 l0 86 l-311 0 l0 282 l311 0 l0 100 l91 0 l0 -100 l311 0 l0 -282 l-311 0 l0 -86 ZM235 660 l0 -123 l220 0 l0 123 l-220 0 ZM767 537 l0 123 l-221 0 l0 -123 l221 0 ZM194 293 l0 -128 l261 0 l0 128 l-261 0 ZM546 165 l261 0 l0 128 l-261 0 l0 -128 Z" /><glyph glyph-name="uni4E34" unicode="&#x4e34;" d="M945 724 l0 -93 l-389 0 q-49 -96 -106 -177 l-82 61 q53 68 101 162 q48 94 74 179 l96 -27 q-11 -35 -39 -105 l345 0 ZM342 -73 l-93 0 l0 906 l93 0 l0 -906 ZM169 24 l-88 0 l0 722 l88 0 l0 -722 ZM678 626 q91 -91 128 -136 l-68 -61 q-55 68 -125 140 l65 57 ZM519 -64 l-86 0 l0 472 l474 0 l0 -472 l-86 0 l0 60 l-302 0 l0 -60 ZM630 78 l0 247 l-111 0 l0 -247 l111 0 ZM709 78 l112 0 l0 247 l-112 0 l0 -247 Z" /><glyph glyph-name="uni4E3A" unicode="&#x4e3a;" d="M895 612 q1 -145 -7.5 -292 q-8.5 -147 -24.5 -239 q-9 -52 -26 -81 q-17 -29 -48 -42 q-31 -13 -85 -14 q-99 0 -175 11 l-20 95 q7 -1 58.5 -7.5 q51.5 -6.5 113.5 -6.5 q31 0 47.5 6.5 q16.5 6.5 26.5 25.5 q10 19 18 58 q10 50 17 163 q7 113 7 197 l0 35 l-309 0 q-20 -135 -61 -237 q-41 -102 -115.5 -190 q-74.5 -88 -195.5 -174 l-66 78 q108 72 175.5 148.5 q67.5 76.5 106 166 q38.5 89.5 58.5 208.5 l-310 0 l0 91 l322 0 q5 54 9.5 124 q4.5 70 3.5 101 l97 0 q-1 -43 -4.5 -108 q-3.5 -65 -8.5 -117 l396 0 ZM278 626 q-23 29 -66.5 76 q-43.5 47 -66.5 68 l68 59 q25 -22 66 -65.5 q41 -43.5 68 -75.5 l-69 -62 ZM646 190 q-21 34 -69 96 q-48 62 -74 90 l72 56 q27 -27 73.5 -85.5 q46.5 -58.5 71.5 -96.5 l-74 -60 Z" /><glyph glyph-name="uni4E3B" unicode="&#x4e3b;" d="M549 48 l397 0 l0 -93 l-893 0 l0 93 l400 0 l0 243 l-324 0 l0 88 l324 0 l0 199 l-367 0 l0 91 l404 0 q-30 61 -84 153 l88 40 q31 -51 66 -114 l24 -42 l-81 -37 l410 0 l0 -91 l-364 0 l0 -199 l321 0 l0 -88 l-321 0 l0 -243 Z" /><glyph glyph-name="uni4E3D" unicode="&#x4e3d;" d="M53 793 l896 0 l0 -87 l-896 0 l0 87 ZM453 36 q0 -43 -10.5 -65 q-10.5 -22 -35.5 -30 q-25 -8 -73 -8 q-25 0 -65 4 l-17 87 q44 -7 73 -7 q27 0 35 11.5 q8 11.5 8 42.5 l0 453 l-176 0 l0 -589 l-84 0 l0 681 l345 0 l0 -580 ZM894 36 q0 -41 -10 -63 q-10 -22 -34.5 -31.5 q-24.5 -9.5 -70.5 -9.5 q-33 0 -75 5 l-17 87 q42 -7 79 -7 q26 0 34.5 12 q8.5 12 8.5 42 l0 453 l-188 0 l0 -589 l-84 0 l0 681 l357 0 l0 -580 ZM705 431 q21 -41 48 -101.5 q27 -60.5 46 -108.5 l-72 -35 q-16 45 -42.5 107.5 q-26.5 62.5 -47.5 103.5 l68 34 ZM271 429 q17 -35 40.5 -96.5 q23.5 -61.5 41.5 -114.5 l-70 -30 q-49 146 -80 215 l68 26 Z" /><glyph glyph-name="uni4E3E" unicode="&#x4e3e;" d="M498 644 q-42 91 -90 177 l82 32 q51 -85 90 -170 l-82 -39 ZM760 285 l-216 0 l0 -110 l367 0 l0 -87 l-367 0 l0 -167 l-91 0 l0 167 l-366 0 l0 87 l366 0 l0 110 l-215 0 l0 62 q-70 -57 -160 -107 l-47 79 q96 49 164.5 104.5 q68.5 55.5 116.5 124.5 l-250 0 l0 88 l583 0 q63 103 119 208 l87 -35 q-63 -110 -105 -173 l192 0 l0 -88 l-247 0 q48 -69 113 -121 q65 -52 165 -102 l-45 -81 q-92 50 -164 109 l0 -68 ZM262 638 q-58 94 -110 165 l78 41 q56 -73 111 -159 l-79 -47 ZM453 372 l0 127 l91 0 l0 -127 l193 0 q-88 78 -147 176 l-176 0 q-56 -95 -147 -176 l186 0 Z" /><glyph glyph-name="uni4E45" unicode="&#x4e45;" d="M599 377 q116 -221 364 -352 l-65 -93 q-238 148 -359 359 q-75 -99 -182 -188 q-107 -89 -259 -180 l-60 92 q224 123 356.5 266 q132.5 143 201.5 329 l-256 0 q-84 -145 -204 -270 l-72 72 q90 94 160.5 206 q70.5 112 115.5 231 l99 -26 q-26 -70 -49 -118 l322 0 l0 -92 q-52 -138 -113 -236 Z" /><glyph glyph-name="uni4E48" unicode="&#x4e48;" d="M529 783 q-76 -126 -188 -257.5 q-112 -131.5 -219 -220.5 l-71 75 q109 86 215 211.5 q106 125.5 173 244.5 l90 -53 ZM857 -69 q-35 60 -56 95 q-88 -9 -146.5 -14 q-58.5 -5 -89.5 -8 q-201 -18 -265 -25 q-93 -9 -145 -17 l-26 105 q32 8 51.5 17.5 q19.5 9.5 40.5 28.5 q96 86 235 257.5 q139 171.5 224 314.5 l89 -52 q-92 -145 -225.5 -309.5 q-133.5 -164.5 -229.5 -252.5 l434 43 q-81 134 -124 199 l80 54 q45 -68 115.5 -179.5 q70.5 -111.5 125.5 -200.5 l-88 -56 Z" /><glyph glyph-name="uni4E49" unicode="&#x4e49;" d="M518 559 q-90 159 -139 238 l84 49 q86 -139 142 -235 l-87 -52 ZM912 -80 q-128 57 -226 114 q-98 57 -175 120 q-77 -63 -177.5 -119 q-100.5 -56 -237.5 -115 l-57 99 q129 51 224 101 q95 50 167 108 q-90 93 -157 212 q-67 119 -125 285 l92 38 q55 -157 118.5 -269.5 q63.5 -112.5 147.5 -196.5 q83 87 140.5 205.5 q57.5 118.5 101.5 287.5 l99 -35 q-50 -184 -111.5 -310 q-61.5 -126 -149.5 -219 q73 -57 164.5 -105 q91.5 -48 210.5 -93 l-49 -108 Z" /><glyph glyph-name="uni4E4B" unicode="&#x4e4b;" d="M545 62 q121 -7 202 -7 q83 0 202 7 l-20 -93 q-90 -7 -188 -7 q-98 0 -188 7 q-89 6 -142 15.5 q-53 9.5 -89.5 27.5 q-36.5 18 -67.5 50 q-34 35 -42 41 q-15 -11 -39 -40 q-51 -65 -76 -101 l-65 86 q49 68 103 127 q21 23 36 31.5 q15 8.5 34 8.5 q18 0 35 -10 q138 75 273.5 177 q135.5 102 224.5 189 l-610 0 l0 95 l348 0 q-44 113 -67 163 l93 21 q11 -23 35 -83.5 q24 -60.5 39 -100.5 l299 0 l0 -95 q-98 -105 -255 -229 q-157 -124 -306 -209 q39 -36 87.5 -50.5 q48.5 -14.5 143.5 -20.5 Z" /><glyph glyph-name="uni4E4E" unicode="&#x4e4e;" d="M954 379 l0 -90 l-400 0 l0 -220 q0 -49 -13 -79 q-13 -30 -45 -45 q-32 -15 -91 -15 q-53 0 -127 7 l-20 90 q90 -11 142 -11 q38 0 50 16 q12 16 12 56 l0 201 l-416 0 l0 90 l416 0 l0 304 q-225 -16 -359 -21 l-11 93 q182 5 409 22 q227 17 367 37 l15 -90 q-150 -18 -329 -33 l0 -312 l400 0 ZM629 461 q33 37 83.5 100 q50.5 63 78.5 100 l72 -56 q-110 -140 -161 -201 l-73 57 ZM222 647 q59 -68 147 -185 l-73 -60 q-34 49 -76 104 q-42 55 -69 86 l71 55 Z" /><glyph glyph-name="uni4E50" unicode="&#x4e50;" d="M915 356 l-349 0 l0 -300 q0 -48 -12 -74.5 q-12 -26.5 -39 -37 q-27 -10.5 -75 -10.5 q-56 0 -121 6 l-21 96 q74 -8 122 -8 q29 0 37.5 11.5 q8.5 11.5 8.5 45.5 l0 271 l-356 0 l44 408 q172 1 361.5 17.5 q189.5 16.5 327.5 41.5 l21 -94 q-129 -23 -301 -38.5 q-172 -15.5 -317 -18.5 l-26 -225 l246 0 l0 188 l100 0 l0 -188 l349 0 l0 -91 ZM341 256 q-82 -144 -234 -292 l-72 68 q72 66 128 136.5 q56 70.5 93 139.5 l85 -52 ZM724 307 q145 -158 234 -277 l-77 -65 q-49 68 -113.5 146.5 q-64.5 78.5 -116.5 135.5 l73 60 Z" /><glyph glyph-name="uni4E58" unicode="&#x4e58;" d="M543 332 q71 -99 169 -166 q98 -67 246 -121 l-37 -91 q-126 55 -218.5 118 q-92.5 63 -159.5 143 l0 -291 l-88 0 l0 289 q-67 -78 -153.5 -139 q-86.5 -61 -212.5 -120 l-45 87 q163 71 253 132.5 q90 61.5 158 155.5 l0 230 l-391 0 l0 80 l391 0 l0 75 l-22 -1 q-174 -7 -285 -8 l-5 76 q148 2 353 12 q205 10 348 22 l10 -79 q-113 -9 -311 -18 l0 -79 l397 0 l0 -80 l-397 0 l0 -227 ZM59 294 q12 2 83 21 q71 19 128 35 l0 51 l-186 0 l0 71 l186 0 l0 58 l81 0 l0 -300 l-81 0 l0 47 l-195 -57 l-16 74 ZM647 530 l80 0 l0 -86 q100 39 160 75 l32 -67 q-64 -33 -192 -82 l0 -41 q0 -19 9 -27 q9 -8 31 -9 l22 -1 q30 0 44.5 3 q14.5 3 21 12 q6.5 9 9.5 30 q2 38 2 63 l71 -15 l-4 -72 q-2 -51 -27.5 -70 q-25.5 -19 -88.5 -21 l-36 -1 l-36 1 q-52 2 -75 24 q-23 22 -23 73 l0 211 Z" /><glyph glyph-name="uni4E5D" unicode="&#x4e5d;" d="M955 230 l-1 -29 q-1 -28 -2.5 -68 q-1.5 -40 -3.5 -75 q-2 -57 -28 -81.5 q-26 -24.5 -89 -29.5 q-19 -2 -57 -2 q-38 0 -57 2 q-54 5 -79 33.5 q-25 28.5 -25 95.5 l0 467 l-210 0 q-5 -167 -30.5 -267.5 q-25.5 -100.5 -85 -179.5 q-59.5 -79 -178.5 -177 l-72 76 q111 87 165 153.5 q54 66.5 76.5 154.5 q22.5 88 26.5 240 l-231 0 l0 99 l233 0 l2 91 q2 94 3 105 l98 0 q-3 -106 -4 -196 l305 0 l0 -547 q0 -28 7 -40.5 q7 -12.5 27 -15.5 q22 -2 33 -2 q12 0 34 2 q27 3 36.5 15 q9.5 12 11.5 42 q2 24 7 152 l88 -18 Z" /><glyph glyph-name="uni4E5F" unicode="&#x4e5f;" d="M949 196 q-7 -97 -10 -130 q-4 -46 -18 -72 q-14 -26 -43 -38 q-29 -12 -80 -15 q-108 -7 -231 -7 q-123 0 -231 7 q-84 5 -120 43.5 q-36 38.5 -36 127.5 l0 316 l-119 -30 l-17 93 l136 33 l0 200 l93 0 l0 -177 l185 46 l0 244 l94 0 l0 -221 l315 77 q1 -65 -6.5 -179.5 q-7.5 -114.5 -15.5 -178.5 q-8 -66 -36 -92.5 q-28 -26.5 -91 -27.5 q-57 -2 -102 5 l-19 91 q48 -8 89 -8 q34 0 46.5 14.5 q12.5 14.5 19.5 60.5 q13 94 14 197 l-214 -54 l0 -398 l-94 0 l0 375 l-185 -47 l0 -308 q0 -44 8 -66.5 q8 -22.5 29 -33 q21 -10.5 62 -13.5 q112 -7 191 -7 q81 0 191 7 q41 3 60 10.5 q19 7.5 26 25 q7 17.5 8 54.5 q4 48 4 99 l97 -23 Z" /><glyph glyph-name="uni4E60" unicode="&#x4e60;" d="M881 779 q-1 -142 -9 -351.5 q-8 -209.5 -19 -311.5 q-7 -65 -25.5 -101 q-18.5 -36 -55 -52 q-36.5 -16 -101.5 -18 q-87 -2 -176 6 l-19 96 q81 -9 135 -9 q58 0 84.5 8 q26.5 8 38 31.5 q11.5 23.5 17.5 76.5 q11 100 18 253.5 q7 153.5 7 272.5 l-675 0 l0 99 l780 0 ZM246 641 q48 -29 121.5 -80.5 q73.5 -51.5 135.5 -98.5 l-62 -85 q-57 47 -130.5 100.5 q-73.5 53.5 -125.5 84.5 l61 79 ZM69 162 q144 50 329 124.5 q185 74.5 285 126.5 l19 -98 q-91 -46 -272 -121.5 q-181 -75.5 -325 -128.5 l-36 97 Z" /><glyph glyph-name="uni4E66" unicode="&#x4e66;" d="M900 615 q-43 34 -117 86 q-74 52 -117 77 l53 76 q45 -26 119.5 -76.5 q74.5 -50.5 117.5 -82.5 l-56 -80 ZM803 685 l-27 -282 l149 0 q-8 -122 -30 -269 q-11 -69 -44.5 -98 q-33.5 -29 -104.5 -29 q-77 0 -146 7 l-20 91 q86 -9 143 -9 q37 0 52.5 14 q15.5 14 24.5 55 q14 72 19 146 l-373 0 l0 -390 l-95 0 l0 390 l-308 0 l0 92 l308 0 l0 189 l-243 0 l0 93 l243 0 l0 158 l95 0 l0 -158 l357 0 ZM700 592 l-254 0 l0 -189 l237 0 l17 189 Z" /><glyph glyph-name="uni4E70" unicode="&#x4e70;" d="M823 508 l-87 34 l74 156 l-708 0 l0 87 l805 0 l0 -88 l-84 -189 ZM425 476 q-45 30 -114.5 70 q-69.5 40 -113.5 60 l43 75 q150 -78 232 -124 l-47 -81 ZM942 210 l-356 0 q-5 -15 -12 -26 q124 -64 360 -179 l-50 -83 q-215 114 -360 187 q-56 -64 -156 -108.5 q-100 -44.5 -267 -84.5 l-34 91 q182 38 278 85 q96 47 139 118 l-420 0 l0 87 l454 0 q15 67 17 168 q4 160 4 197 l96 0 q0 -44 -1.5 -105 q-1.5 -61 -3.5 -105 q-4 -86 -18 -155 l330 0 l0 -87 ZM153 526 q50 -23 124 -62 q74 -39 122 -67 l-37 -80 q-48 29 -122 68.5 q-74 39.5 -128 65.5 l41 75 Z" /><glyph glyph-name="uni4E71" unicode="&#x4e71;" d="M946 224 l-8 -155 q-2 -48 -13.5 -73 q-11.5 -25 -34.5 -36 q-23 -11 -65 -14 q-20 -2 -60 -2 q-39 0 -59 2 q-45 3 -70 15.5 q-25 12.5 -37 41 q-12 28.5 -12 80.5 l0 744 l92 0 l0 -725 q0 -38 11 -50 q11 -12 38 -15 q26 -2 37 -2 q13 0 37 2 q20 2 29 7 q9 5 13.5 18 q4.5 13 5.5 40 q1 27 2 69 q1 42 1 72 l93 -19 ZM335 554 l191 0 l0 -89 l-191 0 l0 -132 l149 0 l0 -381 l-392 0 l0 381 l151 0 l0 132 l-202 0 l0 89 l202 0 l0 128 q-74 -9 -177 -16 l-8 88 q114 8 230 22.5 q116 14.5 198 30.5 l16 -88 q-76 -14 -167 -26 l0 -139 ZM182 41 l211 0 l0 201 l-211 0 l0 -201 Z" /><glyph glyph-name="uni4E86" unicode="&#x4e86;" d="M898 778 l0 -97 l-341 -230 l0 -380 q0 -54 -14 -82.5 q-14 -28.5 -48 -40.5 q-34 -12 -98 -12 q-66 0 -119 8 l-20 96 q80 -13 129 -13 q29 0 43 6.5 q14 6.5 19.5 23 q5.5 16.5 5.5 50.5 l0 395 l278 179 l-643 0 l0 97 l808 0 Z" /><glyph glyph-name="uni4E88" unicode="&#x4e88;" d="M928 477 l0 -92 l-149 -212 l-82 53 q12 13 75 95 l50 64 l-272 0 l0 -322 q0 -50 -11.5 -77 q-11.5 -27 -39 -39 q-27.5 -12 -78.5 -12 q-73 0 -124 5 l-18 90 q68 -9 116 -9 q36 0 48.5 16.5 q12.5 16.5 12.5 60.5 l0 287 l-390 0 l0 92 l395 0 q-48 40 -104 82.5 q-56 42.5 -90 65.5 l56 69 q43 -28 175 -132 q142 92 210 148 l-568 0 l0 88 l722 0 l0 -88 q-98 -75 -291 -206 l34 -27 l323 0 Z" /><glyph glyph-name="uni4E89" unicode="&#x4e89;" d="M947 417 l0 -81 l-107 0 l0 -180 l-310 0 l0 -94 q0 -65 -28.5 -94.5 q-28.5 -29.5 -91.5 -29.5 q-71 0 -121 5 l-19 86 q62 -8 117 -8 q29 0 41 15.5 q12 15.5 12 52.5 l0 67 l-309 0 l0 80 l309 0 l0 100 l-395 0 l0 81 l395 0 l0 98 l-259 0 l0 56 q-16 -14 -52 -40 l-21 -16 l-58 73 q84 57 157.5 129 q73.5 72 122.5 145 l94 -28 q-21 -33 -38 -55 l355 0 l0 -84 l-101 -99 l200 0 l0 -179 l107 0 ZM315 694 q-55 -57 -104 -98 l304 0 l102 98 l-302 0 ZM753 515 l-223 0 l0 -98 l223 0 l0 98 ZM530 236 l223 0 l0 100 l-223 0 l0 -100 Z" /><glyph glyph-name="uni4E8B" unicode="&#x4e8b;" d="M950 287 l0 -69 l-85 0 l0 -126 l-323 0 l0 -37 q0 -67 -26 -95.5 q-26 -28.5 -88 -28.5 q-77 0 -133 5 l-17 82 q75 -7 129 -7 q26 0 37 14 q11 14 11 48 l0 19 l-357 0 l0 69 l357 0 l0 57 l-415 0 l0 69 l415 0 l0 57 l-349 0 l0 67 l349 0 l0 54 l-309 0 l0 183 l309 0 l0 54 l-396 0 l0 73 l396 0 l0 69 l87 0 l0 -69 l389 0 l0 -73 l-389 0 l0 -54 l304 0 l0 -183 l-304 0 l0 -54 l323 0 l0 -124 l85 0 ZM233 585 l0 -57 l222 0 l0 57 l-222 0 ZM757 528 l0 57 l-215 0 l0 -57 l215 0 ZM782 344 l-240 0 l0 -57 l240 0 l0 57 ZM542 161 l240 0 l0 57 l-240 0 l0 -57 Z" /><glyph glyph-name="uni4E8C" unicode="&#x4e8c;" d="M136 728 l727 0 l0 -102 l-727 0 l0 102 ZM53 111 l893 0 l0 -100 l-893 0 l0 100 Z" /><glyph glyph-name="uni4E8E" unicode="&#x4e8e;" d="M945 468 l0 -94 l-380 0 l0 -297 q0 -74 -32.5 -105.5 q-32.5 -31.5 -109.5 -33.5 q-62 -1 -139 7 l-21 93 q72 -9 120 -9 q35 0 51.5 6 q16.5 6 22 21.5 q5.5 15.5 5.5 48.5 l0 269 l-410 0 l0 94 l410 0 l0 221 l-340 0 l0 93 l754 0 l0 -93 l-311 0 l0 -221 l380 0 Z" /><glyph glyph-name="uni4E91" unicode="&#x4e91;" d="M139 787 l721 0 l0 -94 l-721 0 l0 94 ZM499 421 q-50 -91 -118.5 -191.5 q-68.5 -100.5 -124.5 -161.5 q262 23 469 47 q-67 105 -119 179 l79 49 q48 -65 120 -173 q72 -108 121 -187 l-84 -58 q-30 50 -61 101 l-527 -46 l-135 -12 l-28 98 q30 11 45.5 20.5 q15.5 9.5 31.5 27.5 q55 63 115.5 147 q60.5 84 102.5 160 l-326 0 l0 94 l879 0 l0 -94 l-440 0 Z" /><glyph glyph-name="uni4E92" unicode="&#x4e92;" d="M805 558 l-44 -517 l190 0 l0 -87 l-898 0 l0 87 l609 0 l15 159 l-491 0 l90 501 l-191 0 l0 89 l832 0 l0 -89 l-543 0 l-27 -143 l458 0 ZM331 470 l-34 -183 l389 0 l18 183 l-373 0 Z" /><glyph glyph-name="uni4E94" unicode="&#x4e94;" d="M803 479 l-15 -421 l160 0 l0 -90 l-896 0 l0 90 l201 0 l57 328 l-195 0 l0 93 l211 0 l37 215 l-268 0 l0 91 l817 0 l0 -91 l-448 0 l-38 -215 l377 0 ZM702 386 l-293 0 l-58 -328 l338 0 l13 328 Z" /><glyph glyph-name="uni4E9A" unicode="&#x4e9a;" d="M661 710 l0 -651 l284 0 l0 -88 l-889 0 l0 88 l282 0 l0 651 l-253 0 l0 84 l831 0 l0 -84 l-255 0 ZM566 710 l-132 0 l0 -651 l132 0 l0 651 ZM181 600 q20 -48 67.5 -180 q47.5 -132 68.5 -196 l-91 -40 q-22 76 -67 207 q-45 131 -64 174 l86 35 ZM679 224 q40 86 80.5 192 q40.5 106 62.5 182 l86 -37 q-25 -76 -68.5 -189 q-43.5 -113 -77.5 -189 l-83 41 Z" /><glyph glyph-name="uni4E9B" unicode="&#x4e9b;" d="M947 507 q0 -14 -4 -60 l-3 -31 q-4 -54 -29 -76.5 q-25 -22.5 -80 -27.5 q-58 -4 -88 -4 q-28 0 -88 4 q-49 5 -73 30 q-24 25 -24 82 l0 414 l95 0 l0 -203 q65 32 128.5 67 q63.5 35 99.5 61 l40 -90 q-45 -29 -125 -68.5 q-80 -39.5 -143 -64.5 l0 -84 q0 -32 10.5 -43.5 q10.5 -11.5 37.5 -13.5 q26 -3 50 -3 q25 0 49 3 q30 2 41 12.5 q11 10.5 14 44.5 l3 51 l1 22 l88 -22 ZM50 372 q47 8 72 13 l0 366 l91 0 l0 -348 l92 18 l0 412 l91 0 l0 -164 l121 0 l0 -84 l-121 0 l0 -145 q53 11 119 26 l11 -95 q-89 -17 -227.5 -44.5 q-138.5 -27.5 -230.5 -46.5 l-18 92 ZM824 239 l0 -87 l-646 0 l0 87 l646 0 ZM933 -32 l-865 0 l0 89 l865 0 l0 -89 Z" /><glyph glyph-name="uni4EA4" unicode="&#x4ea4;" d="M931 730 l0 -94 l-863 0 l0 94 l388 0 q-28 70 -41 96 l100 27 q29 -72 47 -123 l369 0 ZM73 392 q75 47 146 106.5 q71 59.5 127 120.5 l71 -61 q-58 -63 -133.5 -127.5 q-75.5 -64.5 -154.5 -120.5 l-56 82 ZM867 324 q-50 44 -142.5 115.5 q-92.5 71.5 -150.5 110.5 l57 69 q54 -34 145.5 -102 q91.5 -68 148.5 -115 l-58 -78 ZM925 -70 q-147 38 -248.5 80 q-101.5 42 -177.5 97 q-74 -55 -175.5 -100 q-101.5 -45 -243.5 -86 l-43 92 q132 34 226.5 71.5 q94.5 37.5 162.5 84.5 q-76 76 -151 204 l77 49 q69 -121 148 -193 q79 76 136 192 l85 -44 q-68 -129 -147 -206 q70 -47 163.5 -81.5 q93.5 -34.5 225.5 -62.5 l-38 -97 Z" /><glyph glyph-name="uni4EA7" unicode="&#x4ea7;" d="M941 639 l-201 0 q-21 -87 -43 -159 l226 0 l0 -92 l-694 0 l0 -92 q0 -89 -9 -150 q-9 -61 -32.5 -114 q-23.5 -53 -68.5 -112 l-86 54 q47 56 69 101.5 q22 45.5 29 98 q7 52.5 7 142.5 l0 164 l189 0 q-19 89 -39 159 l-204 0 l0 92 l392 0 l-39 98 l94 22 q18 -38 49 -120 l361 0 l0 -92 ZM602 480 q26 77 43 159 l-258 0 q30 -110 41 -159 l174 0 Z" /><glyph glyph-name="uni4EAB" unicode="&#x4eab;" d="M933 751 l0 -76 l-868 0 l0 76 l400 0 q-23 46 -41 76 l98 23 q25 -46 48 -99 l363 0 ZM826 618 l0 -194 l-653 0 l0 194 l653 0 ZM737 553 l-475 0 l0 -64 l475 0 l0 64 ZM952 197 l0 -79 l-397 0 l0 -75 q0 -62 -23 -88.5 q-23 -26.5 -79 -27.5 q-63 -1 -145 7 l-18 87 q72 -10 125 -10 q26 0 37.5 15 q11.5 15 11.5 47 l0 45 l-417 0 l0 79 l417 0 l0 26 l200 70 l-536 0 l0 74 l721 0 l0 -74 l-266 -96 l369 0 Z" /><glyph glyph-name="uni4EAE" unicode="&#x4eae;" d="M936 755 l0 -75 l-870 0 l0 75 l389 0 l-23 52 q-4 7 -10 21 l96 22 q11 -20 43 -95 l375 0 ZM188 424 l0 199 l627 0 l0 -199 l-627 0 ZM282 492 l439 0 l0 63 l-439 0 l0 -63 ZM179 200 l-92 0 l0 170 l830 0 l0 -171 l-94 0 l0 99 l-644 0 l0 -98 ZM847 152 l88 -18 q-1 -48 -6 -101 q-3 -39 -15 -59.5 q-12 -20.5 -34 -29 q-22 -8.5 -60 -11.5 q-33 -3 -59 -3 q-32 0 -63 4 q-37 3 -57.5 11.5 q-20.5 8.5 -30 28.5 q-9.5 20 -9.5 59 l0 127 l-226 0 l0 -34 q0 -48 -26.5 -85.5 q-26.5 -37.5 -89.5 -69 q-63 -31.5 -172 -57.5 l-40 83 q102 23 152 46 q50 23 66.5 53.5 q16.5 30.5 16.5 83.5 l0 55 l414 0 l0 -174 q0 -25 7 -32.5 q7 -7.5 29 -9.5 q12 -1 33 -1 q21 0 33 1 q26 2 34.5 11.5 q8.5 9.5 10.5 39.5 l4 82 Z" /><glyph glyph-name="uni4EB2" unicode="&#x4eb2;" d="M942 505 l0 -88 l-382 0 l0 -101 l352 0 l0 -85 l-352 0 l0 -178 q0 -46 -10 -71 q-10 -25 -35 -36 q-25 -11 -72 -11 q-60 -2 -107 5 l-20 94 q39 -8 102 -8 q28 0 37 13 q9 13 9 51 l0 141 l-376 0 l0 85 l376 0 l0 101 l-409 0 l0 88 l243 0 q-11 38 -19 68.5 q-8 30.5 -14 53.5 q-2 6 -7 26 l-151 0 l0 88 l357 0 q-31 73 -42 95 l97 17 q21 -43 48 -112 l325 0 l0 -88 l-152 0 l-31 -148 l233 0 ZM352 653 q24 -85 41 -148 l224 0 l6 27 q20 92 26 121 l-297 0 ZM355 155 q-45 -47 -115.5 -104.5 q-70.5 -57.5 -137.5 -102.5 l-52 81 q61 37 126.5 89.5 q65.5 52.5 114.5 101.5 l64 -65 ZM683 213 q50 -29 131 -85 q81 -56 127 -92 l-55 -78 q-50 40 -124 92 q-74 52 -132 89 l53 74 Z" /><glyph glyph-name="uni4EBA" unicode="&#x4eba;" d="M541 629 q29 -194 132 -347 q103 -153 280 -277 l-66 -86 q-148 118 -242.5 240.5 q-94.5 122.5 -142.5 260.5 q-44 -138 -138.5 -259 q-94.5 -121 -246.5 -232 l-68 80 q146 102 231.5 207 q85.5 105 124 228.5 q38.5 123.5 40.5 287.5 q2 34 2 96 l98 0 q-2 -42 -2 -132 q0 -23 -2 -67 Z" /><glyph glyph-name="uni4EC0" unicode="&#x4ec0;" d="M363 818 q-35 -101 -83 -201 l0 -689 l-95 0 l0 515 q-51 -81 -105 -149 l-53 97 q71 84 136.5 210 q65.5 126 108.5 252 l91 -35 ZM700 506 l258 0 l0 -97 l-258 0 l0 -484 l-96 0 l0 484 l-265 0 l0 97 l265 0 l0 332 l96 0 l0 -332 Z" /><glyph glyph-name="uni4EC5" unicode="&#x4ec5;" d="M343 812 q-36 -113 -80 -208 l0 -681 l-93 0 l0 507 q-49 -78 -99 -138 l-44 103 q63 82 124.5 202.5 q61.5 120.5 99.5 240.5 l92 -26 ZM703 223 q99 -113 264 -221 l-58 -86 q-166 115 -270 231 q-107 -116 -278 -230 l-62 87 q171 108 277 221 q-70 96 -113.5 208 q-43.5 112 -67.5 253 l-32 0 l0 92 l534 0 l0 -90 q-30 -144 -76.5 -256 q-46.5 -112 -117.5 -209 ZM490 686 q23 -117 59 -210 q36 -93 91 -173 q59 81 97 174.5 q38 93.5 60 208.5 l-307 0 Z" /><glyph glyph-name="uni4EC7" unicode="&#x4ec7;" d="M327 817 q-35 -117 -76 -211 l0 -682 l-91 0 l0 499 q-34 -61 -83 -127 l-51 98 q61 83 118 205.5 q57 122.5 91 242.5 l92 -25 ZM960 217 q-4 -132 -6 -169 q-4 -57 -24.5 -79 q-20.5 -22 -72.5 -26 q-24 -2 -37 -2 q-12 0 -38 2 q-45 3 -67.5 28 q-22.5 25 -22.5 77 l0 502 l-142 0 l0 -8 q-2 -170 -19 -273.5 q-17 -103.5 -57.5 -181.5 q-40.5 -78 -119.5 -165 l-76 66 q76 82 112.5 149.5 q36.5 67.5 51.5 158 q15 90.5 19 250.5 l0 4 l-131 0 l0 91 l133 0 q2 112 2 159 l0 36 l90 0 l-3 -195 l231 0 l0 -563 q0 -24 5.5 -34 q5.5 -10 19.5 -12 l19 -1 q25 0 35 9.5 q10 9.5 13 41.5 q6 108 6 152 l79 -17 Z" /><glyph glyph-name="uni4ECA" unicode="&#x4eca;" d="M29 496 q148 76 255 162 q107 86 177 187 l82 0 q70 -106 173.5 -190.5 q103.5 -84.5 253.5 -158.5 l-49 -86 q-135 68 -247 157.5 q-112 89.5 -173 182.5 q-61 -89 -169 -175 q-108 -86 -251 -164 l-52 85 ZM453 597 q17 -19 129 -154 l14 -17 l-73 -61 q-24 35 -66.5 88 q-42.5 53 -72.5 87 l69 57 ZM821 259 q-51 -80 -129.5 -178 q-78.5 -98 -146.5 -165 l-93 54 q63 58 128 136.5 q65 78.5 112 149.5 l-557 0 l0 91 l686 0 l0 -88 Z" /><glyph glyph-name="uni4ECB" unicode="&#x4ecb;" d="M36 452 q148 75 252 172 q104 97 170 223 l82 0 q74 -134 177 -230 q103 -96 250 -167 l-54 -94 q-132 66 -236.5 161.5 q-104.5 95.5 -176.5 213.5 q-77 -116 -177 -207.5 q-100 -91.5 -231 -163.5 l-56 92 ZM615 466 l98 0 l0 -538 l-98 0 l0 538 ZM108 -5 q75 59 112 104 q37 45 52 98 q15 53 15 137 l0 130 l98 0 l0 -121 q0 -106 -18 -176.5 q-18 -70.5 -63 -129 q-45 -58.5 -131 -120.5 l-65 78 Z" /><glyph glyph-name="uni4ECD" unicode="&#x4ecd;" d="M340 802 q-44 -134 -93 -237 l0 -640 l-91 0 l0 476 q-37 -58 -83 -113 l-44 109 q63 77 123 195.5 q60 118.5 97 241.5 l91 -32 ZM784 481 l142 0 q-3 -110 -10 -224.5 q-7 -114.5 -15 -175.5 q-7 -54 -21 -82.5 q-14 -28.5 -43 -41 q-29 -12.5 -83 -12.5 q-74 0 -128 5 l-19 90 l35 -3 q10 -1 38 -3 q28 -2 50 -2 q31 0 46 7 q15 7 22 25 q7 18 12 57 q17 134 18 270 l-140 0 l0 89 l63 208 l-207 0 q-2 -212 -17 -342 q-15 -130 -56.5 -231.5 q-41.5 -101.5 -124.5 -194.5 l-75 63 q80 91 118.5 181 q38.5 90 51 206.5 q12.5 116.5 13.5 317.5 l-91 0 l0 90 l486 0 l0 -87 l-65 -210 Z" /><glyph glyph-name="uni4ECE" unicode="&#x4ece;" d="M898 -82 q-92 101 -151 206.5 q-59 105.5 -90 235.5 q-33 -119 -94.5 -226 q-61.5 -107 -167.5 -219 l-75 72 q114 119 174 221 q60 102 85 216.5 q25 114.5 29 281.5 q2 42 2 126 l99 0 q0 -39 -4 -105 l-1 -21 q-1 -28 -5 -75 q15 -210 81 -361.5 q66 -151.5 193 -278.5 l-75 -73 ZM428 252 q-67 99 -109 158 q-21 -133 -67.5 -238.5 q-46.5 -105.5 -135.5 -230.5 l-87 58 q85 119 128.5 211.5 q43.5 92.5 63.5 201 q20 108.5 25 277.5 q4 112 4 142 l98 0 q0 -30 -1.5 -73 q-1.5 -43 -3.5 -72 q-4 -95 -8 -140 q90 -116 165 -226 l-72 -68 Z" /><glyph glyph-name="uni4ED3" unicode="&#x4ed3;" d="M920 396 q-81 44 -160 100 q2 -83 -8 -200 q-4 -57 -19 -85.5 q-15 -28.5 -49 -40 q-34 -11.5 -100 -11.5 q-59 0 -114 6 l-17 89 q63 -9 124 -9 q34 0 50.5 5.5 q16.5 5.5 23 19.5 q6.5 14 9.5 44 q4 26 6 96 l-358 0 l0 -290 q0 -35 6 -52.5 q6 -17.5 23 -26 q17 -8.5 52 -11.5 q80 -6 155 -6 q77 0 155 6 q37 3 55 10 q18 7 25.5 23 q7.5 16 10.5 49 l2 24 q3 63 3 60 l96 -28 q-1 -30 -9 -100 q-5 -52 -20 -77.5 q-15 -25.5 -46 -36 q-31 -10.5 -92 -14.5 q-84 -7 -177 -7 q-94 0 -178 7 q-59 4 -91 17 q-32 13 -47 44.5 q-15 31.5 -15 92.5 l0 382 q-66 -48 -137 -88 l-50 95 q139 72 249.5 168.5 q110.5 96.5 176.5 202.5 l88 0 q139 -216 426 -360 l-49 -98 ZM759 497 q-81 59 -148.5 123 q-67.5 64 -110.5 125 q-98 -131 -255 -248 l514 0 Z" /><glyph glyph-name="uni4ED4" unicode="&#x4ed4;" d="M351 816 q-45 -130 -95 -234 l0 -658 l-93 0 l0 491 q-42 -67 -91 -127 l-45 99 q68 86 132.5 210.5 q64.5 124.5 100.5 241.5 l91 -23 ZM959 427 l0 -95 l-258 0 l0 -275 q0 -67 -28.5 -93.5 q-28.5 -26.5 -100.5 -28.5 q-11 -1 -33 -1 q-49 0 -96 6 l-18 95 q59 -9 115 -9 q28 1 40.5 6 q12.5 5 17 18.5 q4.5 13.5 4.5 42.5 l0 239 l-278 0 l0 95 l278 0 l0 109 l175 151 l-384 0 l0 94 l524 0 l0 -93 l-216 -189 l0 -72 l258 0 Z" /><glyph glyph-name="uni4ED6" unicode="&#x4ed6;" d="M951 192 q-4 -112 -6 -129 q-4 -66 -33.5 -94.5 q-29.5 -28.5 -103.5 -33.5 q-76 -6 -153 -6 q-77 0 -154 6 q-70 5 -101 39.5 q-31 34.5 -31 112.5 l0 336 l-79 -25 l-8 89 l87 27 l0 220 l87 0 l0 -192 l122 38 l0 255 l87 0 l0 -227 l229 72 q1 -82 -5 -193.5 q-6 -111.5 -13 -172.5 q-7 -59 -30 -83 q-23 -24 -76 -24 q-37 0 -62 5 l-19 88 q30 -7 54 -7 q24 0 32.5 11.5 q8.5 11.5 13.5 49.5 q12 96 13 205 l-137 -43 l0 -394 l-87 0 l0 367 l-122 -39 l0 -335 q0 -37 6 -55.5 q6 -18.5 22 -27 q16 -8.5 49 -11.5 q60 -6 122 -6 q57 0 114 6 q40 4 57 11 q17 7 23 22.5 q6 15.5 8 51.5 q2 36 2 103 l92 -17 ZM331 809 q-34 -108 -80 -209 l0 -673 l-88 0 l0 506 q-43 -70 -91 -136 l-44 95 q59 74 119 195.5 q60 121.5 96 242.5 l88 -21 Z" /><glyph glyph-name="uni4ED8" unicode="&#x4ed8;" d="M348 812 q-43 -124 -79 -206 l0 -678 l-95 0 l0 498 q-47 -74 -97 -137 l-53 96 q63 79 125 201 q62 122 104 250 l95 -24 ZM953 639 l0 -95 l-134 0 l0 -478 q0 -73 -31 -103 q-31 -30 -106 -32 q-72 -2 -130 5 l-20 99 q67 -9 111 -9 q34 0 50.5 5 q16.5 5 22.5 19.5 q6 14.5 6 44.5 l0 449 l-388 0 l0 95 l388 0 l0 192 l97 0 l0 -192 l134 0 ZM448 475 q37 -52 81.5 -118 q44.5 -66 80.5 -121 l-79 -56 q-52 83 -161 242 l78 53 Z" /><glyph glyph-name="uni4EE3" unicode="&#x4ee3;" d="M365 808 q-43 -124 -95 -230 l0 -652 l-92 0 l0 487 q-48 -76 -99 -140 l-44 99 q68 81 133 208.5 q65 127.5 106 256.5 l91 -29 ZM837 112 q16 65 26 117 l80 -37 q-12 -75 -32 -141 q-18 -65 -49.5 -92.5 q-31.5 -27.5 -73.5 -27.5 q-38 0 -72.5 23 q-34.5 23 -73.5 77 q-83 121 -118 410 l-203 -19 l-8 90 l201 19 q-6 67 -8 111 l-11 195 l96 0 q0 -20 4 -114 q1 -17 4 -84 q4 -65 7 -100 l330 31 l7 -91 l-327 -30 q18 -133 46 -225 q28 -92 59 -137 q20 -28 35 -38 q15 -10 32 -10 q16 1 27 15.5 q11 14.5 22 57.5 ZM813 611 q-27 28 -75.5 72 q-48.5 44 -80.5 70 l53 62 q33 -26 84.5 -69 q51.5 -43 76.5 -67 l-58 -68 Z" /><glyph glyph-name="uni4EE4" unicode="&#x4ee4;" d="M542 847 q142 -219 428 -355 l-53 -98 q-128 65 -241 159.5 q-113 94.5 -176 188.5 q-66 -93 -174.5 -183.5 q-108.5 -90.5 -241.5 -160.5 l-56 95 q138 65 246.5 155.5 q108.5 90.5 184.5 198.5 l83 0 ZM465 617 q30 -33 70 -81.5 q40 -48.5 63 -80.5 l-73 -61 q-26 36 -66.5 84.5 q-40.5 48.5 -69.5 77.5 l76 61 ZM133 290 l0 96 l704 0 l0 -101 q-130 -126 -236 -216 q74 -35 126 -63 l-48 -92 q-89 47 -233 116.5 q-144 69.5 -238 110.5 l46 87 q116 -49 251 -113 q94 77 196 175 l-568 0 Z" /><glyph glyph-name="uni4EE5" unicode="&#x4ee5;" d="M491 513 q-30 54 -79 137.5 q-49 83.5 -81 134.5 l75 47 q29 -45 79 -127 q50 -82 85 -143 l-79 -49 ZM891 -53 q-46 60 -179 213 q-46 -64 -119.5 -121 q-73.5 -57 -185.5 -119 l-58 85 q145 76 222.5 151.5 q77.5 75.5 112 170 q34.5 94.5 46.5 242.5 q7 81 7 242 l93 0 q1 -29 1 -90 q0 -96 -5 -160 q-7 -99 -21.5 -173.5 q-14.5 -74.5 -40.5 -134.5 q153 -171 203 -228 l-76 -78 ZM513 289 q-207 -165 -289 -235 q-54 -47 -81 -73 l-62 78 q19 20 26 33 q7 13 7 32 l0 663 l95 0 l0 -625 l249 208 l55 -81 Z" /><glyph glyph-name="uni4EEC" unicode="&#x4eec;" d="M436 848 q29 -31 70 -77.5 q41 -46.5 64 -76.5 l-67 -61 q-22 30 -62.5 79 q-40.5 49 -66.5 78 l62 58 ZM319 818 q-34 -111 -78 -211 l0 -677 l-87 0 l0 503 q-40 -71 -84 -132 l-42 96 q56 79 113.5 205 q57.5 126 90.5 241 l87 -25 ZM601 780 l312 0 l0 -703 q0 -61 -14 -90.5 q-14 -29.5 -45.5 -39.5 q-31.5 -10 -93.5 -10 q-32 0 -92 4 l-17 90 q49 -7 103 -7 q30 0 44.5 6.5 q14.5 6.5 20 23 q5.5 16.5 5.5 49.5 l0 588 l-223 0 l0 89 ZM443 -64 l-90 0 l0 710 l90 0 l0 -710 Z" /><glyph glyph-name="uni4EF6" unicode="&#x4ef6;" d="M961 322 l0 -90 l-255 0 l0 -311 l-95 0 l0 311 l-298 0 l0 90 l298 0 l0 221 l-154 0 q-26 -83 -59 -158 l-91 34 q37 81 69 178 q32 97 54 190 l87 -21 q-19 -85 -32 -131 l126 0 l0 210 l95 0 l0 -210 l223 0 l0 -92 l-223 0 l0 -221 l255 0 ZM329 815 q-29 -104 -76 -218 l0 -673 l-90 0 l0 495 q-41 -67 -95 -136 l-40 111 q60 83 118 206 q58 123 91 241 l92 -26 Z" /><glyph glyph-name="uni4EF7" unicode="&#x4ef7;" d="M659 843 q50 -118 129.5 -211.5 q79.5 -93.5 184.5 -151.5 l-49 -89 q-107 69 -181 151.5 q-74 82.5 -124 189.5 q-47 -99 -116.5 -181.5 q-69.5 -82.5 -181.5 -169.5 l-50 87 q224 164 306 375 l82 0 ZM339 813 q-35 -107 -89 -222 l0 -665 l-89 0 l0 502 q-47 -75 -93 -136 l-46 96 q68 89 129 210 q61 121 99 241 l89 -26 ZM439 474 l91 0 l0 -139 q0 -106 -12.5 -171.5 q-12.5 -65.5 -43.5 -120 q-31 -54.5 -93 -128.5 l-79 58 q57 62 86 110 q29 48 40 104.5 q11 56.5 11 145.5 l0 141 ZM792 -73 l-89 0 l0 545 l89 0 l0 -545 Z" /><glyph glyph-name="uni4EFB" unicode="&#x4efb;" d="M344 811 q-37 -113 -82 -207 l0 -676 l-94 0 l0 504 q-44 -70 -99 -139 l-40 102 q62 81 123 200.5 q61 119.5 101 242.5 l91 -27 ZM956 345 l-272 0 l0 -284 l245 0 l0 -93 l-590 0 l0 93 l249 0 l0 284 l-274 0 l0 96 l274 0 l0 225 q-104 -12 -226 -19 l-10 94 q133 7 281 25 q148 18 262 43 l20 -95 q-111 -23 -231 -37 l0 -236 l272 0 l0 -96 Z" /><glyph glyph-name="uni4EFD" unicode="&#x4efd;" d="M726 845 q38 -133 94 -226.5 q56 -93.5 147 -173.5 l-62 -74 q-27 24 -57 56 q-4 -143 -21 -343 q-5 -58 -24 -87.5 q-19 -29.5 -52.5 -39.5 q-33.5 -10 -90.5 -10 q-32 0 -94 4 l-18 90 q50 -6 101 -6 q32 0 48 6.5 q16 6.5 23.5 24 q7.5 17.5 12.5 53.5 q16 139 17 242 l-196 0 l-1 -14 q-8 -101 -29 -170.5 q-21 -69.5 -63 -130 q-42 -60.5 -117 -125.5 l-66 75 q65 50 101.5 96.5 q36.5 46.5 55.5 106 q19 59.5 25 150.5 l0 12 l-91 0 l0 67 l-45 -49 l-61 67 q159 157 233 372 l90 -31 q-61 -172 -195 -333 l434 0 q-65 76 -111.5 166 q-46.5 90 -78.5 203 l91 22 ZM328 808 q-36 -121 -78 -216 l0 -666 l-90 0 l0 494 q-42 -68 -94 -133 l-40 99 q63 87 120 207 q57 120 95 244 l87 -29 Z" /><glyph glyph-name="uni4EFF" unicode="&#x4eff;" d="M566 605 l-4 -117 l-1 -23 l323 0 q-1 -65 -8 -184 q-7 -119 -14 -189 q-6 -58 -20.5 -88.5 q-14.5 -30.5 -45 -43 q-30.5 -12.5 -86.5 -12.5 q-51 0 -118 5 l-18 92 q8 -1 43.5 -5 q35.5 -4 67.5 -4 q31 0 47.5 8 q16.5 8 24 26 q7.5 18 12.5 53 q14 115 16 248 l-231 0 q-11 -104 -32 -179.5 q-21 -75.5 -58 -140 q-37 -64.5 -97 -134.5 l-78 70 q69 79 103 141.5 q34 62.5 50 144.5 q16 82 24 227 l2 40 q0 23 2 65 l-140 0 l0 94 l264 0 l-52 135 l94 19 l41 -104 q4 -11 8.5 -24 q4.5 -13 10.5 -26 l261 0 l0 -94 l-391 0 ZM340 812 q-39 -118 -83 -211 l0 -672 l-93 0 l0 500 q-42 -68 -96 -136 l-44 100 q64 88 120.5 203 q56.5 115 96.5 242 l99 -26 Z" /><glyph glyph-name="uni4F11" unicode="&#x4f11;" d="M909 40 q-86 101 -146 207.5 q-60 106.5 -104 233.5 l0 -559 l-95 0 l0 569 q-48 -136 -104.5 -241 q-56.5 -105 -141.5 -214 l-68 76 l0 -190 l-89 0 l0 501 q-44 -70 -97 -137 l-44 99 q63 80 126 204 q63 124 100 243 l90 -23 q-40 -124 -86 -221 l0 -472 q90 102 153 208 q63 106 110 233 l-188 0 l0 99 l239 0 l0 184 l95 0 l0 -184 l269 0 l0 -99 l-224 0 q96 -250 268 -434 l-63 -83 Z" /><glyph glyph-name="uni4F17" unicode="&#x4f17;" d="M503 728 q-67 -82 -166.5 -156 q-99.5 -74 -240.5 -148 l-52 92 q151 72 251.5 148.5 q100.5 76.5 165.5 171.5 l82 0 q68 -101 168 -177 q100 -76 246 -143 l-50 -92 q-138 68 -236.5 142.5 q-98.5 74.5 -167.5 161.5 ZM445 146 q-57 67 -114 128 q-25 -91 -75 -173.5 q-50 -82.5 -136 -172.5 l-81 67 q78 75 123.5 139.5 q45.5 64.5 69 135.5 q23.5 71 29.5 162 l7 71 l95 0 q0 -17 -2 -38.5 q-2 -21.5 -4 -38.5 l-4 -41 q90 -92 159 -168 l-67 -71 ZM693 402 q21 -121 86.5 -217 q65.5 -96 182.5 -179 l-65 -79 q-175 135 -242 300 q-31 -83 -88.5 -157.5 q-57.5 -74.5 -148.5 -153.5 l-76 73 q90 71 144 136.5 q54 65.5 80.5 137 q26.5 71.5 33.5 163.5 l3 33 q1 10 2 22 q1 12 1 22 l96 0 q-1 -27 -7 -80 l-2 -21 Z" /><glyph glyph-name="uni4F18" unicode="&#x4f18;" d="M342 816 q-38 -120 -88 -226 l0 -665 l-91 0 l0 497 q-41 -65 -93 -130 l-39 104 q61 75 121 198 q60 123 98 248 l92 -26 ZM937 520 l-344 0 q-7 -130 -31.5 -228 q-24.5 -98 -74 -186 q-49.5 -88 -132.5 -183 l-78 70 q78 84 122.5 159 q44.5 75 66.5 161 q22 86 31 207 l-185 0 l0 92 l190 0 l0 3 q2 53 3 118.5 q1 65.5 1 103.5 l95 0 l-5 -225 l341 0 l0 -92 ZM819 625 q-30 31 -76.5 76 q-46.5 45 -71.5 66 l58 61 q26 -21 72 -63.5 q46 -42.5 78 -74.5 l-60 -65 ZM946 198 q0 -48 -4 -136 q-3 -46 -13 -68.5 q-10 -22.5 -33 -31 q-23 -8.5 -71 -12.5 q-17 -2 -52 -2 q-35 0 -52 2 q-37 3 -57.5 13.5 q-20.5 10.5 -30 35.5 q-9.5 25 -9.5 71 l0 408 l92 0 l0 -383 q0 -32 8 -42.5 q8 -10.5 34 -13.5 q8 -1 25 -1 q16 0 24 1 q20 2 29 6.5 q9 4.5 13 15.5 q4 11 5 34 q2 24 3 60.5 q1 36.5 1 61.5 l88 -19 Z" /><glyph glyph-name="uni4F19" unicode="&#x4f19;" d="M668 493 q18 -163 89 -275 q71 -112 207 -209 l-70 -87 q-102 82 -167 171 q-65 89 -99 197 q-76 -205 -282 -373 l-69 78 q110 81 174 166.5 q64 85.5 92.5 188 q28.5 102.5 28.5 238.5 l0 247 l96 0 l0 -322 l0 -20 ZM333 802 q-33 -107 -80 -214 l0 -666 l-92 0 l0 490 q-46 -75 -91 -130 l-51 104 q63 77 126 201.5 q63 124.5 94 240.5 l94 -26 ZM941 642 q-30 -63 -73 -143.5 q-43 -80.5 -79 -141.5 l-83 43 q35 58 78 140.5 q43 82.5 71 143.5 l86 -42 ZM454 349 q-32 68 -75 149.5 q-43 81.5 -77 139.5 l82 45 q35 -59 77.5 -139 q42.5 -80 74.5 -147 l-82 -48 Z" /><glyph glyph-name="uni4F1A" unicode="&#x4f1a;" d="M544 849 q68 -95 174.5 -180 q106.5 -85 243.5 -153 l-42 -88 q-88 45 -173 102 l0 -80 l-494 0 l0 75 q-75 -51 -170 -100 l-43 87 q139 67 245.5 153 q106.5 86 175.5 184 l83 0 ZM740 535 q-73 51 -134.5 106.5 q-61.5 55.5 -102.5 107.5 q-83 -108 -236 -214 l473 0 ZM86 248 l0 86 l830 0 l0 -86 l-444 0 q-92 -129 -167 -205 q264 20 389 33 q-58 72 -87 105 l73 51 q43 -47 100.5 -116.5 q57.5 -69.5 103.5 -129.5 l-73 -62 l-58 78 q-133 -14 -423 -39 l-35 -3 l-136 -12 l-21 85 q24 8 36.5 15.5 q12.5 7.5 28.5 21.5 q77 72 154 178 l-271 0 Z" /><glyph glyph-name="uni4F1F" unicode="&#x4f1f;" d="M350 819 q-41 -120 -91 -227 l0 -664 l-91 0 l0 495 q-52 -84 -104 -146 l-36 107 q64 84 126.5 208 q62.5 124 102.5 250 l93 -23 ZM633 335 l296 0 q-1 -89 -14 -204 q-5 -46 -21.5 -71 q-16.5 -25 -45 -34 q-28.5 -9 -76.5 -9 q-24 0 -76 4 l-18 90 q38 -6 74 -6 q35 0 49 9.5 q14 9.5 19 37.5 q8 39 10 93 l-197 0 l0 -321 l-93 0 l0 321 l-234 0 l0 90 l234 0 l0 102 l-182 0 l0 87 l182 0 l0 104 l-204 0 l0 90 l204 0 l0 122 l93 0 l0 -122 l294 0 l0 -90 l-294 0 l0 -104 l259 0 l0 -87 l-259 0 l0 -102 Z" /><glyph glyph-name="uni4F20" unicode="&#x4f20;" d="M956 431 l-394 0 q-14 -48 -29 -91 l349 0 l0 -85 q-56 -82 -141 -195 l143 -65 l-39 -86 q-103 52 -230.5 112.5 q-127.5 60.5 -213.5 95.5 l34 78 q82 -33 223 -97 q29 37 62.5 83 q33.5 46 50.5 73 l-339 0 l0 79 q14 40 32 98 l-149 0 l0 87 l174 0 q16 62 26 104 l-147 0 l0 86 l166 0 q17 77 26 138 l94 -10 q-11 -64 -24 -128 l289 0 l0 -86 l-308 0 l-25 -104 l370 0 l0 -87 ZM342 819 q-38 -117 -85 -217 l0 -679 l-89 0 l0 515 q-40 -65 -100 -142 l-40 103 q62 84 122 200.5 q60 116.5 102 241.5 l90 -22 Z" /><glyph glyph-name="uni4F26" unicode="&#x4f26;" d="M339 811 q-35 -113 -81 -211 l0 -678 l-93 0 l0 506 q-45 -71 -97 -136 l-43 101 q62 81 123 204.5 q61 123.5 98 246.5 l93 -33 ZM669 835 q46 -94 126.5 -176.5 q80.5 -82.5 178.5 -140.5 l-56 -85 q-95 61 -169.5 136 q-74.5 75 -120.5 157 q-96 -157 -298 -295 l-54 82 q93 60 176.5 145.5 q83.5 85.5 132.5 176.5 l84 0 ZM795 156 q3 44 3 67 l99 -23 l-4 -48 l-8 -90 q-4 -63 -38 -90 q-34 -27 -108 -33 q-40 -4 -91 -4 q-50 0 -91 4 q-55 4 -86.5 18.5 q-31.5 14.5 -46.5 48 q-15 33.5 -15 95.5 l0 386 l95 0 l0 -167 q72 32 153 75.5 q81 43.5 133 78.5 l47 -90 q-58 -35 -156 -84 q-98 -49 -177 -83 l0 -111 q0 -42 13.5 -57 q13.5 -15 54.5 -20 q36 -3 73 -3 q32 0 65 3 q36 4 52.5 11.5 q16.5 7.5 23 23.5 q6.5 16 7.5 49 l2 43 Z" /><glyph glyph-name="uni4F2A" unicode="&#x4f2a;" d="M918 612 q-2 -299 -27 -531 q-9 -76 -42.5 -107.5 q-33.5 -31.5 -102.5 -31.5 q-74 2 -130 8 l-19 91 q76 -9 125 -9 q38 0 55.5 20.5 q17.5 20.5 24.5 71.5 q23 174 23 395 l-207 0 q-14 -140 -43.5 -236.5 q-29.5 -96.5 -84 -177.5 q-54.5 -81 -149.5 -178 l-74 67 q95 93 146.5 165 q51.5 72 78 154.5 q26.5 82.5 37.5 205.5 l-213 0 l0 93 l219 0 l8 143 l4 80 l90 -1 q-1 -43 -4.5 -106 q-3.5 -63 -7.5 -116 l293 0 ZM325 811 q-30 -104 -71 -202 l0 -683 l-89 0 l0 503 q-47 -78 -92 -137 l-44 97 q61 81 117 201.5 q56 120.5 91 242.5 l88 -22 ZM450 629 q-48 60 -113 135 l58 53 q41 -42 117 -133 l-62 -55 ZM728 170 q-21 30 -65.5 87 q-44.5 57 -67.5 82 l60 56 q32 -37 74 -89 q42 -52 64 -82 l-65 -54 Z" /><glyph glyph-name="uni4F2F" unicode="&#x4f2f;" d="M900 704 l0 -779 l-91 0 l0 64 l-335 0 l0 -66 l-93 0 l0 781 l173 0 q24 69 42 145 l103 -17 q-12 -50 -40 -128 l241 0 ZM337 818 q-35 -111 -76 -206 l0 -685 l-90 0 l0 511 q-45 -74 -93 -137 l-50 94 q62 78 121.5 200 q59.5 122 99.5 248 l88 -25 ZM809 393 l0 222 l-335 0 l0 -222 l335 0 ZM474 307 l0 -230 l335 0 l0 230 l-335 0 Z" /><glyph glyph-name="uni4F30" unicode="&#x4f30;" d="M332 811 q-38 -118 -80 -211 l0 -676 l-93 0 l0 500 q-39 -64 -90 -127 l-43 103 q61 83 117.5 197.5 q56.5 114.5 94.5 238.5 l94 -25 ZM943 661 l0 -89 l-268 0 l0 -187 l207 0 l0 -463 l-95 0 l0 60 l-320 0 l0 -60 l-94 0 l0 463 l209 0 l0 187 l-260 0 l0 89 l260 0 l0 173 l93 0 l0 -173 l268 0 ZM467 68 l320 0 l0 227 l-320 0 l0 -227 Z" /><glyph glyph-name="uni4F34" unicode="&#x4f34;" d="M684 254 l272 0 l0 -89 l-272 0 l0 -243 l-94 0 l0 243 l-277 0 l0 89 l277 0 l0 126 l-227 0 l0 88 l227 0 l0 376 l94 0 l0 -376 l233 0 l0 -88 l-233 0 l0 -126 ZM342 806 q-40 -123 -82 -210 l0 -669 l-92 0 l0 502 q-45 -70 -99 -137 l-48 97 q70 87 128 200.5 q58 113.5 100 241.5 l93 -25 ZM930 743 q-18 -42 -55 -113.5 q-37 -71.5 -63 -116.5 l-82 40 q30 50 65.5 118 q35.5 68 53.5 111 l81 -39 ZM463 517 q-21 45 -56.5 112 q-35.5 67 -60.5 109 l79 41 q25 -40 60 -106.5 q35 -66.5 58 -116.5 l-80 -39 Z" /><glyph glyph-name="uni4F38" unicode="&#x4f38;" d="M330 819 q-41 -133 -86 -228 l0 -664 l-87 0 l0 504 q-43 -68 -86 -127 l-51 93 q138 179 217 448 l93 -26 ZM671 701 l238 0 l0 -554 l-238 0 l0 -223 l-86 0 l0 223 l-237 0 l0 554 l237 0 l0 139 l86 0 l0 -139 ZM585 469 l0 144 l-152 0 l0 -144 l152 0 ZM823 469 l0 144 l-152 0 l0 -144 l152 0 ZM433 381 l0 -148 l152 0 l0 148 l-152 0 ZM671 381 l0 -148 l152 0 l0 148 l-152 0 Z" /><glyph glyph-name="uni4F3C" unicode="&#x4f3c;" d="M329 813 q-34 -112 -76 -211 l0 -676 l-88 0 l0 500 q-44 -77 -92 -138 l-50 105 q62 81 122 203.5 q60 122.5 95 243.5 l89 -27 ZM632 553 q-27 54 -66.5 122.5 q-39.5 68.5 -64.5 106.5 l71 45 q27 -38 66 -103.5 q39 -65.5 66 -118.5 l-72 -52 ZM901 -57 q-46 72 -143 208 q-39 -61 -100 -117 q-61 -56 -154 -119 l-60 76 q134 89 199.5 162 q65.5 73 92.5 168 q27 95 34 261 q4 73 4 190 l0 37 l89 0 q1 -20 -4 -188 l-1 -41 q-4 -115 -16.5 -196.5 q-12.5 -81.5 -38.5 -145.5 q86 -113 169 -229 l-71 -66 ZM662 298 q-138 -116 -190 -162 q-38 -33 -63 -60 l-65 69 q16 18 21.5 30 q5.5 12 5.5 24 l0 553 l87 0 l0 -504 l55 48 q35 31 105 91 l44 -89 Z" /><glyph glyph-name="uni4F46" unicode="&#x4f46;" d="M331 817 q-42 -127 -81 -216 l0 -681 l-91 0 l0 505 q-44 -72 -94 -135 l-39 109 q62 83 117 196 q55 113 94 240 l94 -18 ZM378 782 l514 0 l0 -589 l-514 0 l0 589 ZM800 532 l0 158 l-331 0 l0 -158 l331 0 ZM469 442 l0 -158 l331 0 l0 158 l-331 0 ZM311 -38 l0 91 l646 0 l0 -91 l-646 0 Z" /><glyph glyph-name="uni4F4D" unicode="&#x4f4d;" d="M328 686 l262 0 q-26 75 -55 143 l96 22 q27 -60 62 -165 l240 0 l0 -91 l-605 0 l0 91 ZM334 821 q-38 -121 -80 -213 l0 -674 l-91 0 l0 504 q-42 -69 -97 -137 l-50 91 q67 87 126 207 q59 120 97 246 l95 -24 ZM952 59 l0 -91 l-652 0 l0 91 l328 0 q32 90 76.5 240.5 q44.5 150.5 68.5 248.5 l92 -27 q-25 -94 -67 -228.5 q-42 -134.5 -76 -233.5 l230 0 ZM496 121 q-17 70 -53 195.5 q-36 125.5 -61 200.5 l88 25 q26 -77 60.5 -195 q34.5 -118 54.5 -201 l-89 -25 Z" /><glyph glyph-name="uni4F4E" unicode="&#x4f4e;" d="M332 823 q-37 -121 -83 -221 l0 -676 l-90 0 l0 508 q-41 -67 -93 -130 l-43 95 q61 79 121 204 q60 125 96 245 l92 -25 ZM959 169 q-2 -18 -11 -59.5 q-9 -41.5 -17 -73.5 q-13 -51 -35 -74.5 q-22 -23.5 -54 -23.5 q-34 0 -67 36.5 q-33 36.5 -61 113.5 q-40 107 -60 296 l-192 0 l0 -267 q9 6 21 14 q12 8 26 18 l117 78 l25 -88 l-70 -45 q64 -74 102 -128 l-66 -49 q-29 40 -104 131 q-11 -7 -19.5 -12.5 q-8.5 -5.5 -14.5 -9.5 q-46 -31 -90 -65 l-49 76 q17 16 23.5 29 q6.5 13 6.5 30 l0 654 q125 8 262 25.5 q137 17.5 257 41.5 l22 -92 q-79 -17 -186 -32 q1 -100 10 -217 l205 0 l0 -92 l-197 0 q20 -181 56 -276 q10 -27 23.5 -46.5 q13.5 -19.5 19.5 -19.5 q5 0 12.5 17.5 q7.5 17.5 13.5 41.5 q9 51 16 97 l75 -29 ZM462 476 l184 0 q-5 70 -11 205 q-113 -15 -173 -19 l0 -186 Z" /><glyph glyph-name="uni4F4F" unicode="&#x4f4f;" d="M673 48 l278 0 l0 -90 l-648 0 l0 90 l271 0 l0 241 l-225 0 l0 93 l225 0 l0 203 l-249 0 l0 90 l286 0 q-16 36 -58 113 l-17 33 l83 41 l31 -57 l53 -96 l-70 -34 l296 0 l0 -90 l-256 0 l0 -203 l223 0 l0 -93 l-223 0 l0 -241 ZM333 806 q-38 -114 -84 -214 l0 -661 l-90 0 l0 490 q-39 -65 -90 -130 l-48 98 q61 81 120 202 q59 121 99 246 l93 -31 Z" /><glyph glyph-name="uni4F53" unicode="&#x4f53;" d="M898 74 q-86 95 -149 215 q-63 120 -97 248 l0 -362 l154 0 l0 -84 l-154 0 l0 -168 l-93 0 l0 168 l-149 0 l0 84 l149 0 l0 364 q-34 -126 -93 -237 q-59 -111 -156 -231 l-58 85 q87 96 147 201.5 q60 105.5 98 227.5 l-187 0 l0 88 l249 0 l0 166 l93 0 l0 -166 l273 0 l0 -88 l-211 0 q35 -117 98 -225 q63 -108 149 -202 l-63 -84 ZM329 821 q-32 -110 -84 -231 l0 -662 l-90 0 l0 487 q-36 -62 -84 -124 l-39 107 q56 80 114 200 q58 120 92 239 l91 -16 Z" /><glyph glyph-name="uni4F55" unicode="&#x4f55;" d="M319 818 q-33 -117 -73 -212 l0 -681 l-91 0 l0 500 q-40 -69 -90 -132 l-47 94 q58 79 118 207.5 q60 128.5 93 246.5 l90 -23 ZM957 776 l0 -90 l-82 0 l0 -608 q0 -59 -14 -89 q-14 -30 -49.5 -42 q-35.5 -12 -105.5 -12 q-35 0 -105 4 l-19 92 q56 -7 120 -7 q35 0 51.5 6.5 q16.5 6.5 23 23 q6.5 16.5 6.5 50.5 l0 582 l-449 0 l0 90 l623 0 ZM351 563 l326 0 l0 -404 l-326 0 l0 404 ZM435 244 l158 0 l0 234 l-158 0 l0 -234 Z" /><glyph glyph-name="uni4F59" unicode="&#x4f59;" d="M916 259 l-360 0 l0 -200 q0 -73 -26.5 -103.5 q-26.5 -30.5 -91.5 -30.5 q-56 0 -120 8 l-21 97 q70 -10 104 -10 q34 0 45.5 14 q11.5 14 11.5 51 l0 174 l-374 0 l0 93 l374 0 l0 107 l-202 0 l0 71 q-76 -50 -172 -97 l-45 90 q143 65 241.5 140 q98.5 75 174.5 177 l90 0 q74 -100 175 -177 q101 -77 246 -144 l-48 -89 q-83 41 -168 97 l0 -68 l-194 0 l0 -107 l360 0 l0 -93 ZM501 747 q-81 -105 -215 -197 l430 0 q-140 98 -215 197 ZM344 175 q-44 -55 -109 -117.5 q-65 -62.5 -127 -113.5 l-58 77 q59 41 118 99.5 q59 58.5 105 117.5 l71 -63 ZM702 235 q47 -34 123.5 -96 q76.5 -62 126.5 -107 l-61 -76 q-58 52 -130 113.5 q-72 61.5 -115 94.5 l56 71 Z" /><glyph glyph-name="uni4F5C" unicode="&#x4f5c;" d="M939 605 l-305 0 l0 -146 l256 0 l0 -93 l-256 0 l0 -145 l277 0 l0 -94 l-277 0 l0 -206 l-93 0 l0 684 l-47 0 q-61 -121 -147 -228 l-65 78 q65 77 119 177 q54 100 92 211 l91 -25 q-19 -56 -45 -119 l400 0 l0 -94 ZM340 806 q-39 -116 -82 -207 l0 -672 l-94 0 l0 504 q-41 -64 -95 -130 l-42 107 q61 77 120 190 q59 113 99 235 l94 -27 Z" /><glyph glyph-name="uni4F60" unicode="&#x4f60;" d="M296 477 q54 75 103 173.5 q49 98.5 75 188.5 l93 -18 q-18 -53 -41 -109 l409 0 l0 -89 l-79 -163 l-87 31 l66 132 l-349 0 q-49 -100 -111 -197 l-79 51 ZM323 813 q-35 -116 -77 -210 l0 -677 l-91 0 l0 503 q-36 -58 -81 -121 l-47 90 q57 78 113.5 198.5 q56.5 120.5 88.5 238.5 l94 -22 ZM587 549 l90 0 l0 -506 q0 -60 -25 -86 q-25 -26 -84 -26 q-53 0 -107 6 l-18 92 q39 -7 91 -10 q29 -1 41 13 q12 14 12 45 l0 472 ZM820 419 q34 -86 69.5 -180 q35.5 -94 63.5 -165 l7 -20 l-86 -32 q-100 273 -136 366 l82 31 ZM503 385 q-23 -85 -60.5 -185 q-37.5 -100 -73.5 -176 l-86 34 q35 67 73.5 165.5 q38.5 98.5 61.5 183.5 l85 -22 Z" /><glyph glyph-name="uni4F6C" unicode="&#x4f6c;" d="M327 814 q-37 -114 -76 -206 l0 -686 l-92 0 l0 503 q-40 -68 -95 -138 l-36 102 q58 82 113.5 201 q55.5 119 94.5 247 l91 -23 ZM702 413 q-71 -70 -169 -137 l0 -52 q81 24 166 56 q85 32 153 66 l36 -81 q-73 -34 -169.5 -68.5 q-96.5 -34.5 -185.5 -59.5 l0 -46 q0 -37 13.5 -51.5 q13.5 -14.5 48.5 -18.5 q48 -4 71 -4 q25 0 71 4 q34 4 46.5 18 q12.5 14 14.5 46 l2 30 q1 16 2 35.5 q1 19.5 1 36.5 l95 -24 q-4 -78 -6 -109 q-4 -67 -32.5 -93.5 q-28.5 -26.5 -97.5 -31.5 q-47 -4 -106 -4 q-59 0 -107 4 q-60 5 -86 36 q-26 31 -26 100 l0 150 q-57 -34 -123 -69 l-44 84 q179 92 291 183 l-269 0 l0 87 l213 0 l0 126 l-152 0 l0 83 l152 0 l0 128 l92 0 l0 -128 l160 0 l0 -80 q47 71 80 143 l88 -40 q-62 -132 -143 -232 l170 0 l0 -87 l-250 0 ZM597 626 l0 -126 l58 0 q54 57 100 126 l-158 0 Z" /><glyph glyph-name="uni4F70" unicode="&#x4f70;" d="M323 822 q-29 -104 -73 -213 l0 -687 l-91 0 l0 501 q-41 -72 -93 -139 l-41 110 q59 80 114 201 q55 121 89 245 l95 -18 ZM938 695 l-255 0 q-13 -73 -26 -122 l231 0 l0 -646 l-91 0 l0 59 l-314 0 l0 -60 l-92 0 l0 647 l165 0 q19 71 28 122 l-231 0 l0 88 l585 0 l0 -88 ZM483 327 l314 0 l0 156 l-314 0 l0 -156 ZM483 236 l0 -162 l314 0 l0 162 l-314 0 Z" /><glyph glyph-name="uni4F73" unicode="&#x4f73;" d="M307 492 l280 0 l0 127 l-224 0 l0 86 l224 0 l0 132 l93 0 l0 -132 l222 0 l0 -86 l-222 0 l0 -127 l273 0 l0 -89 l-646 0 l0 89 ZM332 815 q-30 -114 -72 -208 l0 -685 l-92 0 l0 507 q-40 -66 -98 -150 l-40 114 q69 98 123 210.5 q54 112.5 88 232.5 l91 -21 ZM681 191 l0 -140 l273 0 l0 -88 l-652 0 l0 88 l286 0 l0 140 l-225 0 l0 88 l225 0 l0 94 l93 0 l0 -94 l221 0 l0 -88 l-221 0 Z" /><glyph glyph-name="uni4F7F" unicode="&#x4f7f;" d="M307 818 q-31 -119 -73 -223 l0 -675 l-88 0 l0 498 q-41 -70 -78 -121 l-46 94 q55 77 106.5 196.5 q51.5 119.5 89.5 253.5 l89 -23 ZM941 -69 q-124 17 -215.5 40.5 q-91.5 23.5 -162.5 57.5 q-39 -31 -98.5 -57 q-59.5 -26 -146.5 -52 l-47 87 q136 34 205 74 q-76 55 -132 136 l64 52 q55 -79 133 -129 q19 27 27.5 61 q8.5 34 9.5 80 l-243 0 l0 279 l243 0 l0 79 l-270 0 l0 85 l270 0 l0 116 l88 0 l0 -116 l276 0 l0 -85 l-276 0 l0 -79 l244 0 l0 -279 l-244 0 q-3 -118 -43 -184 q128 -52 344 -73 l-26 -93 ZM578 479 l-157 0 l0 -113 l157 0 l0 113 ZM823 366 l0 113 l-157 0 l0 -113 l157 0 Z" /><glyph glyph-name="uni4F8B" unicode="&#x4f8b;" d="M295 822 q-35 -131 -75 -234 l0 -665 l-83 0 l0 486 q-25 -47 -68 -110 l-46 91 q51 82 101.5 205 q50.5 123 81.5 243 l89 -16 ZM832 828 l85 0 l0 -767 q0 -51 -13.5 -78 q-13.5 -27 -44.5 -38 q-31 -11 -87 -11 q-28 0 -86 4 l-17 86 q48 -7 99 -7 q38 0 51 14.5 q13 14.5 13 55.5 l0 741 ZM312 701 l0 87 l335 0 l0 -87 l-163 0 q-14 -75 -29 -129 l163 0 l0 -96 q-23 -132 -58 -226 q-35 -94 -92 -172 q-57 -78 -149 -158 l-61 71 q133 109 197 234 q-34 35 -96 89 q-26 -54 -57 -101 l-58 63 q48 82 90.5 200 q42.5 118 63.5 225 l-86 0 ZM678 727 l82 0 l0 -575 l-82 0 l0 575 ZM429 483 q-16 -48 -33 -89 q45 -38 96 -84 q26 73 43 173 l-106 0 Z" /><glyph glyph-name="uni4F9B" unicode="&#x4f9b;" d="M324 822 q-39 -124 -81 -217 l0 -677 l-93 0 l0 504 q-43 -67 -91 -129 l-37 108 q61 80 116.5 195 q55.5 115 95.5 244 l90 -28 ZM813 565 l0 -237 l143 0 l0 -91 l-661 0 l0 91 l146 0 l0 237 l-110 0 l0 89 l110 0 l0 183 l94 0 l0 -183 l185 0 l0 183 l93 0 l0 -183 l120 0 l0 -89 l-120 0 ZM720 565 l-185 0 l0 -237 l185 0 l0 237 ZM292 -4 q53 41 112.5 99.5 q59.5 58.5 103.5 112.5 l71 -59 q-45 -53 -108.5 -116 q-63.5 -63 -117.5 -108 l-61 71 ZM738 206 q45 -41 106.5 -102 q61.5 -61 104.5 -107 l-66 -68 q-40 46 -101.5 109.5 q-61.5 63.5 -106.5 105.5 l63 62 Z" /><glyph glyph-name="uni4F9D" unicode="&#x4f9d;" d="M736 308 q41 -76 97.5 -136 q56.5 -60 130.5 -110 l-69 -81 q-88 65 -147 135.5 q-59 70.5 -99.5 159.5 q-40.5 89 -70.5 213 q-32 -57 -70 -110 l0 -311 q23 13 106 54 l43 21 l19 -92 q-114 -49 -172 -79 q-45 -23 -79 -44 l-43 75 q34 28 34 62 l0 202 q-43 -46 -97 -94 l-58 83 q101 86 165 169 q64 83 112 187 l-222 0 l0 90 l261 0 q-19 50 -52 121 l86 33 q22 -45 65 -154 l259 0 l0 -90 l-298 0 q22 -124 62 -225 q68 54 155 137 l59 -69 q-88 -78 -177 -147 ZM319 821 q-36 -118 -79 -216 l0 -676 l-92 0 l0 499 q-41 -68 -86 -127 l-44 100 q63 84 116.5 196 q53.5 112 92.5 244 l92 -20 Z" /><glyph glyph-name="uni4FA7" unicode="&#x4fa7;" d="M274 824 q-25 -102 -58 -193 l0 -706 l-80 0 l0 527 q-31 -59 -70 -122 l-43 90 q53 83 96 192.5 q43 109.5 71 228.5 l84 -17 ZM832 821 l84 0 l0 -766 q0 -65 -23.5 -90 q-23.5 -25 -81.5 -25 q-38 -1 -93 4 l-18 86 q54 -7 93 -7 q22 0 30.5 13 q8.5 13 8.5 48 l0 737 ZM549 694 l-175 0 l0 -508 l-76 0 l0 595 l327 0 l0 -592 l-76 0 l0 505 ZM691 735 l76 0 l0 -575 l-76 0 l0 575 ZM489 211 q37 -35 88.5 -89 q51.5 -54 89.5 -97 l-64 -64 q-67 86 -136 167 q-22 -58 -61 -106 q-39 -48 -102 -95 l-55 66 q80 61 116.5 110.5 q36.5 49.5 48 108.5 q11.5 59 11.5 165 l0 266 l74 0 l0 -285 q0 -86 -10 -147 Z" /><glyph glyph-name="uni4FB5" unicode="&#x4fb5;" d="M315 820 q-39 -141 -83 -244 l0 -656 l-83 0 l0 489 q-29 -50 -74 -115 l-49 94 q57 80 111.5 203.5 q54.5 123.5 88.5 248.5 l89 -20 ZM354 800 l525 0 l0 -319 l-534 0 l0 70 l445 0 l0 56 l-415 0 l0 66 l415 0 l0 55 l-436 0 l0 72 ZM933 -76 q-189 38 -305 100 q-114 -59 -318 -102 l-35 77 q171 32 272 76 q-78 58 -142 146 l-30 0 l0 44 l-78 0 l0 162 l637 0 l0 -162 l-82 0 l0 91 l-472 0 l0 -63 l470 0 l0 -70 q-63 -94 -142 -150 q102 -44 255 -68 l-30 -81 ZM506 221 q52 -63 119 -105 q65 40 122 105 l-241 0 Z" /><glyph glyph-name="uni4FBF" unicode="&#x4fbf;" d="M317 818 q-33 -125 -75 -226 l0 -669 l-89 0 l0 489 q-36 -62 -80 -119 l-42 101 q52 75 107 200 q55 125 88 246 l91 -22 ZM940 -66 q-128 13 -221.5 34.5 q-93.5 21.5 -166.5 57.5 q-77 -63 -227 -109 l-35 85 q117 34 178 73 q-60 42 -112 100 l61 50 q56 -57 114 -92 q34 46 43 109 l-228 0 l0 396 l234 0 l0 76 l-242 0 l0 82 l599 0 l0 -82 l-270 0 l0 -76 l232 0 l0 -396 l-236 0 q-9 -90 -50 -150 q129 -53 349 -69 l-22 -89 ZM580 477 l0 83 l-146 0 l0 -83 l146 0 ZM811 477 l0 83 l-144 0 l0 -83 l144 0 ZM434 404 l0 -83 l146 0 l0 6 l0 77 l-146 0 ZM667 404 l0 -83 l144 0 l0 83 l-144 0 Z" /><glyph glyph-name="uni4FC3" unicode="&#x4fc3;" d="M324 810 q-33 -111 -75 -210 l0 -674 l-92 0 l0 496 q-38 -61 -87 -124 l-45 90 q59 79 118.5 206 q59.5 127 90.5 241 l90 -25 ZM704 38 q88 -4 131 -4 q43 0 131 4 l-17 -89 q-53 -4 -121 -4 q-66 0 -121 4 q-94 6 -157 41.5 q-63 35.5 -105 107.5 q-29 -90 -85 -177 l-79 49 q60 93 85 185 q25 92 30 230 l92 -7 q-3 -78 -14 -151 q41 -127 131 -167 l0 390 l-228 0 l0 343 l516 0 l0 -343 l-196 0 l0 -139 l233 0 l0 -89 l-233 0 l0 -184 l7 0 ZM801 706 l-333 0 l0 -169 l333 0 l0 169 Z" /><glyph glyph-name="uni4FCA" unicode="&#x4fca;" d="M318 630 q37 8 57 21 q39 29 97.5 90.5 q58.5 61.5 94.5 112.5 l80 -46 q-70 -84 -167 -175 l275 23 l-75 72 l60 57 q128 -121 211 -205 l-62 -60 q-34 36 -60 62 q-32 -3 -61.5 -4.5 q-29.5 -1.5 -55.5 -3.5 q-230 -16 -298 -23 l-77 -10 l-19 89 ZM332 818 q-41 -132 -87 -233 l0 -660 l-87 0 l0 498 q-38 -59 -85 -122 l-48 89 q60 78 122.5 207 q62.5 129 96.5 246 l88 -25 ZM711 552 q56 -32 124.5 -72 q68.5 -40 122.5 -73 l-39 -72 q-50 32 -122.5 74.5 q-72.5 42.5 -129.5 72.5 l44 70 ZM275 401 q135 68 223 146 l52 -66 q-98 -84 -229 -156 l-46 76 ZM921 -78 q-185 56 -295 121 q-113 -69 -308 -125 l-43 87 q175 46 271 93 q-58 48 -103 109 q-55 -59 -115 -103 l-54 67 q69 54 130 124.5 q61 70.5 98 138.5 l79 -33 q-15 -27 -28 -49 l303 0 l0 -73 q-35 -57 -72 -102 q-37 -45 -82 -82 q103 -51 259 -88 l-40 -85 ZM500 275 q50 -79 123 -132 q73 51 129 132 l-251 0 l-1 0 Z" /><glyph glyph-name="uni4FDD" unicode="&#x4fdd;" d="M321 808 q-36 -120 -77 -214 l0 -671 l-88 0 l0 501 q-36 -60 -85 -122 l-48 89 q58 80 117.5 205.5 q59.5 125.5 88.5 236.5 l92 -25 ZM715 285 q48 -66 108.5 -120 q60.5 -54 140.5 -103 l-51 -85 q-78 57 -137 118 q-59 61 -108 132 l0 -301 l-87 0 l0 306 q-98 -146 -257 -258 l-50 79 q80 52 141.5 107 q61.5 55 112.5 125 l-219 0 l0 84 l272 0 l0 94 l-212 0 l0 328 l512 0 l0 -328 l-213 0 l0 -94 l273 0 l0 -84 l-226 0 ZM789 703 l-328 0 l0 -152 l328 0 l0 152 Z" /><glyph glyph-name="uni4FE1" unicode="&#x4fe1;" d="M961 729 l0 -86 l-650 0 l0 86 l285 0 q-31 72 -44 96 l92 23 q12 -25 52 -119 l265 0 ZM315 818 q-31 -118 -71 -215 l0 -680 l-89 0 l0 503 q-33 -56 -78 -115 l-51 91 q60 82 116 204 q56 122 84 234 l89 -22 ZM367 571 l515 0 l0 -78 l-515 0 l0 78 ZM882 342 l-515 0 l0 80 l515 0 l0 -80 ZM457 -75 l-92 0 l0 342 l520 0 l0 -342 l-92 0 l0 53 l-336 0 l0 -53 ZM793 61 l0 122 l-336 0 l0 -122 l336 0 Z" /><glyph glyph-name="uni4FEA" unicode="&#x4fea;" d="M287 828 q-30 -129 -68 -232 l0 -676 l-81 0 l0 496 q-32 -59 -74 -119 l-38 105 q48 78 96 204 q48 126 73 239 l92 -17 ZM297 699 l0 89 l656 0 l0 -89 l-656 0 ZM309 -67 l0 671 l271 0 l0 -588 q0 -47 -16.5 -65.5 q-16.5 -18.5 -56.5 -18.5 q-36 0 -65 4 l-17 86 q28 -7 49 -7 q16 0 22 10.5 q6 10.5 6 35.5 l0 154 l-41 -20 q-40 98 -73 171 l0 -433 l-79 0 ZM641 -67 l0 671 l278 0 l0 -588 q0 -47 -18.5 -65.5 q-18.5 -18.5 -63.5 -18.5 q-35 0 -63 4 l-16 86 q28 -7 48 -7 q18 0 24.5 10.5 q6.5 10.5 6.5 35.5 l0 154 l-37 -19 q-41 95 -81 178 l0 -441 l-78 0 ZM502 513 l-114 0 l0 -104 l43 22 q28 -55 71 -153 l0 235 ZM837 513 l-118 0 l0 -104 l48 24 q17 -32 70 -148 l0 228 Z" /><glyph glyph-name="uni4FEE" unicode="&#x4fee;" d="M514 626 q-35 -39 -87 -83 l-51 67 q60 50 109 111.5 q49 61.5 81 128.5 l81 -26 q-11 -24 -31 -59 l282 0 l0 -74 q-60 -98 -141 -162 q88 -45 212 -73 l-31 -81 q-156 43 -256 102 q-105 -62 -267 -112 l-35 78 q137 39 229 85 q-52 43 -95 98 ZM301 822 q-33 -124 -81 -242 l0 -657 l-82 0 l0 488 q-28 -50 -65 -105 l-43 94 q47 69 103 198.5 q56 129.5 85 242.5 l83 -19 ZM368 96 l-79 0 l0 602 l79 0 l0 -602 ZM567 689 l-2 -2 q47 -65 117 -114 q67 48 113 116 l-228 0 ZM796 374 q-75 -47 -159.5 -87.5 q-84.5 -40.5 -166.5 -66.5 l-36 72 q84 25 167.5 63.5 q83.5 38.5 156.5 82.5 l38 -64 ZM417 139 q116 35 222.5 85.5 q106.5 50.5 193.5 110.5 l44 -62 q-85 -61 -193.5 -113 q-108.5 -52 -227.5 -88 l-39 67 ZM373 -8 q158 38 296.5 98 q138.5 60 246.5 136 l43 -62 q-206 -157 -552 -246 l-34 74 Z" /><glyph glyph-name="uni500D" unicode="&#x500d;" d="M955 474 l0 -89 l-648 0 l0 89 l162 0 q-16 79 -35 167 l-83 0 l0 86 l237 0 q-14 41 -40 103 l93 21 q17 -42 46 -124 l235 0 l0 -86 l-92 0 q-16 -79 -35 -167 l160 0 ZM335 807 q-35 -104 -85 -213 l0 -673 l-91 0 l0 502 q-37 -62 -80 -119 l-49 99 q133 172 211 430 l94 -26 ZM528 641 q22 -100 33 -167 l142 0 q19 88 35 167 l-210 0 ZM475 -80 l-96 0 l0 372 l501 0 l0 -372 l-93 0 l0 50 l-312 0 l0 -50 ZM787 54 l0 155 l-312 0 l0 -155 l312 0 Z" /><glyph glyph-name="uni5012" unicode="&#x5012;" d="M273 818 q-32 -123 -66 -213 l0 -684 l-82 0 l0 504 q-35 -63 -65 -108 l-43 94 q49 80 94 194 q45 114 74 231 l88 -18 ZM825 822 l84 0 l0 -768 q0 -47 -8 -73.5 q-8 -26.5 -28 -38.5 q-20 -12 -56 -13 q-60 0 -104 5 l-17 84 q45 -6 91 -6 q21 0 29.5 15.5 q8.5 15.5 8.5 52.5 l0 742 ZM490 425 l0 -117 l129 0 l0 -86 l-129 0 l0 -134 l148 23 l6 -88 l-385 -62 l-8 89 l157 25 l0 147 l-135 0 l0 86 l135 0 l0 105 q-26 -3 -97 -14 l-32 -4 l-22 77 q7 2 15 8 q8 6 12 12 q18 26 44.5 80 q26.5 54 49.5 106 l-98 0 l0 87 l350 0 l0 -87 l-166 0 q-64 -142 -95 -196 q80 10 166 24 q-29 63 -54 106 l67 29 q22 -38 54 -107.5 q32 -69.5 50 -117.5 l-68 -31 q-3 8 -19 50 l-75 -10 ZM678 711 l78 0 l0 -565 l-78 0 l0 565 Z" /><glyph glyph-name="uni5019" unicode="&#x5019;" d="M293 819 q-36 -131 -70 -221 l0 -674 l-82 0 l0 490 q-34 -64 -67 -116 l-44 100 q45 72 96.5 199 q51.5 127 81.5 242 l85 -20 ZM838 615 l105 0 l0 -78 l-525 0 l0 78 l332 0 l8 96 l-294 0 l0 80 l389 0 l-15 -176 ZM298 698 l80 0 l0 -619 l-80 0 l0 619 ZM728 189 q59 -130 234 -182 l-48 -81 q-86 31 -145 76 q-59 45 -94 106 q-34 -56 -98 -101 q-64 -45 -168 -87 l-50 77 q110 40 172.5 87.5 q62.5 47.5 84.5 104.5 l-201 0 l0 78 l214 0 l0 99 l-104 0 q-25 -45 -49 -81 l-68 46 q55 76 99 193 l77 -22 q-12 -35 -22 -57 l340 0 l0 -79 l-180 0 q0 -39 -3 -90 l0 -9 l221 0 l0 -78 l-212 0 Z" /><glyph glyph-name="uni503C" unicode="&#x503c;" d="M302 825 q-31 -117 -68 -212 l0 -682 l-91 0 l0 487 q-41 -72 -75 -120 l-44 106 q56 80 103.5 196.5 q47.5 116.5 78.5 243.5 l96 -19 ZM874 601 l0 -563 l81 0 l0 -81 l-679 0 l0 81 l83 0 l0 563 l212 0 l0 79 l-248 0 l0 78 l248 0 l0 80 l92 0 l0 -80 l267 0 l0 -78 l-267 0 l0 -79 l211 0 ZM782 455 l0 68 l-331 0 l0 -68 l331 0 ZM451 316 l331 0 l0 69 l-331 0 l0 -69 ZM782 176 l0 69 l-331 0 l0 -69 l331 0 ZM782 107 l-331 0 l0 -69 l331 0 l0 69 Z" /><glyph glyph-name="uni503E" unicode="&#x503e;" d="M279 822 q-25 -99 -55 -184 l0 -704 l-84 0 l0 502 q-28 -58 -73 -138 l-45 86 q50 83 100 216.5 q50 133.5 72 238.5 l85 -17 ZM486 247 l23 -91 l-41 -30 q-59 -43 -92 -70 l-40 -34 l-51 74 q18 14 25.5 29.5 q7.5 15.5 7.5 38.5 l0 654 l83 0 l0 -230 l92 0 l0 -89 l-92 0 l0 -318 l85 66 ZM658 610 l14 62 l9 43 l-172 0 l0 77 l439 0 l0 -77 l-182 0 q-10 -48 -23 -105 l179 0 l0 -462 l-77 0 l0 383 l-231 0 l0 -382 l-77 0 l0 461 l121 0 ZM756 183 q131 -121 204 -190 l-61 -65 q-61 64 -175 172 q-28 -48 -78 -90.5 q-50 -42.5 -131 -88.5 l-47 77 q99 49 146.5 94.5 q47.5 45.5 62.5 99 q15 53.5 15 141.5 l0 143 l77 0 l0 -161 q0 -77 -13 -132 Z" /><glyph glyph-name="uni5047" unicode="&#x5047;" d="M294 818 q-33 -117 -65 -204 l0 -692 l-86 0 l0 506 q-32 -57 -70 -112 l-47 91 q53 80 100 193 q47 113 78 235 l90 -17 ZM588 209 l0 -86 l-183 0 l0 -195 l-85 0 l0 868 l275 0 l0 -294 l-190 0 l0 -102 l168 0 l0 -85 l-168 0 l0 -106 l183 0 ZM635 795 l265 0 l0 -292 l-266 0 l0 89 l182 0 l0 117 l-181 0 l0 86 ZM512 587 l0 123 l-107 0 l0 -123 l107 0 ZM820 133 q53 -58 148 -117 l-47 -88 q-95 66 -156 139 q-68 -72 -184 -145 l-49 78 q118 74 181 137 q-56 86 -92 199 l-20 0 l0 84 l310 0 l0 -87 q-29 -111 -91 -200 ZM704 336 q23 -72 62 -135 q42 61 62 135 l-124 0 Z" /><glyph glyph-name="uni504F" unicode="&#x504f;" d="M916 421 l0 -415 q0 -39 -13.5 -56 q-13.5 -17 -49.5 -17 q-27 0 -69 4 l-18 79 q22 -5 43 -5 q14 0 20 6 q6 6 6 21 l0 112 l-75 0 l0 -171 l-72 0 l0 171 l-73 0 l0 -170 l-72 0 l0 170 l-73 0 l0 -218 l-78 0 l0 362 q-25 -215 -98 -352 l-66 63 q55 93 78 216 q23 123 23 310 l0 215 l249 0 q-12 30 -36 86 l92 20 l42 -106 l228 0 l0 -245 l-491 0 q0 -26 -2 -80 l505 0 ZM298 805 q-39 -134 -71 -218 l0 -660 l-86 0 l0 478 q-23 -40 -65 -103 l-46 98 q56 82 103.5 198 q47.5 116 77.5 234 l87 -27 ZM816 580 l0 88 l-403 0 l0 -88 l403 0 ZM470 346 l0 -121 l73 0 l0 121 l-73 0 ZM615 346 l0 -121 l73 0 l0 121 l-73 0 ZM760 346 l0 -121 l75 0 l0 121 l-75 0 Z" /><glyph glyph-name="uni505A" unicode="&#x505a;" d="M804 187 q59 -95 168 -189 l-58 -77 q-99 90 -159 183 q-65 -92 -170 -187 l-59 74 q123 103 182 198 q-51 110 -73 256 q-25 -42 -36 -57 l-56 72 q46 79 85 184 q39 105 54 201 l84 -15 q-13 -71 -35 -152 l231 0 l0 -89 l-64 0 q-12 -134 -33 -228.5 q-21 -94.5 -61 -173.5 ZM275 815 q-30 -117 -63 -204 l0 -687 l-85 0 l0 496 q-32 -58 -61 -105 l-44 100 q50 89 95 202 q45 113 70 221 l88 -23 ZM285 22 l0 388 l95 0 l0 165 l-122 0 l0 87 l122 0 l0 173 l85 0 l0 -173 l121 0 l0 -87 l-121 0 l0 -165 l94 0 l0 -388 l-274 0 ZM690 559 q15 -164 65 -280 q26 62 41.5 137 q15.5 75 23.5 173 l-119 0 q-3 -10 -11 -30 ZM362 109 l119 0 l0 214 l-119 0 l0 -214 Z" /><glyph glyph-name="uni505C" unicode="&#x505c;" d="M936 750 l0 -77 l-613 0 l0 77 l244 0 q-22 60 -28 76 l93 25 q14 -35 37 -101 l267 0 ZM313 821 q-48 -150 -78 -225 l0 -668 l-85 0 l0 495 q-32 -56 -76 -113 l-44 95 q53 77 105.5 194 q52.5 117 86.5 240 l91 -18 ZM867 622 l0 -187 l-496 0 l0 187 l496 0 ZM780 558 l-321 0 l0 -60 l321 0 l0 60 ZM300 206 l0 175 l637 0 l0 -176 l-87 0 l0 100 l-465 0 l0 -99 l-85 0 ZM398 158 l0 77 l437 0 l0 -77 l-158 0 l0 -116 q0 -62 -25.5 -87 q-25.5 -25 -93.5 -26 q-37 0 -111 6 l-17 86 q74 -10 110 -10 q27 0 37.5 13 q10.5 13 10.5 41 l0 93 l-190 0 Z" /><glyph glyph-name="uni5065" unicode="&#x5065;" d="M733 50 l-83 0 l0 92 l-167 0 l0 72 l167 0 l0 63 l-131 0 l0 70 l131 0 l0 59 l-128 0 l0 70 l128 0 l0 68 l-155 0 l0 72 l155 0 l0 68 l-128 0 l0 70 l128 0 l0 82 l83 0 l0 -82 l165 0 l0 -138 l57 0 l0 -72 l-57 0 l0 -138 l-165 0 l0 -59 l169 0 l0 -70 l-169 0 l0 -63 l196 0 l0 -72 l-196 0 l0 -92 ZM263 815 q-23 -101 -56 -198 l0 -688 l-80 0 l0 495 q-29 -61 -62 -115 l-46 92 q48 82 92 199.5 q44 117.5 69 231.5 l83 -17 ZM645 25 q78 -5 142 -5 q76 0 169 5 l-16 -76 q-92 -5 -163 -5 q-82 0 -140 5 q-81 5 -144 31 q-63 26 -112 77 q-34 -56 -86 -126 l-69 55 q67 81 101 141 q-52 84 -87 211 l71 24 q26 -92 54 -149 q28 78 37 201 l-132 0 l0 77 l119 199 l-115 0 l0 77 l206 0 l0 -78 l-119 -198 l119 0 l0 -80 q-11 -97 -24.5 -161 q-13.5 -64 -37.5 -119 q82 -96 227 -106 ZM819 684 l-86 0 l0 -68 l86 0 l0 68 ZM819 544 l-86 0 l0 -68 l86 0 l0 68 Z" /><glyph glyph-name="uni5076" unicode="&#x5076;" d="M317 814 q-39 -126 -83 -226 l0 -664 l-87 0 l0 496 q-40 -65 -87 -125 l-38 104 q63 86 115.5 198 q52.5 112 87.5 239 l92 -22 ZM664 338 l258 0 l0 -302 q0 -55 -20 -80.5 q-20 -25.5 -71 -25.5 q-64 0 -109 5 l-17 78 q49 -7 83 -7 q27 0 37.5 11.5 q10.5 11.5 10.5 44.5 l0 201 l-175 0 l0 -109 l26 2 l35 3 l-18 58 l61 18 q28 -81 54 -177 l-62 -17 l-13 44 q-70 -5 -152.5 -12 q-82.5 -7 -134.5 -13 l-8 80 q50 2 130 8 l0 115 l-164 0 l0 -329 l-85 0 l0 404 l249 0 l0 72 l-218 0 l0 385 l525 0 l0 -385 l-222 0 l0 -72 ZM579 640 l0 80 l-131 0 l0 -80 l131 0 ZM664 640 l135 0 l0 80 l-135 0 l0 -80 ZM448 567 l0 -81 l131 0 l0 81 l-131 0 ZM664 567 l0 -81 l135 0 l0 81 l-135 0 Z" /><glyph glyph-name="uni5085" unicode="&#x5085;" d="M960 210 l0 -75 l-130 0 l0 -90 q0 -65 -19 -89.5 q-19 -24.5 -68 -25.5 q-69 -2 -122 5 l-17 80 q58 -7 99 -7 q22 0 30.5 14 q8.5 14 8.5 48 l0 65 l-283 0 q65 -42 123 -90 l-51 -64 q-74 64 -140 110 l36 44 l-136 0 l0 75 l451 0 l0 53 l71 0 l0 42 l-149 0 l0 -52 l-82 0 l0 52 l-152 0 l0 -50 l-84 0 l0 363 l236 0 l0 59 l-257 0 l0 74 l257 0 l0 87 l82 0 l0 -87 l112 0 q-11 26 -35 74 l70 21 q26 -55 39 -95 l96 0 l0 -74 l-282 0 l0 -59 l233 0 l0 -363 l-67 0 l0 -45 l130 0 ZM314 816 q-30 -105 -71 -205 l0 -688 l-87 0 l0 507 q-40 -72 -93 -145 l-33 106 q59 87 112.5 206.5 q53.5 119.5 84.5 241.5 l87 -23 ZM582 492 l0 57 l-152 0 l0 -57 l152 0 ZM813 492 l0 57 l-149 0 l0 -57 l149 0 ZM430 428 l0 -60 l152 0 l0 60 l-152 0 ZM664 428 l0 -60 l149 0 l0 60 l-149 0 Z" /><glyph glyph-name="uni50A8" unicode="&#x50a8;" d="M299 818 q-32 -122 -75 -234 l0 -657 l-83 0 l0 480 q-32 -57 -69 -108 l-43 94 q55 81 104 202.5 q49 121.5 79 242.5 l87 -20 ZM779 457 q-34 -41 -81 -85 l195 0 l0 -442 l-80 0 l0 48 l-181 0 l0 -48 l-79 0 l0 327 q-19 -14 -74 -50 l-36 78 q134 79 226 172 l-191 0 l0 80 l152 0 l0 112 l-112 0 l0 79 l112 0 l0 110 l83 0 l0 -110 l93 0 l0 -79 l-93 0 l0 -112 l27 0 q81 104 134 241 l75 -32 q-50 -120 -109 -209 l114 0 l0 -80 l-175 0 ZM406 599 q-37 75 -95 180 l71 36 q62 -105 99 -175 l-75 -41 ZM423 124 l75 63 l25 -89 l-18 -14 q-67 -51 -98 -78 q-22 -20 -41 -38 l-55 70 q29 23 29 59 l0 354 l-78 0 l0 89 l161 0 l0 -416 ZM632 214 l181 0 l0 82 l-181 0 l0 -82 ZM632 140 l0 -87 l181 0 l0 87 l-181 0 Z" /><glyph glyph-name="uni50BB" unicode="&#x50bb;" d="M536 362 q-89 -49 -247 -104 l-30 74 q139 41 241 91 l-152 0 l0 352 l184 0 q23 63 26 77 l89 -15 q-6 -21 -23 -62 l278 0 l0 -352 l-163 0 q160 -61 230 -96 l-30 -68 q-63 32 -247 105 l31 59 l-216 0 l29 -61 ZM315 816 q-32 -113 -75 -213 l0 -680 l-89 0 l0 503 q-36 -61 -74 -116 l-50 87 q55 78 111.5 201 q56.5 123 87.5 237 l89 -19 ZM819 700 l-388 0 l0 -201 l388 0 l0 201 ZM782 641 q-39 -23 -79 -43 q60 -30 80 -41 l-32 -55 q-39 22 -120 63 q-57 -25 -146 -57 l-27 56 q37 11 100 36 q-55 26 -87 39 l31 54 l130 -61 q74 34 116 62 l34 -53 ZM861 219 q-65 -88 -145 -145 q106 -46 242 -66 l-31 -86 q-184 43 -298 101 q-115 -58 -318 -105 l-32 78 q153 30 265 79 q-50 34 -92 81 q-61 -48 -132 -90 l-45 70 q76 42 148 98.5 q72 56.5 117 111.5 l66 -33 l-18 -24 l273 0 l0 -70 ZM516 211 q47 -51 114 -93 q72 44 116 94 l-229 0 l-1 -1 Z" /><glyph glyph-name="uni50CF" unicode="&#x50cf;" d="M793 267 q33 -74 73 -126.5 q40 -52.5 102 -100.5 l-57 -66 q-62 52 -103 111.5 q-41 59.5 -75 145.5 q-12 -7 -34 -18 q18 -64 18 -144 q0 -71 -30 -101.5 q-30 -30.5 -85 -32.5 l-21 -1 q-19 0 -75 6 l-16 77 q51 -7 85 -7 q24 0 37 7 q13 7 18.5 28 q5.5 21 3.5 62 q-2 26 -4 39 q-61 -56 -138.5 -100.5 q-77.5 -44.5 -176.5 -87.5 l-37 69 q97 35 184 83 q87 48 151 108 q-4 13 -16 39 q-63 -51 -131 -87.5 q-68 -36.5 -152 -65.5 l-29 66 q166 47 279 142 l-20 28 q-39 -25 -92 -46.5 q-53 -21.5 -135 -47.5 l-31 69 q91 24 147.5 47.5 q56.5 23.5 90.5 54.5 l-182 0 l0 145 q-34 -25 -48 -34 l-39 75 q167 109 247 249 l88 -24 l-30 -49 l240 0 l0 -69 q-29 -41 -72 -79 l180 0 l0 -214 l-286 0 q-8 -13 -21 -28 q44 -55 70 -106 q49 26 97.5 59 q48.5 33 81.5 66 l51 -61 q-41 -37 -108 -80 ZM315 817 q-33 -121 -81 -237 l0 -658 l-87 0 l0 482 q-31 -54 -68 -107 l-47 95 q56 81 107.5 201 q51.5 120 84.5 245 l91 -21 ZM504 707 q-34 -40 -76 -76 l199 0 q40 35 71 76 l-194 0 ZM424 564 l0 -80 l148 0 q15 38 19 80 l-167 0 ZM826 484 l0 80 l-158 0 q-4 -43 -15 -80 l173 0 Z" /><glyph glyph-name="uni50F5" unicode="&#x50f5;" d="M291 823 q-29 -119 -67 -221 l0 -674 l-86 0 l0 489 q-33 -57 -65 -103 l-53 92 q52 75 103.5 197.5 q51.5 122.5 78.5 237.5 l89 -18 ZM314 806 l617 0 l0 -68 l-617 0 l0 68 ZM888 693 l0 -229 l-552 0 l0 229 l552 0 ZM571 604 l0 38 l-148 0 l0 -38 l148 0 ZM653 604 l148 0 l0 38 l-148 0 l0 -38 ZM571 555 l-148 0 l0 -40 l148 0 l0 40 ZM653 555 l0 -40 l148 0 l0 40 l-148 0 ZM270 422 l683 0 l0 -63 l-683 0 l0 63 ZM893 317 l0 -247 l-563 0 l0 247 l563 0 ZM571 218 l0 44 l-152 0 l0 -44 l152 0 ZM653 218 l152 0 l0 44 l-152 0 l0 -44 ZM571 169 l-152 0 l0 -44 l152 0 l0 44 ZM653 169 l0 -44 l152 0 l0 44 l-152 0 ZM271 -46 l0 70 l684 0 l0 -70 l-684 0 Z" /><glyph glyph-name="uni513F" unicode="&#x513f;" d="M50 3 q94 67 137.5 124 q43.5 57 58.5 133.5 q15 76.5 15 217.5 l0 344 l95 0 l0 -344 q0 -160 -18 -252.5 q-18 -92.5 -65.5 -161 q-47.5 -68.5 -145.5 -143.5 l-77 82 ZM659 117 q0 -42 11 -57.5 q11 -15.5 43 -18.5 q12 -1 35 -1 q23 0 35 1 q38 4 50.5 18 q12.5 14 15.5 57 q2 30 3 71 q1 41 1 69 l92 -17 q-3 -109 -6 -158 q-3 -49 -17.5 -77 q-14.5 -28 -44.5 -40.5 q-30 -12.5 -82 -16.5 q-32 -2 -49 -2 q-17 0 -49 2 q-50 4 -79.5 18 q-29.5 14 -43.5 45.5 q-14 31.5 -14 87.5 l0 723 l99 0 l0 -704 Z" /><glyph glyph-name="uni5141" unicode="&#x5141;" d="M948 217 q-3 -80 -7 -137 q-2 -68 -33.5 -95 q-31.5 -27 -107.5 -32 q-20 -2 -61 -2 q-40 0 -61 2 q-67 5 -97 36.5 q-30 31.5 -30 108.5 l0 327 l-50 -2 q-72 -2 -109 -4 l-1 -58 q-3 -114 -26.5 -184.5 q-23.5 -70.5 -80 -128 q-56.5 -57.5 -168.5 -127.5 l-76 80 q102 54 154 101 q52 47 73.5 106 q21.5 59 24.5 153 l1 54 l-57 -3 q-94 -6 -138 -12 l-31 101 q28 8 43 15.5 q15 7.5 33 21.5 q68 55 148.5 145.5 q80.5 90.5 139.5 177.5 l95 -47 q-58 -79 -135.5 -166 q-77.5 -87 -141.5 -147 l473 21 q-83 108 -129 159 l72 57 q43 -51 119.5 -146 q76.5 -95 132.5 -167 l-76 -62 q-29 41 -51 70 l-141 -5 l0 -308 q0 -40 13 -56.5 q13 -16.5 45 -20.5 q24 -2 35 -2 q12 0 36 2 q40 5 54 20 q14 15 16 57 q3 72 3 117 l97 -20 Z" /><glyph glyph-name="uni5143" unicode="&#x5143;" d="M138 782 l725 0 l0 -95 l-725 0 l0 95 ZM946 217 q0 -28 -1.5 -73.5 q-1.5 -45.5 -3.5 -65.5 q-4 -68 -34.5 -96 q-30.5 -28 -103.5 -34 q-20 -2 -60 -2 q-41 0 -61 2 q-67 5 -97 38.5 q-30 33.5 -30 110.5 l0 328 l-167 0 q0 -70 -1 -91 q-3 -94 -27.5 -162 q-24.5 -68 -83 -129 q-58.5 -61 -165.5 -128 l-68 82 q99 53 151 102 q52 49 71 103 q19 54 21 132 q1 20 1 91 l-230 0 l0 95 l886 0 l0 -95 l-288 0 l0 -306 q0 -40 12 -56 q12 -16 44 -20 q24 -2 36 -2 q12 0 36 2 q27 3 40.5 10 q13.5 7 19 21.5 q5.5 14.5 7.5 44.5 l4 119 l92 -21 Z" /><glyph glyph-name="uni5144" unicode="&#x5144;" d="M942 201 q-4 -85 -9 -140 q-3 -45 -16 -70 q-13 -25 -40.5 -37 q-27.5 -12 -75.5 -16 q-24 -2 -73 -2 q-40 0 -60 1 q-61 4 -87.5 35.5 q-26.5 31.5 -26.5 101.5 l0 285 l-153 0 l-1 -21 q-8 -116 -37.5 -190.5 q-29.5 -74.5 -92 -130 q-62.5 -55.5 -176.5 -107.5 l-52 87 q105 46 159 88.5 q54 42.5 77 100 q23 57.5 28 153.5 l1 20 l-163 0 l0 433 l700 0 l0 -433 l-197 0 l0 -257 q0 -36 12 -51.5 q12 -15.5 42 -19.5 q28 -2 42 -2 q13 0 41 2 q37 4 50 18.5 q13 14.5 15 50.5 q4 96 4 120 l89 -19 ZM752 702 l-516 0 l0 -251 l516 0 l0 251 Z" /><glyph glyph-name="uni5145" unicode="&#x5145;" d="M941 190 q0 -26 -1.5 -60.5 q-1.5 -34.5 -4.5 -62.5 q-4 -66 -35 -94.5 q-31 -28.5 -108 -33.5 q-21 -2 -64 -2 q-43 0 -65 2 q-43 3 -68.5 15.5 q-25.5 12.5 -37.5 40 q-12 27.5 -12 75.5 l0 276 l-138 -6 l-3 -38 q-8 -102 -38.5 -168.5 q-30.5 -66.5 -94.5 -118 q-64 -51.5 -179 -105.5 l-54 86 q99 44 153 84.5 q54 40.5 80 92 q26 51.5 34 131.5 l3 31 l-70 -4 q-72 -5 -116 -9 l-23 92 q16 3 36 12.5 q20 9.5 33 20.5 q35 30 84.5 80 q49.5 50 95.5 102 l-286 0 l0 93 l398 0 q-34 91 -48 116 l95 26 q5 -12 12.5 -30.5 q7.5 -18.5 17.5 -41.5 q28 -70 28 -70 l358 0 l0 -93 l-452 0 q-80 -94 -196 -208 l414 20 l-94 104 l72 62 q132 -139 232 -255 l-73 -67 l-59 68 q-84 -2 -124 -4 l0 -258 q0 -34 11.5 -46 q11.5 -12 43.5 -16 q28 -2 41 -2 q15 0 41 2 q37 5 50 16 q13 11 15 44 q2 27 3 60.5 q1 33.5 1 56.5 l92 -16 Z" /><glyph glyph-name="uni5148" unicode="&#x5148;" d="M947 169 l-6 -99 q-3 -50 -14.5 -74.5 q-11.5 -24.5 -35 -34 q-23.5 -9.5 -69.5 -12.5 q-36 -3 -72 -3 q-36 0 -72 3 q-44 3 -67.5 13.5 q-23.5 10.5 -34 36 q-10.5 25.5 -10.5 74.5 l0 262 l-146 0 l-1 -12 q-7 -101 -35 -171 q-28 -70 -90 -127 q-62 -57 -172 -111 l-59 91 q100 42 154 86.5 q54 44.5 76.5 98.5 q22.5 54 27.5 134 q0 7 1 11 l-259 0 l0 90 l406 0 l0 169 l-213 0 q-31 -66 -68 -125 l-87 45 q80 112 136 297 l93 -21 q-17 -58 -36 -107 l175 0 l0 158 l95 0 l0 -158 l317 0 l0 -89 l-317 0 l0 -169 l378 0 l0 -90 l-279 0 l0 -232 q0 -34 10.5 -47 q10.5 -13 39.5 -16 q30 -2 46 -2 q15 0 45 2 q27 3 37 15.5 q10 12.5 12 44.5 q3 29 3 64 l1 24 l90 -19 Z" /><glyph glyph-name="uni5149" unicode="&#x5149;" d="M940 199 q0 -24 -1.5 -62.5 q-1.5 -38.5 -3.5 -60.5 q-3 -51 -16 -76.5 q-13 -25.5 -38.5 -36 q-25.5 -10.5 -73.5 -14.5 q-34 -3 -69 -3 q-34 0 -70 3 q-46 4 -71 15.5 q-25 11.5 -36.5 38.5 q-11.5 27 -11.5 77 l0 294 l-149 0 l-1 -18 q-7 -110 -33.5 -185.5 q-26.5 -75.5 -86.5 -136 q-60 -60.5 -168 -115.5 l-77 82 q102 47 158.5 95.5 q56.5 48.5 80.5 110 q24 61.5 27 151.5 l1 16 l-241 0 l0 91 l389 0 l0 370 l98 0 l0 -370 l389 0 l0 -91 l-288 0 l0 -266 q0 -34 11.5 -46 q11.5 -12 43.5 -17 q23 -3 45 -3 q23 0 44 3 q31 5 42.5 17.5 q11.5 12.5 12.5 45.5 q3 71 1 106 l92 -15 ZM880 724 q-35 -51 -87 -116.5 q-52 -65.5 -93 -110.5 l-74 59 q45 47 94 109.5 q49 62.5 82 113.5 l78 -55 ZM292 499 q-34 49 -87.5 117.5 q-53.5 68.5 -88.5 104.5 l74 55 q36 -38 92.5 -106 q56.5 -68 87.5 -112 l-78 -59 Z" /><glyph glyph-name="uni514B" unicode="&#x514b;" d="M939 164 q-1 -23 -3.5 -55.5 q-2.5 -32.5 -5.5 -57.5 q-3 -44 -15.5 -67.5 q-12.5 -23.5 -39.5 -34.5 q-27 -11 -77 -16 q-33 -3 -66 -3 q-33 0 -66 3 q-60 6 -84.5 35 q-24.5 29 -24.5 95 l0 188 l-136 0 l-7 -53 q-10 -67 -43.5 -115 q-33.5 -48 -98 -88 q-64.5 -40 -173.5 -81 l-43 90 q99 32 152.5 62 q53.5 30 78.5 67 q25 37 35 94 l3 24 l-159 0 l0 312 l289 0 l0 91 l-389 0 l0 87 l389 0 l0 97 l89 0 l0 -97 l388 0 l0 -87 l-388 0 l0 -91 l290 0 l0 -312 l-189 0 l0 -163 q0 -35 12.5 -49 q12.5 -14 43.5 -19 q21 -3 42 -3 q20 0 41 3 q37 5 49 18.5 q12 13.5 14 47.5 q4 76 4 100 l88 -22 ZM746 477 l-493 0 l0 -141 l493 0 l0 141 Z" /><glyph glyph-name="uni514D" unicode="&#x514d;" d="M933 159 q-2 -75 -6 -114 q-3 -37 -13.5 -56 q-10.5 -19 -35 -27 q-24.5 -8 -73.5 -12 q-43 -3 -86 -3 q-42 0 -87 3 q-44 3 -67.5 13 q-23.5 10 -34 33 q-10.5 23 -10.5 68 l0 193 l-11 0 q-27 -78 -76.5 -135 q-49.5 -57 -129 -103.5 q-79.5 -46.5 -201.5 -91.5 l-49 85 q156 51 238.5 107 q82.5 56 120.5 138 l-265 0 l0 247 q-33 -25 -64 -45 l-40 82 q198 133 304 307 l87 -33 q-18 -29 -40 -59 l360 0 l0 -80 l-104 -101 l214 0 l0 -318 l-258 0 l0 -164 q0 -23 5 -33.5 q5 -10.5 16.5 -15 q11.5 -4.5 36.5 -6.5 q30 -3 56 -3 q26 0 56 3 q29 3 42 7 q13 4 18.5 14.5 q5.5 10.5 7.5 32.5 l1 24 q2 40 2 61 l86 -18 ZM330 673 q-43 -52 -95 -98 l300 0 l102 98 l-307 0 ZM234 338 l204 0 q14 63 19 153 l-223 0 l0 -153 ZM547 491 q-5 -90 -17 -153 l247 0 l0 153 l-230 0 Z" /><glyph glyph-name="uni515A" unicode="&#x515a;" d="M180 579 l0 -134 l-91 0 l0 221 l189 0 q-37 42 -100 107 l67 54 q90 -93 120 -127 l-40 -34 l130 0 l0 177 l90 0 l0 -177 l128 0 l-36 33 q28 26 62 62.5 q34 36.5 57 65.5 l71 -52 q-39 -45 -101 -109 l187 0 l0 -221 l-90 0 l0 134 l-643 0 ZM931 159 q-2 -57 -7 -109 q-2 -42 -14.5 -65.5 q-12.5 -23.5 -38.5 -35 q-26 -11.5 -73 -16.5 q-31 -4 -70 -4 q-39 0 -70 4 q-56 5 -81.5 33.5 q-25.5 28.5 -25.5 88.5 l0 145 l-128 0 q-8 -78 -45 -130.5 q-37 -52.5 -101 -87.5 q-64 -35 -164 -64 l-38 89 q81 19 132 40.5 q51 21.5 82 58 q31 36.5 41 94.5 l-120 0 l0 293 l582 0 l0 -293 l-151 0 l0 -115 q0 -32 11.5 -47 q11.5 -15 42.5 -17 q14 -1 41 -1 q28 0 41 1 q36 3 48.5 16.5 q12.5 13.5 14.5 44.5 q3 63 3 95 l88 -18 ZM702 410 l-402 0 l0 -127 l402 0 l0 127 Z" /><glyph glyph-name="uni5165" unicode="&#x5165;" d="M546 695 q23 -215 122 -379 q99 -164 294 -295 l-67 -85 q-158 117 -253.5 243.5 q-95.5 126.5 -142.5 295.5 q-92 -290 -400 -540 l-71 80 q205 154 305 319.5 q100 165.5 123 341.5 q-9 14 -28.5 19.5 q-19.5 5.5 -53.5 5.5 l-139 0 l0 98 l176 0 q66 0 98 -24 q32 -24 37 -80 Z" /><glyph glyph-name="uni5168" unicode="&#x5168;" d="M550 199 l0 -157 l373 0 l0 -89 l-845 0 l0 89 l372 0 l0 157 l-284 0 l0 89 l284 0 l0 135 l-247 0 l0 74 q-68 -39 -124 -68 l-46 88 q161 78 261 152.5 q100 74.5 166 171.5 l81 0 q65 -98 169 -175.5 q104 -77.5 256 -149.5 l-48 -86 q-59 29 -118 63 l0 -70 l-250 0 l0 -135 l284 0 l0 -89 l-284 0 ZM501 737 q-49 -61 -115.5 -115.5 q-66.5 -54.5 -159.5 -110.5 l544 0 q-174 106 -269 226 Z" /><glyph glyph-name="uni516B" unicode="&#x516b;" d="M672 826 q5 -215 32 -352 q27 -137 87 -244 q60 -107 174 -224 l-84 -73 q-119 133 -181.5 249.5 q-62.5 116.5 -91 264 q-28.5 147.5 -35.5 379.5 l99 0 ZM32 2 q111 126 167 228.5 q56 102.5 81.5 232 q25.5 129.5 33.5 342.5 l98 0 q-10 -232 -36 -369.5 q-26 -137.5 -84 -248.5 q-58 -111 -175 -252 l-85 67 Z" /><glyph glyph-name="uni516C" unicode="&#x516c;" d="M644 835 q57 -155 129.5 -251.5 q72.5 -96.5 193.5 -179.5 l-61 -79 q-128 94 -208.5 203 q-80.5 109 -139.5 276 l86 31 ZM435 796 q-54 -143 -134 -262.5 q-80 -119.5 -191 -218.5 l-67 75 q108 93 181.5 200.5 q73.5 107.5 118.5 234.5 l92 -29 ZM653 326 q52 -76 116.5 -180.5 q64.5 -104.5 108.5 -182.5 l-84 -50 q-32 59 -57 101 q-24 -2 -38 -4 q-251 -23 -426 -43 l-122 -12 l-29 95 q28 5 43 13 q15 8 28 24 q59 71 127 186.5 q68 115.5 120 231.5 l93 -37 q-50 -107 -115.5 -219 q-65.5 -112 -124.5 -192 l360 37 q13 2 35 4 q-74 121 -114 179 l79 49 Z" /><glyph glyph-name="uni516D" unicode="&#x516d;" d="M476 844 q88 -121 124 -180 l-92 -49 q-31 56 -119 182 l87 47 ZM55 595 l890 0 l0 -95 l-890 0 l0 95 ZM670 433 q52 -76 130.5 -206.5 q78.5 -130.5 141.5 -239.5 l-92 -53 q-45 86 -126 221.5 q-81 135.5 -140 225.5 l86 52 ZM61 -11 q75 86 143 203 q68 117 110 227 l98 -38 q-50 -119 -121.5 -240.5 q-71.5 -121.5 -144.5 -213.5 l-85 62 Z" /><glyph glyph-name="uni5171" unicode="&#x5171;" d="M723 572 l0 -223 l223 0 l0 -95 l-901 0 l0 95 l219 0 l0 223 l-189 0 l0 92 l189 0 l0 179 l99 0 l0 -179 l262 0 l0 179 l98 0 l0 -179 l192 0 l0 -92 l-192 0 ZM625 572 l-262 0 l0 -223 l262 0 l0 223 ZM56 7 q66 35 149 96 q83 61 152 121 l63 -75 q-61 -52 -149 -116.5 q-88 -64.5 -159 -110.5 l-56 85 ZM632 224 q63 -42 155.5 -107.5 q92.5 -65.5 147.5 -108.5 l-64 -81 q-59 47 -147.5 112.5 q-88.5 65.5 -150.5 107.5 l59 77 Z" /><glyph glyph-name="uni5173" unicode="&#x5173;" d="M556 301 q87 -209 390 -286 l-47 -95 q-144 41 -245.5 116.5 q-101.5 75.5 -154.5 180.5 q-98 -183 -403 -300 l-51 92 q181 66 270.5 138 q89.5 72 114.5 154 l-366 0 l0 96 l379 0 l0 161 l-333 0 l0 92 l217 0 q-57 82 -112 150 l80 53 q55 -67 118 -158 l-69 -45 l199 0 q88 112 153 208 l88 -52 q-54 -77 -119 -156 l211 0 l0 -92 l-333 0 l0 -161 l381 0 l0 -96 l-368 0 Z" /><glyph glyph-name="uni5174" unicode="&#x5174;" d="M647 471 q36 58 80.5 154.5 q44.5 96.5 79.5 187.5 l88 -42 q-105 -243 -166 -348 l-82 48 ZM492 810 q19 -54 45 -148 q26 -94 45 -175 l-96 -22 q-14 70 -40 166 q-26 96 -47 155 l93 24 ZM193 783 q34 -60 82 -152 q48 -92 78 -156 l-89 -47 q-34 75 -80.5 169 q-46.5 94 -76.5 144 l86 42 ZM52 393 l894 0 l0 -92 l-894 0 l0 92 ZM62 5 q66 46 144 116 q78 70 137 137 l73 -69 q-55 -63 -136 -137.5 q-81 -74.5 -152 -128.5 l-66 82 ZM643 258 q61 -48 148 -124.5 q87 -76.5 140 -129.5 l-74 -77 q-60 63 -142 137 q-82 74 -142 120 l70 74 Z" /><glyph glyph-name="uni5176" unicode="&#x5176;" d="M784 653 l0 -415 l171 0 l0 -85 l-911 0 l0 85 l171 0 l0 415 l-140 0 l0 84 l140 0 l0 98 l92 0 l0 -98 l385 0 l0 98 l92 0 l0 -98 l140 0 l0 -84 l-140 0 ZM692 569 l0 84 l-385 0 l0 -84 l385 0 ZM692 488 l-385 0 l0 -85 l385 0 l0 85 ZM692 324 l-385 0 l0 -86 l385 0 l0 86 ZM66 -5 q155 58 310 150 l42 -79 q-171 -93 -316 -154 l-36 83 ZM612 142 q61 -26 159 -71 q98 -45 157 -74 l-41 -81 q-65 35 -155 77 q-90 42 -158 70 l38 79 Z" /><glyph glyph-name="uni5177" unicode="&#x5177;" d="M814 799 l0 -576 l138 0 l0 -82 l-906 0 l0 82 l139 0 l0 576 l629 0 ZM721 651 l0 66 l-444 0 l0 -66 l444 0 ZM277 508 l444 0 l0 68 l-444 0 l0 -68 ZM721 366 l0 68 l-444 0 l0 -68 l444 0 ZM721 292 l-444 0 l0 -69 l444 0 l0 69 ZM624 137 q35 -13 164 -66 q142 -58 145 -59 l-37 -86 q-197 90 -307 131 l35 80 ZM56 2 q173 55 300 132 l46 -75 q-115 -69 -314 -141 l-32 84 Z" /><glyph glyph-name="uni5178" unicode="&#x5178;" d="M865 722 l0 -469 l88 0 l0 -89 l-905 0 l0 89 l90 0 l0 469 l213 0 l0 107 l88 0 l0 -107 l125 0 l0 107 l87 0 l0 -107 l214 0 ZM351 485 l0 147 l-123 0 l0 -147 l123 0 ZM564 485 l0 147 l-125 0 l0 -147 l125 0 ZM775 485 l0 147 l-124 0 l0 -147 l124 0 ZM351 400 l-123 0 l0 -147 l123 0 l0 147 ZM439 253 l125 0 l0 147 l-125 0 l0 -147 ZM775 400 l-124 0 l0 -147 l124 0 l0 147 ZM58 -8 q197 80 324 160 l45 -80 q-168 -96 -333 -165 l-36 85 ZM608 148 q59 -25 156.5 -70.5 q97.5 -45.5 170.5 -80.5 l-41 -83 q-65 35 -156 77.5 q-91 42.5 -168 75.5 l38 81 Z" /><glyph glyph-name="uni5179" unicode="&#x5179;" d="M741 607 q-32 -61 -78 -137.5 q-46 -76.5 -70 -109.5 q52 9 107 15 q7 2 25 4 q47 79 78 139 l84 -38 q-51 -91 -133.5 -225.5 q-82.5 -134.5 -134.5 -207.5 q60 7 180 23 q-8 24 -30 89 q-7 18 -12 33 l80 33 q23 -59 57 -161 l39 -109 l-88 -31 l-20 67 q-118 -8 -243 -25 q-57 -8 -71 -11 l-25 83 q19 8 29.5 16.5 q10.5 8.5 21.5 24.5 q52 73 139 217 q-44 -4 -134 -15 q-33 -4 -58 -9 l-24 81 q20 8 29.5 15 q9.5 7 19.5 21 q20 27 58.5 92.5 q38.5 65.5 69.5 125.5 l-294 0 q-32 -60 -75.5 -132 q-43.5 -72 -71.5 -112 l120 16 q42 70 79 141 l82 -38 q-43 -83 -131.5 -222 q-88.5 -139 -144.5 -214 l161 23 q-14 46 -40 124 l77 27 q61 -172 91 -269 l-83 -29 l-20 70 q-108 -8 -220 -23 q-60 -10 -72 -13 l-25 87 q20 9 30 16 q10 7 20 20 q63 83 146 218 q-41 -4 -99 -11 q-51 -7 -77 -12 l-23 84 q28 7 47 32 q21 29 58 92.5 q37 63.5 69 124.5 l-188 0 l0 87 l250 0 l-60 113 l79 40 q3 -5 46 -89 l33 -64 l179 0 q70 109 96 158 l83 -39 q-15 -25 -75 -119 l260 0 l0 -87 l-203 0 Z" /><glyph glyph-name="uni517B" unicode="&#x517b;" d="M922 107 q-125 42 -219 108 l0 -281 l-93 0 l0 309 l55 0 q-58 46 -102 104 l-126 0 q-45 -59 -105 -104 l73 0 q0 -81 -19 -136 q-19 -55 -67.5 -99 q-48.5 -44 -138.5 -85 l-59 75 q77 31 117.5 64 q40.5 33 55.5 71 q15 38 17 95 q-95 -66 -238 -120 l-38 88 q98 32 167 69 q69 37 116 82 l-261 0 l0 80 l325 0 q21 36 36 78 l-294 0 l0 77 l315 0 q4 22 10 70 l-357 0 l0 82 l211 0 q-36 56 -56 78 l75 37 q11 -12 37.5 -48 q26.5 -36 47.5 -67 l182 0 l15 22 q54 77 65 97 l83 -34 q-24 -35 -62 -85 l215 0 l0 -82 l-362 0 q-4 -30 -11 -70 l341 0 l0 -77 l-359 0 q-17 -51 -30 -78 l456 0 l0 -80 l-265 0 q51 -51 117.5 -86 q66.5 -35 166.5 -63 l-37 -91 Z" /><glyph glyph-name="uni517C" unicode="&#x517c;" d="M672 221 q52 -60 124 -109 q72 -49 158 -83 l-44 -87 q-80 38 -152 93 q-72 55 -124 118 l0 -234 l-86 0 l0 302 l-129 0 l0 -302 l-86 0 l0 221 q-99 -124 -251 -206 l-52 86 q183 81 276 201 l-193 0 l0 77 l220 0 l0 69 l-285 0 l0 77 l285 0 l0 68 l-211 0 l0 78 l211 0 l0 74 l-268 0 l0 79 l228 0 l-43 71 l83 33 l22 -37 l38 -67 l186 0 q37 51 75 111 l85 -37 l-53 -74 l236 0 l0 -79 l-288 0 l0 -74 l207 0 l0 -146 l104 0 l0 -77 l-104 0 l0 -146 l-169 0 ZM548 664 l-129 0 l0 -74 l129 0 l0 74 ZM548 512 l-129 0 l0 -68 l129 0 l0 68 ZM754 444 l0 68 l-120 0 l0 -68 l120 0 ZM419 367 l0 -69 l129 0 l0 69 l-129 0 ZM634 298 l120 0 l0 69 l-120 0 l0 -69 Z" /><glyph glyph-name="uni5185" unicode="&#x5185;" d="M886 692 l0 -629 q0 -52 -11 -78.5 q-11 -26.5 -39 -36.5 q-28 -10 -83 -10 q-74 0 -125 5 l-18 94 q51 -8 112 -8 q31 0 45.5 5 q14.5 5 20 19 q5.5 14 5.5 43 l0 504 l-245 0 q-2 -69 -16 -124 q55 -50 132 -125 q77 -75 122 -123 l-67 -74 q-94 107 -219 232 q-31 -64 -86 -124.5 q-55 -60.5 -140 -125.5 l-63 81 q93 68 144 126 q51 58 73 118 q22 60 25 139 l-246 0 l0 -670 l-93 0 l0 762 l339 0 l0 143 l95 0 l0 -143 l338 0 Z" /><glyph glyph-name="uni518C" unicode="&#x518c;" d="M959 456 l0 -87 l-104 0 l0 -318 q0 -49 -11.5 -74 q-11.5 -25 -38 -34.5 q-26.5 -9.5 -76.5 -9.5 q-42 0 -74 4 l-17 93 q51 -7 88 -7 q25 0 33 14 q8 14 8 50 l0 282 l-132 0 q-1 -121 -8.5 -194 q-7.5 -73 -27 -131 q-19.5 -58 -57.5 -128 l-87 47 q38 62 56 113 q18 51 25.5 116 q7.5 65 9.5 177 l-92 0 l0 -299 q0 -67 -22.5 -95.5 q-22.5 -28.5 -75.5 -30.5 l-27 -1 q-23 0 -44.5 2 q-21.5 2 -28.5 3 l-16 89 q49 -9 83 -9 q25 0 33.5 14.5 q8.5 14.5 8.5 48.5 l0 278 l-124 0 q-1 -119 -10.5 -193 q-9.5 -74 -32 -132 q-22.5 -58 -66.5 -129 l-87 49 q43 63 64.5 113 q21.5 50 31 116 q9.5 66 11.5 176 l-110 0 l0 87 l111 0 l0 338 l301 0 l0 -338 l92 0 l0 338 l309 0 l0 -338 l104 0 ZM241 704 l0 -248 l124 0 l0 248 l-124 0 ZM635 704 l0 -248 l132 0 l0 248 l-132 0 Z" /><glyph glyph-name="uni518D" unicode="&#x518d;" d="M955 244 l0 -84 l-114 0 l0 -101 q0 -51 -11 -78.5 q-11 -27.5 -37 -39.5 q-26 -12 -74 -12 q-59 0 -119 6 l-16 92 q58 -8 108 -8 q34 0 45.5 16 q11.5 16 11.5 55 l0 70 l-497 0 l0 -232 l-92 0 l0 232 l-115 0 l0 84 l115 0 l0 367 l294 0 l0 89 l-378 0 l0 84 l850 0 l0 -84 l-379 0 l0 -89 l294 0 l0 -367 l114 0 ZM454 428 l0 101 l-202 0 l0 -101 l202 0 ZM749 428 l0 101 l-202 0 l0 -101 l202 0 ZM454 348 l-202 0 l0 -104 l202 0 l0 104 ZM547 348 l0 -104 l202 0 l0 104 l-202 0 Z" /><glyph glyph-name="uni5197" unicode="&#x5197;" d="M84 779 l821 0 l0 -260 l-101 0 l0 169 l-619 0 l0 -169 l-101 0 l0 260 ZM45 -2 q92 48 137 91 q45 43 61 96.5 q16 53.5 16 143.5 l0 193 l437 0 l0 -428 q0 -32 8.5 -45 q8.5 -13 29.5 -16 q22 -2 32 -2 q12 0 32 2 q24 3 33.5 15 q9.5 12 12.5 44 q3 36 4.5 82.5 q1.5 46.5 1.5 81.5 l94 -22 q-2 -68 -10 -172 q-6 -65 -33 -90.5 q-27 -25.5 -89 -30.5 q-18 -2 -56 -2 q-37 0 -56 2 q-52 4 -76 33 q-24 29 -24 93 l0 362 l-244 0 l0 -108 q0 -104 -18 -169 q-18 -65 -71 -120 q-53 -55 -161 -116 l-61 82 Z" /><glyph glyph-name="uni5199" unicode="&#x5199;" d="M98 565 l0 223 l811 0 l0 -219 l-96 0 l0 131 l-624 0 l0 -135 l-91 0 ZM333 489 l-14 -107 l544 0 q-5 -162 -18 -288 q-7 -60 -23.5 -93 q-16.5 -33 -52 -49 q-35.5 -16 -98.5 -16 q-85 0 -148 5 l-18 88 q71 -9 143 -9 q53 0 74 18 q21 18 29 67 q12 83 16 190 l-553 0 l45 362 l96 0 l-11 -83 l433 0 l0 -85 l-444 0 ZM65 196 l617 0 l0 -87 l-617 0 l0 87 Z" /><glyph glyph-name="uni51AF" unicode="&#x51af;" d="M212 481 q-33 65 -78.5 152 q-45.5 87 -69.5 129 l80 39 q108 -188 157 -277 l-89 -43 ZM800 422 l122 0 q-7 -190 -21 -331 q-6 -64 -21.5 -98 q-15.5 -34 -46 -48.5 q-30.5 -14.5 -84.5 -14.5 q-76 0 -183 7 l-18 90 q104 -9 176 -9 q42 0 60 20.5 q18 20.5 25 73.5 q13 115 14 219 l-453 0 l38 331 l96 -8 l-30 -232 l230 0 l32 280 l-403 0 l0 89 l512 0 l-45 -369 ZM291 366 q-16 -40 -69.5 -186.5 q-53.5 -146.5 -81.5 -224.5 l-96 37 q20 40 79.5 197 q59.5 157 75.5 209 l92 -32 ZM283 224 l475 0 l0 -90 l-475 0 l0 90 Z" /><glyph glyph-name="uni51B0" unicode="&#x51b0;" d="M903 20 q-93 94 -156.5 190.5 q-63.5 96.5 -105.5 210.5 l0 -364 q0 -70 -26 -98 q-26 -28 -95 -28 q-55 0 -112 6 l-19 90 q58 -7 99 -7 q36 0 48 13.5 q12 13.5 12 54.5 l0 749 l93 0 l0 -163 q21 -90 51 -169 q78 71 168 172 l71 -78 q-38 -40 -94.5 -92 q-56.5 -52 -105.5 -93 q86 -178 240 -308 l-68 -86 ZM166 480 q-15 53 -48.5 140.5 q-33.5 87.5 -54.5 130.5 l86 29 q23 -53 54 -133 q31 -80 49 -134 l-86 -33 ZM509 606 l0 -92 q-25 -151 -78.5 -266.5 q-53.5 -115.5 -155.5 -235.5 l-80 65 q94 104 147.5 210 q53.5 106 75.5 227 l-137 0 l0 92 l228 0 ZM244 381 q-46 -180 -124 -409 l-89 31 q73 203 124 398 l89 -20 Z" /><glyph glyph-name="uni51B2" unicode="&#x51b2;" d="M658 665 l244 0 l0 -449 l-244 0 l0 -293 l-91 0 l0 293 l-245 0 l0 449 l245 0 l0 175 l91 0 l0 -175 ZM137 804 q28 -45 72 -123.5 q44 -78.5 73 -136.5 l-83 -50 q-24 52 -70 138 q-46 86 -73 129 l81 43 ZM416 572 l0 -261 l151 0 l0 261 l-151 0 ZM658 311 l150 0 l0 261 l-150 0 l0 -261 ZM47 15 q84 206 140 386 l89 -29 q-63 -200 -142 -392 l-87 35 Z" /><glyph glyph-name="uni51B3" unicode="&#x51b3;" d="M623 299 q39 -97 120 -166.5 q81 -69.5 215 -125.5 l-54 -92 q-120 55 -202.5 128 q-82.5 73 -132.5 172 q-36 -84 -111.5 -157 q-75.5 -73 -196.5 -143 l-58 87 q132 72 201.5 141.5 q69.5 69.5 92.5 155.5 l-213 0 l0 90 l226 0 l0 13 l1 195 l-187 0 l0 91 l188 0 l0 152 l97 0 l-1 -152 l254 0 l0 -299 l88 0 l0 -90 l-327 0 ZM179 495 q-20 50 -59.5 137 q-39.5 87 -61.5 128 l85 38 q25 -44 64.5 -126 q39.5 -82 63.5 -137 l-92 -40 ZM607 389 l165 0 l0 208 l-164 0 q-1 -92 -1 -188 l0 -20 ZM254 385 q-51 -207 -118 -412 l-96 29 q65 195 119 408 l95 -25 Z" /><glyph glyph-name="uni51B5" unicode="&#x51b5;" d="M192 496 q-29 63 -70 145.5 q-41 82.5 -64 125.5 l80 41 l23 -44 q102 -193 118 -225 l-87 -43 ZM963 206 q0 -30 -2 -75.5 q-2 -45.5 -4 -80.5 q-3 -55 -25 -77 q-22 -22 -79 -27 q-17 -2 -51 -2 q-34 0 -51 2 q-51 5 -74 29.5 q-23 24.5 -23 80.5 l0 312 l-117 0 q0 -22 -2 -40 q-5 -108 -29 -176 q-24 -68 -74.5 -119 q-50.5 -51 -144.5 -107 l-63 75 q88 46 133.5 88 q45.5 42 65.5 97.5 q20 55.5 24 144.5 l1 37 l-113 0 l0 422 l551 0 l0 -422 l-141 0 l0 -283 q0 -24 8 -37 q8 -13 28 -15 q8 -1 24 -1 q19 0 31 2 q22 4 29.5 15 q7.5 11 8.5 35 q2 58 2 137 l87 -15 ZM794 701 l-366 0 l0 -245 l366 0 l0 245 ZM281 366 q-34 -113 -70 -211 q-36 -98 -81 -191 l-87 48 q47 88 85.5 188.5 q38.5 100.5 65.5 202.5 l87 -37 Z" /><glyph glyph-name="uni51B7" unicode="&#x51b7;" d="M643 847 q103 -205 326 -336 l-53 -85 q-102 61 -184 143.5 q-82 82.5 -131 171.5 q-44 -77 -120.5 -155.5 q-76.5 -78.5 -177.5 -152.5 l-61 79 q110 73 186 155 q76 82 127 180 l88 0 ZM183 542 q-42 91 -126 232 l82 41 q75 -120 128 -227 l-84 -46 ZM565 591 q26 -27 61 -68 q35 -41 60 -74 l-70 -59 q-22 30 -59 74 q-37 44 -61 70 l69 57 ZM316 292 l0 87 l553 0 l0 -90 q-88 -101 -205 -214 q59 -37 115 -75 l-51 -83 q-77 52 -190 123 q-113 71 -188 114 l50 78 q67 -37 183 -107 q116 114 162 167 l-429 0 ZM56 19 q26 62 61.5 166 q35.5 104 57.5 178 l91 -26 q-21 -77 -55.5 -180.5 q-34.5 -103.5 -61.5 -167.5 l-93 30 Z" /><glyph glyph-name="uni51C0" unicode="&#x51c0;" d="M949 418 l0 -79 l-84 0 l0 -180 l-233 0 l0 -103 q0 -63 -25 -89 q-25 -26 -82 -26 q-49 -1 -118 4 l-18 87 q63 -7 108 -7 q27 0 36.5 13 q9.5 13 9.5 45 l0 76 l-218 0 l0 83 l218 0 l0 97 l-257 0 l0 79 l257 0 l0 96 l-184 0 l0 61 l-26 -21 l-62 68 q77 60 129 115.5 q52 55.5 87 113.5 l92 -28 q-11 -18 -35 -52 l248 0 l0 -72 l-92 -105 l165 0 l0 -176 l84 0 ZM160 511 q-19 51 -57 138 q-38 87 -61 129 l81 35 q26 -46 65.5 -127.5 q39.5 -81.5 62.5 -136.5 l-91 -38 ZM480 691 q-48 -53 -99 -97 l207 0 l89 97 l-197 0 ZM780 514 l-148 0 l0 -96 l148 0 l0 96 ZM43 16 q70 182 125 390 l88 -26 q-48 -188 -123 -393 l-90 29 ZM632 242 l148 0 l0 97 l-148 0 l0 -97 Z" /><glyph glyph-name="uni51C6" unicode="&#x51c6;" d="M949 67 l0 -84 l-504 0 l0 -58 l-93 0 l0 543 q-35 -52 -70 -94 l-63 79 q127 139 207 396 l98 -15 q-18 -67 -52 -145 l165 0 q-23 68 -49 133 l86 21 q37 -92 59 -154 l201 0 l0 -85 l-208 0 l0 -121 l187 0 l0 -82 l-187 0 l0 -123 l187 0 l0 -82 l-187 0 l0 -129 l223 0 ZM188 526 q-21 44 -58.5 116.5 q-37.5 72.5 -64.5 122.5 l83 42 q97 -172 128 -235 l-88 -46 ZM445 483 l190 0 l0 121 l-190 0 l0 -121 ZM445 278 l190 0 l0 123 l-190 0 l0 -123 ZM58 -8 q23 70 67.5 206 q44.5 136 54.5 171 l93 -31 q-24 -72 -60.5 -188.5 q-36.5 -116.5 -58.5 -186.5 l-96 29 ZM635 196 l-190 0 l0 -129 l190 0 l0 129 Z" /><glyph glyph-name="uni51CF" unicode="&#x51cf;" d="M966 202 q-3 -51 -16 -133 q-10 -73 -33.5 -100.5 q-23.5 -27.5 -56.5 -27.5 q-36 0 -63 22.5 q-27 22.5 -55 86.5 q-3 8 -7.5 18 q-4.5 10 -8.5 22 q-64 -82 -152 -157 l-60 66 q56 42 99 87 l-204 0 l0 293 l207 0 l0 -290 q44 45 82 101 q-38 162 -54 428 l-278 0 l0 -336 q0 -97 -21 -189 q-21 -92 -65 -168 l-82 41 q46 74 66.5 150 q20.5 76 20.5 166 l0 421 l354 0 l-7 138 l83 0 l1 -22 l7 -116 l91 0 q-23 55 -43 96 l71 9 l49 -105 l48 0 l0 -85 l-211 0 q13 -206 31 -316 q44 101 70 243 l79 -13 q-19 -106 -49 -193 q-30 -87 -75 -163 q13 -50 32 -93 q21 -48 41 -48 q20 0 28 77 q3 35 8 105 l73 -15 ZM159 506 q-18 55 -49.5 137 q-31.5 82 -54.5 135 l82 29 q33 -78 67 -164 q19 -50 42 -105 l-87 -32 ZM404 535 l221 0 l0 -81 l-221 0 l0 81 ZM235 400 l-108 -408 l-91 22 q20 61 58 198.5 q38 137.5 53 203.5 l88 -16 ZM473 164 l79 0 l0 134 l-79 0 l0 -134 Z" /><glyph glyph-name="uni51E0" unicode="&#x51e0;" d="M35 -9 q87 73 127 126.5 q40 53.5 55 128.5 q15 75 15 212 l0 325 l493 0 l0 -682 q0 -33 7.5 -44.5 q7.5 -11.5 31.5 -15.5 q20 -2 28 -2 q27 0 39.5 4.5 q12.5 4.5 17.5 16.5 q5 12 7 40 q1 32 2.5 82.5 q1.5 50.5 1.5 87.5 l94 -22 q-1 -36 -3 -91.5 q-2 -55.5 -4 -94.5 q-2 -45 -11 -68.5 q-9 -23.5 -29.5 -34 q-20.5 -10.5 -58.5 -14.5 q-19 -2 -59 -2 q-40 0 -60 2 q-55 5 -79 31 q-24 26 -24 91 l0 617 l-296 0 l0 -226 q0 -151 -17 -236.5 q-17 -85.5 -60.5 -150 q-43.5 -64.5 -137.5 -149.5 l-80 69 Z" /><glyph glyph-name="uni51E1" unicode="&#x51e1;" d="M39 -9 q72 67 106.5 122 q34.5 55 47 126.5 q12.5 71.5 12.5 198.5 l0 347 l530 0 l0 -681 q0 -38 7.5 -50.5 q7.5 -12.5 30.5 -15.5 q8 -1 22 -1 q15 0 22 1 q23 4 31 16 q8 12 9 42 l6 170 l88 -18 q-5 -162 -7 -192 q-3 -60 -28 -85 q-25 -25 -80 -29 q-32 -2 -48 -2 q-16 0 -48 2 q-53 4 -79 32.5 q-26 28.5 -26 97.5 l0 614 l-331 0 l0 -248 q0 -138 -15 -222 q-15 -84 -54 -150 q-39 -66 -118 -143 l-78 68 ZM394 552 q36 -39 105.5 -121 q69.5 -82 109.5 -134 l-74 -67 q-42 56 -107.5 137 q-65.5 81 -103.5 122 l70 63 Z" /><glyph glyph-name="uni51F6" unicode="&#x51f6;" d="M210 213 q129 110 244 259 q-138 177 -227 275 l73 56 q69 -74 213 -250 q96 139 165 282 l84 -51 q-82 -165 -187 -310 q132 -170 204 -271 l-82 -63 q-65 98 -182 253 q-117 -147 -235 -252 l-70 72 ZM811 73 l0 634 l94 0 l0 -776 l-94 0 l0 49 l-717 0 l0 719 l94 0 l0 -626 l623 0 Z" /><glyph glyph-name="uni51FA" unicode="&#x51fa;" d="M797 60 l0 268 l94 0 l0 -402 l-94 0 l0 44 l-686 0 l0 356 l95 0 l0 -266 l247 0 l0 340 l-313 0 l0 353 l93 0 l0 -261 l220 0 l0 350 l94 0 l0 -350 l221 0 l0 261 l93 0 l0 -353 l-314 0 l0 -340 l250 0 Z" /><glyph glyph-name="uni51FB" unicode="&#x51fb;" d="M947 364 l-401 0 l0 -302 l221 0 l0 229 l93 0 l0 -366 l-93 0 l0 47 l-626 0 l0 316 l93 0 l0 -226 l221 0 l0 302 l-401 0 l0 92 l401 0 l0 152 l-339 0 l0 92 l339 0 l0 144 l91 0 l0 -144 l339 0 l0 -92 l-339 0 l0 -152 l401 0 l0 -92 Z" /><glyph glyph-name="uni51FD" unicode="&#x51fd;" d="M840 711 l-288 -167 l0 -364 q0 -59 -22.5 -82.5 q-22.5 -23.5 -80.5 -23.5 q-51 0 -102 6 l-17 82 q47 -7 82 -7 q28 0 37.5 12 q9.5 12 9.5 42 l0 117 l-94 -75 q-122 -97 -129 -102 l-37 82 q32 21 125 92.5 q93 71.5 135 105.5 l0 159 l202 114 l-497 0 l0 87 l676 0 l0 -78 ZM812 623 l92 0 l0 -704 l-92 0 l0 35 l-719 0 l0 669 l93 0 l0 -586 l626 0 l0 169 l-49 -67 q-128 106 -211 166 l49 65 q49 -35 106 -78 q57 -43 105 -81 l0 412 ZM580 435 q76 80 143 163 l69 -56 q-70 -88 -147 -167 l-65 60 ZM354 392 q-87 94 -141 142 l60 57 q30 -26 73.5 -67.5 q43.5 -41.5 72.5 -70.5 l-65 -61 Z" /><glyph glyph-name="uni5200" unicode="&#x5200;" d="M98 779 l784 0 q-1 -152 -11 -353.5 q-10 -201.5 -22 -307.5 q-7 -64 -24 -98.5 q-17 -34.5 -53 -50.5 q-36 -16 -101 -17 q-88 -1 -178 6 l-21 97 q82 -10 146 -10 q53 0 79 9 q26 9 37.5 32 q11.5 23 17.5 72 q13 107 20 244 q7 137 6 278 l-330 0 l-4 -83 l-4 -76 q-6 -147 -39 -248.5 q-33 -101.5 -97.5 -180 q-64.5 -78.5 -175.5 -161.5 l-80 80 q112 76 171.5 145 q59.5 69 87.5 157 q28 88 36 225 l7 142 l-252 0 l0 99 Z" /><glyph glyph-name="uni5206" unicode="&#x5206;" d="M916 363 q-70 45 -128 94 q-7 -180 -33 -370 q-7 -54 -24 -84.5 q-17 -30.5 -50 -44 q-33 -13.5 -90 -14.5 l-35 0 q-69 0 -119 5 l-18 91 q71 -9 142 -9 q35 0 54 7.5 q19 7.5 29 26.5 q10 19 16 56 q9 56 15.5 127 q6.5 71 8.5 117 l-270 0 l-4 -49 q-7 -95 -32.5 -160.5 q-25.5 -65.5 -84 -123 q-58.5 -57.5 -167.5 -120.5 l-67 80 q97 49 148 95 q51 46 73.5 98 q22.5 52 32.5 132 l5 48 l-133 0 l0 81 q-48 -42 -97 -78 l-53 85 q107 73 188.5 170.5 q81.5 97.5 132.5 211.5 l88 -35 q-45 -101 -104 -184 q-59 -83 -142 -158 l589 0 q-81 70 -136.5 155 q-55.5 85 -97.5 202 l88 32 q48 -135 122.5 -225 q74.5 -90 205.5 -170 l-53 -89 Z" /><glyph glyph-name="uni5207" unicode="&#x5207;" d="M426 165 q-109 -65 -189 -120 l-47 -33 l-57 81 q20 17 26 31.5 q6 14.5 6 36.5 l0 306 l-122 -17 l-9 98 l131 17 l0 273 l92 0 l0 -261 l140 18 l3 -96 l-143 -20 l0 -311 l146 97 l23 -100 ZM398 768 l519 0 q0 -152 -8.5 -360.5 q-8.5 -208.5 -20.5 -306.5 q-6 -55 -22 -87 q-16 -32 -48 -47.5 q-32 -15.5 -87 -16.5 q-63 -2 -114 5 l-19 95 q61 -11 98 -11 q37 0 55.5 7 q18.5 7 28 27.5 q9.5 20.5 14.5 64.5 q22 204 22 531 l-188 0 q-2 -88 -5 -145 q-5 -159 -27 -258 q-22 -99 -72.5 -178 q-50.5 -79 -148.5 -176 l-84 69 q101 90 146.5 155 q45.5 65 64 150.5 q18.5 85.5 25.5 246.5 q3 54 5 136 l-134 0 l0 99 Z" /><glyph glyph-name="uni5212" unicode="&#x5212;" d="M461 105 q14 66 19 116 l82 -33 l-9 -41 q-5 -20 -10 -43 q-5 -23 -12 -47 q-17 -65 -45 -94 q-28 -29 -70 -29 q-33 0 -64 23 q-31 23 -66 80 q-20 35 -39 83 q-82 -66 -172 -120 l-48 81 q110 65 192 134 q-26 105 -41 275 l-126 -21 l-13 89 l132 22 l-3 59 l-7 158 l-1 40 l91 0 q2 -84 9 -206 l2 -36 l282 48 l12 -89 l-288 -49 q9 -127 27 -218 q89 93 147 204 l72 -48 q-85 -150 -194 -257 q19 -60 45 -102 q16 -26 28.5 -36 q12.5 -10 24.5 -10 q14 0 24.5 14.5 q10.5 14.5 18.5 52.5 ZM813 836 l86 0 l0 -781 q0 -50 -9.5 -75.5 q-9.5 -25.5 -34 -36.5 q-24.5 -11 -74.5 -11 q-64 0 -110 5 l-17 91 q58 -8 109 -8 q32 0 41 11 q9 11 9 47 l0 758 ZM429 633 q-27 32 -65.5 71.5 q-38.5 39.5 -68.5 66.5 l52 52 q31 -25 70 -63 q39 -38 68 -70 l-56 -57 ZM617 746 l86 0 l0 -592 l-86 0 l0 592 Z" /><glyph glyph-name="uni5217" unicode="&#x5217;" d="M815 828 l92 0 l0 -768 q0 -49 -13.5 -75 q-13.5 -26 -46.5 -37.5 q-33 -11.5 -96 -11.5 q-45 0 -103 5 l-16 93 q51 -5 114 -7 q29 0 43.5 5.5 q14.5 5.5 20 19.5 q5.5 14 5.5 43 l0 733 ZM74 700 l0 89 l496 0 l0 -89 l-241 0 q-20 -77 -38 -127 l238 0 l0 -86 q-30 -129 -79 -226.5 q-49 -97.5 -127 -181 q-78 -83.5 -200 -169.5 l-62 78 q88 59 148.5 112.5 q60.5 53.5 102.5 111.5 q-64 59 -135 118 q-37 -61 -87 -122 l-62 71 q66 84 123.5 200.5 q57.5 116.5 81.5 220.5 l-159 0 ZM615 737 l94 0 l0 -584 l-94 0 l0 584 ZM257 485 q-18 -42 -36 -77 q79 -62 141 -117 q43 82 72 194 l-177 0 Z" /><glyph glyph-name="uni5218" unicode="&#x5218;" d="M302 845 q26 -69 54 -155 l199 0 l0 -92 l-81 0 q-30 -188 -98 -328 q97 -128 157 -214 l-73 -64 q-55 79 -135 190 q-80 -123 -225 -249 l-69 74 q81 65 138 127 q57 62 97 129 q-80 109 -186 247 l69 55 q64 -79 164 -211 q43 101 67 244 l-329 0 l0 92 l215 0 q-24 72 -50 134 l86 21 ZM807 830 l92 0 l0 -775 q0 -66 -27.5 -94 q-27.5 -28 -100.5 -28 q-65 0 -111 5 l-17 92 q56 -8 104 -8 q37 0 48.5 12 q11.5 12 11.5 50 l0 746 ZM611 743 l91 0 l0 -602 l-91 0 l0 602 Z" /><glyph glyph-name="uni5219" unicode="&#x5219;" d="M812 824 l88 0 l0 -752 q0 -74 -22.5 -103 q-22.5 -29 -82.5 -30 q-62 0 -124 6 l-19 88 q56 -7 118 -7 q24 0 33 16 q9 16 9 53 l0 729 ZM443 704 l-251 0 l0 -514 l-86 0 l0 605 l423 0 l0 -603 l-86 0 l0 512 ZM633 743 l83 0 l0 -583 l-83 0 l0 583 ZM362 379 q0 -79 -12 -142 q97 -86 221 -205 l-66 -71 q-120 127 -183 189 q-29 -63 -83 -116 q-54 -53 -144 -109 l-57 76 q99 60 149 112 q50 52 68.5 117 q18.5 65 18.5 171 l0 247 l88 0 l0 -269 Z" /><glyph glyph-name="uni521A" unicode="&#x521a;" d="M827 827 l86 0 l0 -774 q0 -65 -25 -92.5 q-25 -27.5 -90 -28.5 q-59 -2 -107 5 l-18 87 q53 -7 88 -7 q39 0 52.5 12.5 q13.5 12.5 13.5 49.5 l0 748 ZM80 -67 l0 862 l503 0 l0 -742 q0 -64 -24.5 -89.5 q-24.5 -25.5 -83.5 -27.5 q-58 -2 -103 5 l-17 84 q51 -8 94 -8 q29 0 40.5 15 q11.5 15 11.5 49 l0 629 l-339 0 l0 -777 l-82 0 ZM661 736 l83 0 l0 -590 l-83 0 l0 590 ZM413 93 l-75 172 q-46 -97 -100 -183 l-69 51 q67 104 125 230 q-66 144 -117 246 l68 39 q31 -60 91 -189 q40 101 68 200 l70 -30 q-36 -130 -93 -267 l101 -225 l-69 -44 Z" /><glyph glyph-name="uni521B" unicode="&#x521b;" d="M328 708 q-73 -102 -166 -186 l347 0 q1 -81 -8 -222 q-4 -54 -16 -80 q-12 -26 -40.5 -37 q-28.5 -11 -85.5 -11 q-32 0 -65 3 l-15 80 q37 -6 77 -6 q28 0 39.5 4.5 q11.5 4.5 16.5 17.5 q5 13 8 44 q6 70 6 121 l-202 0 l0 -322 q0 -33 5 -47.5 q5 -14.5 18.5 -20 q13.5 -5.5 44.5 -7.5 q42 -2 63 -2 q22 0 64 2 q30 2 43.5 7 q13.5 5 19 18 q5.5 13 7.5 41 q3 45 3 73 l85 -18 q0 -20 -1.5 -48 q-1.5 -28 -4.5 -52 q-4 -43 -17 -65 q-13 -22 -41 -31 q-28 -9 -83 -12 q-28 -2 -82 -2 q-55 0 -83 2 q-50 3 -77.5 15 q-27.5 12 -40 40.5 q-12.5 28.5 -12.5 80.5 l0 410 q-38 -32 -58 -47 l-50 75 q85 67 162 158 q77 91 121 174 l86 -37 q-14 -28 -22 -41 q50 -40 117.5 -100.5 q67.5 -60.5 114.5 -105.5 l-61 -70 q-102 101 -217 204 ZM821 828 l87 0 l0 -771 q0 -49 -12.5 -74 q-12.5 -25 -43 -35.5 q-30.5 -10.5 -90.5 -10.5 q-33 0 -93 4 l-21 97 q65 -9 109 -9 q39 0 51.5 13.5 q12.5 13.5 12.5 53.5 l0 732 ZM644 751 l87 0 l0 -578 l-87 0 l0 578 Z" /><glyph glyph-name="uni521D" unicode="&#x521d;" d="M384 189 q-37 31 -118 93 l0 -353 l-92 0 l0 396 q-55 -60 -111 -110 l-32 91 q73 65 135.5 140.5 q62.5 75.5 101.5 146.5 l-206 0 l0 93 l132 0 q-22 80 -42 141 l87 20 q17 -53 48 -161 l87 0 l0 -86 q-45 -82 -108 -166 l0 -54 l23 -17 q57 68 99 127 l64 -50 l-15 -20 l-82 -107 l78 -59 l-49 -65 ZM417 766 l505 0 q0 -142 -9.5 -358.5 q-9.5 -216.5 -22.5 -315.5 q-7 -59 -25 -91 q-18 -32 -54 -46 q-36 -14 -101 -14 q-47 0 -95 6 l-18 94 q50 -9 99 -9 q40 1 59 8.5 q19 7.5 28.5 27.5 q9.5 20 14.5 63 q12 102 18.5 253 q6.5 151 6.5 286 l-191 0 q-1 -53 -5 -153 q-9 -156 -30 -249.5 q-21 -93.5 -67 -171.5 q-46 -78 -140 -181 l-81 63 q91 93 135 162.5 q44 69.5 63 154 q19 84.5 28 233.5 l4 142 l-122 0 l0 96 Z" /><glyph glyph-name="uni5220" unicode="&#x5220;" d="M830 824 l80 0 l0 -764 q0 -66 -25.5 -98.5 q-25.5 -32.5 -82.5 -32.5 q-53 0 -112 8 l-15 79 q61 -9 104 -9 q28 0 39.5 17.5 q11.5 17.5 11.5 56.5 l0 743 ZM610 792 l0 -343 l47 0 l0 -84 l-47 0 l0 -326 q0 -52 -18 -74 q-18 -22 -59 -22 q-38 0 -67 5 l-14 82 q7 -1 23.5 -3 q16.5 -2 29.5 -2 q17 0 23 11 q6 11 6 37 l0 292 l-74 0 q-1 -166 -15.5 -255 q-14.5 -89 -52.5 -184 l-73 33 q27 61 40 110.5 q13 49.5 18.5 116 q5.5 66.5 6.5 179.5 l-58 0 l0 -314 q0 -55 -17 -77 q-17 -22 -64 -22 q-40 2 -59 6 l-15 82 q30 -7 50 -7 q30 0 30 46 l0 286 l-68 0 q-1 -121 -8 -193 q-7 -72 -23.5 -125.5 q-16.5 -53.5 -49.5 -117.5 l-72 38 q32 61 47 107.5 q15 46.5 21.5 111 q6.5 64.5 8.5 179.5 l-61 0 l0 84 l61 0 l0 8 l0 335 l219 0 l0 -343 l58 0 l0 8 l0 335 l226 0 ZM684 742 l75 0 l0 -600 l-75 0 l0 600 ZM183 708 l0 -259 l68 0 l0 259 l-68 0 ZM460 708 l0 -259 l74 0 l0 259 l-74 0 Z" /><glyph glyph-name="uni5224" unicode="&#x5224;" d="M365 413 q0 -59 -3 -109 l208 0 l0 -89 l-217 0 q-16 -97 -58 -163 q-42 -66 -131 -144 l-74 61 q81 67 118.5 119 q37.5 52 52.5 127 l-202 0 l0 89 l213 0 q3 50 3 114 l-189 0 l0 89 l189 0 l0 327 l90 0 l0 -327 l185 0 l0 -89 l-185 0 l0 -5 ZM816 829 l90 0 l0 -769 q0 -67 -26.5 -95.5 q-26.5 -28.5 -97.5 -29.5 q-60 -1 -121 6 l-19 96 q57 -9 113 -9 q26 0 39 5.5 q13 5.5 17.5 19.5 q4.5 14 4.5 43 l0 733 ZM379 576 q27 42 63.5 106 q36.5 64 55.5 102 l72 -36 q-20 -39 -56.5 -104 q-36.5 -65 -61.5 -105 l-73 37 ZM171 543 q-18 39 -51 101 q-33 62 -55 98 l74 37 q22 -36 54 -94.5 q32 -58.5 54 -103.5 l-76 -38 ZM625 745 l92 0 l0 -594 l-92 0 l0 594 Z" /><glyph glyph-name="uni5229" unicode="&#x5229;" d="M812 828 l92 0 l0 -765 q0 -72 -26 -103 q-26 -31 -91 -31 q-69 0 -137 6 l-19 94 q66 -9 132 -9 q28 0 38.5 17.5 q10.5 17.5 10.5 58.5 l0 732 ZM351 463 l0 -45 q107 -94 189 -176 l-59 -78 q-50 62 -130 149 l0 -387 l-93 0 l0 386 q-65 -118 -169 -231 l-58 84 q127 123 212 298 l-183 0 l0 91 l198 0 l0 127 q-56 -8 -175 -22 l-11 89 q99 8 221.5 27 q122.5 19 208.5 39 l17 -87 q-70 -15 -168 -31 l0 -142 l183 0 l0 -91 l-183 0 ZM595 743 l93 0 l0 -597 l-93 0 l0 597 Z" /><glyph glyph-name="uni522B" unicode="&#x522b;" d="M806 828 l87 0 l0 -768 q0 -68 -28.5 -97.5 q-28.5 -29.5 -99.5 -30.5 q-66 -2 -119 5 l-17 91 q57 -9 113 -9 q37 1 50.5 15 q13.5 14 13.5 58 l0 736 ZM296 474 l-4 -109 l233 0 q0 -60 -4 -145 q-4 -85 -11 -135 q-9 -74 -42 -104.5 q-33 -30.5 -108 -30.5 q-31 0 -93 4 l-18 85 q43 -7 80 -8 q36 0 54 7 q18 7 27 26 q9 19 14 58 q10 79 10 156 l-148 0 q-8 -81 -28 -138.5 q-20 -57.5 -54.5 -106.5 q-34.5 -49 -94.5 -113 l-76 60 q81 74 116 137 q35 63 47 161 l-142 0 l0 87 l148 0 q1 16 2 43.5 q1 27.5 1 41.5 q1 9 1 24 l-107 0 l0 321 l413 0 l0 -321 l-216 0 ZM609 742 l86 0 l0 -575 l-86 0 l0 575 ZM422 711 l-234 0 l0 -150 l234 0 l0 150 Z" /><glyph glyph-name="uni522E" unicode="&#x522e;" d="M807 828 l88 0 l0 -767 q0 -70 -26 -99.5 q-26 -29.5 -96 -29.5 q-70 0 -120 5 l-17 94 q61 -8 114 -8 q33 0 45 16.5 q12 16.5 12 54.5 l0 734 ZM353 554 l210 0 l0 -89 l-210 0 l0 -130 l160 0 l0 -385 l-412 0 l0 385 l161 0 l0 130 l-218 0 l0 89 l218 0 l0 129 q-81 -8 -192 -16 l-7 89 q112 7 239.5 21.5 q127.5 14.5 216.5 31.5 l15 -89 q-67 -13 -181 -27 l0 -139 ZM614 734 l89 0 l0 -585 l-89 0 l0 585 ZM192 39 l230 0 l0 203 l-230 0 l0 -203 Z" /><glyph glyph-name="uni5230" unicode="&#x5230;" d="M815 824 l91 0 l0 -768 q0 -69 -22.5 -98 q-22.5 -29 -77.5 -30 l-30 0 q-62 0 -106 5 l-19 92 q65 -8 118 -7 q26 1 36 16.5 q10 15.5 10 53.5 l0 736 ZM359 428 l0 -133 l184 0 l0 -87 l-184 0 l0 -133 q163 21 196 27 l7 -92 q-48 -5 -255.5 -32.5 q-207.5 -27.5 -246.5 -34.5 l-13 90 l220 29 l0 146 l-192 0 l0 87 l192 0 l0 122 q-29 -3 -98 -11 l-86 -10 l-21 82 q22 5 32 17 q28 33 65 89 q37 56 67 109 l-169 0 l0 90 l509 0 l0 -90 l-238 0 q-74 -125 -135 -207 l240 30 q-34 64 -55 100 l72 40 q27 -45 64.5 -116 q37.5 -71 63.5 -124 l-77 -40 q-12 28 -29 64 l-113 -12 ZM629 743 l89 0 l0 -596 l-89 0 l0 596 Z" /><glyph glyph-name="uni5236" unicode="&#x5236;" d="M379 620 l0 -106 l216 0 l0 -86 l-216 0 l0 -92 l190 0 l0 -259 q0 -46 -20 -69 q-20 -23 -64 -23 q-22 0 -72 6 l-17 79 q9 -1 27.5 -3.5 q18.5 -2.5 32.5 -2.5 q16 0 23 9 q7 9 7 30 l0 148 l-107 0 l0 -335 l-88 0 l0 335 l-109 0 l0 -270 l-82 0 l0 355 l191 0 l0 92 l-239 0 l0 86 l239 0 l0 106 l-116 0 q-13 -36 -33 -77 l-81 26 q28 62 46.5 116.5 q18.5 54.5 30.5 115.5 l85 -14 q-7 -34 -20 -83 l88 0 l0 128 l88 0 l0 -128 l197 0 l0 -84 l-197 0 ZM825 820 l88 0 l0 -768 q0 -68 -27 -98.5 q-27 -30.5 -96 -30.5 q-48 0 -122 9 l-17 89 q70 -11 114 -11 q32 0 46 19 q14 19 14 56 l0 735 ZM650 738 l88 0 l0 -601 l-88 0 l0 601 Z" /><glyph glyph-name="uni5237" unicode="&#x5237;" d="M829 834 l84 0 l0 -783 q0 -45 -12.5 -71 q-12.5 -26 -42 -38 q-29.5 -12 -82.5 -12 q-40 0 -94 7 l-17 84 q51 -9 104 -9 q33 0 46.5 14 q13.5 14 13.5 47 l0 761 ZM591 531 l-398 0 l0 -77 q0 -150 -20.5 -268 q-20.5 -118 -68.5 -226 l-78 40 q47 97 66.5 207 q19.5 110 19.5 264 l0 328 l479 0 l0 -268 ZM662 750 l81 0 l0 -594 l-81 0 l0 594 ZM505 608 l0 110 l-312 0 l0 -110 l312 0 ZM442 500 l0 -86 l152 0 l0 -311 q0 -39 -7.5 -58 q-7.5 -19 -25 -26.5 q-17.5 -7.5 -52.5 -7.5 q-28 0 -45 4 l-15 74 q18 -4 38 -4 q17 0 23.5 8 q6.5 8 6.5 34 l0 208 l-79 0 l0 -410 l-78 0 l0 410 l-69 0 l0 -324 l-77 0 l0 403 l142 0 l0 86 l86 0 Z" /><glyph glyph-name="uni5239" unicode="&#x5239;" d="M50 535 q119 50 206 104 q-96 62 -178 106 l49 74 q110 -62 211 -126 q69 49 173 138 l59 -74 q-70 -59 -147 -118 l166 -108 l-55 -79 q-97 69 -191 132 q-116 -75 -252 -137 l-41 88 ZM823 826 l85 0 l0 -767 q0 -68 -28 -99 q-28 -31 -97 -32 q-62 0 -117 7 l-17 91 q54 -9 109 -9 q38 0 51.5 14 q13.5 14 13.5 58 l0 737 ZM636 746 l86 0 l0 -597 l-86 0 l0 597 ZM586 311 l-209 0 l0 -273 q0 -61 -22.5 -85 q-22.5 -24 -83.5 -24 q-51 0 -89 5 l-17 88 q47 -9 80 -9 q27 0 36.5 14.5 q9.5 14.5 9.5 51.5 l0 232 l-237 0 l0 88 l237 0 l0 108 l86 0 l0 -108 l209 0 l0 -88 ZM230 248 q-24 -66 -61.5 -143.5 q-37.5 -77.5 -69.5 -127.5 l-76 44 q33 51 67 122 q34 71 60 138 l80 -33 ZM487 277 q30 -50 69 -118 q39 -68 62 -111 l-78 -43 q-21 46 -61 118 q-40 72 -66 113 l74 41 Z" /><glyph glyph-name="uni523A" unicode="&#x523a;" d="M368 836 l0 -98 l224 0 l0 -85 l-224 0 l0 -85 l190 0 l0 -210 q0 -52 -17.5 -73.5 q-17.5 -21.5 -57.5 -23.5 q-37 -2 -73 3 l-16 79 q30 -6 62 -6 q27 0 27 43 l0 107 l-115 0 l0 -237 q109 -70 206 -141 l-46 -80 q-81 73 -160 135 l0 -243 l-84 0 l0 304 q-83 -147 -210 -249 l-43 87 q89 70 151.5 146 q62.5 76 101.5 167 l0 111 l-114 0 l0 -222 l-78 0 l0 303 l192 0 l0 85 l-232 0 l0 85 l232 0 l0 98 l84 0 ZM817 828 l88 0 l0 -768 q0 -67 -24 -98 q-24 -31 -80 -31 q-69 0 -120 5 l-16 91 q63 -7 108 -7 q24 0 34 15.5 q10 15.5 10 53.5 l0 739 ZM638 734 l85 0 l0 -573 l-85 0 l0 573 Z" /><glyph glyph-name="uni523B" unicode="&#x523b;" d="M47 202 q87 45 150.5 91.5 q63.5 46.5 112.5 101.5 q-128 -15 -160 -18 q-23 -2 -43 -6 l-23 87 q29 8 46 27 q21 22 50 65.5 q29 43.5 53 88.5 l-173 0 l0 85 l234 0 l-32 100 l88 19 q19 -49 39 -119 l205 0 l0 -85 l-264 0 q-23 -45 -54 -93 q-31 -48 -58 -82 l68 8 l92 11 q31 46 67 113 l73 -38 q-79 -146 -178.5 -249.5 q-99.5 -103.5 -243.5 -180.5 l-49 74 ZM825 816 l90 0 l0 -768 q0 -67 -26 -95.5 q-26 -28.5 -94 -29.5 q-48 -1 -116 4 l-19 92 q57 -6 115 -6 q30 0 40 15.5 q10 15.5 10 54.5 l0 733 ZM641 728 l87 0 l0 -593 l-87 0 l0 593 ZM582 349 q-74 -119 -148 -195 q88 -73 176 -153 l-62 -76 q-30 32 -82 82.5 q-52 50.5 -93 87.5 q-110 -97 -282 -183 l-54 76 q168 80 276 172.5 q108 92.5 195 230.5 l74 -42 Z" /><glyph glyph-name="uni5242" unicode="&#x5242;" d="M511 643 q-43 -92 -105 -160 q129 -74 197 -117 l-49 -78 q-117 75 -216 133 q-104 -81 -275 -147 l-39 84 q140 50 230 113 q-53 30 -130 73 q-3 2 -22 13 l41 68 q71 -35 181 -96 q53 51 87 114 l-358 0 l0 89 l226 0 q-15 40 -43 102 l94 17 q19 -41 47 -119 l204 0 l0 -89 l-70 0 ZM819 824 l86 0 l0 -755 q0 -70 -28.5 -100 q-28.5 -30 -98.5 -31 q-68 0 -114 6 l-18 86 q61 -7 107 -7 q40 0 53 13 q13 13 13 53 l0 735 ZM641 740 l84 0 l0 -598 l-84 0 l0 598 ZM474 -60 l-85 0 l0 377 l85 0 l0 -377 ZM165 269 q2 20 2 43 l86 0 l0 -42 q-4 -94 -17.5 -152.5 q-13.5 -58.5 -44.5 -103 q-31 -44.5 -91 -94.5 l-70 59 q56 46 83 82 q27 36 38 82 q11 46 14 126 Z" /><glyph glyph-name="uni524D" unicode="&#x524d;" d="M944 719 l0 -85 l-895 0 l0 85 l250 0 q-36 73 -51 101 l89 28 q10 -15 26.5 -49.5 q16.5 -34.5 21.5 -45.5 l16 -34 l186 0 q33 54 73 128 l92 -30 q-41 -69 -60 -98 l252 0 ZM779 574 l90 0 l0 -518 q0 -48 -10.5 -75 q-10.5 -27 -37.5 -39.5 q-27 -12.5 -78 -12.5 q-59 0 -122 6 l-17 88 q60 -8 111 -9 q39 0 51.5 14 q12.5 14 12.5 51 l0 495 ZM115 -72 l0 628 l374 0 l0 -513 q0 -63 -23.5 -88 q-23.5 -25 -81.5 -27 q-43 -2 -87 3 l-18 86 q36 -6 76 -6 q28 0 36.5 10.5 q8.5 10.5 8.5 39.5 l0 75 l-195 0 l0 -208 l-90 0 ZM585 535 l84 0 l0 -428 l-84 0 l0 428 ZM400 384 l0 87 l-195 0 l0 -87 l195 0 ZM205 305 l0 -89 l195 0 l0 89 l-195 0 Z" /><glyph glyph-name="uni5265" unicode="&#x5265;" d="M826 828 l84 0 l0 -760 q0 -74 -27 -106 q-27 -32 -95 -32 q-45 0 -117 7 l-19 89 q72 -9 115 -9 q34 0 46.5 18 q12.5 18 12.5 64 l0 729 ZM610 414 l-226 0 l0 -367 q0 -65 -23 -92 q-23 -27 -79 -27 q-43 0 -103 7 l-17 86 q56 -9 92 -9 q26 0 35.5 11.5 q9.5 11.5 9.5 42.5 l0 108 q-94 -71 -216 -160 l-49 71 q20 12 122.5 83.5 q102.5 71.5 142.5 101.5 l0 144 l-241 0 l0 78 l396 0 l0 76 l-326 0 l0 76 l326 0 l0 74 l-350 0 l0 79 l435 0 l0 -305 l71 0 l0 -78 ZM652 751 l83 0 l0 -595 l-83 0 l0 595 ZM419 283 q68 55 123 113 l58 -59 q-60 -58 -128 -111 l-53 57 ZM125 388 q24 -18 101 -81 q5 -4 9 -7.5 q4 -3.5 8 -7.5 l-51 -59 q-53 47 -116 96 l49 59 ZM436 226 q68 -48 191 -140 l-50 -69 q-122 97 -190 145 l49 64 Z" /><glyph glyph-name="uni5267" unicode="&#x5267;" d="M825 823 l86 0 l0 -768 q0 -67 -26 -96.5 q-26 -29.5 -89 -29.5 q-53 0 -106 6 l-16 84 q54 -8 103 -8 q27 0 37.5 15.5 q10.5 15.5 10.5 50.5 l0 746 ZM435 529 l0 -91 l181 0 l0 -81 l-181 0 l0 -96 l136 0 l0 -316 l-358 0 l0 316 l137 0 l0 96 l-154 0 q-6 -134 -27.5 -225 q-21.5 -91 -69.5 -191 l-78 40 q37 76 56 143 q19 67 27 153.5 q8 86.5 8 224.5 l0 288 l468 0 l0 -261 l-145 0 ZM658 732 l83 0 l0 -588 l-83 0 l0 588 ZM493 609 l0 100 l-295 0 l0 -100 l295 0 ZM198 438 l152 0 l0 91 l-152 0 l0 -38 l0 -53 ZM292 25 l203 0 l0 157 l-203 0 l0 -157 Z" /><glyph glyph-name="uni5269" unicode="&#x5269;" d="M843 819 l83 0 l0 -766 q0 -65 -24 -93.5 q-24 -28.5 -82 -29.5 q-61 0 -124 6 l-20 96 q64 -8 119 -8 q26 0 37 15.5 q11 15.5 11 51.5 l0 728 ZM388 555 l0 -286 q50 -37 118 -90 q68 -53 112 -90 l-51 -72 q-126 112 -179 157 l0 -248 l-79 0 l0 254 q-40 -54 -93.5 -101.5 q-53.5 -47.5 -122.5 -95.5 l-50 77 q188 107 266 253 l0 242 l-240 0 l0 80 l238 0 l0 75 q-101 -9 -191 -12 l-6 78 q100 3 236.5 14 q136.5 11 232.5 25 l10 -79 q-101 -11 -198 -19 l0 -82 l246 0 l0 -80 l-249 0 ZM689 736 l76 0 l0 -583 l-76 0 l0 583 ZM589 330 q1 13 1 42 l62 -13 l-2 -67 q-1 -40 -21 -56 q-20 -16 -62 -16 l-51 0 q-36 0 -51.5 18 q-15.5 18 -15.5 56 l0 229 l72 0 l0 -75 q56 31 87 54 l35 -61 q-47 -30 -122 -66 l0 -51 q0 -19 5 -26 q5 -7 18 -7 l16 0 q16 0 22 8.5 q6 8.5 7 30.5 ZM57 314 q22 9 83 28 l39 13 l0 43 l-109 0 l0 70 l109 0 l0 54 l71 0 l0 -288 l-71 0 l0 48 l-36 -14 l-72 -27 l-14 73 Z" /><glyph glyph-name="uni526A" unicode="&#x526a;" d="M944 747 l0 -72 l-888 0 l0 72 l247 0 l-43 71 l84 29 q5 -7 43 -74 l15 -26 l193 0 q30 42 72 108 l85 -34 q-11 -17 -53 -74 l245 0 ZM622 333 q72 -9 118 -9 q29 0 40 14 q11 14 11 46 l0 246 l84 0 l0 -253 q0 -66 -26 -92.5 q-26 -26.5 -89 -26.5 q-74 0 -127 5 l-11 70 ZM381 316 q20 0 27 8 q7 8 7 29 l0 12 l-203 0 l0 -104 l-88 0 l0 363 l378 0 l0 -272 q0 -55 -20.5 -75 q-20.5 -20 -74.5 -20 q-61 0 -102 5 l-11 61 q58 -7 87 -7 ZM680 378 l-80 0 l0 239 l80 0 l0 -239 ZM415 520 l0 44 l-203 0 l0 -44 l203 0 ZM212 464 l0 -43 l203 0 l0 43 l-203 0 ZM93 144 l0 75 l804 0 q-8 -83 -25 -161 q-11 -48 -24 -74 q-13 -26 -38 -39 q-25 -13 -68 -13 q-104 0 -183 7 l-17 79 q89 -8 162 -10 q35 0 49.5 11.5 q14.5 11.5 24.5 44.5 q10 38 15 80 l-327 0 q-19 -63 -59 -104 q-40 -41 -112 -69 q-72 -28 -192 -51 l-35 80 q99 19 159 38.5 q60 19.5 93.5 44.5 q33.5 25 50.5 61 l-278 0 Z" /><glyph glyph-name="uni526F" unicode="&#x526f;" d="M827 820 l89 0 l0 -761 q0 -51 -12.5 -77 q-12.5 -26 -44 -36.5 q-31.5 -10.5 -91.5 -10.5 q-27 0 -85 4 l-19 93 q58 -7 98 -7 q40 0 52.5 13 q12.5 13 12.5 54 l0 728 ZM593 707 l-533 0 l0 81 l533 0 l0 -81 ZM646 730 l87 0 l0 -566 l-87 0 l0 566 ZM117 427 l0 217 l422 0 l0 -217 l-422 0 ZM201 499 l253 0 l0 73 l-253 0 l0 -73 ZM574 -58 l-494 0 l0 425 l494 0 l0 -425 ZM288 199 l0 95 l-123 0 l0 -95 l123 0 ZM370 199 l119 0 l0 95 l-119 0 l0 -95 ZM288 126 l-123 0 l0 -108 l123 0 l0 108 ZM370 126 l0 -108 l119 0 l0 108 l-119 0 Z" /><glyph glyph-name="uni5272" unicode="&#x5272;" d="M152 680 l0 -68 l-84 0 l0 140 l230 0 q-16 39 -35 82 l88 19 l45 -101 l200 0 l0 -140 l-81 0 l0 68 l-363 0 ZM824 821 l87 0 l0 -762 q0 -51 -13 -77.5 q-13 -26.5 -44 -37 q-31 -10.5 -90 -10.5 q-27 0 -87 4 l-18 92 q58 -7 99 -7 q40 0 53 13.5 q13 13.5 13 53.5 l0 731 ZM657 730 l80 0 l0 -585 l-80 0 l0 585 ZM555 395 l-179 0 l0 -51 l231 0 l0 -69 l-231 0 l0 -66 l176 0 l0 -261 l-435 0 l0 261 l175 0 l0 66 l-234 0 l0 69 l234 0 l0 51 l-186 0 l0 69 l186 0 l0 53 l-203 0 l0 67 l203 0 l0 65 l84 0 l0 -65 l197 0 l0 -67 l-197 0 l0 -53 l179 0 l0 -69 ZM203 21 l262 0 l0 115 l-262 0 l0 -115 Z" /><glyph glyph-name="uni529B" unicode="&#x529b;" d="M885 649 q-1 -123 -9.5 -286 q-8.5 -163 -20.5 -266 q-7 -58 -25.5 -91.5 q-18.5 -33.5 -54.5 -49.5 q-36 -16 -96 -17 q-81 -2 -161 6 l-20 99 q90 -10 134 -10 q50 0 73.5 8 q23.5 8 35 30.5 q11.5 22.5 17.5 72.5 q23 186 23 406 l-308 0 q-11 -167 -44 -270 q-33 -103 -102.5 -183.5 q-69.5 -80.5 -201.5 -174.5 l-72 79 q125 86 188.5 153.5 q63.5 67.5 94 157 q30.5 89.5 39.5 238.5 l-280 0 l0 98 l284 0 q2 30 4 112 l3 81 l98 0 q0 -55 -6 -193 l407 0 Z" /><glyph glyph-name="uni529E" unicode="&#x529e;" d="M878 168 q-64 144 -109 240 q-8 -187 -21 -320 q-7 -80 -39.5 -116.5 q-32.5 -36.5 -110.5 -39.5 q-12 -1 -37 -1 q-60 0 -113 7 l-19 96 q72 -8 138 -8 q45 0 65 22.5 q20 22.5 24 80.5 q8 91 15 230 q7 139 8 218 l-237 0 q-10 -186 -38.5 -292 q-28.5 -106 -92.5 -185.5 q-64 -79.5 -196 -180.5 l-68 78 q114 76 175 150.5 q61 74.5 89 173 q28 98.5 38 256.5 l-247 0 l0 90 l251 0 q2 54 2 89 q2 78 3 87 l95 -2 q0 -30 -7 -174 l332 0 l-6 -211 l59 29 q47 -86 132 -277 l-85 -40 ZM234 459 q-22 -77 -52.5 -154 q-30.5 -77 -63.5 -138 l-86 42 q79 147 116 281 l86 -31 Z" /><glyph glyph-name="uni529F" unicode="&#x529f;" d="M919 665 q1 -106 -7 -290 q-8 -184 -17 -272 q-7 -66 -23 -100 q-16 -34 -49 -48 q-33 -14 -95 -14 q-55 0 -111 6 l-19 90 q65 -9 109 -9 q38 0 55.5 8.5 q17.5 8.5 26 31 q8.5 22.5 13.5 71.5 q9 83 13.5 201.5 q4.5 118.5 4.5 231.5 l-186 0 q-5 -189 -24 -293.5 q-19 -104.5 -68.5 -184.5 q-49.5 -80 -154.5 -180 l-80 66 q105 98 151 168 q46 70 61.5 158.5 q15.5 88.5 20.5 265.5 l-110 0 l0 93 l112 0 l5 174 l93 0 l-3 -174 l282 0 ZM430 178 q-28 -7 -186 -53.5 q-158 -46.5 -191 -57.5 l-21 94 l40 12 l110 32 l0 448 l-125 0 l0 91 l340 0 l0 -91 l-122 0 l0 -421 l34 10 q27 8 57 17 q30 9 50 16 l14 -97 Z" /><glyph glyph-name="uni52A0" unicode="&#x52a0;" d="M494 672 q1 -126 -5 -309 q-6 -183 -15 -280 q-5 -56 -19.5 -85.5 q-14.5 -29.5 -45.5 -41.5 q-31 -12 -87 -12 q-36 0 -72 6 l-20 97 q45 -9 77 -9 q29 0 43 6 q14 6 21 24.5 q7 18.5 11 58.5 q18 194 18 452 l-122 0 q-6 -172 -20 -277 q-14 -105 -45 -193 q-31 -88 -92 -190 l-84 50 q58 95 87.5 175 q29.5 80 43 177.5 q13.5 97.5 19.5 257.5 l-133 0 l0 93 l136 0 l2 168 l92 0 q0 -72 -3 -168 l213 0 ZM573 -59 l0 786 l340 0 l0 -786 l-90 0 l0 71 l-158 0 l0 -71 l-92 0 ZM665 634 l0 -529 l158 0 l0 529 l-158 0 Z" /><glyph glyph-name="uni52A1" unicode="&#x52a1;" d="M599 506 q137 -49 357 -85 l-23 -90 q-140 26 -244.5 56 q-104.5 30 -188.5 70 q-170 -77 -426 -139 l-31 89 q206 43 361 101 q-84 53 -152 118 q-69 -62 -135 -105 l-52 65 q73 48 148.5 123.5 q75.5 75.5 120.5 142.5 l88 -30 q-30 -44 -47 -65 l463 0 l0 -77 q-111 -103 -239 -174 ZM318 679 q76 -79 180 -130 q124 58 203 130 l-383 0 ZM483 388 l-5 -37 l-7 -59 l380 0 q-9 -130 -31 -240 q-12 -63 -42.5 -93 q-30.5 -30 -94.5 -31 q-95 0 -179 10 l-17 83 q78 -12 160 -13 q36 0 52.5 14.5 q16.5 14.5 26.5 55.5 q15 59 21 132 l-294 0 q-20 -68 -59 -117 q-39 -49 -105 -90 q-66 -41 -172 -84 l-54 77 q135 48 200 95.5 q65 47.5 91 118.5 l-245 0 l0 82 l264 0 q10 65 12 97 l98 -1 Z" /><glyph glyph-name="uni52A8" unicode="&#x52a8;" d="M931 659 q-3 -400 -20 -584 q-5 -53 -19 -80.5 q-14 -27.5 -42.5 -38.5 q-28.5 -11 -81.5 -11 q-39 0 -94 5 l-17 93 q57 -9 107 -9 q32 0 44 17.5 q12 17.5 17 69.5 q15 155 15 447 l-132 0 q-10 -191 -25.5 -293.5 q-15.5 -102.5 -52 -182.5 q-36.5 -80 -112.5 -174 l-80 58 q72 84 106.5 152.5 q34.5 68.5 51 165 q16.5 96.5 24.5 274.5 l-119 0 l0 91 l122 0 q2 55 4 183 l89 0 q0 -30 -1 -46 q0 -65 -3 -137 l219 0 ZM92 773 l369 0 l0 -88 l-369 0 l0 88 ZM430 31 q-5 17 -19 57 l-289 -67 q-12 -1 -48 -9 l-31 95 q19 7 28.5 16.5 q9.5 9.5 18.5 25.5 q20 37 50.5 118.5 q30.5 81.5 54.5 159.5 l-146 0 l0 89 l442 0 l0 -89 l-202 0 q-23 -78 -56 -168 q-33 -90 -56 -135 l41 9 q54 11 162 35 q-38 98 -65 151 l81 31 q24 -51 57.5 -132 q33.5 -81 56.5 -144 l-80 -43 Z" /><glyph glyph-name="uni52A9" unicode="&#x52a9;" d="M922 662 q1 -124 -5 -304.5 q-6 -180.5 -16 -285.5 q-6 -53 -22 -80.5 q-16 -27.5 -49 -38.5 q-33 -11 -94 -11 q-46 0 -79 5 l-15 88 q45 -8 87 -8 q31 0 47.5 6.5 q16.5 6.5 24.5 24.5 q8 18 12 54 q18 177 18 461 l-143 0 l-2 -62 q-6 -167 -24.5 -265.5 q-18.5 -98.5 -57.5 -170 q-39 -71.5 -115 -156.5 l-70 67 q47 50 78 91 l-184 -31 l-258 -43 l-14 93 l74 12 l0 676 l341 0 l0 -622 l41 7 l2 -89 q37 51 57 106.5 q20 55.5 29.5 132.5 q9.5 77 12.5 201 l1 53 l-97 0 l0 89 l98 0 q2 84 2 116 l1 58 l90 0 q-1 -28 -3 -174 l232 0 ZM369 565 l0 129 l-167 0 l0 -129 l167 0 ZM202 357 l167 0 l0 123 l-167 0 l0 -123 ZM202 274 l0 -152 l95 15 q54 9 72 11 l0 126 l-167 0 Z" /><glyph glyph-name="uni52AA" unicode="&#x52aa;" d="M41 400 q127 37 204 79 q-61 35 -138 73 q26 51 49 112 l-99 0 l0 83 l129 0 q18 57 29 101 l91 -15 l-26 -86 l203 0 l0 -82 q-17 -57 -36.5 -98 q-19.5 -41 -48.5 -74 q37 -20 82 -46 l-52 -77 q-57 37 -99 61 q-81 -59 -247 -114 l-41 83 ZM782 507 q70 -48 184 -91 l-38 -90 q-126 51 -214 121 q-65 -49 -160 -91 l-47 82 q81 31 141 71 q-75 79 -119 189 l-24 0 l0 85 l394 0 l0 -88 q-45 -112 -117 -188 ZM621 698 q34 -77 93 -136 q57 56 91 136 l-184 0 ZM249 664 q-21 -49 -35 -77 q32 -16 104 -53 q26 26 43 57.5 q17 31.5 31 72.5 l-143 0 ZM458 345 q-2 -36 -5 -61 l396 0 q-4 -43 -12.5 -121 q-8.5 -78 -12.5 -103 q-6 -50 -23.5 -76 q-17.5 -26 -53.5 -36 q-36 -10 -103 -10 q-66 0 -131 6 l-18 89 q70 -10 127 -10 q41 0 62.5 5.5 q21.5 5.5 32 20.5 q10.5 15 14.5 46 q4 23 7 52 q3 29 4 51 l-301 0 q-15 -70 -52.5 -118.5 q-37.5 -48.5 -107 -87 q-69.5 -38.5 -187.5 -79.5 l-46 84 q100 32 159.5 61.5 q59.5 29.5 91 62.5 q31.5 33 45.5 77 l-242 0 l0 86 l256 0 l2 31 q0 10 2 30 l96 0 Z" /><glyph glyph-name="uni52B1" unicode="&#x52b1;" d="M916 651 q-2 -340 -20 -582 q-4 -47 -15.5 -72.5 q-11.5 -25.5 -34.5 -36 q-23 -10.5 -63 -10.5 q-47 0 -70 4 l-16 86 q8 -1 27 -4.5 q19 -3.5 39 -3.5 q25 0 36 16.5 q11 16.5 16 64.5 q16 161 18 451 l-98 0 q-7 -172 -22 -280 q-15 -108 -44 -191 q-29 -83 -83 -170 l-77 45 q54 86 82 159.5 q28 73.5 41 172.5 q13 99 18 264 l-83 0 l0 87 l85 0 l3 194 l84 0 q0 -119 -2 -194 l179 0 ZM178 705 l0 -263 q0 -125 -5 -205 q-5 -80 -21.5 -153.5 q-16.5 -73.5 -49.5 -155.5 l-75 45 q44 97 57 191.5 q13 94.5 13 268.5 l0 359 l460 0 l0 -87 l-379 0 ZM524 415 q1 -66 -4.5 -171 q-5.5 -105 -12.5 -160 q-6 -47 -16 -72 q-10 -25 -30.5 -36 q-20.5 -11 -58.5 -11 q-39 0 -71 4 l-16 77 q40 -8 60 -8 q28 0 39.5 14 q11.5 14 16.5 59 q13 104 13 221 l-105 0 q-15 -250 -116 -406 l-71 49 q63 90 85 196 q22 106 26 244 l1 36 q0 22 2 70 l-61 0 l0 82 l329 0 l0 -82 l-191 0 q0 -38 -2 -106 l183 0 Z" /><glyph glyph-name="uni52B2" unicode="&#x52b2;" d="M914 649 q-2 -289 -22 -565 q-4 -53 -18 -81 q-14 -28 -45 -39 q-31 -11 -90 -11 q-39 0 -84 5 l-19 90 q56 -7 94 -7 q40 0 54 15 q14 15 18 59 q19 212 19 443 l-128 0 q-6 -177 -23 -281.5 q-17 -104.5 -55 -185.5 q-38 -81 -114 -179 l-83 56 q76 88 112.5 158.5 q36.5 70.5 51.5 164 q15 93.5 20 261.5 l0 6 l-96 0 l0 91 l98 0 l3 191 l92 0 l-3 -191 l218 0 ZM32 457 q97 46 175 106 q78 60 128 129 l-260 0 l0 90 l377 0 l0 -84 q-50 -71 -96 -118 q119 -70 173 -108 l-51 -79 q-91 66 -185 127 q-91 -79 -213 -140 l-48 77 ZM478 50 q-73 -14 -215.5 -36 q-142.5 -22 -214.5 -31 l-7 91 l187 26 l0 167 l-154 0 l0 90 l398 0 l0 -90 l-151 0 l0 -153 q117 18 154 25 l3 -89 Z" /><glyph glyph-name="uni52B3" unicode="&#x52b3;" d="M698 838 l0 -84 l251 0 l0 -88 l-251 0 l0 -75 l-88 0 l0 75 l-219 0 l0 -75 l-93 0 l0 75 l-249 0 l0 88 l249 0 l0 84 l93 0 l0 -84 l219 0 l0 84 l88 0 ZM180 363 l-89 0 l0 193 l816 0 l0 -193 l-89 0 l0 109 l-638 0 l0 -109 ZM473 428 q-2 -48 -6 -95 l366 0 q-1 -41 -7.5 -115.5 q-6.5 -74.5 -14.5 -132.5 q-8 -54 -22.5 -83.5 q-14.5 -29.5 -41 -42 q-26.5 -12.5 -71.5 -13.5 q-80 -1 -161 6 l-17 88 q82 -8 153 -8 q29 0 44.5 18 q15.5 18 22.5 60 q14 83 16 140 l-279 0 q-17 -84 -52.5 -142 q-35.5 -58 -104.5 -105 q-69 -47 -186 -89 l-45 84 q98 36 156 71.5 q58 35.5 88.5 78 q30.5 42.5 44.5 102.5 l-238 0 l0 83 l251 0 l5 95 l99 0 Z" /><glyph glyph-name="uni52BF" unicode="&#x52bf;" d="M58 544 q46 6 163 27 l0 82 l-154 0 l0 79 l154 0 l0 104 l85 0 l0 -104 l101 0 l0 -79 l-101 0 l0 -67 q56 10 94 18 l8 -81 l-102 -19 l0 -96 q0 -56 -20.5 -77.5 q-20.5 -21.5 -76.5 -21.5 q-48 0 -103 5 l-16 80 q51 -7 90 -7 q24 0 32.5 10 q8.5 10 8.5 35 l0 56 l-152 -28 l-11 84 ZM970 507 q-15 -67 -31 -120 q-13 -43 -30.5 -62 q-17.5 -19 -45.5 -19 q-30 0 -55 23.5 q-25 23.5 -40 76.5 q-8 25 -14 81 q-6 56 -6 105 l0 55 l-112 0 q-4 -76 -19 -127 q59 -28 118 -59 l-36 -78 q-43 25 -116 63 q-20 -30 -50 -58.5 q-30 -28.5 -75 -60.5 l-70 61 q83 50 117 96 q-31 16 -58 26 q-7 4 -21 10 l33 71 q25 -10 79 -34 q8 34 13 90 l-94 0 l0 83 l96 0 q1 14 1 50 l0 56 l87 0 l-2 -106 l192 0 l0 -132 q0 -109 11 -159 q4 -20 9.5 -28 q5.5 -8 13.5 -8 q7 0 13.5 9.5 q6.5 9.5 9.5 30.5 q10 43 18 90 l64 -26 ZM483 317 q-1 -21 -7 -53 l384 0 q-2 -45 -7.5 -100.5 q-5.5 -55.5 -12.5 -98.5 q-9 -49 -24 -75.5 q-15 -26.5 -43 -38.5 q-28 -12 -78 -14 q-14 -1 -42 -1 q-68 0 -125 7 l-16 87 q67 -9 152 -11 q43 0 60.5 15 q17.5 15 25.5 59 q9 44 12 90 l-299 0 q-17 -71 -56.5 -116.5 q-39.5 -45.5 -113 -78.5 q-73.5 -33 -202.5 -65 l-40 86 q112 27 172.5 49.5 q60.5 22.5 92.5 51 q32 28.5 46 73.5 l-260 0 l0 81 l275 0 l6 53 l100 0 Z" /><glyph glyph-name="uni52D2" unicode="&#x52d2;" d="M927 639 q-8 -300 -32 -569 q-7 -71 -31.5 -100 q-24.5 -29 -79.5 -29 q-47 0 -117 7 l-19 93 q7 -1 38 -5.5 q31 -4.5 61 -4.5 q32 0 45 20 q13 20 18 67 q24 207 29 436 l-136 0 l-1 -28 q-5 -163 -22 -264 q-17 -101 -53 -179 q-36 -78 -106 -167 l-73 54 q66 82 99.5 154 q33.5 72 48 162.5 q14.5 90.5 21.5 248.5 q0 11 1 19 l-89 0 l0 85 l90 0 q2 53 4 198 l87 0 l-5 -198 l222 0 ZM503 156 l0 -78 l-178 0 l0 -155 l-84 0 l0 155 l-189 0 l0 78 l189 0 l0 72 l-162 0 l0 236 l162 0 l0 66 l-110 0 l0 141 l-86 0 l0 77 l86 0 l0 86 l86 0 l0 -86 l137 0 l0 86 l85 0 l0 -86 l86 0 l0 -77 l-86 0 l0 -141 l-114 0 l0 -66 l162 0 l0 -236 l-162 0 l0 -72 l178 0 ZM354 671 l-137 0 l0 -75 l137 0 l0 75 ZM155 394 l0 -96 l86 0 l0 96 l-86 0 ZM413 298 l0 96 l-88 0 l0 -96 l88 0 Z" /><glyph glyph-name="uni52FE" unicode="&#x52fe;" d="M901 726 q-3 -333 -26 -629 q-5 -59 -22.5 -93 q-17.5 -34 -54.5 -49.5 q-37 -15.5 -101 -16.5 q-83 -1 -167 6 l-19 96 q77 -9 153 -9 q42 0 65 8.5 q23 8.5 33.5 28.5 q10.5 20 14.5 58 q22 242 24 505 l-526 0 q-73 -123 -163 -221 l-76 63 q150 160 236 377 l100 -19 q-16 -42 -46 -105 l575 0 ZM672 104 l-35 64 l-360 -45 l-121 -15 l-29 97 q26 8 39 15 q13 7 23 22 q50 73 103.5 169 q53.5 96 91.5 179 l91 -39 q-40 -82 -96 -183 q-56 -101 -95 -158 l305 39 q-69 111 -106 165 l73 49 q38 -52 97.5 -146.5 q59.5 -94.5 97.5 -163.5 l-79 -49 Z" /><glyph glyph-name="uni5300" unicode="&#x5300;" d="M899 720 q-5 -343 -28 -623 q-5 -59 -21 -91.5 q-16 -32.5 -50 -47 q-34 -14.5 -97 -15.5 q-89 -2 -179 6 l-21 93 q83 -9 165 -9 q44 0 65.5 7.5 q21.5 7.5 31.5 27.5 q10 20 14 63 q21 257 20 493 l-518 0 q-78 -129 -169 -226 l-72 64 q77 84 144 189 q67 105 108 206 l89 -30 q-20 -49 -48 -107 l566 0 ZM318 564 q139 -83 228 -147 l-58 -81 q-42 32 -107 77 q-65 45 -116 76 l53 75 ZM730 280 q-149 -66 -294.5 -118 q-145.5 -52 -307.5 -100 l-32 95 q325 95 611 218 l23 -95 Z" /><glyph glyph-name="uni5305" unicode="&#x5305;" d="M941 176 q-2 -28 -6 -63 q-4 -35 -8 -61 q-7 -43 -21.5 -63.5 q-14.5 -20.5 -45 -29.5 q-30.5 -9 -90.5 -13 q-105 -7 -236 -7 q-124 0 -223 7 q-57 4 -89 15.5 q-32 11.5 -47.5 40 q-15.5 28.5 -15.5 81.5 l0 399 q-25 -28 -53 -56 l-65 78 q72 71 130 159 q58 88 91 179 l101 -27 q-14 -35 -33 -73 l529 0 q1 -29 1 -89 q0 -216 -14 -388 q-5 -55 -21.5 -85.5 q-16.5 -30.5 -47.5 -43 q-31 -12.5 -84 -12.5 q-18 0 -76 4 l-28 2 l-13 90 q73 -7 103 -8 q30 -1 44.5 5.5 q14.5 6.5 20.5 23.5 q6 17 9 54 q6 58 10 142 q4 84 4 160 l-1 56 l-483 0 q-35 -58 -70 -105 l399 0 l0 -320 l-363 0 l0 -122 q0 -30 7.5 -43.5 q7.5 -13.5 24.5 -18.5 q17 -5 54 -8 q94 -7 211 -7 q119 0 211 7 q35 3 51 8.5 q16 5.5 23 19 q7 13.5 10 42.5 q6 42 8 95 l92 -25 ZM522 317 l0 141 l-273 0 l0 -141 l273 0 Z" /><glyph glyph-name="uni5316" unicode="&#x5316;" d="M376 809 q-39 -121 -96 -231 l0 -651 l-96 0 l0 490 q-50 -74 -111 -145 l-40 100 q75 92 143 218.5 q68 126.5 109 249.5 l91 -31 ZM945 248 q-6 -140 -8 -173 q-5 -67 -35 -96.5 q-30 -29.5 -100 -33.5 q-43 -3 -86 -3 q-43 0 -87 3 q-72 5 -101.5 37 q-29.5 32 -29.5 112 l0 165 q-57 -38 -125 -78 l-50 88 q84 48 175 113 l0 451 l98 0 l0 -376 q136 112 263 257 l70 -72 q-168 -186 -333 -312 l0 -213 q0 -41 11.5 -57.5 q11.5 -16.5 45.5 -20.5 q33 -3 65 -3 q34 0 65 3 q34 4 48.5 19.5 q14.5 15.5 16.5 52.5 q2 35 3.5 82.5 q1.5 47.5 1.5 76.5 l92 -22 Z" /><glyph glyph-name="uni5317" unicode="&#x5317;" d="M310 589 l0 248 l96 0 l0 -901 l-96 0 l0 175 l-233 -105 l-36 94 q53 22 127 55 q74 33 142 65 l0 273 l-241 0 l0 96 l241 0 ZM953 235 q0 -17 -5 -122 q-2 -20 -2 -28 q-3 -50 -16 -77 q-13 -27 -41 -39.5 q-28 -12.5 -78 -16.5 q-21 -2 -63 -2 q-42 0 -63 2 q-51 4 -78 17 q-27 13 -39 43 q-12 30 -12 86 l0 739 l97 0 l0 -317 q134 79 233 159 l57 -85 q-88 -63 -290 -187 l0 -298 q0 -34 10 -47.5 q10 -13.5 37 -15.5 q26 -3 50 -3 q12 0 36 2 q35 4 48 17.5 q13 13.5 15 48.5 q4 100 4 148 l100 -24 Z" /><glyph glyph-name="uni5319" unicode="&#x5319;" d="M717 114 q-63 3 -89.5 31 q-26.5 28 -26.5 100 l0 571 l87 0 l0 -261 q99 67 181 143 l58 -75 q-53 -46 -117 -94 q-64 -48 -122 -83 l0 -185 q0 -30 10 -42.5 q10 -12.5 33 -14.5 l28 -1 q31 0 46.5 4 q15.5 4 22.5 15.5 q7 11.5 9 36.5 l4 89 l1 41 l84 -18 q-5 -92 -9 -142 q-5 -62 -30.5 -87 q-25.5 -25 -87.5 -28 l-41 -1 l-41 1 ZM117 798 l378 0 l0 -347 l-378 0 l0 347 ZM405 660 l0 63 l-200 0 l0 -63 l200 0 ZM205 590 l0 -64 l200 0 l0 64 l-200 0 ZM457 40 q126 -9 250 -9 q126 0 250 9 l-18 -88 q-112 -7 -241 -7 q-129 0 -242 7 q-105 6 -170 35.5 q-65 29.5 -112 100.5 q-22 -75 -80 -162 l-73 45 q53 73 74 136.5 q21 63.5 29 169.5 l83 -4 q-5 -53 -10 -80 q23 -44 46.5 -71.5 q23.5 -27.5 53.5 -43.5 l0 239 l-247 0 l0 77 l509 0 l0 -77 l-179 0 l0 -90 l158 0 l0 -75 l-158 0 l0 -103 q35 -6 77 -9 Z" /><glyph glyph-name="uni5339" unicode="&#x5339;" d="M209 58 l739 0 l0 -94 l-834 0 l0 817 l824 0 l0 -96 l-242 0 l0 -349 q0 -29 9.5 -39 q9.5 -10 38.5 -12 q14 -2 28 0 q26 2 37 6.5 q11 4.5 15.5 15.5 q4.5 11 5.5 37 q2 25 2 118 l86 -18 q-3 -80 -7 -131 q-2 -50 -14 -75 q-12 -25 -38.5 -34.5 q-26.5 -9.5 -79.5 -12.5 l-32 -1 l-32 1 q-60 3 -86.5 28.5 q-26.5 25.5 -26.5 87.5 l0 378 l-126 0 l0 -155 q0 -99 -14.5 -163 q-14.5 -64 -53 -116.5 q-38.5 -52.5 -112.5 -109.5 l-69 66 q71 55 103.5 97.5 q32.5 42.5 43 92.5 q10.5 50 10.5 140 l0 148 l-175 0 l0 -627 Z" /><glyph glyph-name="uni533A" unicode="&#x533a;" d="M210 707 l0 -656 l734 0 l0 -92 l-828 0 l0 838 l809 0 l0 -90 l-715 0 ZM257 178 q122 81 251 206 q-142 137 -225 208 l63 66 q95 -83 226 -208 q99 105 180 220 l77 -56 q-85 -114 -190 -228 q111 -107 216 -212 l-71 -72 q-76 86 -209 217 q-134 -134 -258 -221 l-60 80 Z" /><glyph glyph-name="uni5341" unicode="&#x5341;" d="M549 498 l396 0 l0 -98 l-396 0 l0 -474 l-99 0 l0 474 l-395 0 l0 98 l395 0 l0 340 l99 0 l0 -340 Z" /><glyph glyph-name="uni5343" unicode="&#x5343;" d="M949 445 l0 -95 l-398 0 l0 -427 l-104 0 l0 427 l-400 0 l0 95 l400 0 l0 220 q-178 -17 -324 -23 l-6 96 q155 5 367 27 q212 22 360 46 l22 -97 q-112 -18 -315 -39 l0 -230 l398 0 Z" /><glyph glyph-name="uni5347" unicode="&#x5347;" d="M951 473 l0 -93 l-200 0 l0 -453 l-96 0 l0 453 l-278 0 q-4 -114 -25.5 -190 q-21.5 -76 -71 -138.5 q-49.5 -62.5 -140.5 -130.5 l-78 74 q92 65 136.5 116 q44.5 51 61.5 111 q17 60 19 158 l-223 0 l0 93 l223 0 l0 202 q-104 -18 -179 -28 l-18 90 q106 13 239.5 37 q133.5 24 227.5 48 l22 -88 q-98 -24 -193 -41 l0 -220 l277 0 l0 363 l96 0 l0 -363 l200 0 Z" /><glyph glyph-name="uni5348" unicode="&#x5348;" d="M937 377 l0 -94 l-369 0 l0 -355 l-102 0 l0 355 l-402 0 l0 94 l402 0 l0 246 l-179 0 q-58 -107 -122 -187 l-83 69 q58 70 112 166.5 q54 96.5 86 187.5 l99 -30 q-17 -47 -46 -113 l553 0 l0 -93 l-318 0 l0 -246 l369 0 Z" /><glyph glyph-name="uni534A" unicode="&#x534a;" d="M546 255 l399 0 l0 -88 l-399 0 l0 -238 l-93 0 l0 238 l-398 0 l0 88 l398 0 l0 135 l-355 0 l0 90 l355 0 l0 360 l93 0 l0 -360 l357 0 l0 -90 l-357 0 l0 -135 ZM295 532 q-34 45 -84 102.5 q-50 57.5 -91 99.5 l69 62 q40 -39 93 -97.5 q53 -58.5 88 -102.5 l-75 -64 ZM879 735 q-37 -47 -87 -103.5 q-50 -56.5 -93 -100.5 l-71 61 q45 46 94 102.5 q49 56.5 81 100.5 l76 -60 Z" /><glyph glyph-name="uni534E" unicode="&#x534e;" d="M203 552 q-47 -49 -106 -100 l-45 82 q78 64 144 145.5 q66 81.5 111 169.5 l83 -36 q-49 -89 -94 -150 l0 -357 l-93 0 l0 246 ZM355 554 q87 26 156 52 l0 222 l92 0 l0 -184 q137 61 261 148 l45 -76 q-133 -96 -306 -170 l0 -57 q0 -35 14 -48 q14 -13 48 -16 q34 -2 51 -2 q29 0 58 3 q42 4 57 16 q15 12 17 47 q4 72 4 88 l87 -26 q-3 -63 -8 -94 q-5 -47 -18.5 -70.5 q-13.5 -23.5 -40 -33 q-26.5 -9.5 -80.5 -13.5 q-56 -4 -84 -4 q-28 0 -84 4 q-43 3 -66.5 13.5 q-23.5 10.5 -35 35 q-11.5 24.5 -11.5 70.5 l0 50 q-61 -23 -121 -42 l-35 87 ZM549 232 l395 0 l0 -92 l-395 0 l0 -223 l-96 0 l0 223 l-393 0 l0 92 l393 0 l0 95 l96 0 l0 -95 Z" /><glyph glyph-name="uni534F" unicode="&#x534f;" d="M887 206 q-31 132 -55 221 q-11 -238 -25 -348 q-7 -56 -21.5 -87 q-14.5 -31 -41.5 -44 q-27 -13 -74 -13 q-60 0 -101 5 l-20 94 q59 -9 100 -9 q23 0 35.5 7.5 q12.5 7.5 19.5 26.5 q7 19 12 57 q12 85 19.5 211 q7.5 126 8.5 247 l-146 0 l0 -1 q-6 -171 -28 -279 q-22 -108 -72 -194 q-50 -86 -144 -182 l-75 56 q88 85 134 167 q46 82 66.5 180 q20.5 98 29.5 253 l-147 0 l0 91 l150 0 q2 50 4 175 l88 0 l-4 -175 l238 0 q0 -79 -5 -209 l72 22 q12 -42 47 -181 q15 -62 16 -66 l-81 -25 ZM322 581 l0 -91 l-99 0 l0 -563 l-90 0 l0 563 l-95 0 l0 91 l95 0 l0 257 l90 0 l0 -257 l99 0 ZM454 465 q-22 -68 -51.5 -144 q-29.5 -76 -56.5 -130 l-81 39 q60 109 107 262 l82 -27 Z" /><glyph glyph-name="uni5353" unicode="&#x5353;" d="M547 163 l398 0 l0 -82 l-398 0 l0 -157 l-94 0 l0 157 l-397 0 l0 82 l397 0 l0 77 l-291 0 l0 375 l272 0 l0 225 l96 0 l0 -77 l380 0 l0 -79 l-380 0 l0 -69 l309 0 l0 -375 l-292 0 l0 -77 ZM745 464 l0 71 l-490 0 l0 -71 l490 0 ZM745 391 l-490 0 l0 -71 l490 0 l0 71 Z" /><glyph glyph-name="uni5355" unicode="&#x5355;" d="M945 172 l0 -88 l-398 0 l0 -161 l-93 0 l0 161 l-399 0 l0 88 l399 0 l0 94 l-312 0 l0 435 l190 0 q-40 56 -80 102 l77 45 q36 -40 92 -119 l-46 -28 l190 0 q27 33 84 116 l20 30 l86 -36 l-22 -32 q-9 -13 -23 -33 q-14 -20 -33 -45 l181 0 l0 -435 l-311 0 l0 -94 l398 0 ZM454 523 l0 94 l-218 0 l0 -94 l218 0 ZM547 523 l218 0 l0 94 l-218 0 l0 -94 ZM236 443 l0 -95 l218 0 l0 95 l-218 0 ZM547 443 l0 -95 l218 0 l0 95 l-218 0 Z" /><glyph glyph-name="uni5356" unicode="&#x5356;" d="M269 512 l-186 0 l0 79 l372 0 l0 84 l-329 0 l0 80 l329 0 l0 86 l91 0 l0 -86 l340 0 l0 -80 l-340 0 l0 -84 l373 0 l0 -79 l-87 -150 l-80 29 l73 121 l-541 0 q143 -69 193 -96 l-37 -70 q-74 42 -203 104 l32 62 ZM895 -73 q-160 68 -364 148 q-59 -54 -163 -91 q-104 -37 -277 -68 l-26 88 q183 30 278.5 64.5 q95.5 34.5 138.5 85.5 l-421 0 l0 79 l297 0 q-81 43 -209 104 l36 66 q158 -74 216 -107 l-34 -63 l155 0 q13 48 16 135 l4 118 l94 0 l-4 -130 q-3 -75 -14 -123 l316 0 l0 -79 l-344 0 l-6 -12 l161 -62 l190 -72 l-40 -81 Z" /><glyph glyph-name="uni5357" unicode="&#x5357;" d="M940 656 l-397 0 l0 -81 l343 0 l0 -518 q0 -49 -10 -76 q-10 -27 -33.5 -38.5 q-23.5 -11.5 -65.5 -11.5 q-74 0 -127 5 l-17 87 q60 -7 108 -8 q33 0 43.5 12.5 q10.5 12.5 10.5 48.5 l0 415 l-602 0 l0 -558 l-91 0 l0 642 l347 0 l0 81 l-400 0 l0 87 l400 0 l0 99 l94 0 l0 -99 l397 0 l0 -87 ZM754 129 l-216 0 l0 -170 l-88 0 l0 170 l-212 0 l0 73 l212 0 l0 79 l-193 0 l0 73 l111 0 q-44 60 -65 81 l63 48 q14 -15 44 -51 q30 -36 49 -61 l-22 -17 l83 0 q59 75 94 130 l71 -43 q-25 -36 -64 -87 l113 0 l0 -73 l-196 0 l0 -79 l216 0 l0 -73 Z" /><glyph glyph-name="uni535A" unicode="&#x535a;" d="M959 210 l0 -75 l-127 0 l0 -90 q0 -65 -20 -90 q-20 -25 -74 -25 q-61 0 -106 5 l-15 79 q56 -7 95 -7 q21 0 28.5 14.5 q7.5 14.5 7.5 49.5 l0 64 l-275 0 q64 -42 124 -95 l-52 -63 q-59 55 -138 109 l40 49 l-141 0 l0 75 l442 0 l0 51 l77 0 l0 41 l-149 0 l0 -43 l-80 0 l0 43 l-152 0 l0 -48 l-83 0 l0 363 l235 0 l0 61 l-261 0 l0 73 l261 0 l0 87 l80 0 l0 -87 l118 0 q-13 34 -34 73 l70 21 q22 -47 39 -94 l82 0 l0 -73 l-275 0 l0 -61 l234 0 l0 -363 l-78 0 l0 -44 l127 0 ZM315 600 l0 -87 l-89 0 l0 -586 l-86 0 l0 586 l-95 0 l0 87 l95 0 l0 236 l86 0 l0 -236 l89 0 ZM596 491 l0 58 l-152 0 l0 -58 l152 0 ZM825 491 l0 58 l-149 0 l0 -58 l149 0 ZM444 427 l0 -60 l152 0 l0 60 l-152 0 ZM676 427 l0 -60 l149 0 l0 60 l-149 0 Z" /><glyph glyph-name="uni5360" unicode="&#x5360;" d="M928 698 l0 -94 l-412 0 l0 -171 l341 0 l0 -504 l-97 0 l0 59 l-520 0 l0 -59 l-95 0 l0 504 l272 0 l0 406 l99 0 l0 -141 l412 0 ZM240 80 l520 0 l0 257 l-520 0 l0 -257 Z" /><glyph glyph-name="uni5361" unicode="&#x5361;" d="M944 381 l-427 0 l0 -47 q74 -34 194.5 -97.5 q120.5 -63.5 168.5 -93.5 l-47 -85 q-53 33 -148 86 q-95 53 -168 90 l0 -311 l-96 0 l0 458 l-367 0 l0 92 l367 0 l0 365 l95 0 l0 -123 l336 0 l0 -90 l-336 0 l0 -152 l428 0 l0 -92 Z" /><glyph glyph-name="uni5362" unicode="&#x5362;" d="M939 662 l-415 0 l0 -99 l345 0 l0 -341 l-618 0 q-8 -103 -36 -172.5 q-28 -69.5 -92 -144.5 l-82 56 q55 63 79.5 112 q24.5 49 32.5 113.5 q8 64.5 8 187.5 l0 189 l269 0 l0 276 l94 0 l0 -90 l415 0 l0 -87 ZM254 313 l522 0 l0 157 l-522 0 l0 -133 l0 -24 Z" /><glyph glyph-name="uni5367" unicode="&#x5367;" d="M909 275 q-56 53 -188 162 l0 -512 l-96 0 l0 908 l96 0 l0 -287 q129 -95 236 -181 l-48 -90 ZM535 220 l-143 0 l0 -178 l162 0 l0 -88 l-474 0 l0 842 l465 0 l0 -94 l-153 0 l0 -144 l143 0 l0 -338 ZM301 558 l0 144 l-127 0 l0 -144 l127 0 ZM174 307 l272 0 l0 163 l-272 0 l0 -163 ZM301 220 l-127 0 l0 -178 l127 0 l0 178 Z" /><glyph glyph-name="uni536B" unicode="&#x536b;" d="M464 55 l487 0 l0 -98 l-902 0 l0 98 l312 0 l0 620 l-246 0 l0 100 l755 0 q1 -85 -4.5 -200 q-5.5 -115 -15.5 -206 q-8 -81 -39.5 -114.5 q-31.5 -33.5 -102.5 -34.5 q-74 -1 -149 6 l-19 101 q77 -10 138 -10 q37 0 53.5 23.5 q16.5 23.5 22.5 75.5 q7 64 10.5 137 q3.5 73 2.5 122 l-303 0 l0 -620 Z" /><glyph glyph-name="uni5370" unicode="&#x5370;" d="M475 746 q-66 -26 -139 -49 q-73 -23 -132 -35 l0 -175 l257 0 l0 -95 l-257 0 l0 -251 l86 28 q76 24 172 56 l6 -103 q-149 -44 -266 -82 q-60 -20 -78 -27 l-40 86 q15 12 21 23.5 q6 11.5 6 24.5 l0 592 q67 12 164 40.5 q97 28.5 170 55.5 l30 -89 ZM523 766 l396 0 l0 -584 q0 -73 -25.5 -102 q-25.5 -29 -78.5 -29 q-50 0 -113 5 l-18 94 q51 -8 95 -8 q28 0 37.5 17 q9.5 17 9.5 60 l0 453 l-208 0 l0 -747 l-95 0 l0 841 Z" /><glyph glyph-name="uni5371" unicode="&#x5371;" d="M944 595 l0 -85 l-682 0 l0 -135 q0 -157 -28.5 -258.5 q-28.5 -101.5 -101.5 -200.5 l-80 61 q51 68 76 121.5 q25 53.5 33.5 116.5 q8.5 63 8.5 169 l0 131 q-18 -15 -69 -53 l-55 78 q97 69 172 146 q75 77 134 169 l89 -28 q-14 -25 -32 -53 l391 0 l0 -73 q-2 -3 -76 -81 l-24 -25 l244 0 ZM579 595 q37 38 89 96 l-319 0 q-31 -39 -88 -96 l318 0 ZM833 100 q5 51 7 87 l92 -26 q-2 -42 -8 -100 q-5 -46 -18 -68.5 q-13 -22.5 -40.5 -32 q-27.5 -9.5 -83.5 -13.5 q-64 -5 -153 -5 q-89 0 -153 5 q-52 4 -80 15.5 q-28 11.5 -40.5 39 q-12.5 27.5 -12.5 80.5 l0 344 l479 0 q-2 -89 -11 -174 q-6 -69 -35.5 -97.5 q-29.5 -28.5 -100.5 -28.5 q-70 0 -121 5 l-17 86 q64 -8 119 -8 q32 0 44.5 11 q12.5 11 17.5 43 q7 46 7 80 l-285 0 l0 -241 q0 -28 5 -42 q5 -14 17.5 -20 q12.5 -6 39.5 -8 q56 -4 126 -4 q70 0 126 4 q33 3 48 8 q15 5 21.5 18 q6.5 13 9.5 42 Z" /><glyph glyph-name="uni5373" unicode="&#x5373;" d="M388 295 q26 -45 67 -128 q41 -83 69 -146 l-82 -37 l-49 111 q-144 -61 -216 -95 q-4 -2 -64 -30 l-48 78 q20 15 27 28 q7 13 7 31 l0 695 l377 0 l0 -477 l-293 0 l0 -226 l40 17 l132 59 q-31 65 -43 87 l76 33 ZM568 791 l338 0 l0 -599 q0 -66 -23 -95 q-23 -29 -74 -29 q-58 0 -101 5 l-17 94 q42 -8 81 -8 q25 0 34.5 16 q9.5 16 9.5 50 l0 472 l-159 0 l0 -769 l-89 0 l0 863 ZM390 607 l0 112 l-207 0 l0 -112 l207 0 ZM183 526 l0 -118 l207 0 l0 118 l-207 0 Z" /><glyph glyph-name="uni5374" unicode="&#x5374;" d="M438 303 q23 -51 59 -144.5 q36 -93.5 58 -155.5 l-89 -36 q-4 15 -24 72 q-99 -14 -297 -44 l-71 -11 l-26 95 q26 8 43 29 q22 29 57 98.5 q35 69.5 65 142.5 l-168 0 l0 94 l211 0 l0 151 l-175 0 l0 93 l175 0 l0 156 l93 0 l0 -156 l172 0 l0 -93 l-172 0 l0 -151 l198 0 l0 -94 l-235 0 q-29 -69 -66.5 -146 q-37.5 -77 -66.5 -123 l235 38 q-25 70 -57 150 l81 35 ZM587 769 l347 0 l0 -590 q0 -69 -22.5 -97 q-22.5 -28 -75.5 -28 q-58 0 -99 5 l-20 93 q46 -7 79 -7 q28 0 38.5 16 q10.5 16 10.5 55 l0 456 l-166 0 l0 -751 l-92 0 l0 848 Z" /><glyph glyph-name="uni5377" unicode="&#x5377;" d="M576 164 q26 0 36 10 q10 10 15 40 q0 5 1.5 14.5 q1.5 9.5 1.5 17.5 l-305 0 l0 -161 q0 -30 4 -45 q4 -15 16 -21.5 q12 -6.5 38 -8.5 q85 -5 153 -5 q67 0 152 5 q41 3 55 16.5 q14 13.5 18 52.5 l5 77 l92 -23 q-2 -27 -7 -64 q-1 -6 -1 -11.5 q0 -5.5 -1 -10.5 q-4 -44 -16.5 -67.5 q-12.5 -23.5 -40 -34.5 q-27.5 -11 -77.5 -14 q-92 -6 -182 -6 q-90 0 -182 6 q-66 4 -93 33.5 q-27 29.5 -27 100.5 l0 167 q-61 -44 -146 -95 l-52 85 q169 90 259 187 l-225 0 l0 78 l286 0 q25 37 46 86 l-295 0 l0 79 l322 0 q25 87 39 186 l93 -7 q-15 -103 -37 -179 l186 0 l-63 46 q75 80 113 131 l69 -44 q-51 -65 -114 -133 l182 0 l0 -79 l-398 0 q-14 -40 -38 -86 l473 0 l0 -78 l-225 0 q46 -49 107 -87 q61 -38 146 -70 l-40 -88 q-109 48 -195 117 q-1 -29 -7 -87 q-7 -58 -32 -81.5 q-25 -23.5 -82 -23.5 q-65 0 -134 6 l-13 77 q64 -8 120 -8 ZM242 828 q70 -78 110 -129 l-70 -47 q-34 47 -107 133 l67 43 ZM676 323 q-40 39 -78 86 l-187 0 q-34 -48 -73 -86 l338 0 Z" /><glyph glyph-name="uni5378" unicode="&#x5378;" d="M381 655 l0 -130 l167 0 l0 -85 l-167 0 l0 -107 l151 0 l0 -85 l-151 0 l0 -126 l159 25 l0 -92 q-84 -12 -266.5 -39.5 q-182.5 -27.5 -215.5 -33.5 l-9 91 q21 2 61 9 l0 295 l89 0 l0 -282 l95 14 l0 331 l-233 0 l0 85 l233 0 l0 130 l-91 0 q-32 -59 -70 -115 l-80 49 q42 53 77 121 q35 68 60 140 l89 -24 q-12 -37 -32 -83 l285 0 l0 -88 l-151 0 ZM595 764 l324 0 l0 -581 q0 -67 -26 -95 q-26 -28 -85 -28 q-45 0 -90 6 l-18 90 q45 -7 78 -7 q29 0 41 15.5 q12 15.5 12 51.5 l0 460 l-149 0 l0 -754 l-87 0 l0 842 Z" /><glyph glyph-name="uni5382" unicode="&#x5382;" d="M34 -40 q56 95 81 160.5 q25 65.5 34.5 151.5 q9.5 86 9.5 242 l0 261 l783 0 l0 -100 l-684 0 l0 -169 q0 -159 -11 -256 q-11 -97 -37.5 -170.5 q-26.5 -73.5 -78.5 -164.5 l-97 45 Z" /><glyph glyph-name="uni5386" unicode="&#x5386;" d="M138 789 l801 0 l0 -94 l-705 0 l0 -255 q0 -125 -8.5 -208 q-8.5 -83 -31.5 -155.5 q-23 -72.5 -68 -154.5 l-92 46 q42 76 64 139 q22 63 31 137.5 q9 74.5 9 186.5 l0 358 ZM581 658 l-3 -139 l320 0 q0 -86 -9.5 -228.5 q-9.5 -142.5 -20.5 -214.5 q-8 -51 -22.5 -79.5 q-14.5 -28.5 -45.5 -42.5 q-31 -14 -87 -14 q-70 0 -139 6 l-20 94 q57 -8 130 -8 q35 0 52 6.5 q17 6.5 25 24 q8 17.5 14 56.5 q23 145 21 309 l-221 0 q-7 -126 -34 -212 q-27 -86 -82.5 -155 q-55.5 -69 -154.5 -143 l-74 70 q93 68 144 128 q51 60 75 132.5 q24 72.5 31 179.5 l-188 0 l0 91 l192 0 l2 139 l95 0 Z" /><glyph glyph-name="uni538B" unicode="&#x538b;" d="M240 691 l0 -182 q0 -169 -9 -266.5 q-9 -97.5 -31.5 -169 q-22.5 -71.5 -69.5 -153.5 l-93 47 q47 80 68 139.5 q21 59.5 29 145.5 q8 86 8 247 l0 284 l798 0 l0 -92 l-700 0 ZM632 364 l0 -303 l326 0 l0 -93 l-732 0 l0 93 l306 0 l0 303 l-249 0 l0 94 l249 0 l0 195 l100 0 l0 -195 l273 0 l0 -94 l-273 0 ZM738 334 q38 -39 85.5 -88.5 q47.5 -49.5 84.5 -89.5 l-68 -65 q-25 30 -80.5 91.5 q-55.5 61.5 -85.5 91.5 l64 60 Z" /><glyph glyph-name="uni538C" unicode="&#x538c;" d="M232 701 l0 -256 q0 -122 -9 -208 q-9 -86 -33 -162 q-24 -76 -70 -154 l-85 45 q43 70 65.5 134.5 q22.5 64.5 31.5 142 q9 77.5 9 192.5 l0 358 l805 0 l0 -92 l-714 0 ZM829 490 q-30 28 -68.5 63 q-38.5 35 -69.5 62 l56 58 q25 -20 70 -58.5 q45 -38.5 70 -62.5 l-58 -62 ZM641 385 q38 -130 120 -229.5 q82 -99.5 205 -156.5 l-52 -88 q-117 68 -195 155 q-78 87 -129 207 q-39 -99 -118.5 -185 q-79.5 -86 -205.5 -168 l-64 81 q151 86 228.5 177 q77.5 91 98.5 207 l-253 0 l0 92 l261 0 l0 9 l0 179 l90 0 l0 -179 l0 -9 l316 0 l0 -92 l-302 0 Z" /><glyph glyph-name="uni539F" unicode="&#x539f;" d="M874 250 l-225 0 l0 -203 q0 -65 -25 -91 q-25 -26 -90 -26 q-59 0 -116 6 l-18 87 q54 -8 102 -8 q32 0 43 16.5 q11 16.5 11 51.5 l0 167 l-241 0 l0 373 l187 0 q19 52 29 86 l-306 0 l0 -249 q0 -140 -9.5 -232 q-9.5 -92 -33 -165 q-23.5 -73 -66.5 -150 l-85 63 q43 78 64 139.5 q21 61.5 29 138 q8 76.5 8 203.5 l0 340 l812 0 l0 -88 l-318 0 q-14 -54 -26 -86 l274 0 l0 -373 ZM788 473 l0 73 l-386 0 l0 -73 l386 0 ZM788 400 l-386 0 l0 -73 l386 0 l0 73 ZM459 173 q-30 -49 -81 -113 q-51 -64 -102 -120 l-68 66 q52 51 98.5 108 q46.5 57 77.5 108 l75 -49 ZM772 215 q76 -79 184 -201 l-68 -60 q-57 67 -130 148 l-52 59 l66 54 Z" /><glyph glyph-name="uni53BB" unicode="&#x53bb;" d="M501 325 q-49 -72 -112.5 -152.5 q-63.5 -80.5 -107.5 -124.5 q107 9 214.5 18 q107.5 9 214.5 17 q-68 96 -113 153 l76 50 q47 -57 119.5 -154.5 q72.5 -97.5 115.5 -161.5 l-81 -58 q-3 5 -33 50 l-23 35 q-330 -19 -553 -43 q-51 -5 -82 -9 l-31 95 q28 8 42.5 16 q14.5 8 28.5 19 q34 29 95 104 q61 75 110 146 l-333 0 l0 88 l406 0 l0 187 l-340 0 l0 91 l340 0 l0 153 l91 0 l0 -153 l338 0 l0 -91 l-338 0 l0 -187 l404 0 l0 -88 l-448 0 Z" /><glyph glyph-name="uni53C2" unicode="&#x53c2;" d="M693 449 q51 -53 118 -93.5 q67 -40.5 157 -71.5 l-40 -88 q-113 48 -196.5 109.5 q-83.5 61.5 -143.5 143.5 l-175 0 q-73 -90 -173 -157 q92 18 182 47 q90 29 162 63 l31 -70 q-166 -80 -356 -118 l-27 72 q-52 -34 -156 -88 l-47 79 q87 36 151 77 q64 41 115 95 l-234 0 l0 80 l299 0 q28 40 48 74 l-133 -6 l-48 -3 q-7 0 -75 -4 l-21 75 q38 5 58 19 q41 26 112.5 80 q71.5 54 120.5 97 l77 -48 q-107 -88 -201 -148 l380 17 q-66 51 -96 72 l53 61 q116 -83 254 -189 l-50 -68 l-72 56 q-167 -4 -249 -7 q-24 -42 -48 -78 l467 0 l0 -80 l-244 0 ZM730 234 q-107 -53 -239.5 -93.5 q-132.5 -40.5 -304.5 -73.5 l-26 71 q312 57 535 166 l35 -70 ZM102 -10 q250 35 412.5 82 q162.5 47 303.5 121 l42 -72 q-141 -72 -314.5 -122 q-173.5 -50 -414.5 -87 l-29 78 Z" /><glyph glyph-name="uni53C8" unicode="&#x53c8;" d="M915 -79 q-137 54 -238 108 q-101 54 -177 116 q-74 -58 -172 -110 q-98 -52 -230 -105 l-50 97 q126 52 215.5 98 q89.5 46 156.5 94 q-83 85 -141 197.5 q-58 112.5 -104 270.5 l-66 0 l0 96 l730 0 l0 -96 q-50 -161 -111 -274 q-61 -113 -149 -199 q138 -105 375 -189 l-39 -104 ZM277 687 q44 -135 96.5 -232.5 q52.5 -97.5 126.5 -171.5 q80 74 133 168.5 q53 94.5 99 235.5 l-455 0 Z" /><glyph glyph-name="uni53C9" unicode="&#x53c9;" d="M917 -82 q-136 54 -238 107.5 q-102 53.5 -180 113.5 q-78 -60 -179.5 -113.5 q-101.5 -53.5 -236.5 -109.5 l-50 100 q126 52 219.5 99 q93.5 47 164.5 96 q-89 88 -151.5 202 q-62.5 114 -110.5 273 l-59 0 l0 96 l751 0 l0 -96 q-43 -158 -107 -274 q-64 -116 -159 -205 q72 -50 165 -95.5 q93 -45.5 221 -94.5 l-50 -99 ZM258 686 q45 -141 102.5 -239.5 q57.5 -98.5 137.5 -172.5 q87 76 144 173.5 q57 97.5 101 238.5 l-485 0 ZM458 665 q68 -76 149 -176 l-75 -65 q-82 103 -151 181 l77 60 Z" /><glyph glyph-name="uni53CA" unicode="&#x53ca;" d="M908 -77 q-180 83 -307 182 q-130 -102 -344 -189 l-49 87 q199 78 319 166 q-125 119 -194 275 q-18 -149 -69.5 -267 q-51.5 -118 -152.5 -245 l-81 57 q75 89 119.5 169 q44.5 80 68 170 q23.5 90 31.5 208 l7 163 l-155 0 l0 91 l685 0 l0 -93 l-111 -161 l190 0 l0 -88 q-75 -168 -191 -280 q117 -85 290 -154 l-56 -91 ZM346 646 q40 -133 102 -235.5 q62 -102.5 151 -182.5 q96 90 161 220 l-207 0 l0 79 l116 172 l-320 0 l-3 -53 Z" /><glyph glyph-name="uni53CB" unicode="&#x53cb;" d="M919 -82 q-211 75 -337 169 q-127 -88 -347 -171 l-51 92 q193 64 321 145 q-95 90 -162 228 q-83 -254 -248 -442 l-75 75 q119 131 184.5 283.5 q65.5 152.5 94.5 326.5 l-226 0 l0 92 l239 0 q7 64 12 128 l102 -6 q-6 -83 -11 -122 l535 0 l0 -92 l-548 0 q-10 -55 -24 -119 l472 0 l0 -90 q-37 -82 -83 -147 q-46 -65 -107 -119 q113 -75 300 -132 l-41 -99 ZM425 415 q68 -127 158 -207 q107 87 167 207 l-325 0 Z" /><glyph glyph-name="uni53CC" unicode="&#x53cc;" d="M378 79 q-30 53 -78 134 q-72 -123 -202 -273 l-70 78 q138 148 214 293 q-102 170 -165 268 l75 49 q67 -103 136 -215 q48 122 69 270 l-292 0 l0 95 l385 0 l0 -95 q-15 -112 -38.5 -201.5 q-23.5 -89.5 -60.5 -170.5 l11 -18 q81 -134 94 -156 l-78 -58 ZM750 227 q78 -113 226 -219 l-63 -85 q-141 108 -222 222 q-91 -110 -265 -232 l-65 82 q94 60 161 117.5 q67 57.5 115 119.5 q-47 88 -76.5 197.5 q-29.5 109.5 -48.5 255.5 l-25 0 l0 93 l414 0 l0 -93 q-25 -151 -60 -260 q-35 -109 -91 -198 ZM602 685 q15 -114 38 -202.5 q23 -88.5 56 -160.5 q38 71 63.5 158 q25.5 87 45.5 205 l-203 0 Z" /><glyph glyph-name="uni53CD" unicode="&#x53cd;" d="M920 -71 q-203 70 -331 163 q-125 -91 -330 -164 l-54 92 q183 58 305 138 q-120 114 -201 300 l-47 0 q-1 -135 -12.5 -220.5 q-11.5 -85.5 -40.5 -155.5 q-29 -70 -87 -155 l-90 56 q60 85 88 148 q28 63 38 140.5 q10 77.5 10 214.5 l0 278 q457 18 713 57 l19 -96 q-269 -33 -638 -50 l0 -127 l605 0 l0 -90 q-43 -96 -91.5 -169.5 q-48.5 -73.5 -109.5 -131.5 q123 -81 303 -131 l-49 -97 ZM408 458 q69 -144 179 -241 q109 96 171 241 l-350 0 Z" /><glyph glyph-name="uni53D1" unicode="&#x53d1;" d="M793 657 q-76 50 -188 118 l51 73 q62 -35 187 -115 l-50 -76 ZM909 -81 q-203 67 -333 153 q-63 -41 -145 -77.5 q-82 -36.5 -195 -75.5 l-40 88 q191 61 301 126 q-84 73 -141 173 q-43 -93 -105.5 -179.5 q-62.5 -86.5 -152.5 -178.5 l-65 83 q117 110 191 236.5 q74 126.5 117 285.5 l-236 0 l0 80 q11 35 26 92 q15 57 22 92 l92 -18 q-8 -37 -19 -81 q-11 -44 -21 -77 l157 0 q17 82 32 197 l95 -7 q-13 -100 -30 -190 l481 0 l0 -88 l-500 0 q-9 -37 -29 -105 l421 0 l0 -84 q-40 -75 -82.5 -131.5 q-42.5 -56.5 -94.5 -100.5 q114 -70 295 -119 l-41 -94 ZM425 363 q62 -104 152 -177 q94 72 149 177 l-301 0 Z" /><glyph glyph-name="uni53D6" unicode="&#x53d6;" d="M539 120 q-60 -10 -76 -13 l1 -184 l-87 0 l-1 169 q-247 -42 -329 -58 l-8 92 l85 13 l0 574 l-58 0 l0 88 l452 0 l0 -88 l-57 0 l2 -515 l71 13 l5 -91 ZM786 223 q70 -114 187 -208 l-61 -77 q-112 97 -178 198 q-70 -102 -179 -198 l-61 72 q122 104 189 213 q-44 88 -70 194 q-26 106 -43 245 l-30 0 l0 92 l373 0 l0 -92 q-24 -144 -52.5 -247.5 q-28.5 -103.5 -74.5 -191.5 ZM375 585 l-1 128 l-161 0 l0 -128 l162 0 ZM657 662 q24 -205 78 -337 q29 68 48.5 147.5 q19.5 79.5 37.5 189.5 l-164 0 ZM375 502 l-162 0 l0 -124 l162 0 l0 124 ZM213 296 l0 -141 l163 28 l0 113 l-163 0 Z" /><glyph glyph-name="uni53D7" unicode="&#x53d7;" d="M166 463 l0 -125 l-85 0 l0 207 l165 0 q-21 41 -68 117 l70 37 l-133 -5 l-12 81 q168 5 398 18.5 q230 13.5 364 28.5 l20 -83 q-119 -10 -297 -21 q-178 -11 -333 -18 q41 -62 78 -127 l-58 -28 l222 0 q-17 36 -59 108 l-11 19 l79 40 q61 -110 74 -135 l-66 -32 l140 0 q22 36 50.5 89 q28.5 53 44.5 88 l81 -29 q-31 -70 -78 -148 l164 0 l0 -207 l-83 0 l0 125 l-667 0 ZM924 -76 q-255 48 -417 133 q-83 -41 -188.5 -74.5 q-105.5 -33.5 -244.5 -63.5 l-32 90 q234 43 373 103 q-105 72 -187 173 l-27 0 l0 84 l588 0 l0 -84 q-85 -104 -190 -175 q153 -65 357 -96 l-32 -90 ZM343 285 q69 -75 162 -128 q86 50 158 128 l-320 0 Z" /><glyph glyph-name="uni53D8" unicode="&#x53d8;" d="M350 399 l0 250 l-278 0 l0 86 l390 0 q-22 53 -44 96 l101 27 q28 -58 51 -123 l359 0 l0 -86 l-278 0 l0 -250 l-87 0 l0 250 l-127 0 l0 -250 l-87 0 ZM310 551 q-39 -46 -101.5 -102 q-62.5 -56 -124.5 -98 l-51 74 q57 39 117 89.5 q60 50.5 102 95.5 l58 -59 ZM746 609 q37 -24 106.5 -77 q69.5 -53 115.5 -91 l-53 -74 q-47 41 -112 92.5 q-65 51.5 -111 83.5 l54 66 ZM820 283 q-45 -62 -96.5 -110.5 q-51.5 -48.5 -117.5 -87.5 q133 -48 352 -78 l-32 -91 q-259 42 -421 118 q-158 -68 -423 -121 l-32 87 q208 33 355 89 q-117 75 -197 192 l-63 0 l0 81 l675 0 l0 -79 ZM313 281 q79 -93 188 -150 q122 62 195 150 l-383 0 Z" /><glyph glyph-name="uni53D9" unicode="&#x53d9;" d="M541 299 l-186 0 l0 -265 q0 -56 -22.5 -82 q-22.5 -26 -71.5 -26 q-50 0 -92 9 l-17 86 q4 -1 25.5 -6 q21.5 -5 50.5 -5 q23 0 32 10 q9 10 9 36 l0 243 l-211 0 l0 85 l211 0 l0 100 l-134 0 l0 52 q-25 -22 -60 -49 l-45 78 q81 61 150.5 139.5 q69.5 78.5 106.5 154.5 l86 -32 q-15 -31 -19 -37 l199 -166 l-56 -72 l-14 13 l0 -81 l-128 0 l0 -100 l186 0 l0 -85 ZM789 218 q74 -126 187 -220 l-62 -75 q-108 97 -179 213 q-82 -109 -211 -219 l-66 75 q143 108 228 233 q-90 184 -129 449 l-36 0 l0 96 l405 0 l0 -94 q-19 -147 -51.5 -256.5 q-32.5 -109.5 -85.5 -201.5 ZM309 721 q-54 -74 -137 -152 l307 0 q-42 40 -145 130 l-25 22 ZM641 674 q28 -204 97 -359 q74 146 101 359 l-198 0 ZM479 51 l-9 19 q-54 110 -80 158 l69 34 q43 -75 89 -171 l-69 -40 ZM205 238 q-17 -60 -46 -131 q-29 -71 -59 -125 l-76 34 q31 55 59.5 121.5 q28.5 66.5 45.5 121.5 l76 -21 Z" /><glyph glyph-name="uni53E0" unicode="&#x53e0;" d="M108 663 q110 7 220 20 l-155 22 l13 46 q40 -6 148 -20 l165 -23 q114 21 206 49 l-567 0 l0 56 l705 0 l0 -61 q-105 -39 -201 -63 l98 -13 l119 -17 l-11 -53 l-348 51 q-155 -28 -374 -48 l-18 54 ZM66 449 q32 5 114 20 l-64 17 l18 47 q46 -12 151 -37 q60 18 102 45 l-294 0 l0 53 l391 0 l0 -53 q-46 -37 -115 -66 l111 -28 l-20 -50 l-177 46 q-97 -30 -191 -44 l-26 50 ZM898 594 l0 -55 q-41 -29 -119 -64 l149 -33 l-16 -52 q-12 3 -195 48 q-6 1 -23 5 q-72 -26 -168 -49 l-24 49 q69 17 91 23 q-15 3 -74 16 l18 48 q59 -15 153 -35 q64 21 111 46 l-281 0 l0 53 l378 0 ZM912 382 l0 -151 l-75 0 l0 94 l-681 0 l0 -94 l-74 0 l0 151 l830 0 ZM802 283 l0 -274 l139 0 l0 -65 l-888 0 l0 65 l138 0 l0 274 l611 0 ZM722 189 l0 42 l-450 0 l0 -42 l450 0 ZM272 99 l450 0 l0 40 l-450 0 l0 -40 ZM722 50 l-450 0 l0 -41 l450 0 l0 41 Z" /><glyph glyph-name="uni53E3" unicode="&#x53e3;" d="M135 -62 l0 814 l730 0 l0 -809 l-97 0 l0 85 l-536 0 l0 -90 l-97 0 ZM232 651 l0 -523 l536 0 l0 523 l-536 0 Z" /><glyph glyph-name="uni53E4" unicode="&#x53e4;" d="M940 676 l0 -90 l-391 0 l0 -182 l281 0 l0 -482 l-93 0 l0 63 l-475 0 l0 -63 l-93 0 l0 482 l282 0 l0 182 l-391 0 l0 90 l391 0 l0 158 l98 0 l0 -158 l391 0 ZM262 76 l475 0 l0 235 l-475 0 l0 -235 Z" /><glyph glyph-name="uni53E5" unicode="&#x53e5;" d="M891 737 l0 -53 q0 -307 -16 -599 q-3 -60 -18.5 -92.5 q-15.5 -32.5 -51 -47 q-35.5 -14.5 -99.5 -14.5 q-86 0 -147 5 l-20 99 q66 -9 131 -9 q41 0 62 7.5 q21 7.5 30.5 26.5 q9.5 19 12.5 57 q15 210 15 457 l0 64 l-504 0 q-41 -66 -84 -122 l417 0 l0 -414 l-428 0 l0 401 q-39 -48 -93 -104 l-69 78 q80 80 145.5 176.5 q65.5 96.5 108.5 194.5 l96 -27 q-15 -36 -38 -84 l550 0 ZM521 421 l-235 0 l0 -225 l235 0 l0 225 Z" /><glyph glyph-name="uni53E6" unicode="&#x53e6;" d="M891 346 q0 -48 -8 -134 q-8 -86 -17 -134 q-9 -51 -26.5 -80.5 q-17.5 -29.5 -50.5 -44 q-33 -14.5 -89 -15.5 l-38 0 q-78 0 -132 5 l-19 93 q75 -8 143 -8 q49 0 72 7 q23 7 33 25 q10 18 18 58 q14 70 14 138 l-354 0 q-16 -75 -53 -131.5 q-37 -56.5 -106 -106.5 q-69 -50 -184 -104 l-51 85 q101 45 160 83 q59 38 90.5 79 q31.5 41 45.5 95 l-252 0 l0 90 l268 0 l1 11 q6 58 7 97 l-201 0 l0 347 l676 0 l0 -347 l-381 0 l-7 -98 q0 -7 -1 -10 l442 0 ZM745 712 l-490 0 l0 -167 l490 0 l0 167 Z" /><glyph glyph-name="uni53E8" unicode="&#x53e8;" d="M909 768 l0 -37 q0 -152 -9.5 -343.5 q-9.5 -191.5 -22.5 -296.5 q-7 -57 -22 -88.5 q-15 -31.5 -45.5 -45 q-30.5 -13.5 -84.5 -14.5 q-64 0 -110 5 l-19 94 q53 -9 105 -9 q30 0 46 7.5 q16 7.5 24.5 28 q8.5 20.5 13.5 61.5 q13 103 20.5 235 q7.5 132 7.5 263 l0 44 l-184 0 l-3 -91 l-1 -49 q-4 -161 -21.5 -258.5 q-17.5 -97.5 -58.5 -176.5 q-41 -79 -124 -181 l-81 62 q79 92 118 162 q39 70 55.5 158 q16.5 88 19.5 237 q1 12 1 66 l1 71 l-113 0 l0 96 l487 0 ZM75 761 l295 0 l0 -704 l-295 0 l0 704 ZM160 154 l125 0 l0 513 l-125 0 l0 -513 Z" /><glyph glyph-name="uni53EA" unicode="&#x53ea;" d="M155 786 l689 0 l0 -478 l-689 0 l0 478 ZM250 695 l0 -295 l499 0 l0 295 l-499 0 ZM36 5 q75 47 156.5 117.5 q81.5 70.5 140.5 137.5 l74 -70 q-55 -65 -138 -140.5 q-83 -75.5 -160 -129.5 l-73 85 ZM667 260 q27 -23 147 -127 q126 -110 142 -123 l-74 -86 q-58 58 -141.5 134.5 q-83.5 76.5 -143.5 126.5 l70 75 Z" /><glyph glyph-name="uni53EB" unicode="&#x53eb;" d="M792 833 l91 0 l0 -907 l-91 0 l0 312 q-126 -46 -202 -78 q-31 -13 -62 -29 l-43 92 q18 10 23 19.5 q5 9.5 5 29.5 l0 472 l92 0 l0 -482 q107 43 187 76 l0 495 ZM414 46 l-314 0 l0 714 l314 0 l0 -714 ZM325 673 l-137 0 l0 -536 l137 0 l0 536 Z" /><glyph glyph-name="uni53EF" unicode="&#x53ef;" d="M955 785 l0 -90 l-126 0 l0 -614 q0 -59 -12.5 -89.5 q-12.5 -30.5 -45 -43.5 q-32.5 -13 -96.5 -13 q-76 0 -131 5 l-18 91 q74 -8 139 -8 q43 0 57.5 17 q14.5 17 14.5 67 l0 588 l-687 0 l0 90 l905 0 ZM155 560 l418 0 l0 -407 l-418 0 l0 407 ZM244 241 l239 0 l0 230 l-239 0 l0 -230 Z" /><glyph glyph-name="uni53F0" unicode="&#x53f0;" d="M678 747 q53 -53 134 -144.5 q81 -91.5 130 -153.5 l-70 -60 l-69 85 l-315 -23 q-79 -5 -157.5 -11 q-78.5 -6 -157.5 -12 q-53 -4 -77 -7 l-25 96 q37 6 53.5 11.5 q16.5 5.5 30.5 16.5 q54 41 136.5 138.5 q82.5 97.5 134.5 175.5 l84 -49 q-53 -76 -121 -158.5 q-68 -82.5 -119 -129.5 l462 35 q-75 87 -121 134 l67 56 ZM253 -77 l-94 0 l0 427 l679 0 l0 -427 l-94 0 l0 51 l-491 0 l0 -51 ZM744 63 l0 195 l-491 0 l0 -195 l491 0 Z" /><glyph glyph-name="uni53F2" unicode="&#x53f2;" d="M926 -69 q-173 15 -290.5 42 q-117.5 27 -208.5 75 q-53 -37 -136.5 -69 q-83.5 -32 -210.5 -64 l-35 93 q107 22 178.5 45 q71.5 23 116.5 51 q-83 61 -169 166 l76 60 q85 -104 167 -162 q23 32 32.5 73 q9.5 41 9.5 96 l0 6 l-336 0 l0 364 l336 0 l0 131 l93 0 l0 -131 l331 0 l0 -364 l-331 0 l0 -6 q0 -72 -12 -124.5 q-12 -52.5 -40 -93.5 q81 -39 188 -60.5 q107 -21.5 263 -31.5 l-22 -96 ZM213 618 l0 -186 l243 0 l0 186 l-243 0 ZM788 432 l0 186 l-239 0 l0 -186 l239 0 Z" /><glyph glyph-name="uni53F3" unicode="&#x53f3;" d="M946 617 l-470 0 q-45 -97 -114 -190 l500 0 l0 -496 l-95 0 l0 65 l-430 0 l0 -65 l-94 0 l0 356 q-76 -79 -167 -153 l-50 100 q221 156 335 383 l-292 0 l0 93 l333 0 q22 56 42 131 l107 -17 q-18 -68 -36 -114 l431 0 l0 -93 ZM337 88 l430 0 l0 243 l-430 0 l0 -243 Z" /><glyph glyph-name="uni53F6" unicode="&#x53f6;" d="M729 507 l223 0 l0 -93 l-223 0 l0 -490 l-91 0 l0 490 l-215 0 l0 93 l215 0 l0 331 l91 0 l0 -331 ZM385 32 l-311 0 l0 715 l311 0 l0 -715 ZM298 653 l-135 0 l0 -526 l135 0 l0 526 Z" /><glyph glyph-name="uni53F7" unicode="&#x53f7;" d="M175 799 l649 0 l0 -280 l-649 0 l0 280 ZM271 600 l458 0 l0 118 l-458 0 l0 -118 ZM953 358 l-629 0 l-18 -89 l512 0 q-2 -43 -7 -98.5 q-5 -55.5 -11 -93.5 q-9 -61 -25 -90 q-16 -29 -50 -40.5 q-34 -11.5 -102 -12.5 l-35 0 q-90 0 -177 6 l-18 90 q96 -10 201 -10 q39 0 58.5 6 q19.5 6 29 22.5 q9.5 16.5 15.5 50.5 q8 44 10 90 l-523 0 l37 169 l-173 0 l0 83 l905 0 l0 -83 Z" /><glyph glyph-name="uni5403" unicode="&#x5403;" d="M549 625 q-43 -65 -102 -132 l-72 71 q58 63 101.5 132.5 q43.5 69.5 79.5 155.5 l95 -33 q-26 -63 -47 -102 l339 0 l0 -92 l-394 0 ZM372 37 l-285 0 l0 720 l285 0 l0 -720 ZM286 665 l-110 0 l0 -534 l110 0 l0 534 ZM951 198 l-5 -77 l-3 -58 q-4 -61 -32 -86 q-28 -25 -98 -31 q-64 -6 -132 -6 q-73 0 -142 6 q-47 4 -75 32 q-28 28 -28 71 q0 36 22.5 77.5 q22.5 41.5 81.5 109 q59 67.5 174 181.5 l-235 0 l0 91 l372 0 l0 -89 q-130 -126 -195.5 -194.5 q-65.5 -68.5 -88.5 -100.5 q-23 -32 -24 -50 q0 -20 8 -29.5 q8 -9.5 27 -10.5 q63 -5 114 -5 q54 0 108 6 q31 3 42 17 q11 14 13 48 l1 58 q1 16 1 32 q0 16 1 28 l93 -20 Z" /><glyph glyph-name="uni5404" unicode="&#x5404;" d="M605 494 q137 -52 353 -85 l-31 -95 q-132 25 -234 55.5 q-102 30.5 -187 71.5 q-187 -89 -440 -142 l-35 94 q197 34 373 104 q-76 49 -152 120 q-71 -68 -147 -122 l-54 72 q80 55 159.5 135.5 q79.5 80.5 125.5 151.5 l96 -26 q-18 -27 -43 -61 l452 0 l0 -84 q-106 -112 -236 -189 ZM314 679 q87 -86 187 -139 q136 68 211 143 l-394 0 l-4 -4 ZM267 -72 l-92 0 l0 381 l646 0 l0 -381 l-92 0 l0 53 l-462 0 l0 -53 ZM729 66 l0 159 l-462 0 l0 -159 l462 0 Z" /><glyph glyph-name="uni5408" unicode="&#x5408;" d="M540 844 q67 -105 178 -192.5 q111 -87.5 253 -150.5 l-48 -92 q-94 46 -174 99 l0 -60 l-503 0 l0 58 q-78 -55 -174 -101 l-43 95 q138 62 253.5 154.5 q115.5 92.5 176.5 189.5 l81 0 ZM708 537 q-127 93 -208 201 q-79 -104 -210 -201 l418 0 ZM265 -70 l-97 0 l0 409 l659 0 l0 -409 l-94 0 l0 50 l-468 0 l0 -50 ZM733 67 l0 185 l-468 0 l0 -185 l468 0 Z" /><glyph glyph-name="uni540C" unicode="&#x540c;" d="M893 63 q0 -51 -10 -79 q-10 -28 -33 -40 q-23 -12 -66 -13 q-73 0 -123 6 l-17 87 q47 -8 107 -8 q29 0 39 15.5 q10 15.5 10 55.5 l0 615 l-613 0 l0 -771 l-92 0 l0 858 l798 0 l0 -726 ZM245 604 l498 0 l0 -84 l-498 0 l0 84 ZM296 426 l395 0 l0 -328 l-395 0 l0 328 ZM381 346 l0 -168 l225 0 l0 168 l-225 0 Z" /><glyph glyph-name="uni540D" unicode="&#x540d;" d="M877 654 q-83 -95 -184.5 -170 q-101.5 -75 -232.5 -138 l413 0 l0 -418 l-91 0 l0 54 l-453 0 l0 -54 l-92 0 l0 326 q-87 -30 -165 -53 l-36 85 q254 70 425.5 160 q171.5 90 287.5 208 l-363 0 q0 0 -28 -28 l-20 -19 q84 -62 124 -96 l-58 -72 q-69 59 -136 108 q-74 -57 -130 -93 l-59 79 q98 58 196 146.5 q98 88.5 157 168.5 l93 -27 q-29 -42 -59 -79 l411 0 l0 -88 ZM329 69 l453 0 l0 192 l-453 0 l0 -192 Z" /><glyph glyph-name="uni540E" unicode="&#x540e;" d="M245 553 l695 0 l0 -87 l-695 0 q-1 -121 -12.5 -205.5 q-11.5 -84.5 -39 -160.5 q-27.5 -76 -79.5 -163 l-82 58 q52 83 78.5 152 q26.5 69 36 151.5 q9.5 82.5 9.5 214.5 l0 249 q172 4 364 19 q192 15 346 38 l23 -94 q-130 -17 -310.5 -31 q-180.5 -14 -333.5 -21 l0 -120 ZM396 -72 l-90 0 l0 414 l552 0 l0 -414 l-91 0 l0 62 l-371 0 l0 -62 ZM767 75 l0 182 l-371 0 l0 -182 l371 0 Z" /><glyph glyph-name="uni5411" unicode="&#x5411;" d="M889 710 l0 -656 q0 -64 -25 -90 q-25 -26 -87 -26 q-63 0 -126 6 l-17 93 q62 -8 117 -8 q26 0 35.5 13.5 q9.5 13.5 9.5 45.5 l0 533 l-603 0 l0 -683 l-95 0 l0 772 l264 0 q29 62 56 138 l113 -15 q-24 -63 -52 -123 l410 0 ZM301 507 l385 0 l0 -390 l-385 0 l0 390 ZM394 207 l202 0 l0 209 l-202 0 l0 -209 Z" /><glyph glyph-name="uni5413" unicode="&#x5413;" d="M905 252 q-85 62 -221 150 l0 -477 l-95 0 l0 761 l-174 0 l0 90 l537 0 l0 -90 l-268 0 l0 -176 q194 -121 273 -179 l-52 -79 ZM370 27 l-293 0 l0 729 l293 0 l0 -729 ZM279 662 l-111 0 l0 -542 l111 0 l0 542 Z" /><glyph glyph-name="uni5417" unicode="&#x5417;" d="M826 420 l104 0 q-8 -184 -23 -329 q-6 -63 -21.5 -97 q-15.5 -34 -44 -48.5 q-28.5 -14.5 -76.5 -15.5 q-73 -1 -169 7 l-17 88 q108 -10 159 -9 q36 0 52 20.5 q16 20.5 24 74.5 q14 90 19 218 l-388 0 l34 334 l93 -7 l-25 -236 l185 0 l27 282 l-328 0 l0 89 l431 0 l-36 -371 ZM357 51 l-279 0 l0 705 l279 0 l0 -705 ZM270 664 l-105 0 l0 -521 l105 0 l0 521 ZM395 224 l377 0 l0 -89 l-377 0 l0 89 Z" /><glyph glyph-name="uni541B" unicode="&#x541b;" d="M841 367 l-485 0 q-17 -48 -43 -90 l546 0 l0 -357 l-93 0 l0 48 l-444 0 l0 -48 l-94 0 l0 242 q-59 -66 -148 -142 l-52 83 q87 71 141 133.5 q54 62.5 86 130.5 l-161 0 l0 81 l191 0 q12 46 18 95 l-247 0 l0 79 l254 0 q4 49 6 94 l-195 0 l0 83 l720 0 l0 -177 l117 0 l0 -79 l-117 0 l0 -176 ZM410 716 l-7 -94 l344 0 l0 94 l-337 0 ZM396 543 q-6 -53 -16 -95 l367 0 l0 95 l-351 0 ZM766 49 l0 147 l-444 0 l0 -147 l444 0 Z" /><glyph glyph-name="uni5426" unicode="&#x5426;" d="M453 369 l0 196 q-145 -114 -363 -208 l-40 95 q265 101 421 251 l-377 0 l0 87 l812 0 l0 -87 l-306 0 q-34 -38 -53 -56 l0 -278 l-94 0 ZM619 627 q71 -35 169.5 -87 q98.5 -52 162.5 -89 l-42 -86 q-65 41 -159.5 93.5 q-94.5 52.5 -171.5 91.5 l41 77 ZM260 -65 l-92 0 l0 398 l665 0 l0 -398 l-93 0 l0 49 l-480 0 l0 -49 ZM740 70 l0 175 l-480 0 l0 -175 l480 0 Z" /><glyph glyph-name="uni5427" unicode="&#x5427;" d="M941 200 q0 -41 -5 -126 q-4 -47 -17.5 -71.5 q-13.5 -24.5 -41.5 -35.5 q-28 -11 -80 -15 q-73 -5 -133 -5 q-60 0 -133 5 q-50 3 -76.5 16.5 q-26.5 13.5 -38 43.5 q-11.5 30 -11.5 86 l0 689 l490 0 l0 -447 l-402 0 l0 -219 q0 -33 5.5 -49 q5.5 -16 19 -22.5 q13.5 -6.5 42.5 -8.5 q48 -4 107 -4 q60 0 107 4 q31 3 45.5 8.5 q14.5 5.5 20.5 18.5 q6 13 9 42 q4 50 4 108 l88 -18 ZM338 84 l-258 0 l0 669 l258 0 l0 -669 ZM606 433 l0 265 l-113 0 l0 -265 l113 0 ZM691 433 l116 0 l0 265 l-116 0 l0 -265 ZM257 664 l-94 0 l0 -487 l94 0 l0 487 Z" /><glyph glyph-name="uni542B" unicode="&#x542b;" d="M544 852 q77 -90 179.5 -159 q102.5 -69 238.5 -120 l-40 -89 q-128 51 -240 126 q-112 75 -179 154 q-70 -80 -178.5 -154.5 q-108.5 -74.5 -245.5 -132.5 l-40 89 q145 58 244.5 126 q99.5 68 178.5 160 l82 0 ZM790 421 q-56 -60 -123 -126 l169 0 l0 -364 l-93 0 l0 41 l-483 0 l0 -41 l-93 0 l0 364 l378 0 q34 32 124 126 l-469 0 l0 81 l331 0 q-61 61 -123 110 l55 62 q65 -50 130 -110 l-58 -62 l255 0 l0 -81 ZM260 55 l483 0 l0 157 l-483 0 l0 -157 Z" /><glyph glyph-name="uni542C" unicode="&#x542c;" d="M959 496 l0 -93 l-145 0 l0 -476 l-92 0 l0 476 l-167 0 q-2 -125 -14.5 -204 q-12.5 -79 -41.5 -142 q-29 -63 -84 -137 l-78 59 q56 75 81 129.5 q25 54.5 34.5 126.5 q9.5 72 9.5 204 l0 306 q117 10 230.5 28.5 q113.5 18.5 200.5 43.5 l24 -94 q-71 -20 -172 -37.5 q-101 -17.5 -190 -25.5 l0 -164 l404 0 ZM88 748 l280 0 l0 -656 l-280 0 l0 656 ZM174 184 l106 0 l0 474 l-106 0 l0 -474 Z" /><glyph glyph-name="uni542F" unicode="&#x542f;" d="M902 743 l0 -306 l-650 0 q-3 -150 -35.5 -255.5 q-32.5 -105.5 -114.5 -231.5 l-82 64 q55 79 84 146 q29 67 41 144.5 q12 77.5 12 190.5 l0 248 l332 0 q-30 72 -38 87 l98 22 q21 -43 46 -109 l307 0 ZM252 523 l554 0 l0 134 l-554 0 l0 -134 ZM374 -80 l-95 0 l0 405 l603 0 l0 -405 l-96 0 l0 54 l-412 0 l0 -54 ZM786 58 l0 181 l-412 0 l0 -181 l412 0 Z" /><glyph glyph-name="uni5434" unicode="&#x5434;" d="M160 803 l678 0 l0 -285 l-678 0 l0 285 ZM252 604 l494 0 l0 113 l-494 0 l0 -113 ZM558 191 q51 -68 146 -109.5 q95 -41.5 253 -62.5 l-32 -97 q-158 30 -262 78.5 q-104 48.5 -164 123.5 q-45 -64 -144 -112 q-99 -48 -268 -89 l-40 94 q166 28 256.5 70 q90.5 42 123.5 104 l-350 0 l0 80 l370 0 q2 26 2 89 l-320 0 l0 78 l743 0 l0 -78 l-326 0 q0 -59 -2 -89 l380 0 l0 -80 l-366 0 Z" /><glyph glyph-name="uni5438" unicode="&#x5438;" d="M759 164 q81 -81 209 -153 l-48 -87 q-134 86 -219 174 q-92 -94 -241 -182 l-56 74 q149 79 241 172 q-73 92 -116 210 q-16 -129 -59 -229.5 q-43 -100.5 -134 -213.5 l-70 60 q43 50 78 104 l-258 0 l0 660 l272 0 l0 -638 q52 88 73.5 184 q21.5 96 27.5 240 l4 97 q0 25 2 65 l-66 0 l0 86 l453 0 l0 -86 l-73 -168 l126 0 l0 -85 q-57 -169 -146 -284 ZM543 585 q50 -218 160 -358 q70 92 116 221 l-135 0 l0 76 l77 177 l-214 0 q0 -16 -1 -24 q0 -15 -0.5 -38 q-0.5 -23 -2.5 -54 ZM170 180 l106 0 l0 487 l-106 0 l0 -487 Z" /><glyph glyph-name="uni5439" unicode="&#x5439;" d="M375 447 l0 -377 l-288 0 l0 680 l288 0 l0 -293 q54 88 91.5 183 q37.5 95 63.5 207 l92 -15 q-15 -57 -38 -130 l343 0 l0 -88 l-87 -204 l-83 31 l79 170 l-285 0 q-43 -113 -102 -210 l-74 46 ZM174 161 l112 0 l0 500 l-112 0 l0 -500 ZM683 429 q12 -132 81.5 -236 q69.5 -104 201.5 -186 l-60 -83 q-193 129 -260 320 q-33 -90 -98.5 -170 q-65.5 -80 -169.5 -157 l-66 78 q148 97 212.5 207 q64.5 110 67.5 253 q1 19 1 104 l95 0 l-4 -106 l-1 -24 Z" /><glyph glyph-name="uni5448" unicode="&#x5448;" d="M163 793 l676 0 l0 -294 l-676 0 l0 294 ZM255 584 l492 0 l0 124 l-492 0 l0 -124 ZM547 153 l0 -106 l388 0 l0 -84 l-870 0 l0 84 l391 0 l0 106 l-315 0 l0 83 l315 0 l0 101 l-351 0 l0 84 l793 0 l0 -84 l-351 0 l0 -101 l315 0 l0 -83 l-315 0 Z" /><glyph glyph-name="uni544A" unicode="&#x544a;" d="M563 482 l382 0 l0 -91 l-888 0 l0 91 l409 0 l0 132 l-222 0 q-33 -58 -67 -104 l-85 47 q52 69 84.5 129.5 q32.5 60.5 57.5 133.5 l88 -30 q-14 -44 -33 -86 l177 0 l0 130 l97 0 l0 -130 l322 0 l0 -90 l-322 0 l0 -132 ZM257 -77 l-95 0 l0 378 l676 0 l0 -378 l-97 0 l0 44 l-484 0 l0 -44 ZM741 57 l0 153 l-484 0 l0 -153 l484 0 Z" /><glyph glyph-name="uni5458" unicode="&#x5458;" d="M188 803 l626 0 l0 -262 l-626 0 l0 262 ZM285 622 l432 0 l0 97 l-432 0 l0 -97 ZM751 374 l-500 0 l0 -245 l-95 0 l0 333 l688 0 l0 -327 l-93 0 l0 239 ZM886 -79 q-81 41 -191.5 93.5 q-110.5 52.5 -199.5 92.5 q-92 -127 -402 -187 l-32 90 q132 24 212 55 q80 31 119 71.5 q39 40.5 50 95.5 q8 40 15 103 l97 0 q-4 -69 -24 -151 l-1 -4 q84 -32 202.5 -82.5 q118.5 -50.5 198.5 -87.5 l-44 -89 Z" /><glyph glyph-name="uni5462" unicode="&#x5462;" d="M917 490 l-402 0 q-1 -143 -13 -233.5 q-12 -90.5 -42.5 -165.5 q-30.5 -75 -90.5 -170 l-81 52 q61 89 90 157 q29 68 39 149.5 q10 81.5 10 221.5 l0 293 l490 0 l0 -304 ZM85 759 l260 0 l0 -665 l-260 0 l0 665 ZM829 578 l0 130 l-314 0 l0 -130 l314 0 ZM167 187 l97 0 l0 480 l-97 0 l0 -480 ZM949 179 q0 -13 -1 -21 q0 -40 -4 -100 q-2 -41 -14.5 -63.5 q-12.5 -22.5 -37.5 -32 q-25 -9.5 -70 -12.5 q-44 -2 -65 -2 q-22 0 -66 2 q-61 4 -86 29 q-25 25 -25 85 l0 384 l84 0 l0 -171 q57 32 124 76 q67 44 107 76 l46 -76 q-49 -36 -131.5 -87.5 q-82.5 -51.5 -145.5 -84.5 l0 -88 q0 -32 10 -42.5 q10 -10.5 43 -12.5 q32 -2 45 -2 q15 0 45 2 q34 2 45 13.5 q11 11.5 13 47.5 q4 80 4 99 l80 -19 Z" /><glyph glyph-name="uni5468" unicode="&#x5468;" d="M140 801 l754 0 l0 -739 q0 -54 -10.5 -82.5 q-10.5 -28.5 -36.5 -40.5 q-26 -12 -75 -12 q-50 0 -107 5 l-16 86 q54 -6 110 -6 q20 0 29 5.5 q9 5.5 12 19.5 q3 14 3 44 l0 636 l-572 0 l0 -282 q0 -138 -8 -221.5 q-8 -83.5 -30 -150.5 q-22 -67 -67 -145 l-89 48 q45 74 66 136 q21 62 29 144 q8 82 8 224 l0 331 ZM264 380 l0 77 l206 0 l0 86 l-175 0 l0 74 l175 0 l0 77 l87 0 l0 -77 l178 0 l0 -74 l-178 0 l0 -86 l210 0 l0 -77 l-503 0 ZM321 312 l387 0 l0 -263 l-387 0 l0 263 ZM406 129 l218 0 l0 104 l-218 0 l0 -104 Z" /><glyph glyph-name="uni5473" unicode="&#x5473;" d="M728 373 q81 -164 249 -305 l-64 -70 q-141 123 -223 303 l0 -375 l-87 0 l0 370 q-42 -87 -97.5 -161.5 q-55.5 -74.5 -133.5 -145.5 l-59 73 q90 77 149.5 151 q59.5 74 103.5 160 l-180 0 l0 90 l217 0 l0 153 l-183 0 l0 90 l183 0 l0 131 l87 0 l0 -131 l203 0 l0 -90 l-203 0 l0 -153 l241 0 l0 -90 l-203 0 ZM79 736 l270 0 l1 -624 l-271 0 l0 624 ZM164 202 l101 0 l0 444 l-101 0 l0 -444 Z" /><glyph glyph-name="uni547D" unicode="&#x547d;" d="M542 849 q73 -78 182.5 -151.5 q109.5 -73.5 245.5 -134.5 l-42 -91 q-82 38 -177 96 l0 -72 l-506 0 l0 72 q-79 -49 -175 -96 l-41 92 q136 60 245 133.5 q109 73.5 181 151.5 l87 0 ZM721 587 q-130 83 -221 171 q-84 -82 -224 -171 l445 0 ZM516 -74 l0 490 l361 0 l0 -264 q0 -73 -26 -101 q-26 -28 -93 -29 q-46 -2 -87 4 l-17 90 q40 -7 71 -7 q36 0 49 15 q13 15 13 51 l0 153 l-182 0 l0 -402 l-89 0 ZM436 9 l-312 0 l0 403 l312 0 l0 -403 ZM349 325 l-138 0 l0 -228 l138 0 l0 228 Z" /><glyph glyph-name="uni548C" unicode="&#x548c;" d="M325 429 q85 -74 169 -164 l-57 -71 q-56 68 -112 128 l0 -399 l-90 0 l0 420 q-54 -131 -143 -243 l-53 86 q54 65 100 140.5 q46 75.5 77 150.5 l-158 0 l0 91 l177 0 l0 121 q-86 -14 -145 -19 l-19 86 q91 9 197.5 28 q106.5 19 181.5 41 l22 -87 q-50 -15 -147 -34 l0 -136 l156 0 l0 -91 l-156 0 l0 -48 ZM530 -48 l0 806 l383 0 l0 -801 l-90 0 l0 78 l-203 0 l0 -83 l-90 0 ZM620 664 l0 -538 l203 0 l0 538 l-203 0 Z" /><glyph glyph-name="uni548F" unicode="&#x548f;" d="M752 652 q-48 27 -110 56.5 q-62 29.5 -120 55.5 l-29 13 l40 82 q16 -8 30 -14.5 q14 -6.5 26 -11.5 q143 -67 200 -99 l-37 -82 ZM75 709 l251 0 l0 -622 l-251 0 l0 622 ZM904 -2 q-127 132 -210 333 l0 -283 q0 -71 -20 -98.5 q-20 -27.5 -68 -27.5 q-59 0 -102 5 l-18 90 q47 -7 79 -7 q23 0 32.5 15.5 q9.5 15.5 9.5 51.5 l0 487 l-211 0 l0 92 l298 0 l0 -112 q15 -51 36 -99 q85 80 143 164 l67 -69 q-88 -100 -174 -177 q44 -87 96 -162 q52 -75 107 -127 l-65 -76 ZM157 177 l88 0 l0 443 l-88 0 l0 -443 ZM559 465 l0 -90 q-21 -114 -61.5 -210.5 q-40.5 -96.5 -117.5 -193.5 l-71 54 q124 150 164 350 l-114 0 l0 90 l200 0 Z" /><glyph glyph-name="uni54A7" unicode="&#x54a7;" d="M843 826 l78 0 l0 -764 q0 -53 -11.5 -80 q-11.5 -27 -38.5 -37.5 q-27 -10.5 -80 -10.5 q-33 0 -76 5 l-16 81 q51 -7 87 -7 q24 0 36 5.5 q12 5.5 16.5 20.5 q4.5 15 4.5 45 l0 742 ZM347 702 l0 86 l321 0 l0 -86 l-138 0 q-9 -57 -28 -130 l147 0 l0 -87 q-21 -129 -54 -224.5 q-33 -95.5 -87 -178 q-54 -82.5 -138 -165.5 l-59 63 q127 122 187 252 q-31 33 -92 87 l-35 -68 l-60 60 l0 -256 l-230 0 l0 690 l230 0 l0 -428 q44 78 80 182 q36 104 54 203 l-98 0 ZM700 712 l77 0 l0 -560 l-77 0 l0 560 ZM159 146 l77 0 l0 510 l-77 0 l0 -510 ZM476 485 q-13 -40 -35 -90 q45 -38 89 -82 q21 67 39 172 l-93 0 Z" /><glyph glyph-name="uni54AF" unicode="&#x54af;" d="M736 475 q91 -50 232 -84 l-27 -90 q-173 48 -276 117 q-108 -73 -273 -128 l-35 80 q137 43 234 105 q-54 48 -104 117 q-30 -39 -65 -77 l-57 65 q54 59 101.5 129.5 q47.5 70.5 78.5 142.5 l85 -25 q-19 -42 -34 -69 l291 0 l0 -83 q-62 -120 -151 -200 ZM342 34 l-270 0 l0 710 l270 0 l0 -710 ZM538 662 q55 -83 121 -136 q74 62 131 149 l-243 0 l-9 -13 ZM257 656 l-98 0 l0 -534 l98 0 l0 534 ZM528 -73 l-90 0 l0 374 l441 0 l0 -374 l-89 0 l0 52 l-262 0 l0 -52 ZM790 61 l0 157 l-262 0 l0 -157 l262 0 Z" /><glyph glyph-name="uni54B8" unicode="&#x54b8;" d="M966 200 q-8 -65 -25 -134 q-16 -72 -42.5 -101 q-26.5 -29 -64.5 -29 q-37 0 -63.5 24 q-26.5 24 -60.5 89 l-18 39 q-62 -79 -156 -159 l-62 72 l16 14 q23 18 42 36 l-273 0 l0 307 l282 0 l0 -299 q68 63 116 129 q-49 163 -72 427 l-376 0 l0 -344 q0 -175 -84 -350 l-90 50 q43 84 63 153.5 q20 69.5 20 159.5 l0 417 l460 0 l-9 141 l90 1 l9 -142 l120 0 q-23 56 -45 104 l70 28 q27 -60 56 -132 l67 0 l0 -86 l-261 0 q14 -185 46 -324 q55 104 88 249 l84 -22 q-50 -200 -139 -342 q21 -56 37 -88 q14 -29 24 -40 q10 -11 21 -11 q11 1 17.5 15.5 q6.5 14.5 16.5 57.5 q12 60 18 111 l78 -21 ZM243 524 l321 0 l0 -80 l-321 0 l0 80 ZM335 133 l126 0 l0 145 l-126 0 l0 -145 Z" /><glyph glyph-name="uni54C1" unicode="&#x54c1;" d="M178 805 l635 0 l0 -336 l-635 0 l0 336 ZM272 557 l448 0 l0 161 l-448 0 l0 -161 ZM174 -58 l-88 0 l0 431 l358 0 l0 -431 l-87 0 l0 52 l-183 0 l0 -52 ZM536 -58 l0 431 l370 0 l0 -431 l-87 0 l0 52 l-194 0 l0 -52 l-89 0 ZM357 80 l0 206 l-183 0 l0 -206 l183 0 ZM625 286 l0 -206 l194 0 l0 206 l-194 0 Z" /><glyph glyph-name="uni54C7" unicode="&#x54c7;" d="M704 496 l245 0 l0 -92 l-573 0 l0 92 l235 0 l0 122 l-202 0 l0 87 l202 0 l0 128 l93 0 l0 -128 l201 0 l0 -87 l-201 0 l0 -122 ZM335 16 l-259 0 l0 718 l259 0 l0 -718 ZM250 645 l-88 0 l0 -539 l88 0 l0 539 ZM704 191 l0 -148 l248 0 l0 -88 l-594 0 l0 88 l252 0 l0 148 l-201 0 l0 88 l201 0 l0 95 l94 0 l0 -95 l200 0 l0 -88 l-200 0 Z" /><glyph glyph-name="uni54C8" unicode="&#x54c8;" d="M691 843 q47 -96 116.5 -174.5 q69.5 -78.5 164.5 -146.5 l-48 -83 q-55 41 -98 81 l0 -76 l-341 0 l0 74 q-44 -41 -92 -77 l-42 67 l0 -451 l-274 0 l0 682 l274 0 l0 -211 q178 128 266 315 l74 0 ZM816 529 q-104 97 -161 205 q-58 -107 -159 -205 l320 0 ZM163 147 l102 0 l0 504 l-102 0 l0 -504 ZM517 -70 l-84 0 l0 406 l445 0 l0 -407 l-85 0 l0 50 l-276 0 l0 -49 ZM793 63 l0 189 l-276 0 l0 -189 l276 0 Z" /><glyph glyph-name="uni54CD" unicode="&#x54cd;" d="M928 727 l0 -671 q0 -64 -20.5 -89.5 q-20.5 -25.5 -74.5 -26.5 q-63 0 -109 5 l-17 88 q50 -6 98 -6 q23 0 31.5 13 q8.5 13 8.5 45 l0 558 l-373 0 l0 -706 l-83 0 l0 790 l181 0 q23 63 37 129 l95 -13 q-11 -48 -37 -116 l263 0 ZM328 45 l-250 0 l0 704 l250 0 l0 -704 ZM248 662 l-87 0 l0 -531 l87 0 l0 531 ZM544 529 l229 0 l0 -405 l-229 0 l0 405 ZM614 205 l88 0 l0 244 l-88 0 l0 -244 Z" /><glyph glyph-name="uni54D2" unicode="&#x54d2;" d="M553 180 q54 57 83 104.5 q29 47.5 44 107.5 q15 60 18 150 l-130 0 l0 95 l131 0 l0 203 l84 0 l-2 -166 q-1 -13 -1 -37 l146 0 l0 -95 l-147 0 q-1 -68 -9 -122 l27 -42 q102 -159 136 -216 l-70 -48 q-19 35 -99 166 l-19 31 q-18 -52 -49 -99.5 q-31 -47.5 -83 -107.5 l-60 76 ZM460 601 q-16 39 -44.5 100.5 q-28.5 61.5 -48.5 100.5 l77 33 q29 -57 70 -149 q8 -16 14 -29.5 q6 -13.5 11 -23.5 l-79 -32 ZM77 744 l243 0 l0 -703 l-243 0 l0 703 ZM160 132 l78 0 l0 520 l-78 0 l0 -520 ZM712 48 q55 -4 121 -4 q68 0 121 4 l-19 -87 q-65 -5 -117 -5 q-53 0 -118 5 q-61 5 -100.5 17.5 q-39.5 12.5 -68 38 q-28.5 25.5 -55.5 71.5 q-6 -7 -57 -72 l-63 -80 l-44 89 l125 148 l0 245 l-86 0 l0 92 l165 0 l0 -338 q28 -63 71 -90 q43 -27 125 -34 Z" /><glyph glyph-name="uni54D4" unicode="&#x54d4;" d="M950 549 l-5 -99 q-2 -60 -26.5 -84.5 q-24.5 -24.5 -80.5 -28.5 q-30 -2 -45 -2 q-14 0 -44 2 q-48 3 -68.5 26 q-20.5 23 -20.5 85 l0 390 l84 0 l0 -175 q71 41 154 103 l45 -72 q-38 -29 -93.5 -64.5 q-55.5 -35.5 -105.5 -61.5 l0 -93 q0 -27 7.5 -39 q7.5 -12 25.5 -14 q10 -1 29 -1 q19 0 28 1 q18 2 24.5 14 q6.5 12 8.5 40 q2 21 3.5 47 q1.5 26 1.5 45 l78 -19 ZM480 333 q-24 -13 -50 -30 l-43 75 q24 21 24 40 l0 416 l87 0 l0 -149 l125 0 l0 -87 l-125 0 l0 -162 q50 27 119 63 l11 -89 q-106 -53 -148 -77 ZM331 25 l-257 0 l0 732 l257 0 l0 -732 ZM249 671 l-92 0 l0 -560 l92 0 l0 560 ZM599 314 l91 0 l0 -86 l251 0 l0 -94 l-251 0 l0 -212 l-91 0 l0 212 l-229 0 l0 94 l229 0 l0 86 Z" /><glyph glyph-name="uni54E5" unicode="&#x54e5;" d="M831 435 l-92 0 l0 282 l-656 0 l0 81 l855 0 l0 -81 l-107 0 l0 -282 ZM610 661 l0 -205 l-450 0 l0 205 l450 0 ZM524 591 l-275 0 l0 -67 l275 0 l0 67 ZM956 399 l0 -80 l-124 0 l0 -260 q0 -52 -12 -80 q-12 -28 -41 -39.5 q-29 -11.5 -84 -11.5 q-66 0 -114 5 l-19 87 q80 -8 118 -8 q37 0 48.5 14.5 q11.5 14.5 11.5 58.5 l0 234 l-689 0 l0 80 l905 0 ZM151 259 l458 0 l0 -225 l-458 0 l0 225 ZM238 107 l285 0 l0 80 l-285 0 l0 -80 Z" /><glyph glyph-name="uni54E6" unicode="&#x54e6;" d="M975 181 q-5 -51 -19 -134 q-19 -119 -94 -119 q-34 0 -61 26.5 q-27 26.5 -54 90.5 q-13 33 -19 56 q-45 -42 -103 -86 l-47 76 q75 55 128 108 q-18 95 -30 276 l-128 0 l0 -125 q63 20 91 31 l15 -88 q-20 -6 -106 -33 l0 -208 q0 -45 -10.5 -69.5 q-10.5 -24.5 -33.5 -34 q-23 -9.5 -65 -9.5 q-24 0 -70 4 l-17 86 q37 -6 76 -6 q23 0 31.5 13 q8.5 13 8.5 44 l0 154 l-108 -36 l-14 90 q44 10 122 36 l0 151 l-118 0 l0 86 l118 0 l0 114 q-49 -10 -84 -14 l-14 83 q56 9 126.5 26 q70.5 17 121.5 33 l20 -82 q-33 -12 -90 -27 l0 -133 l123 0 l-4 79 l-8 197 l83 0 q2 -107 6 -199 q2 -50 4 -77 l199 0 l0 -86 l-194 0 q10 -127 20 -196 q49 63 98 154 l69 -43 q-65 -126 -148 -219 q10 -45 23 -82 q12 -30 20.5 -43.5 q8.5 -13.5 16.5 -13.5 q10 0 17.5 14.5 q7.5 14.5 13.5 53.5 q9 54 14 108 l74 -27 ZM877 605 q-20 32 -54.5 79.5 q-34.5 47.5 -59.5 77.5 l61 49 q30 -34 63 -77 q33 -43 54 -76 l-64 -53 ZM317 64 l-238 0 l0 682 l238 0 l0 -682 ZM239 655 l-81 0 l0 -499 l81 0 l0 499 Z" /><glyph glyph-name="uni54E8" unicode="&#x54e8;" d="M711 849 l0 -277 l200 0 l0 -524 q0 -65 -23 -92 q-23 -27 -82 -27 q-65 0 -111 5 l-17 89 q61 -7 104 -7 q22 0 32 15.5 q10 15.5 10 47.5 l0 47 l-312 0 l0 -195 l-87 0 l0 641 l200 0 l0 277 l86 0 ZM521 592 q-25 38 -62.5 87 q-37.5 49 -67.5 84 l67 53 q31 -34 68.5 -81 q37.5 -47 64.5 -87 l-70 -56 ZM946 764 q-27 -42 -63 -89.5 q-36 -47.5 -68 -82.5 l-67 57 q31 32 66.5 77 q35.5 45 63.5 87 l68 -49 ZM346 47 l-264 0 l0 699 l264 0 l0 -699 ZM260 658 l-92 0 l0 -521 l92 0 l0 521 ZM512 392 l312 0 l0 92 l-312 0 l0 -92 ZM512 307 l0 -97 l312 0 l0 97 l-312 0 Z" /><glyph glyph-name="uni54EA" unicode="&#x54ea;" d="M316 710 l0 88 l319 0 q-2 -379 -10 -706 q-1 -68 -25 -97.5 q-24 -29.5 -75 -29.5 q-34 -1 -74 5 l-15 77 q26 -7 64 -7 q27 0 37 16.5 q10 16.5 12 60.5 q2 46 4 134 l-97 0 q-14 -102 -48 -176 q-34 -74 -102 -153 l-65 46 q69 79 99.5 138.5 q30.5 59.5 42.5 144.5 l-64 0 l0 85 l72 0 q3 57 3 131 l0 7 l-71 0 l0 85 l72 0 l1 151 l-80 0 ZM871 448 q46 -74 63.5 -129 q17.5 -55 17.5 -115 q0 -85 -29 -122.5 q-29 -37.5 -91 -37.5 q-14 0 -44 4 l-17 83 q28 -6 46 -6 q30 0 44 22.5 q14 22.5 14 70.5 q0 91 -79 212 l71 277 l-113 0 l0 -779 l-74 0 l0 862 l259 0 l0 -83 l-68 -259 ZM76 760 l219 0 l0 -676 l-219 0 l0 676 ZM469 559 l88 0 l0 151 l-87 0 l-1 -151 ZM152 167 l69 0 l0 511 l-69 0 l0 -511 ZM555 336 l1 138 l-88 0 l0 -5 q0 -53 -4 -133 l91 0 Z" /><glyph glyph-name="uni54F2" unicode="&#x54f2;" d="M190 296 q-39 0 -84 5 l-9 80 q34 -7 74 -7 q33 0 42.5 10 q9.5 10 9.5 45 l0 50 q-82 -12 -165 -21 l-3 84 q56 6 168 20 l0 94 l-148 0 l0 79 l148 0 l0 103 l91 0 l0 -103 l130 0 l0 -79 l-130 0 l0 -82 q63 7 126 18 l2 -80 q-92 -15 -128 -20 l0 -92 q0 -43 -11 -65 q-11 -22 -37 -30.5 q-26 -8.5 -76 -8.5 ZM587 588 l364 0 l0 -82 l-134 0 l0 -204 l-90 0 l0 204 l-142 0 q-6 -70 -33 -122 q-27 -52 -91 -108 l-72 52 q47 45 68.5 79.5 q21.5 34.5 29 75.5 q7.5 41 7.5 113 l0 173 q210 12 395 57 l23 -84 q-177 -41 -325 -52 l0 -102 ZM264 -81 l-94 0 l0 341 l658 0 l0 -341 l-94 0 l0 51 l-470 0 l0 -51 ZM734 46 l0 136 l-470 0 l0 -136 l470 0 Z" /><glyph glyph-name="uni5507" unicode="&#x5507;" d="M744 338 q85 -35 218 -50 l-27 -79 q-118 18 -198 47.5 q-80 29.5 -139.5 77.5 q-59.5 48 -111.5 123 l-92 0 l0 -136 q91 25 157 41 l2 -76 q-107 -26 -177 -45 l-67 -20 l-28 71 q16 10 22 17 q6 7 6 18 l0 130 l-83 0 l0 -11 q0 -126 -9 -211.5 q-9 -85.5 -31.5 -157 q-22.5 -71.5 -63.5 -152.5 l-87 49 q42 79 63 146.5 q21 67.5 29.5 150 q8.5 82.5 8.5 211.5 l0 315 l795 0 l0 -78 l-705 0 l0 -194 l720 0 l0 -68 l-113 0 l38 -54 q-69 -38 -127 -65 ZM889 656 l0 -67 l-615 0 l0 67 l615 0 ZM579 457 q42 -48 88 -79 q78 38 152 79 l-240 0 ZM362 -78 l-88 0 l0 288 l595 0 l0 -288 l-88 0 l0 37 l-419 0 l0 -37 ZM781 36 l0 97 l-419 0 l0 -97 l419 0 Z" /><glyph glyph-name="uni5510" unicode="&#x5510;" d="M952 477 l0 -72 l-92 0 l0 -127 l-258 0 l0 -71 l252 0 l0 -283 l-89 0 l0 40 l-393 0 l0 -42 l-91 0 l0 285 l233 0 l0 71 l-255 0 l0 72 l255 0 l0 55 l-298 0 q-1 -116 -9.5 -195 q-8.5 -79 -28 -143.5 q-19.5 -64.5 -54.5 -137.5 l-87 42 q49 97 69.5 195.5 q20.5 98.5 20.5 249.5 l0 338 l372 0 l-39 77 l96 20 q14 -25 35 -69 l14 -28 l330 0 l0 -78 l-333 0 l0 -70 l258 0 l0 -129 l92 0 ZM216 676 l0 -199 l298 0 l0 56 l-250 0 l0 73 l250 0 l0 70 l-298 0 ZM772 477 l0 56 l-170 0 l0 -56 l170 0 ZM602 350 l170 0 l0 55 l-170 0 l0 -55 ZM372 37 l393 0 l0 96 l-393 0 l0 -96 Z" /><glyph glyph-name="uni5520" unicode="&#x5520;" d="M804 831 l0 -97 l142 0 l0 -83 l-142 0 l0 -75 l-81 0 l0 75 l-134 0 l0 -75 l-81 0 l0 75 l-120 0 l0 83 l120 0 l0 97 l81 0 l0 -97 l134 0 l0 97 l81 0 ZM85 745 l249 0 l0 -686 l-249 0 l0 686 ZM168 149 l85 0 l0 507 l-85 0 l0 -507 ZM463 358 l-80 0 l0 181 l553 0 l0 -181 l-85 0 l0 97 l-388 0 l0 -97 ZM651 421 l-7 -101 l242 0 q-1 -54 -6 -125.5 q-5 -71.5 -13 -128.5 q-9 -67 -34.5 -93.5 q-25.5 -26.5 -83.5 -27.5 q-44 -1 -105 4 l-16 85 q58 -9 95 -9 q26 0 37.5 12 q11.5 12 16.5 44 q13 69 17 154 l-161 0 q-16 -73 -40.5 -124.5 q-24.5 -51.5 -76.5 -99 q-52 -47.5 -145 -95.5 l-50 76 q80 40 124.5 74.5 q44.5 34.5 67 73 q22.5 38.5 33.5 95.5 l-140 0 l0 85 l152 0 q5 55 7 101 l86 0 Z" /><glyph glyph-name="uni552F" unicode="&#x552f;" d="M954 66 l0 -85 l-438 0 l0 -58 l-88 0 l0 540 q-26 -45 -53 -82 l-33 72 l0 -413 l-259 0 l0 696 l259 0 l0 -243 q95 148 144 353 l89 -14 q-19 -78 -43 -143 l154 0 q-32 91 -46 129 l83 23 q29 -77 53 -152 l166 0 l0 -85 l-172 0 l0 -125 l153 0 l0 -84 l-153 0 l0 -126 l153 0 l0 -82 l-153 0 l0 -121 l184 0 ZM167 127 l93 0 l0 522 l-93 0 l0 -522 ZM516 479 l167 0 l0 125 l-167 0 l0 -125 ZM516 269 l167 0 l0 126 l-167 0 l0 -126 ZM683 187 l-167 0 l0 -121 l167 0 l0 121 Z" /><glyph glyph-name="uni5531" unicode="&#x5531;" d="M433 786 l450 0 l0 -361 l-450 0 l0 361 ZM349 66 l-261 0 l0 677 l261 0 l0 -677 ZM795 642 l0 68 l-276 0 l0 -68 l276 0 ZM263 650 l-89 0 l0 -489 l89 0 l0 489 ZM519 571 l0 -70 l276 0 l0 70 l-276 0 ZM406 -73 l0 424 l506 0 l0 -423 l-88 0 l0 45 l-332 0 l0 -46 l-86 0 ZM824 197 l0 78 l-332 0 l0 -78 l332 0 ZM492 124 l0 -79 l332 0 l0 79 l-332 0 Z" /><glyph glyph-name="uni5546" unicode="&#x5546;" d="M946 664 l-225 0 q-8 -25 -39 -103 l207 0 l0 -507 q0 -52 -13 -78 q-13 -26 -42.5 -35.5 q-29.5 -9.5 -84.5 -9.5 q-30 0 -82 4 l-17 79 q47 -6 104 -6 q26 0 37 15 q11 15 11 50 l0 408 l-600 0 l0 -550 l-86 0 l0 630 l198 0 q-10 35 -34 103 l-225 0 l0 84 l397 0 q-25 56 -37 78 l97 21 q18 -33 47 -99 l387 0 l0 -84 ZM583 561 q22 51 41 103 l-251 0 q28 -78 34 -103 l176 0 ZM688 38 l-375 0 l0 248 l-55 -44 l-50 65 q50 35 104 81 q54 46 87 81 l58 -54 q-41 -43 -128 -116 l350 0 q-105 94 -129 114 l57 57 q18 -14 95 -81 q77 -67 91 -81 l-55 -65 q-11 12 -50 48 l0 -253 ZM606 220 l-211 0 l0 -102 l211 0 l0 102 Z" /><glyph glyph-name="uni554A" unicode="&#x554a;" d="M568 711 l-57 -234 q62 -120 62 -234 q0 -62 -9.5 -94.5 q-9.5 -32.5 -31 -45 q-21.5 -12.5 -60.5 -12.5 q-19 0 -37 3 l-15 80 q17 -3 34 -3 q21 0 30.5 5.5 q9.5 5.5 13.5 21 q4 15.5 4 50.5 q0 47 -16.5 103 q-16.5 56 -47.5 109 l58 253 l-83 0 l0 -788 l-75 0 l0 871 l230 0 l0 -85 ZM964 780 l0 -82 l-48 0 l0 -630 q0 -51 -11 -79.5 q-11 -28.5 -37 -41 q-26 -12.5 -74 -12.5 q-57 0 -100 5 l-15 81 q45 -8 106 -8 q33 0 43.5 14 q10.5 14 10.5 56 l0 615 l-237 0 l0 82 l362 0 ZM287 58 l-210 0 l0 695 l210 0 l0 -695 ZM213 666 l-62 0 l0 -521 l62 0 l0 521 ZM610 592 l182 0 l0 -432 l-182 0 l0 432 ZM672 244 l59 0 l0 263 l-59 0 l0 -263 Z" /><glyph glyph-name="uni5565" unicode="&#x5565;" d="M697 509 l0 -83 l235 0 l0 -81 l-235 0 l0 -83 l186 0 l0 -336 l-88 0 l0 49 l-285 0 l0 -48 l-89 0 l0 335 l184 0 l0 83 l-224 0 l0 81 l224 0 l0 83 l-124 0 l0 53 q-35 -27 -93 -65 l-38 83 q89 57 153 121 q64 64 110 144 l81 0 q47 -80 119 -147 q72 -67 159 -113 l-44 -85 q-53 28 -104 67 l0 -58 l-127 0 ZM655 748 q-53 -86 -141 -160 l284 0 q-88 73 -143 160 ZM332 45 l-255 0 l0 697 l255 0 l0 -697 ZM247 655 l-83 0 l0 -522 l83 0 l0 522 ZM510 54 l285 0 l0 127 l-285 0 l0 -127 Z" /><glyph glyph-name="uni5566" unicode="&#x5566;" d="M941 681 l0 -86 l-347 0 l0 86 l137 0 q-26 90 -45 139 l84 20 q21 -57 48 -159 l123 0 ZM575 362 q-36 -19 -74 -36 l0 -284 q0 -43 -11.5 -65.5 q-11.5 -22.5 -36.5 -31.5 q-25 -9 -71 -9 q-18 0 -58 4 l-17 86 q48 -6 72 -6 q23 0 31 10 q8 10 8 38 l0 220 q-24 -12 -74 -33 l-19 90 q18 7 93 38 l0 184 l-77 0 l0 87 l77 0 l0 185 l83 0 l0 -185 l68 0 l0 -87 l-68 0 l0 -146 q39 19 63 32 l11 -91 ZM304 78 l-227 0 l0 660 l227 0 l0 -660 ZM225 651 l-68 0 l0 -486 l68 0 l0 486 ZM958 50 l0 -84 l-416 0 l0 84 l195 0 q21 88 51 239 q30 151 48 252 l80 -18 q-17 -95 -47 -234.5 q-30 -139.5 -54 -238.5 l143 0 ZM667 121 q-11 74 -35 200 q-24 126 -40 198 l75 14 q18 -77 41 -197.5 q23 -120.5 35 -199.5 l-76 -15 Z" /><glyph glyph-name="uni5582" unicode="&#x5582;" d="M394 798 l496 0 l0 -380 l-496 0 l0 380 ZM316 9 l-243 0 l0 740 l243 0 l0 -740 ZM603 639 l0 84 l-124 0 l0 -84 l124 0 ZM683 639 l124 0 l0 84 l-124 0 l0 -84 ZM237 661 l-83 0 l0 -563 l83 0 l0 563 ZM603 569 l-124 0 l0 -78 l124 0 l0 78 ZM683 569 l0 -78 l124 0 l0 78 l-124 0 ZM774 105 q66 -52 182 -88 l-40 -78 q-97 36 -161.5 78.5 q-64.5 42.5 -109.5 102.5 q-45 60 -79 149 l-71 0 l0 -228 l72 30 q48 20 72 29 l4 -88 q-111 -40 -171 -68 q-23 -9 -53 -26 l-36 80 q16 11 22 23 q6 12 6 30 l0 218 l-62 0 l0 81 l598 0 l0 -81 l-295 0 q27 -64 66 -111 q72 46 146 103 l46 -63 q-56 -43 -136 -93 Z" /><glyph glyph-name="uni559D" unicode="&#x559d;" d="M926 400 q-4 -123 -8.5 -201 q-4.5 -78 -13.5 -154 q-6 -47 -17 -72 q-11 -25 -31 -34.5 q-20 -9.5 -53 -9.5 q-57 0 -96 5 l-15 73 q42 -7 77 -7 q27 0 38.5 13.5 q11.5 13.5 17.5 54.5 q11 89 18 258 l-139 0 q-10 -27 -21 -46 q59 -41 125 -94 l-46 -57 q-51 47 -114 94 q-45 -62 -107 -99 l-45 57 q47 27 78.5 61.5 q31.5 34.5 53.5 83.5 l-152 0 q-22 -25 -42 -44 l42 0 l0 -187 l289 0 l0 -71 l-368 0 l0 224 l-33 -26 l-35 52 l0 -217 l-248 0 l0 696 l248 0 l0 -450 q88 68 140 153 l-55 0 l0 343 l463 0 l0 -343 l-315 0 q-11 -23 -31 -56 l395 0 ZM789 660 l0 66 l-289 0 l0 -66 l289 0 ZM162 144 l87 0 l0 524 l-87 0 l0 -524 ZM500 594 l0 -67 l289 0 l0 67 l-289 0 Z" /><glyph glyph-name="uni55A7" unicode="&#x55a7;" d="M429 507 l0 41 l-60 0 l0 198 l242 0 q-16 44 -35 88 l90 19 q17 -49 33 -107 l232 0 l0 -198 l-68 0 l0 -41 l-434 0 ZM320 53 l-240 0 l0 678 l240 0 l0 -678 ZM849 584 l0 81 l-403 0 l0 -81 l403 0 ZM241 647 l-79 0 l0 -509 l79 0 l0 509 ZM872 104 l-462 0 l0 339 l462 0 l0 -339 ZM790 307 l0 61 l-299 0 l0 -61 l299 0 ZM491 239 l0 -62 l299 0 l0 62 l-299 0 ZM353 -38 l0 78 l595 0 l0 -78 l-595 0 Z" /></font>
</defs>
</svg>
